<svg viewBox="0 0 838 659" fill="none" xmlns="http://www.w3.org/2000/svg">
<g clip-path="url(#clip0)">
<path d="M253.615 253.877C249.131 248.067 242.794 242.692 242.393 235.523C242.025 228.947 246.928 222.419 244.86 216.128C243.27 211.292 238.025 208.373 232.9 206.828C223.087 203.911 212.586 204.316 203.027 207.978L203.546 207.612C197.711 205.534 190.891 207.679 186.301 211.653C181.71 215.627 178.982 221.135 176.865 226.655C174.748 232.175 173.108 237.896 170.167 243.071C167.225 248.246 162.721 252.952 156.779 254.741C158.768 258.709 164.987 260.07 168.634 257.336C169.566 256.579 170.403 255.713 171.129 254.757C173.561 251.799 175.993 248.841 178.426 245.884C180.929 250.335 177.19 256.479 180.266 260.6C181.853 262.725 184.75 263.533 187.441 264.111C208.473 268.599 230.291 267.79 250.933 261.756C252.592 261.268 254.422 260.594 255.11 259.093C255.905 257.359 254.794 255.405 253.615 253.877Z" fill="#2F2E41"/>
<path d="M313.25 276.549C313.118 277.127 313.033 277.714 312.994 278.305L267.024 304.824L255.85 298.392L243.939 313.986L262.613 327.296C264.121 328.371 265.938 328.928 267.79 328.883C269.642 328.838 271.43 328.193 272.884 327.045L320.287 289.649C322.426 290.441 324.756 290.563 326.966 289.998C329.176 289.434 331.162 288.21 332.66 286.489C334.157 284.769 335.095 282.633 335.349 280.366C335.604 278.099 335.161 275.808 334.082 273.799C333.003 271.789 331.337 270.156 329.306 269.116C327.276 268.076 324.977 267.679 322.716 267.978C320.454 268.277 318.337 269.257 316.646 270.788C314.955 272.319 313.771 274.329 313.25 276.549H313.25Z" fill="#FFB7B7"/>
<path d="M265.487 306.08L250.63 325.336C250.207 325.884 249.671 326.334 249.059 326.656C248.446 326.978 247.772 327.165 247.081 327.202C246.39 327.24 245.699 327.129 245.055 326.875C244.411 326.622 243.829 326.233 243.349 325.735L226.53 308.269C223.738 306.09 221.924 302.894 221.487 299.38C221.049 295.866 222.022 292.322 224.193 289.525C226.365 286.728 229.556 284.906 233.069 284.459C236.582 284.012 240.128 284.976 242.931 287.14L264.026 298.936C264.63 299.274 265.154 299.738 265.562 300.297C265.971 300.855 266.254 301.496 266.393 302.173C266.531 302.851 266.522 303.551 266.366 304.225C266.21 304.9 265.91 305.532 265.487 306.08H265.487Z" fill="#4A7CE2"/>
<path d="M245.04 641.589L258.159 641.588L264.4 590.984L245.037 590.985L245.04 641.589Z" fill="#FFB7B7"/>
<path d="M241.693 637.306L267.53 637.305H267.531C271.898 637.305 276.086 639.04 279.174 642.127C282.261 645.215 283.996 649.403 283.997 653.77V654.305L241.694 654.306L241.693 637.306Z" fill="#2F2E41"/>
<path d="M155.149 641.589L168.269 641.588L174.51 590.984L155.147 590.985L155.149 641.589Z" fill="#FFB7B7"/>
<path d="M151.803 637.306L177.64 637.305H177.641C182.008 637.305 186.195 639.04 189.283 642.128C192.371 645.215 194.106 649.403 194.106 653.77V654.305L151.803 654.306L151.803 637.306Z" fill="#2F2E41"/>
<path d="M237.161 246.723C238.527 234.275 229.544 223.077 217.097 221.711C204.649 220.344 193.451 229.327 192.084 241.775C190.718 254.222 199.701 265.421 212.149 266.787C224.596 268.153 235.794 259.17 237.161 246.723Z" fill="#FFB7B7"/>
<path d="M227.889 278.239L241.247 284.857C241.247 284.857 256.171 310.793 247.61 335.406C243.454 347.356 255.158 385.448 255.158 385.448C255.158 385.448 273.293 557.991 273.35 611.244C250.821 614.708 229.418 618.988 228.348 608.287C227.278 597.586 215.564 471.058 215.564 471.058C215.564 471.058 199.455 611.498 186.613 613.638C173.772 615.778 148.089 612.568 148.089 612.568C148.089 612.568 168.478 406.851 182.39 394.009L184.53 383.308L184.473 287.25L200.501 279.602L227.889 278.239Z" fill="#2F2E41"/>
<path d="M180.105 424.065C181.583 423.265 182.868 422.151 183.869 420.801C184.87 419.451 185.563 417.898 185.899 416.251C186.234 414.604 186.205 412.904 185.813 411.27C185.42 409.636 184.674 408.108 183.627 406.793L199.162 303.246L178.866 302.271L166.756 405.39C164.664 407.295 163.344 409.902 163.045 412.715C162.747 415.529 163.49 418.355 165.136 420.657C166.781 422.959 169.214 424.577 171.973 425.205C174.732 425.834 177.625 425.428 180.105 424.065Z" fill="#FFB7B7"/>
<path d="M198.721 329.191L174.448 327.658C173.757 327.615 173.084 327.423 172.474 327.096C171.865 326.769 171.333 326.314 170.914 325.762C170.496 325.211 170.202 324.576 170.051 323.901C169.901 323.225 169.897 322.525 170.042 321.848L175.099 298.134C175.342 294.602 176.976 291.309 179.642 288.98C182.309 286.65 185.79 285.472 189.323 285.706C192.857 285.939 196.153 287.564 198.49 290.225C200.826 292.885 202.013 296.364 201.789 299.898L203.823 323.981C203.881 324.671 203.79 325.365 203.555 326.016C203.321 326.667 202.949 327.26 202.465 327.754C201.981 328.249 201.395 328.633 200.749 328.881C200.103 329.129 199.411 329.235 198.721 329.191H198.721Z" fill="#4A7CE2"/>
<path d="M238.386 229.51C237.503 225.502 234.633 222.181 231.327 219.749C225.877 215.74 219.194 213.77 212.441 214.18C205.687 214.591 199.292 217.357 194.368 221.997C191.617 224.427 189.633 227.606 188.66 231.146C188.196 232.915 188.171 234.77 188.588 236.551C189.005 238.332 189.851 239.984 191.052 241.363L191.505 241.647C191.094 239.905 192.447 238.164 194.064 237.395C195.745 236.778 197.501 236.385 199.285 236.225C201.984 235.715 204.542 234.631 206.786 233.048C209.03 231.464 210.909 229.417 212.294 227.045C213.32 229.964 214.96 232.63 217.102 234.863C219.245 237.096 221.841 238.844 224.715 239.99C227.712 241.162 235.943 242.773 238.796 241.285C242.435 239.388 239.27 233.518 238.386 229.51Z" fill="#2F2E41"/>
<path d="M71.554 610.33C75.4772 611.709 79.6894 612.054 83.7848 611.333C87.8802 610.612 91.7209 608.848 94.9367 606.211C103.126 599.337 105.695 588.015 107.783 577.529L113.963 546.513L101.025 555.421C91.7208 561.827 82.2072 568.44 75.7653 577.719C69.3235 586.998 66.5131 599.666 71.6874 609.707" fill="#4A7CE2"/>
<path d="M73.5518 650.04C71.9234 638.177 70.248 626.159 71.3929 614.169C72.4076 603.519 75.6567 593.12 82.2713 584.589C85.7823 580.071 90.0545 576.199 94.8959 573.149C96.1581 572.352 97.32 574.352 96.0632 575.146C87.6861 580.44 81.2065 588.257 77.5588 597.471C73.5302 607.717 72.8833 618.887 73.5773 629.772C73.9967 636.354 74.888 642.893 75.7831 649.424C75.8538 649.72 75.8097 650.031 75.6597 650.295C75.5097 650.559 75.265 650.756 74.9751 650.847C74.6794 650.926 74.3642 650.886 74.0979 650.735C73.8316 650.584 73.6356 650.334 73.5526 650.039L73.5518 650.04Z" fill="#4A7CE2"/>
<path d="M85.2729 631.004C86.9553 633.562 89.268 635.643 91.9883 637.048C94.7087 638.452 97.7449 639.132 100.804 639.023C108.669 638.649 115.222 633.163 121.121 627.952L138.573 612.544L127.024 611.991C118.717 611.593 110.197 611.22 102.285 613.784C94.3741 616.348 87.0779 622.51 85.6315 630.7" fill="#4A7CE2"/>
<path d="M68.9488 656.86C76.7885 642.989 85.8811 627.572 102.13 622.645C106.647 621.28 111.384 620.79 116.085 621.204C117.567 621.332 117.197 623.616 115.718 623.488C107.838 622.834 99.9723 624.915 93.4464 629.381C87.1664 633.655 82.2766 639.598 78.1385 645.9C75.6034 649.76 73.3328 653.784 71.0621 657.803C70.3366 659.087 68.2148 658.16 68.9488 656.86Z" fill="#4A7CE2"/>
<path d="M598.711 400.413C583.999 380.726 557.074 375.974 543.695 385.972C530.315 395.97 527.242 423.138 541.953 442.825C555.57 461.048 580.241 466.018 593.829 459.191C593.785 459.404 593.783 459.623 593.821 459.838L594.587 463.625C594.646 463.914 594.777 464.183 594.969 464.407C595.16 464.63 595.406 464.801 595.682 464.903C595.959 465.006 596.256 465.035 596.547 464.99C596.838 464.945 597.113 464.826 597.345 464.644L603.833 459.576C604.065 459.395 604.247 459.157 604.361 458.886C604.476 458.614 604.519 458.318 604.487 458.025C604.454 457.732 604.348 457.453 604.177 457.213C604.006 456.972 603.777 456.78 603.511 456.653L600.021 454.994C599.899 454.939 599.77 454.898 599.637 454.873C610.112 443.8 612.357 418.675 598.711 400.413Z" fill="#4A7CE2"/>
<path d="M566.532 392.98C573.728 394.123 580.211 397.985 584.642 403.769C589.073 409.554 591.114 416.818 590.344 424.064C590.186 425.724 592.779 425.713 592.936 424.064C593.678 416.254 591.44 408.453 586.671 402.224C581.901 395.996 574.954 391.801 567.221 390.48C565.589 390.203 564.888 392.7 566.532 392.98Z" fill="white"/>
<path d="M623.407 60.105C636.269 39.1627 630.739 12.3865 616.507 3.64555C602.274 -5.09541 575.892 2.08266 563.03 23.025C551.125 42.4098 555.619 67.1718 566.982 77.278C566.768 77.3159 566.563 77.3945 566.378 77.5095L563.141 79.6203C562.895 79.7812 562.693 80.0025 562.556 80.2632C562.419 80.5239 562.35 80.8153 562.358 81.1098C562.365 81.4043 562.447 81.6921 562.597 81.9458C562.746 82.1995 562.958 82.4108 563.213 82.5595L570.319 86.7163C570.573 86.8651 570.861 86.9464 571.156 86.9525C571.45 86.9586 571.741 86.8893 572.001 86.7513C572.262 86.6132 572.482 86.4109 572.642 86.1636C572.802 85.9162 572.896 85.6321 572.916 85.3382L573.169 81.4822C573.175 81.3477 573.165 81.2129 573.14 81.0808C587.298 86.7245 611.476 79.5319 623.407 60.105Z" fill="#4A7CE2"/>
<path d="M617.712 27.4557C619.308 34.5653 618.113 42.0162 614.374 48.2704C610.635 54.5246 604.638 59.1046 597.62 61.0651C596.019 61.5312 596.987 63.9371 598.578 63.474C606.109 61.2789 612.532 56.3177 616.559 49.5852C620.586 42.8527 621.918 34.8467 620.29 27.1729C619.945 25.5541 617.365 25.8249 617.712 27.4557Z" fill="white"/>
<path d="M394.757 159.471C393.681 134.918 374.103 115.834 357.416 116.565C340.73 117.296 322.895 138.019 323.971 162.572C324.966 185.299 342.558 203.295 357.632 205.302C357.476 205.454 357.35 205.634 357.262 205.833L355.763 209.394C355.648 209.666 355.605 209.962 355.638 210.255C355.67 210.547 355.777 210.827 355.948 211.067C356.119 211.307 356.348 211.499 356.614 211.626C356.88 211.752 357.174 211.808 357.468 211.789L365.683 211.252C365.977 211.233 366.261 211.139 366.509 210.979C366.756 210.819 366.959 210.599 367.097 210.339C367.235 210.079 367.304 209.787 367.298 209.493C367.293 209.198 367.211 208.91 367.063 208.656L365.113 205.32C365.042 205.205 364.959 205.099 364.863 205.004C379.754 201.749 395.754 182.248 394.757 159.471Z" fill="#4A7CE2"/>
<path d="M372.346 135.213C377.65 140.209 380.833 147.05 381.239 154.325C381.645 161.601 379.242 168.754 374.527 174.309C373.461 175.592 375.611 177.043 376.669 175.768C381.679 169.731 384.221 162.024 383.786 154.191C383.35 146.358 379.97 138.979 374.322 133.535C373.13 132.387 371.144 134.056 372.346 135.213Z" fill="white"/>
<path d="M471.267 322.353C464.835 321.948 458.591 320.024 453.046 316.74C447.501 313.455 442.813 308.903 439.367 303.457C438.401 301.914 437.141 300.217 437.809 298.317C438.042 297.588 438.515 296.96 439.151 296.535C439.787 296.11 440.549 295.914 441.311 295.978C443.282 296.218 444.554 298.146 444.797 299.993C445.073 302.089 443.594 303.735 441.769 304.513C437.308 306.416 432.807 303.476 429.173 301.129C420.893 295.781 411.786 290.944 401.753 290.335C392.471 289.771 382.517 293.411 377.353 301.461C376.45 302.869 378.693 304.17 379.592 302.769C384.712 294.786 395.064 291.918 404.065 293.152C409.428 293.999 414.608 295.757 419.378 298.351C421.852 299.635 424.251 301.058 426.602 302.554C428.839 304.115 431.21 305.475 433.687 306.616C437.819 308.313 443.288 308.181 446.174 304.273C448.867 300.628 446.786 294.559 442.283 293.534C441.295 293.339 440.274 293.393 439.312 293.689C438.35 293.986 437.477 294.517 436.77 295.235C436.064 295.952 435.546 296.834 435.264 297.8C434.983 298.767 434.945 299.788 435.155 300.773C435.604 302.92 437.221 305.02 438.472 306.775C442.231 312.064 447.129 316.442 452.805 319.586C458.481 322.731 464.79 324.562 471.267 324.945C472.935 325.028 472.93 322.435 471.267 322.353L471.267 322.353Z" fill="#4A7CE2"/>
<path d="M720.217 143.755C727.314 140.454 736.028 139.372 743.249 142.44C750.47 145.507 755.393 153.371 753.058 160.33C752 163.486 749.589 166.589 750.528 169.775C751.251 172.228 753.773 173.848 756.251 174.999C758.728 176.151 761.437 177.119 763.229 179.061C765.02 181.003 765.394 184.346 763.156 185.852C762.419 186.348 761.497 186.583 760.782 187.106C760.173 187.601 759.733 188.274 759.525 189.031C759.316 189.788 759.348 190.591 759.618 191.329C760.214 192.812 761.199 194.108 762.469 195.079C765.009 197.27 768.367 199.778 767.578 202.888C767.285 203.719 766.797 204.467 766.153 205.069C765.509 205.671 764.73 206.109 763.881 206.346C762.118 206.854 760.289 207.096 758.454 207.062L683.488 209.424C681.013 209.61 678.525 209.471 676.086 209.01C674.901 208.794 673.773 208.336 672.773 207.664C671.773 206.992 670.922 206.121 670.273 205.105C668.838 202.448 669.78 199.175 671.553 196.693C673.326 194.212 675.835 192.255 677.908 189.976C679.982 187.698 681.678 184.854 681.312 181.909C681.02 179.551 679.465 177.514 678.349 175.372C677.233 173.23 676.585 170.554 678.03 168.583C680.067 165.807 684.957 166.058 687.273 163.47C689.021 161.518 688.683 158.707 688.857 156.189C689.275 150.133 693.468 144.413 699.437 141.757C702.473 140.454 705.774 139.891 709.07 140.116C712.365 140.34 715.56 141.345 718.391 143.047L720.217 143.755Z" fill="#2F2E41"/>
<path d="M811.513 443.477V455.737L764.225 461.57L764.226 443.475L811.513 443.477Z" fill="#9E616A"/>
<path d="M823.397 440.351L823.396 479.882H822.896C818.815 479.881 814.902 478.26 812.016 475.375C809.131 472.489 807.51 468.576 807.51 464.495V464.494L807.511 440.35L823.397 440.351Z" fill="#2F2E41"/>
<path d="M753.056 464.332L750.046 476.216L702.773 470.262L707.216 452.722L753.056 464.332Z" fill="#9E616A"/>
<path d="M765.344 464.218L755.639 502.539L755.154 502.417C751.198 501.415 747.803 498.882 745.714 495.377C743.625 491.871 743.014 487.68 744.016 483.724L744.016 483.723L749.943 460.318L765.344 464.218Z" fill="#2F2E41"/>
<path d="M740.983 326.846L743.536 329.506C743.536 329.506 760.198 342.571 747.871 376.986L727.706 435.076L795.294 437.712L793.846 464.256C793.846 464.256 695.829 469.708 696.686 453.555C697.543 437.401 701.16 377.59 701.16 377.59L680.796 361.236L685.706 333.576L740.983 326.846Z" fill="#2F2E41"/>
<path d="M688.626 353.208L680.796 361.236L654.543 433.401C654.543 433.401 650.543 451.401 659.543 455.401C668.543 459.401 726.453 481.776 726.453 481.776L732.366 460.494L687.746 433.712L708.543 406.401L711.673 363.356L688.626 353.208Z" fill="#2F2E41"/>
<path d="M689.043 225.901L755.679 212.577L757.127 249.136L739.866 285.926L743.536 329.506L683.816 339.94L685.686 282.636C685.686 282.636 669.648 260.011 679.096 237.206L689.043 225.901Z" fill="#F2A958"/>
<path d="M837.63 139.176C837.963 140.71 837.957 142.299 837.61 143.831C837.264 145.363 836.585 146.8 835.623 148.041C834.661 149.283 833.438 150.298 832.041 151.015C830.644 151.733 829.107 152.136 827.538 152.195L763.638 226.292L748.781 208.262L816.264 141.097C816.34 138.453 817.382 135.93 819.193 134.004C821.005 132.078 823.46 130.883 826.094 130.646C828.727 130.41 831.356 131.147 833.482 132.719C835.608 134.291 837.084 136.588 837.63 139.176V139.176Z" fill="#9E616A"/>
<path d="M778.25 217.21C778.265 217.902 778.13 218.589 777.856 219.225C777.581 219.86 777.172 220.428 776.658 220.891L758.69 237.066C756.435 239.796 753.189 241.52 749.664 241.861C746.139 242.202 742.623 241.131 739.887 238.883C737.15 236.636 735.417 233.395 735.066 229.871C734.715 226.347 735.776 222.828 738.015 220.085L750.557 199.326C750.915 198.733 751.396 198.225 751.969 197.835C752.541 197.446 753.19 197.184 753.873 197.068C754.555 196.952 755.254 196.985 755.923 197.163C756.592 197.342 757.214 197.663 757.748 198.104L776.502 213.599C777.036 214.04 777.469 214.591 777.77 215.214C778.072 215.837 778.235 216.518 778.25 217.21V217.21Z" fill="#F2A958"/>
<path d="M584.558 313.309C584.458 311.742 584.703 310.172 585.276 308.709C585.849 307.247 586.735 305.928 587.872 304.845C589.01 303.762 590.371 302.942 591.86 302.442C593.349 301.942 594.929 301.775 596.49 301.952L670.784 238.281L682.767 258.336L605.97 314.616C605.499 317.218 604.09 319.556 602.01 321.189C599.93 322.821 597.323 323.634 594.684 323.473C592.044 323.312 589.556 322.188 587.69 320.315C585.824 318.442 584.709 315.949 584.558 313.309V313.309Z" fill="#9E616A"/>
<path d="M654.041 244.103C654.129 243.417 654.365 242.758 654.732 242.171C655.099 241.584 655.589 241.083 656.167 240.702L676.358 227.407C678.998 225.046 682.466 223.828 686.002 224.02C689.538 224.212 692.854 225.798 695.222 228.431C697.591 231.064 698.818 234.528 698.636 238.065C698.454 241.602 696.877 244.922 694.251 247.298L678.736 265.94C678.293 266.472 677.741 266.903 677.117 267.202C676.493 267.501 675.811 267.663 675.119 267.675C674.427 267.687 673.741 267.55 673.106 267.273C672.472 266.996 671.905 266.586 671.443 266.07L655.226 247.935C654.765 247.42 654.42 246.81 654.215 246.149C654.01 245.488 653.951 244.79 654.041 244.103Z" fill="#F2A958"/>
<path d="M717.443 208.843C731.008 208.843 742.004 197.846 742.004 184.282C742.004 170.717 731.008 159.721 717.443 159.721C703.879 159.721 692.882 170.717 692.882 184.282C692.882 197.846 703.879 208.843 717.443 208.843Z" fill="#9E616A"/>
<path d="M742.57 180.79C734.814 180.167 728.374 172.419 729.18 164.679C729.271 167.869 728.186 170.981 726.132 173.424C724.078 175.866 721.198 177.468 718.039 177.925C714.481 178.317 710.581 177.241 707.484 179.035C704.054 181.023 702.956 185.851 699.383 187.568C695.93 189.227 691.545 186.965 689.839 183.535C688.134 180.105 688.552 175.985 689.683 172.325C691.295 167.106 694.23 162.392 698.204 158.643C702.177 154.895 707.053 152.238 712.357 150.932C717.661 149.626 723.213 149.714 728.473 151.19C733.733 152.665 738.521 155.476 742.372 159.35C745.634 162.63 748.223 166.811 748.643 171.418C749.063 176.025 746.926 181.023 742.789 183.093L742.57 180.79Z" fill="#2F2E41"/>
<path d="M382 655.901H1C0.734784 655.901 0.480444 655.796 0.292908 655.609C0.105371 655.421 0 655.167 0 654.901C0 654.636 0.105371 654.382 0.292908 654.194C0.480444 654.007 0.734784 653.901 1 653.901H382C382.265 653.901 382.52 654.007 382.707 654.194C382.895 654.382 383 654.636 383 654.901C383 655.167 382.895 655.421 382.707 655.609C382.52 655.796 382.265 655.901 382 655.901Z" fill="#4A7CE2"/>
</g>
<defs>
<clipPath id="clip0">
<rect width="837.865" height="658.418" fill="white"/>
</clipPath>
</defs>
</svg>
