<svg width="197" height="133" viewBox="0 0 197 133" fill="none" xmlns="http://www.w3.org/2000/svg">
<g clip-path="url(#clip0)">
<path d="M176.731 129.844C172.312 133.005 166.586 133.164 161.052 132.775C160.279 132.721 159.512 132.658 158.751 132.589C158.747 132.588 158.741 132.588 158.736 132.587C158.7 132.584 158.663 132.58 158.628 132.578C158.471 132.564 158.314 132.549 158.159 132.534L158.195 132.604L158.311 132.82C158.269 132.748 158.228 132.677 158.186 132.605C158.174 132.583 158.161 132.561 158.149 132.54C156.715 130.062 155.293 127.494 154.93 124.665C154.555 121.729 155.609 118.404 158.211 116.961C158.553 116.772 158.914 116.622 159.289 116.513C159.445 116.466 159.602 116.428 159.762 116.394C160.738 116.179 161.754 116.225 162.706 116.529C163.658 116.833 164.511 117.384 165.178 118.124C165.844 118.864 166.301 119.766 166.499 120.739C166.698 121.712 166.632 122.72 166.308 123.66C168.515 121.413 168.103 117.769 167.342 114.723C166.58 111.677 165.656 108.287 167.208 105.551C168.07 104.029 169.586 103.084 171.288 102.703C171.34 102.692 171.392 102.681 171.444 102.671C173.472 102.264 175.58 102.63 177.347 103.698C180.6 105.734 182.272 109.594 182.814 113.375C183.688 119.46 181.754 126.251 176.731 129.844Z" fill="#F2F2F2"/>
<path d="M175.304 120.09C175.176 121.433 174.851 122.749 174.34 123.998C173.869 125.103 173.235 126.133 172.457 127.052C170.841 128.93 168.794 130.395 166.489 131.325C164.745 132.034 162.919 132.521 161.052 132.775C160.279 132.721 159.512 132.658 158.751 132.589C158.747 132.588 158.741 132.588 158.736 132.587C158.7 132.584 158.663 132.58 158.628 132.578C158.471 132.564 158.314 132.549 158.159 132.534L158.195 132.604L158.311 132.82C158.269 132.748 158.228 132.677 158.186 132.605C158.174 132.583 158.161 132.561 158.148 132.54C159.548 131.155 160.593 129.458 161.196 127.59C161.798 125.722 161.941 123.737 161.613 121.803C161.269 119.882 160.473 118.07 159.289 116.513C159.445 116.466 159.602 116.428 159.762 116.394C160.212 117.004 160.606 117.653 160.941 118.333C162.142 120.757 162.525 123.5 162.034 126.156C161.577 128.56 160.439 130.785 158.753 132.569C158.901 132.559 159.05 132.547 159.196 132.534C161.958 132.302 164.715 131.712 167.221 130.504C169.363 129.496 171.223 127.981 172.636 126.092C174.153 124.014 174.822 121.514 174.937 118.974C175.026 116.237 174.737 113.5 174.078 110.841C173.44 108.129 172.47 105.505 171.189 103.027C171.161 102.971 171.155 102.906 171.173 102.846C171.192 102.785 171.233 102.734 171.288 102.703C171.334 102.673 171.39 102.661 171.444 102.671C171.471 102.678 171.496 102.691 171.517 102.709C171.537 102.727 171.554 102.749 171.565 102.774C171.723 103.08 171.878 103.386 172.027 103.696C173.269 106.276 174.183 108.999 174.749 111.802C175.298 114.507 175.591 117.336 175.304 120.09Z" fill="white"/>
<path d="M8.2191 42.2736C8.08756 42.2734 7.9572 42.249 7.83467 42.2015C7.63652 42.1259 7.46622 41.9922 7.34639 41.8183C7.22655 41.6443 7.16286 41.4383 7.16376 41.2275V30.3105C7.16335 29.941 7.01533 29.5867 6.75218 29.3254C6.48903 29.0641 6.13225 28.9172 5.7601 28.9167H3.50863C2.57841 28.9157 1.68658 28.5483 1.02881 27.8952C0.371036 27.2421 0.00104255 26.3565 0 25.4329V3.48383C0.00104317 2.56018 0.371036 1.67465 1.02881 1.02153C1.68658 0.368414 2.57841 0.00103518 3.50863 0H82.9242C83.8544 0.00103641 84.7463 0.368414 85.404 1.02153C86.0618 1.67465 86.4318 2.56018 86.4328 3.48383V25.4329C86.4318 26.3565 86.0618 27.2421 85.404 27.8952C84.7463 28.5483 83.8544 28.9157 82.9242 28.9167H21.6267C21.4321 28.9169 21.2397 28.9572 21.0616 29.035C20.8835 29.1128 20.7236 29.2264 20.5919 29.3687L8.99212 41.9337C8.89417 42.0406 8.77483 42.1261 8.64172 42.1846C8.50861 42.2431 8.36467 42.2734 8.2191 42.2736ZM3.50863 0.464223C2.70236 0.465127 1.92937 0.783555 1.35925 1.34965C0.789132 1.91574 0.468439 2.68326 0.467528 3.48383V25.4329C0.468439 26.2335 0.789133 27.001 1.35925 27.5671C1.92937 28.1332 2.70236 28.4516 3.50863 28.4525H5.76009C6.2562 28.4531 6.73183 28.649 7.08263 28.9973C7.43343 29.3456 7.63074 29.8179 7.63129 30.3105V41.2275C7.6313 41.3445 7.66691 41.4588 7.73345 41.5554C7.8 41.652 7.89437 41.7264 8.00422 41.7688C8.11406 41.8112 8.23425 41.8197 8.34904 41.7931C8.46383 41.7666 8.56785 41.7062 8.6475 41.62L20.2473 29.055C20.4228 28.8653 20.636 28.7139 20.8734 28.6102C21.1108 28.5065 21.3673 28.4528 21.6267 28.4525H82.9242C83.7305 28.4516 84.5035 28.1332 85.0736 27.5671C85.6437 27.001 85.9644 26.2335 85.9653 25.4329V3.48383C85.9644 2.68326 85.6437 1.91574 85.0736 1.34965C84.5035 0.783555 83.7305 0.465128 82.9242 0.464223H3.50863Z" fill="#CCCCCC"/>
<path d="M8.60632 9.88567C10.3019 9.88567 11.6765 8.52082 11.6765 6.83718C11.6765 5.15355 10.3019 3.7887 8.60632 3.7887C6.9107 3.7887 5.53613 5.15355 5.53613 6.83718C5.53613 8.52082 6.9107 9.88567 8.60632 9.88567Z" fill="#CCCCCC"/>
<path d="M79.3423 23.7055H7.09056C6.87537 23.7057 6.66223 23.6638 6.46335 23.5823C6.26446 23.5007 6.08372 23.3809 5.93146 23.2299C5.7792 23.0789 5.65841 22.8996 5.576 22.7022C5.49359 22.5049 5.45117 22.2933 5.45117 22.0796C5.45117 21.8659 5.49359 21.6543 5.576 21.457C5.65841 21.2596 5.7792 21.0803 5.93146 20.9293C6.08372 20.7783 6.26446 20.6585 6.46335 20.5769C6.66223 20.4953 6.87537 20.4535 7.09056 20.4537H79.3423C79.5575 20.4535 79.7707 20.4953 79.9696 20.5769C80.1684 20.6585 80.3492 20.7783 80.5014 20.9293C80.6537 21.0803 80.7745 21.2596 80.8569 21.457C80.9393 21.6543 80.9817 21.8659 80.9817 22.0796C80.9817 22.2933 80.9393 22.5049 80.8569 22.7022C80.7745 22.8996 80.6537 23.0789 80.5014 23.2299C80.3492 23.3809 80.1684 23.5007 79.9696 23.5823C79.7707 23.6638 79.5575 23.7057 79.3423 23.7055Z" fill="#CCCCCC"/>
<path d="M55.8042 16.7955H7.09056C6.87537 16.7958 6.66223 16.7539 6.46335 16.6723C6.26446 16.5907 6.08372 16.471 5.93146 16.32C5.7792 16.169 5.65841 15.9897 5.576 15.7923C5.49359 15.5949 5.45117 15.3834 5.45117 15.1697C5.45117 14.956 5.49359 14.7444 5.576 14.547C5.65841 14.3497 5.7792 14.1703 5.93146 14.0193C6.08372 13.8683 6.26446 13.7486 6.46335 13.667C6.66223 13.5854 6.87537 13.5436 7.09056 13.5438H55.8042C56.0194 13.5436 56.2326 13.5854 56.4314 13.667C56.6303 13.7486 56.8111 13.8683 56.9633 14.0193C57.1156 14.1703 57.2364 14.3497 57.3188 14.547C57.4012 14.7444 57.4436 14.956 57.4436 15.1697C57.4436 15.3834 57.4012 15.5949 57.3188 15.7923C57.2364 15.9897 57.1156 16.169 56.9633 16.32C56.8111 16.471 56.6303 16.5907 56.4314 16.6723C56.2326 16.7539 56.0194 16.7958 55.8042 16.7955Z" fill="#CCCCCC"/>
<path d="M8.2191 119.705C8.08756 119.705 7.9572 119.681 7.83467 119.633C7.63653 119.558 7.46623 119.424 7.3464 119.25C7.22657 119.076 7.16288 118.87 7.16376 118.659V107.742C7.16335 107.373 7.01533 107.018 6.75218 106.757C6.48903 106.496 6.13225 106.349 5.7601 106.348H3.50863C2.57841 106.347 1.68658 105.98 1.02881 105.327C0.37104 104.674 0.00104503 103.788 0 102.865V80.9155C0.00104317 79.9918 0.371037 79.1063 1.02881 78.4532C1.68658 77.8001 2.57841 77.4327 3.50863 77.4316H82.9242C83.8544 77.4327 84.7463 77.8001 85.404 78.4532C86.0618 79.1063 86.4318 79.9918 86.4328 80.9155V102.865C86.4318 103.788 86.0618 104.674 85.404 105.327C84.7463 105.98 83.8544 106.347 82.9242 106.348H21.6267C21.4321 106.349 21.2397 106.389 21.0616 106.467C20.8835 106.544 20.7236 106.658 20.5919 106.8L8.99212 119.365C8.89417 119.472 8.77483 119.558 8.64172 119.616C8.50861 119.675 8.36467 119.705 8.2191 119.705ZM3.50863 77.8958C2.70236 77.8968 1.92937 78.2152 1.35925 78.7813C0.789132 79.3474 0.468438 80.1149 0.467528 80.9155V102.865C0.468439 103.665 0.789133 104.433 1.35925 104.999C1.92937 105.565 2.70236 105.883 3.50863 105.884H5.76009C6.2562 105.885 6.73183 106.081 7.08263 106.429C7.43343 106.777 7.63074 107.25 7.63129 107.742V118.659C7.6313 118.776 7.66691 118.89 7.73345 118.987C7.8 119.084 7.89437 119.158 8.00422 119.2C8.11406 119.243 8.23425 119.251 8.34904 119.225C8.46383 119.198 8.56785 119.138 8.6475 119.052L20.2473 106.487C20.4228 106.297 20.636 106.146 20.8734 106.042C21.1108 105.938 21.3673 105.884 21.6267 105.884H82.9242C83.7305 105.883 84.5035 105.565 85.0736 104.999C85.6437 104.433 85.9644 103.665 85.9653 102.865V80.9155C85.9644 80.1149 85.6437 79.3474 85.0736 78.7813C84.5035 78.2152 83.7305 77.8968 82.9242 77.8959L3.50863 77.8958Z" fill="#CCCCCC"/>
<path d="M125.495 79.4652C125.349 79.4651 125.205 79.4348 125.072 79.3763C124.939 79.3177 124.82 79.2323 124.722 79.1253L113.122 66.5604C112.99 66.4181 112.831 66.3045 112.652 66.2267C112.474 66.1489 112.282 66.1086 112.087 66.1084H50.7899C49.8597 66.1073 48.9678 65.74 48.3101 65.0868C47.6523 64.4337 47.2823 63.5482 47.2812 62.6245V40.6755C47.2823 39.7518 47.6523 38.8663 48.3101 38.2132C48.9678 37.5601 49.8597 37.1927 50.7899 37.1917H130.205C131.136 37.1927 132.028 37.5601 132.685 38.2132C133.343 38.8663 133.713 39.7518 133.714 40.6755V62.6245C133.713 63.5482 133.343 64.4337 132.685 65.0868C132.028 65.74 131.136 66.1073 130.205 66.1084H127.954C127.582 66.1088 127.225 66.2558 126.962 66.5171C126.699 66.7784 126.551 67.1327 126.55 67.5022V78.4191C126.551 78.6299 126.488 78.8359 126.368 79.0099C126.248 79.1839 126.078 79.3175 125.879 79.393C125.757 79.4406 125.627 79.4651 125.495 79.4652ZM50.7899 37.6559C49.9836 37.6568 49.2106 37.9752 48.6405 38.5413C48.0704 39.1074 47.7497 39.8749 47.7488 40.6755V62.6245C47.7497 63.4251 48.0704 64.1926 48.6405 64.7587C49.2106 65.3248 49.9836 65.6432 50.7899 65.6441H112.087C112.347 65.6444 112.603 65.6981 112.841 65.8018C113.078 65.9055 113.291 66.057 113.467 66.2466L125.067 78.8116C125.146 78.8979 125.25 78.9582 125.365 78.9848C125.48 79.0113 125.6 79.0029 125.71 78.9604C125.82 78.918 125.914 78.8436 125.981 78.747C126.047 78.6505 126.083 78.5362 126.083 78.4191V67.5022C126.083 67.0096 126.281 66.5373 126.631 66.189C126.982 65.8406 127.458 65.6447 127.954 65.6442H130.205C131.012 65.6433 131.785 65.3248 132.355 64.7587C132.925 64.1926 133.246 63.4251 133.247 62.6245V40.6755C133.246 39.8749 132.925 39.1074 132.355 38.5413C131.785 37.9752 131.012 37.6568 130.205 37.6559L50.7899 37.6559Z" fill="#3F3D56"/>
<path d="M8.60632 87.3172C10.3019 87.3172 11.6765 85.9523 11.6765 84.2687C11.6765 82.5851 10.3019 81.2202 8.60632 81.2202C6.9107 81.2202 5.53613 82.5851 5.53613 84.2687C5.53613 85.9523 6.9107 87.3172 8.60632 87.3172Z" fill="#CCCCCC"/>
<path d="M79.3423 101.137H7.09056C6.87537 101.137 6.66223 101.095 6.46335 101.014C6.26446 100.932 6.08372 100.812 5.93146 100.661C5.7792 100.51 5.65841 100.331 5.576 100.134C5.49359 99.9364 5.45117 99.7248 5.45117 99.5111C5.45117 99.2974 5.49359 99.0859 5.576 98.8885C5.65841 98.6911 5.7792 98.5118 5.93146 98.3608C6.08372 98.2098 6.26446 98.0901 6.46335 98.0085C6.66223 97.9269 6.87537 97.885 7.09056 97.8853H79.3423C79.7766 97.8853 80.1931 98.0566 80.5002 98.3615C80.8073 98.6664 80.9798 99.0799 80.9798 99.5111C80.9798 99.9423 80.8073 100.356 80.5002 100.661C80.1931 100.966 79.7766 101.137 79.3423 101.137Z" fill="#CCCCCC"/>
<path d="M55.8042 94.2272H7.09056C6.87537 94.2274 6.66223 94.1856 6.46335 94.104C6.26446 94.0224 6.08372 93.9027 5.93146 93.7517C5.7792 93.6007 5.65841 93.4214 5.576 93.224C5.49359 93.0266 5.45117 92.815 5.45117 92.6013C5.45117 92.3877 5.49359 92.1761 5.576 91.9787C5.65841 91.7813 5.7792 91.602 5.93146 91.451C6.08372 91.3 6.26446 91.1803 6.46335 91.0987C6.66223 91.0171 6.87537 90.9752 7.09056 90.9755H55.8042C56.0194 90.9752 56.2326 91.0171 56.4314 91.0987C56.6303 91.1803 56.8111 91.3 56.9633 91.451C57.1156 91.602 57.2364 91.7813 57.3188 91.9787C57.4012 92.1761 57.4436 92.3877 57.4436 92.6013C57.4436 92.815 57.4012 93.0266 57.3188 93.224C57.2364 93.4214 57.1156 93.6007 56.9633 93.7517C56.8111 93.9027 56.6303 94.0224 56.4314 94.104C56.2326 94.1856 56.0194 94.2274 55.8042 94.2272Z" fill="#CCCCCC"/>
<path d="M55.8876 46.874C57.5832 46.874 58.9578 45.5091 58.9578 43.8255C58.9578 42.1418 57.5832 40.777 55.8876 40.777C54.1919 40.777 52.8174 42.1418 52.8174 43.8255C52.8174 45.5091 54.1919 46.874 55.8876 46.874Z" fill="#3F3D56"/>
<path d="M126.624 60.6937H54.3718C53.9375 60.6937 53.521 60.5224 53.214 60.2175C52.9069 59.9126 52.7344 59.4991 52.7344 59.0679C52.7344 58.6367 52.9069 58.2231 53.214 57.9182C53.521 57.6133 53.9375 57.442 54.3718 57.442H126.624C127.058 57.442 127.474 57.6133 127.781 57.9182C128.089 58.2231 128.261 58.6367 128.261 59.0679C128.261 59.4991 128.089 59.9126 127.781 60.2175C127.474 60.5224 127.058 60.6937 126.624 60.6937Z" fill="#4A7CE2"/>
<path d="M103.085 53.7838H54.3718C54.1566 53.7841 53.9435 53.7422 53.7446 53.6606C53.5457 53.579 53.365 53.4593 53.2127 53.3083C53.0604 53.1573 52.9397 52.978 52.8573 52.7806C52.7748 52.5832 52.7324 52.3716 52.7324 52.158C52.7324 51.9443 52.7748 51.7327 52.8573 51.5353C52.9397 51.3379 53.0604 51.1586 53.2127 51.0076C53.365 50.8566 53.5457 50.7369 53.7446 50.6553C53.9435 50.5737 54.1566 50.5319 54.3718 50.5321H103.085C103.301 50.5319 103.514 50.5737 103.713 50.6553C103.912 50.7369 104.092 50.8566 104.245 51.0076C104.397 51.1586 104.518 51.3379 104.6 51.5353C104.682 51.7327 104.725 51.9443 104.725 52.158C104.725 52.3716 104.682 52.5832 104.6 52.7806C104.518 52.978 104.397 53.1573 104.245 53.3083C104.092 53.4593 103.912 53.579 103.713 53.6606C103.514 53.7422 103.301 53.7841 103.085 53.7838Z" fill="#4A7CE2"/>
<path d="M126.592 83.6434C126.662 83.3094 126.805 82.9947 127.011 82.7215C127.217 82.4483 127.481 82.2232 127.784 82.0622C128.087 81.9011 128.422 81.808 128.765 81.7894C129.108 81.7707 129.451 81.827 129.77 81.9543L135.254 75.6974L136.419 79.8496L131.032 85.1546C130.782 85.6723 130.348 86.0807 129.814 86.3024C129.281 86.524 128.683 86.5436 128.136 86.3573C127.589 86.171 127.129 85.7919 126.845 85.2917C126.56 84.7915 126.47 84.205 126.592 83.6434Z" fill="#FFB8B8"/>
<path d="M156.69 54.282C159.861 54.282 162.431 51.7297 162.431 48.5811C162.431 45.4326 159.861 42.8802 156.69 42.8802C153.519 42.8802 150.948 45.4326 150.948 48.5811C150.948 51.7297 153.519 54.282 156.69 54.282Z" fill="#FFB8B8"/>
<path d="M149.945 127.052L147.079 127.051L145.716 116.075L149.946 116.076L149.945 127.052Z" fill="#FFB8B8"/>
<path d="M150.675 129.81L141.435 129.81V129.694C141.435 129.225 141.528 128.76 141.708 128.327C141.889 127.894 142.154 127.5 142.488 127.168C142.822 126.837 143.219 126.574 143.655 126.394C144.091 126.215 144.559 126.122 145.031 126.122H145.032L150.676 126.123L150.675 129.81Z" fill="#2F2E41"/>
<path d="M158.594 130.069L155.728 130.069L155.331 119.355L158.594 119.093L158.594 130.069Z" fill="#FFB8B8"/>
<path d="M159.325 132.828L150.084 132.827V132.711C150.084 132.242 150.177 131.778 150.358 131.345C150.539 130.911 150.803 130.517 151.137 130.186C151.471 129.854 151.868 129.591 152.304 129.412C152.741 129.232 153.208 129.14 153.681 129.14H153.681L159.325 129.14L159.325 132.828Z" fill="#2F2E41"/>
<path d="M157.779 128.066L155.547 127.805C155.294 127.775 155.061 127.655 154.89 127.467C154.719 127.279 154.623 127.036 154.619 126.783L154.2 97.9224C154.199 97.8407 154.169 97.7621 154.115 97.7002C154.062 97.6384 153.988 97.5972 153.907 97.584C153.825 97.5707 153.742 97.5863 153.671 97.6278C153.6 97.6694 153.547 97.7343 153.519 97.8113L150.423 106.492L150.644 122.764C150.648 123.032 150.547 123.292 150.363 123.489C150.179 123.685 149.926 123.804 149.656 123.82L146.742 123.943C146.476 123.958 146.213 123.873 146.008 123.704C145.802 123.535 145.668 123.295 145.633 123.032L144.111 104.626L144.11 104.614L146.419 85.3906L163.761 86.6364L158.947 127.151C158.916 127.405 158.793 127.639 158.601 127.809C158.409 127.979 158.16 128.073 157.903 128.073C157.861 128.073 157.82 128.071 157.779 128.066Z" fill="#2F2E41"/>
<path d="M146.493 87.0947C146.337 87.0122 146.205 86.8919 146.109 86.7451C146.013 86.5982 145.955 86.4296 145.942 86.2549C145.942 86.2549 147.502 76.6259 148.073 76.4452L146.823 66.148C146.673 64.892 146.778 63.6191 147.13 62.4038C147.483 61.1885 148.076 60.0553 148.876 59.0708C149.645 58.1157 150.602 57.3255 151.688 56.7477C152.774 56.17 153.967 55.8167 155.195 55.7093C155.369 55.6936 155.543 55.6817 155.716 55.6735C157.195 55.5948 158.672 55.872 160.021 56.4815C161.369 57.0909 162.55 58.0147 163.461 59.1742C164.407 60.3436 165.055 61.7227 165.349 63.1939C165.642 64.6652 165.574 66.1851 165.149 67.6245L164.448 70.0476V86.9816C164.447 87.1469 164.407 87.3097 164.332 87.4569C164.256 87.6042 164.147 87.7318 164.013 87.8296C161.829 89.4208 159.361 89.9834 156.963 89.9834C152.426 89.9834 148.137 87.9687 146.493 87.0947Z" fill="#4A7CE2"/>
<path d="M133.031 83.9959L130.015 81.7564C129.896 81.6686 129.798 81.557 129.726 81.4289C129.654 81.3008 129.61 81.1591 129.597 81.013C129.584 80.8669 129.602 80.7197 129.65 80.5809C129.698 80.4422 129.775 80.315 129.875 80.2077L147.843 61.0645C148.42 60.4553 149.197 60.0717 150.035 59.9833C150.872 59.8949 151.714 60.1076 152.406 60.5827L152.407 60.5828C152.829 60.875 153.181 61.2561 153.438 61.6988C153.695 62.1416 153.85 62.6351 153.893 63.1443C153.936 63.6536 153.866 64.1659 153.686 64.6449C153.507 65.124 153.224 65.5579 152.857 65.9158L134.398 83.9049C134.235 84.0645 134.025 84.1669 133.799 84.1966C133.572 84.2263 133.342 84.1816 133.144 84.0694C133.105 84.0472 133.067 84.0227 133.031 83.9959Z" fill="#4A7CE2"/>
<path d="M156.114 81.4613C156.246 81.1462 156.446 80.8636 156.7 80.6335C156.954 80.4033 157.255 80.2312 157.583 80.1293C157.911 80.0273 158.257 79.998 158.598 80.0434C158.939 80.0888 159.265 80.2078 159.554 80.392L166.12 75.2638L166.482 79.559L160.192 83.7703C159.848 84.2324 159.345 84.5531 158.779 84.6717C158.213 84.7904 157.623 84.6987 157.12 84.4141C156.618 84.1294 156.238 83.6717 156.052 83.1274C155.867 82.5832 155.889 81.9904 156.114 81.4613Z" fill="#FFB8B8"/>
<path d="M161.991 83.4633C161.818 83.4097 161.661 83.3118 161.537 83.1796C161.413 83.0473 161.326 82.8851 161.285 82.7091L160.622 79.9433C160.573 79.747 160.584 79.5407 160.652 79.3504C160.721 79.16 160.844 78.9939 161.007 78.8727L165.47 74.0809L158.906 64.0314C158.409 63.424 158.129 62.6703 158.109 61.888C158.09 61.1058 158.332 60.3392 158.798 59.7081C159.169 59.2052 159.668 58.8088 160.243 58.5589C160.819 58.309 161.45 58.2145 162.074 58.285C162.698 58.3556 163.292 58.5886 163.796 58.9606C164.3 59.3325 164.697 59.8302 164.945 60.4031L171.047 72.1968C171.653 73.3685 171.805 74.7209 171.472 75.9963C171.139 77.2716 170.345 78.3808 169.242 79.1125L163.006 83.2488C162.815 83.4185 162.568 83.5124 162.311 83.5127C162.203 83.5125 162.095 83.4959 161.991 83.4633Z" fill="#4A7CE2"/>
<path d="M160.944 53.6776C160.809 53.7582 160.657 53.8068 160.499 53.8197C160.342 53.8326 160.184 53.8093 160.037 53.7517C159.891 53.6942 159.759 53.6039 159.653 53.4878C159.547 53.3717 159.47 53.2329 159.426 53.0822L159.423 53.068C159.306 52.5937 159.398 52.0972 159.428 51.6098C159.458 51.1224 159.408 50.5874 159.071 50.2309C158.445 49.5664 157.338 49.9263 156.437 49.7623C155.908 49.6481 155.44 49.3467 155.119 48.9145C154.799 48.4823 154.648 47.9488 154.694 47.414C154.707 47.3126 154.726 47.2111 154.748 47.1097C154.803 46.8527 154.797 46.5865 154.731 46.332C154.665 46.0776 154.541 45.8418 154.367 45.6433C154.194 45.4447 153.977 45.2887 153.733 45.1875C153.488 45.0863 153.224 45.0427 152.96 45.0602C152.05 45.1167 151.068 45.3958 150.311 44.7302C150.034 44.4676 149.84 44.1296 149.755 43.7585C149.67 43.3873 149.696 42.9994 149.832 42.6432C150.255 41.4082 151.467 40.7564 152.668 40.3952C154.154 39.9605 155.718 39.8599 157.248 40.1008C158.777 40.3416 160.233 40.9179 161.511 41.7877C162.273 42.3155 162.986 42.9799 163.315 43.8434C163.643 44.7069 163.493 45.7993 162.766 46.3743C163.335 46.9664 163.738 47.6966 163.933 48.4918C164.129 49.2871 164.11 50.1193 163.88 50.9053C163.525 52.0612 161.81 53.1768 160.944 53.6776Z" fill="#2F2E41"/>
<path d="M197 132.768C197 132.829 196.976 132.888 196.932 132.932C196.888 132.975 196.829 133 196.767 133H107.703C107.641 133 107.581 132.976 107.537 132.932C107.493 132.888 107.469 132.829 107.469 132.768C107.469 132.706 107.493 132.647 107.537 132.604C107.581 132.56 107.641 132.536 107.703 132.536H196.767C196.829 132.536 196.888 132.56 196.932 132.604C196.976 132.647 197 132.706 197 132.768Z" fill="#3F3D56"/>
</g>
<defs>
<clipPath id="clip0">
<rect width="197" height="133" fill="white"/>
</clipPath>
</defs>
</svg>
