<svg viewBox="0 0 116 65" fill="none" xmlns="http://www.w3.org/2000/svg">
<path d="M50.8488 48.4928C46.8792 50.921 45.6433 56.1075 48.0862 60.0903C50.5464 64.1021 55.7334 65.3591 59.7042 62.9298L62.3121 60.4564L92.8446 31.1597L53.1751 47.529L50.8488 48.4928Z" fill="#4A7CE2"/>
<path d="M101.467 20.227C99.0668 20.366 97.0705 21.9416 96.2974 24.1195C86.9042 13.3109 73.0798 6.47589 57.6976 6.47589C29.4373 6.47589 6.4506 29.5528 6.4506 57.9239C6.4506 59.708 5.00816 61.1561 3.21953 61.1561C1.44244 61.1561 0 59.708 0 57.9239C0 25.9847 25.8832 0 57.6976 0C75.1916 0 90.8853 7.85448 101.467 20.227Z" fill="#4A7CE2"/>
<path d="M115.395 57.924C115.395 59.708 113.953 61.1561 112.164 61.1561C110.387 61.1561 108.945 59.708 108.945 57.924C108.945 48.4708 106.394 39.62 101.952 32.0088C104.375 31.9741 106.429 30.468 107.283 28.3364C112.43 37.0018 115.395 47.1154 115.395 57.924Z" fill="#4A7CE2"/>
<path d="M101.835 29.9931C103.97 29.9931 105.702 28.2551 105.702 26.1111C105.702 23.9671 103.97 22.229 101.835 22.229C99.699 22.229 97.9678 23.9671 97.9678 26.1111C97.9678 28.2551 99.699 29.9931 101.835 29.9931Z" fill="#4A7CE2"/>
</svg>
