<svg viewBox="0 0 66 66" fill="none" xmlns="http://www.w3.org/2000/svg">
<path d="M60.8129 63.6526H4.5382C4.30507 63.6526 4.08149 63.56 3.91664 63.3952C3.75179 63.2303 3.65918 63.0067 3.65918 62.7736V11.2447C3.65918 11.0116 3.75179 10.788 3.91664 10.6232C4.08149 10.4583 4.30507 10.3657 4.5382 10.3657C4.77133 10.3657 4.99491 10.4583 5.15976 10.6232C5.3246 10.788 5.41721 11.0116 5.41721 11.2447V61.8946H60.8129C61.046 61.8946 61.2696 61.9872 61.4344 62.152C61.5993 62.3169 61.6919 62.5405 61.6919 62.7736C61.6919 63.0067 61.5993 63.2303 61.4344 63.3952C61.2696 63.56 61.046 63.6526 60.8129 63.6526Z" fill="white"/>
<path d="M18.0255 58.6924H10.6417C10.4086 58.6924 10.185 58.5998 10.0202 58.4349C9.85531 58.2701 9.7627 58.0465 9.7627 57.8134V18.1381C9.7627 17.9049 9.85531 17.6813 10.0202 17.5165C10.185 17.3516 10.4086 17.259 10.6417 17.259H18.0255C18.2586 17.259 18.4822 17.3516 18.647 17.5165C18.8119 17.6813 18.9045 17.9049 18.9045 18.1381V57.8134C18.9045 58.0465 18.8119 58.2701 18.647 58.4349C18.4822 58.5998 18.2586 58.6924 18.0255 58.6924ZM11.5207 56.9343H17.1464V19.0171H11.5207V56.9343Z" fill="white"/>
<path d="M30.5928 58.6923H23.2091C22.976 58.6923 22.7524 58.5997 22.5875 58.4348C22.4227 58.27 22.3301 58.0464 22.3301 57.8133V24.139C22.3301 23.9059 22.4227 23.6823 22.5875 23.5175C22.7524 23.3526 22.976 23.26 23.2091 23.26H30.5928C30.826 23.26 31.0495 23.3526 31.2144 23.5175C31.3792 23.6823 31.4719 23.9059 31.4719 24.139V57.8133C31.4719 58.0464 31.3792 58.27 31.2144 58.4348C31.0495 58.5997 30.826 58.6923 30.5928 58.6923ZM24.0881 56.9343H29.7138V25.018H24.0881V56.9343Z" fill="white"/>
<path d="M43.1612 58.6923H35.7775C35.5443 58.6923 35.3207 58.5997 35.1559 58.4349C34.991 58.27 34.8984 58.0464 34.8984 57.8133V32.2717C34.8984 32.0386 34.991 31.815 35.1559 31.6502C35.3207 31.4853 35.5443 31.3927 35.7775 31.3927H43.1612C43.3943 31.3927 43.6179 31.4853 43.7828 31.6502C43.9476 31.815 44.0402 32.0386 44.0402 32.2717V57.8133C44.0402 58.0464 43.9476 58.27 43.7828 58.4349C43.6179 58.5997 43.3943 58.6923 43.1612 58.6923ZM36.6565 56.9343H42.2822V33.1507H36.6565V56.9343Z" fill="white"/>
<path d="M55.7286 58.6923H48.3448C48.1117 58.6923 47.8881 58.5997 47.7233 58.4348C47.5584 58.27 47.4658 58.0464 47.4658 57.8133V39.8382C47.4658 39.6051 47.5584 39.3815 47.7233 39.2167C47.8881 39.0518 48.1117 38.9592 48.3448 38.9592H55.7286C55.9617 38.9592 56.1853 39.0518 56.3501 39.2167C56.515 39.3815 56.6076 39.6051 56.6076 39.8382V57.8133C56.6076 58.0464 56.515 58.27 56.3501 58.4348C56.1853 58.5997 55.9617 58.6923 55.7286 58.6923ZM49.2239 56.9343H54.8496V40.7173H49.2239V56.9343Z" fill="white"/>
<path d="M48.3553 28.6835C45.7285 28.6835 43.1608 27.9046 40.9767 26.4452C38.7927 24.9859 37.0904 22.9117 36.0852 20.4849C35.08 18.0581 34.817 15.3877 35.3294 12.8114C35.8419 10.2351 37.1068 7.86867 38.9642 6.01128C40.8216 4.15389 43.188 2.88899 45.7643 2.37654C48.3406 1.86408 51.0109 2.12709 53.4377 3.1323C55.8645 4.13752 57.9388 5.83979 59.3981 8.02385C60.8574 10.2079 61.6364 12.7757 61.6364 15.4024C61.6324 18.9236 60.2319 22.2993 57.7421 24.7892C55.2522 27.279 51.8764 28.6795 48.3553 28.6835ZM48.3553 3.87938C46.0763 3.87938 43.8484 4.55519 41.9534 5.82136C40.0585 7.08753 38.5816 8.88718 37.7094 10.9927C36.8372 13.0983 36.6091 15.4152 37.0537 17.6504C37.4983 19.8857 38.5958 21.9389 40.2073 23.5504C41.8188 25.162 43.872 26.2594 46.1073 26.704C48.3425 27.1487 50.6594 26.9205 52.765 26.0483C54.8705 25.1762 56.6702 23.6992 57.9363 21.8043C59.2025 19.9093 59.8783 17.6815 59.8783 15.4024C59.8748 12.3474 58.6597 9.41848 56.4995 7.25825C54.3392 5.09802 51.4103 3.88287 48.3553 3.87938Z" fill="white"/>
<path d="M48.3544 16.2814C48.1814 16.2812 48.0123 16.23 47.8683 16.1342C47.7243 16.0383 47.6117 15.9021 47.5448 15.7426L42.7471 4.30306C42.698 4.19595 42.6708 4.08005 42.6674 3.96225C42.6639 3.84445 42.6842 3.72715 42.7269 3.61734C42.7697 3.50752 42.8341 3.40743 42.9164 3.32301C42.9986 3.23859 43.097 3.17158 43.2056 3.12594C43.3143 3.08031 43.431 3.05699 43.5489 3.05738C43.6667 3.05776 43.7833 3.08184 43.8917 3.12819C44 3.17453 44.098 3.24219 44.1796 3.32715C44.2613 3.4121 44.3251 3.51261 44.3671 3.62271L48.8712 14.3625L60.1508 11.4679C60.2626 11.4391 60.379 11.4325 60.4933 11.4486C60.6076 11.4648 60.7177 11.5032 60.8171 11.5619C60.9166 11.6205 61.0035 11.6982 61.073 11.7904C61.1424 11.8827 61.193 11.9877 61.2219 12.0995C61.2507 12.2113 61.2573 12.3277 61.2411 12.442C61.225 12.5564 61.1865 12.6664 61.1279 12.7658C61.0692 12.8653 60.9916 12.9522 60.8993 13.0217C60.8071 13.0911 60.7021 13.1417 60.5903 13.1706L48.5732 16.2542C48.5017 16.2723 48.4282 16.2815 48.3544 16.2814Z" fill="white"/>
<path d="M59.04 22.5709C58.8835 22.5708 58.7299 22.5286 58.5953 22.4487L47.9099 16.1585C47.7131 16.0382 47.5714 15.8454 47.5155 15.6216C47.4596 15.3978 47.4938 15.161 47.6109 14.9623C47.728 14.7635 47.9185 14.6188 48.1413 14.5592C48.3642 14.4997 48.6015 14.5301 48.8021 14.6439L59.4857 20.9324C59.6521 21.0303 59.7816 21.1801 59.8543 21.3589C59.9271 21.5376 59.9389 21.7353 59.8882 21.9215C59.8374 22.1077 59.7267 22.272 59.5733 22.389C59.4198 22.5061 59.2321 22.5694 59.0392 22.5692L59.04 22.5709Z" fill="white"/>
</svg>
