<svg viewBox="0 0 217 160" fill="none" xmlns="http://www.w3.org/2000/svg">
<g clip-path="url(#clip0)">
<path opacity="0.1" d="M14.2023 62.7117H33.0623V88.3619H15.5813C15.5367 88.627 15.4921 88.8903 15.4419 89.1555H33.0623V109.838C33.0326 109.838 33.0029 109.816 32.975 109.805C32.4794 109.608 31.9838 109.4 31.4882 109.18C31.3822 109.132 31.2782 109.082 31.1704 109.035C30.6748 108.802 30.1792 108.554 29.6836 108.293C29.5107 108.203 29.3379 108.108 29.1688 108.012C26.4174 106.48 23.9167 104.538 21.7534 102.252C21.6883 102.191 21.6289 102.124 21.5675 102.067C21.2664 101.74 20.9709 101.41 20.6847 101.073C20.5769 100.949 20.4729 100.823 20.3669 100.702C20.0287 100.29 19.7016 99.864 19.3856 99.4356C19.3373 99.3707 19.2927 99.3077 19.2463 99.2502C17.952 97.4633 16.8787 95.527 16.0496 93.4834C16.0236 93.4222 15.9995 93.3554 15.9753 93.298C15.7188 92.649 15.4865 91.9907 15.2858 91.3195C15.2003 91.0395 15.1167 90.7632 15.0461 90.472C15.02 90.3886 14.9996 90.3033 14.9773 90.2199C13.9328 86.1126 13.812 81.8441 13.812 77.5959C13.812 77.1015 13.812 76.607 13.812 76.1125C13.8269 74.3782 13.8473 72.6456 13.8733 70.915C13.8833 70.47 13.8925 70.0231 13.9012 69.5743C13.9272 68.4383 13.9644 67.2998 14.0127 66.1588C14.0239 65.8435 14.0387 65.5265 14.0555 65.2131C14.0629 65.0314 14.0722 64.8496 14.0834 64.6679C14.1168 64.0115 14.1565 63.3594 14.2023 62.7117Z" fill="#4A7CE2"/>
<path opacity="0.1" d="M33.0626 34.152H22.7163C24.3989 31.5273 26.2365 29.0047 28.2193 26.5977C29.7582 24.7138 31.3788 22.878 33.0626 21.1091V34.152Z" fill="#4A7CE2"/>
<path opacity="0.1" d="M33.0623 34.942V61.918H14.2617C14.2617 61.8402 14.2729 61.7604 14.2803 61.6825C14.297 61.4693 14.3138 61.2579 14.3323 61.0447C14.3509 60.7962 14.3751 60.5477 14.3992 60.303C14.4234 60.0582 14.4476 59.7615 14.4773 59.4926C14.507 59.2238 14.5312 58.9512 14.5609 58.6823C14.5907 58.4135 14.6204 58.1446 14.6539 57.8776C14.6873 57.6106 14.717 57.3398 14.7542 57.0728C14.7821 56.8522 14.81 56.6296 14.8416 56.4071C14.8843 56.0938 14.9289 55.7804 14.9754 55.4689C14.9754 55.4207 14.9902 55.3743 14.9977 55.3279C15.3373 53.0477 15.7989 50.7872 16.3804 48.5561C16.9911 46.2161 17.7706 43.9231 18.7128 41.6953C19.7141 39.361 20.8869 37.1038 22.2217 34.942H33.0623Z" fill="#4A7CE2"/>
<path opacity="0.1" d="M37.5674 62.7116V88.3618H77.8522V62.7116H37.5674ZM37.5674 89.1555V111.184C37.7978 111.231 38.0246 111.277 38.2532 111.316C38.5598 111.375 38.8683 111.429 39.1824 111.475L39.3683 111.501C39.4909 111.522 39.6154 111.538 39.74 111.553C40.0503 111.598 40.3607 111.631 40.6692 111.661C40.8142 111.676 40.9647 111.687 41.1115 111.7L41.4702 111.726C41.6654 111.741 41.8587 111.752 42.0519 111.759C42.1709 111.759 42.2898 111.768 42.4106 111.772C42.5314 111.776 42.5965 111.772 42.6931 111.772H43.0444C43.2042 111.772 43.364 111.772 43.522 111.772H43.7264C43.8863 111.772 44.0461 111.772 44.2041 111.757H44.2134C44.3249 111.757 44.4345 111.757 44.546 111.744C44.5776 111.746 44.6093 111.746 44.6408 111.744C44.7337 111.744 44.8267 111.744 44.9159 111.733C44.9369 111.731 44.958 111.731 44.9791 111.733C45.1854 111.72 45.3935 111.703 45.6035 111.685C45.8135 111.666 46.0124 111.644 46.2224 111.622L46.6443 111.57C48.3682 111.329 50.073 110.967 51.7459 110.487C55.5056 109.441 59.1798 107.978 62.9377 106.908C67.7921 105.527 73.1595 104.846 77.8503 106.528V89.1555H37.5674ZM77.8522 34.152V0.00367501C73.4422 -0.0447349 69.044 0.469355 64.7646 1.53345C54.5633 4.0905 45.4028 9.63665 37.5674 16.72V34.1502H39.595V34.942H37.5674V61.918H77.8522V34.942H47.8895V34.1483L77.8522 34.152ZM129.608 22.6166C127.084 22.5276 124.575 21.7321 122.304 20.499C117.966 18.1459 114.498 14.5078 110.625 11.4409C102.578 5.04916 92.5975 1.19041 82.359 0.233605V34.152H139.863L140.006 34.0018L129.608 22.6166ZM134.847 21.6894L140.402 27.7733V20.0892C138.532 20.3247 136.904 20.8717 134.847 21.682V21.6894ZM140.402 116.654V89.1555H128.556C128.526 89.0386 128.493 88.92 128.455 88.8013C128.491 88.92 128.522 89.0386 128.554 89.1555H82.359V109.041C82.7976 109.365 83.2307 109.708 83.66 110.053C84.1234 110.431 84.5836 110.814 85.0408 111.201L85.5017 111.581C85.7229 111.767 85.9478 111.952 86.1708 112.128C86.6181 112.488 87.0685 112.844 87.5219 113.196C87.7487 113.374 87.9766 113.549 88.2059 113.721C91.8359 116.489 95.6648 118.987 99.6616 121.196C100.557 121.694 101.463 122.175 102.373 122.644C102.979 122.955 103.589 123.261 104.204 123.56C105.126 124.008 106.055 124.441 106.992 124.858C115.627 128.725 124.759 131.379 134.126 132.742C136.205 133.047 138.293 133.288 140.391 133.465V116.651H140.576L140.402 116.654ZM82.359 34.942V61.918H140.402V34.942H82.359ZM82.359 62.7079V88.3618H140.402V62.7116L82.359 62.7079ZM144.907 20.0521V28.6374L151.995 20.8736C149.646 20.4866 147.283 20.2128 144.907 20.0521ZM144.907 62.7116V88.3618H201.359V62.7116H144.907ZM201.16 118.689L201.359 89.1555H144.907V133.764C148.543 133.915 152.185 133.871 155.816 133.632H155.879C157.614 133.521 159.34 133.363 161.059 133.157H161.098C170.269 132.092 179.236 129.703 187.717 126.063L201.16 118.689ZM212.249 66.9245C212.035 66.4301 211.815 65.9356 211.59 65.4411C211.17 64.514 210.727 63.6128 210.27 62.7135H205.865V88.3618H217C216.99 81.0968 215.147 73.6797 212.249 66.9245ZM205.865 89.1555V114.559C209.001 111.561 211.653 108.128 213.56 104.205C215.855 99.4782 216.905 94.3641 216.992 89.1536L205.865 89.1555ZM205.865 55.237V61.9124H209.858C208.647 59.6177 207.315 57.3894 205.865 55.237ZM167.58 25.0865C167.287 24.9734 166.991 24.8603 166.696 24.7527C163.58 23.6038 160.396 22.6489 157.162 21.8934L146.312 33.7719L146.1 34L146.239 34.1502H184.855C179.477 30.4576 173.678 27.4151 167.58 25.0865ZM185.989 34.942H145.698L144.907 35.6633V61.918H151.848H201.359V49.1976C196.882 43.796 191.714 39.0033 185.989 34.942Z" fill="#4A7CE2"/>
<path opacity="0.1" d="M33.0623 48.5505V61.918H14.2617C14.2617 61.8401 14.2729 61.7604 14.2803 61.6825C14.297 61.4693 14.3138 61.2579 14.3323 61.0446C14.3509 60.7962 14.3751 60.5477 14.3992 60.3029C14.4234 60.0582 14.4476 59.7615 14.4773 59.4926C14.507 59.2238 14.5312 58.9512 14.5609 58.6823C14.5907 58.4134 14.6204 58.1446 14.6539 57.8775C14.6873 57.6105 14.717 57.3398 14.7542 57.0728C14.7821 56.8521 14.81 56.6296 14.8416 56.4071C14.8843 56.0937 14.9289 55.7804 14.9754 55.4688C14.9754 55.4206 14.9902 55.3743 14.9977 55.3279C15.3373 53.0477 15.7989 50.7872 16.3804 48.5561L33.0623 48.5505Z" fill="#4A7CE2"/>
<path opacity="0.1" d="M14.2023 62.7117H33.0623V88.3619H15.5813C15.5367 88.627 15.4921 88.8903 15.4419 89.1555H33.0623V109.838C33.0326 109.838 33.0029 109.816 32.975 109.805C32.4794 109.608 31.9838 109.4 31.4882 109.18C31.3822 109.132 31.2782 109.082 31.1704 109.035C30.6748 108.802 30.1792 108.554 29.6836 108.293C29.5107 108.203 29.3379 108.108 29.1688 108.012C26.4174 106.48 23.9167 104.538 21.7534 102.252C21.6883 102.191 21.6289 102.124 21.5675 102.067C21.2664 101.74 20.9709 101.41 20.6847 101.073C20.5769 100.949 20.4729 100.823 20.3669 100.702C20.0287 100.29 19.7016 99.864 19.3856 99.4356C19.3373 99.3707 19.2927 99.3077 19.2463 99.2502C17.952 97.4633 16.8787 95.527 16.0496 93.4834C16.0236 93.4222 15.9995 93.3554 15.9753 93.298C15.7188 92.649 15.4865 91.9907 15.2858 91.3195C15.2003 91.0395 15.1167 90.7632 15.0461 90.472C15.02 90.3886 14.9996 90.3033 14.9773 90.2199C13.9328 86.1126 13.812 81.8441 13.812 77.5959C13.812 77.1015 13.812 76.607 13.812 76.1125C13.8269 74.3782 13.8473 72.6456 13.8733 70.915C13.8833 70.47 13.8925 70.0231 13.9012 69.5743C13.9272 68.4383 13.9644 67.2998 14.0127 66.1588C14.0239 65.8435 14.0387 65.5265 14.0555 65.2131C14.0629 65.0314 14.0722 64.8496 14.0834 64.6679C14.1168 64.0115 14.1565 63.3594 14.2023 62.7117Z" fill="#4A7CE2"/>
<path opacity="0.1" d="M51.7481 38.8063V61.918H37.5659V38.8063H39.588V30.9813H47.888V38.8063H51.7481Z" fill="#4A7CE2"/>
<path opacity="0.1" d="M51.7462 62.7098H37.5659V88.36H51.7462V62.7098Z" fill="#4A7CE2"/>
<path opacity="0.1" d="M37.5674 89.1555H51.7477V110.48C50.075 110.96 48.3702 111.321 46.6461 111.561C46.5049 111.581 46.3655 111.598 46.2243 111.613C46.0161 111.637 45.8098 111.659 45.6035 111.678L44.9809 111.728H44.9177L44.6427 111.742H44.5479C44.4364 111.742 44.3267 111.755 44.2152 111.757H44.2059C44.0461 111.757 43.8881 111.768 43.7283 111.772H43.5239C43.3659 111.772 43.2079 111.772 43.0462 111.772H42.6968H42.4125C42.2917 111.772 42.1727 111.772 42.0519 111.757C41.8611 111.75 41.6679 111.739 41.4721 111.724L41.1134 111.698C40.9647 111.687 40.816 111.672 40.6692 111.657C40.357 111.63 40.0472 111.595 39.74 111.551L39.3683 111.5L39.1824 111.474C38.872 111.427 38.5635 111.375 38.2532 111.316C38.0227 111.275 37.796 111.229 37.5674 111.181V89.1555Z" fill="#4A7CE2"/>
<path opacity="0.1" d="M140.4 36.0768H128.707V61.9162H140.4V36.0768Z" fill="#4A7CE2"/>
<path opacity="0.1" d="M140.403 62.7098V88.3619H82.3599V77.2974H113.276V83.8244H128.707V62.7098H140.403Z" fill="#4A7CE2"/>
<path opacity="0.1" d="M140.587 116.66C140.525 116.66 140.464 116.66 140.401 116.649V133.476C138.306 133.305 136.218 133.064 134.138 132.755C124.768 131.392 115.632 128.74 106.992 124.874C104.498 123.752 102.055 122.529 99.6625 121.205C95.6669 118.995 91.8387 116.497 88.2086 113.73C87.2942 113.033 86.3934 112.32 85.5063 111.592C84.8911 111.084 84.2816 110.565 83.6608 110.062C83.2334 109.716 82.8003 109.373 82.3599 109.046V89.1555H128.555C128.521 89.0368 128.492 88.92 128.458 88.8013C128.493 88.92 128.527 89.0368 128.557 89.1555H140.403V116.647C140.464 116.649 140.525 116.654 140.587 116.66Z" fill="#4A7CE2"/>
<path opacity="0.1" d="M170.9 34.1521H163.28V31.7897H166.694V24.7527C166.99 24.8615 167.285 24.9728 167.579 25.0865V31.7897H170.898L170.9 34.1521Z" fill="#4A7CE2"/>
<path opacity="0.1" d="M189.26 61.918H151.848C151.852 61.9189 151.856 61.9189 151.859 61.918H151.843H144.907V36.0787H146.873V55.1777H155.857V43.8667H163.282V34.942H170.902V43.8722H178.323V55.1833H189.262L189.26 61.918Z" fill="#4A7CE2"/>
<path opacity="0.1" d="M144.907 62.7117V88.3619H189.262V62.7117H144.907ZM201.295 118.553L201.359 98.2489H189.262V89.1629H144.907V133.764C148.543 133.915 152.185 133.871 155.816 133.632H155.879C157.614 133.521 159.34 133.363 161.059 133.158H161.098C170.269 132.092 179.236 129.703 187.717 126.063" fill="#4A7CE2"/>
<path opacity="0.1" d="M206.646 89.1555H216.993C216.903 94.3642 215.855 99.4801 213.56 104.205C211.653 108.13 209.001 111.563 205.866 114.561V98.2433H206.646V89.1555Z" fill="#4A7CE2"/>
<path opacity="0.1" d="M217 88.3618H206.646V66.9246H212.249C215.147 73.6797 216.99 81.0968 217 88.3618Z" fill="#4A7CE2"/>
<path opacity="0.1" d="M140.402 43.2603H134.137V51.3616H140.402V43.2603Z" fill="#4A7CE2"/>
<path opacity="0.1" d="M140.402 60.0526H134.137V61.918H140.402V60.0526Z" fill="#4A7CE2"/>
<path opacity="0.1" d="M140.402 62.7098H134.137V68.1521H140.402V62.7098Z" fill="#4A7CE2"/>
<path opacity="0.1" d="M140.402 76.845H134.137V84.9463H140.402V76.845Z" fill="#4A7CE2"/>
<path opacity="0.1" d="M140.402 93.6373H134.137V101.739H140.402V93.6373Z" fill="#4A7CE2"/>
<path opacity="0.1" d="M140.402 116.647C140.463 116.647 140.524 116.647 140.588 116.66C140.526 116.66 140.465 116.66 140.402 116.649V118.531H134.137V110.43H140.402V116.647Z" fill="#4A7CE2"/>
<path opacity="0.1" d="M140.402 127.22V133.476C138.305 133.305 136.217 133.064 134.137 132.755V127.22H140.402Z" fill="#4A7CE2"/>
<path opacity="0.1" d="M109.21 87.7667H82.3599V88.3619H109.21V87.7667Z" fill="#4A7CE2"/>
<path opacity="0.1" d="M109.21 89.1536H82.3599V91.4344H109.21V89.1536Z" fill="#4A7CE2"/>
<path opacity="0.1" d="M109.21 98.9108H82.3599V102.579H109.21V98.9108Z" fill="#4A7CE2"/>
<path opacity="0.1" d="M109.209 110.055V113.723H88.2084C87.294 113.028 86.3933 112.315 85.5061 111.583C84.8891 111.077 84.2795 110.558 83.6606 110.055H109.209Z" fill="#4A7CE2"/>
<path opacity="0.1" d="M109.209 121.197V124.874H106.992C104.497 123.752 102.054 122.529 99.6616 121.205L109.209 121.197Z" fill="#4A7CE2"/>
<path opacity="0.1" d="M161.102 65.1964H155.816V70.47H161.102V65.1964Z" fill="#4A7CE2"/>
<path opacity="0.1" d="M46.6591 40.6254H41.3735V45.8989H46.6591V40.6254Z" fill="#4A7CE2"/>
<path opacity="0.1" d="M46.6591 52.8747H41.3735V58.1483H46.6591V52.8747Z" fill="#4A7CE2"/>
<path opacity="0.1" d="M46.6591 65.1241H41.3735V70.3977H46.6591V65.1241Z" fill="#4A7CE2"/>
<path opacity="0.1" d="M46.6591 77.3716H41.3735V82.6451H46.6591V77.3716Z" fill="#4A7CE2"/>
<path opacity="0.1" d="M46.6591 89.6209H41.3735V94.8945H46.6591V89.6209Z" fill="#4A7CE2"/>
<path opacity="0.1" d="M46.6591 101.87H41.3735V107.144H46.6591V101.87Z" fill="#4A7CE2"/>
<path opacity="0.1" d="M181.28 65.1964H175.994V70.47H181.28V65.1964Z" fill="#4A7CE2"/>
<path opacity="0.1" d="M161.102 78.2041H155.816V83.4777H161.102V78.2041Z" fill="#4A7CE2"/>
<path opacity="0.1" d="M181.28 78.2041H175.994V83.4777H181.28V78.2041Z" fill="#4A7CE2"/>
<path opacity="0.1" d="M161.102 91.2101H155.816V96.4836H161.102V91.2101Z" fill="#4A7CE2"/>
<path opacity="0.1" d="M181.28 91.2101H175.994V96.4836H181.28V91.2101Z" fill="#4A7CE2"/>
<path opacity="0.1" d="M161.102 104.218H155.816V109.491H161.102V104.218Z" fill="#4A7CE2"/>
<path opacity="0.1" d="M181.28 104.218H175.994V109.491H181.28V104.218Z" fill="#4A7CE2"/>
<path opacity="0.1" d="M161.102 117.226H155.816V122.499H161.102V117.226Z" fill="#4A7CE2"/>
<path opacity="0.1" d="M181.28 117.226H175.994V122.499H181.28V117.226Z" fill="#4A7CE2"/>
<path opacity="0.1" d="M155.816 133.632V130.231H161.1V133.148L155.816 133.632Z" fill="#4A7CE2"/>
<path opacity="0.1" d="M14.9756 55.3223V58.3392H33.0625V55.3223H14.9756ZM16.7765 58.1501H15.2897V55.5133H16.7765V58.1501ZM18.5774 58.1501H17.0906V55.5133H18.5774V58.1501ZM20.3745 58.1501H18.8877V55.5133H20.3745V58.1501ZM22.1754 58.1501H20.6886V55.5133H22.1754V58.1501ZM23.9744 58.1501H22.4876V55.5133H23.9744V58.1501ZM25.7753 58.1501H24.2885V55.5133H25.7753V58.1501ZM27.5762 58.1501H26.0894V55.5133H27.5762V58.1501ZM29.3752 58.1501H27.8884V55.5133H29.3752V58.1501ZM31.1742 58.1501H29.6875V55.5133H31.1742V58.1501ZM32.9751 58.1501H31.4883V55.5133H32.9751V58.1501Z" fill="#4A7CE2"/>
<path opacity="0.1" d="M14.9756 64.1042V67.1211H33.0625V64.1042H14.9756ZM16.7765 66.932H15.2897V64.2952H16.7765V66.932ZM18.5774 66.932H17.0906V64.2952H18.5774V66.932ZM20.3745 66.932H18.8877V64.2952H20.3745V66.932ZM22.1754 66.932H20.6886V64.2952H22.1754V66.932ZM23.9744 66.932H22.4876V64.2952H23.9744V66.932ZM25.7753 66.932H24.2885V64.2952H25.7753V66.932ZM27.5762 66.932H26.0894V64.2952H27.5762V66.932ZM29.3752 66.932H27.8884V64.2952H29.3752V66.932ZM31.1742 66.932H29.6875V64.2952H31.1742V66.932ZM32.9751 66.932H31.4883V64.2952H32.9751V66.932Z" fill="#4A7CE2"/>
<path opacity="0.1" d="M14.9756 72.8879V75.903H33.0625V72.8879H14.9756ZM16.7765 75.712H15.2897V73.0752H16.7765V75.712ZM18.5774 75.712H17.0906V73.0752H18.5774V75.712ZM20.3745 75.712H18.8877V73.0752H20.3745V75.712ZM22.1754 75.712H20.6886V73.0752H22.1754V75.712ZM23.9744 75.712H22.4876V73.0752H23.9744V75.712ZM25.7753 75.712H24.2885V73.0752H25.7753V75.712ZM27.5762 75.712H26.0894V73.0752H27.5762V75.712ZM29.3752 75.712H27.8884V73.0752H29.3752V75.712ZM31.1742 75.712H29.6875V73.0752H31.1742V75.712ZM32.9751 75.712H31.4883V73.0752H32.9751V75.712Z" fill="#4A7CE2"/>
<path opacity="0.1" d="M14.9756 81.6698V84.6849H33.0625V81.6698H14.9756ZM16.7765 84.4957H15.2897V81.8552H16.7765V84.4957ZM18.5774 84.4957H17.0906V81.8552H18.5774V84.4957ZM20.3745 84.4957H18.8877V81.8552H20.3745V84.4957ZM22.1754 84.4957H20.6886V81.8552H22.1754V84.4957ZM23.9744 84.4957H22.4876V81.8552H23.9744V84.4957ZM25.7753 84.4957H24.2885V81.8552H25.7753V84.4957ZM27.5762 84.4957H26.0894V81.8552H27.5762V84.4957ZM29.3752 84.4957H27.8884V81.8552H29.3752V84.4957ZM31.1742 84.4957H29.6875V81.8552H31.1742V84.4957ZM32.9751 84.4957H31.4883V81.8552H32.9751V84.4957Z" fill="#4A7CE2"/>
<path opacity="0.1" d="M15.063 90.4479C15.1336 90.7335 15.2172 91.0153 15.3027 91.2953V90.6389H16.7895V93.2738H15.9922C16.0145 93.3369 16.0387 93.4018 16.0647 93.4593H33.07V90.4479H15.063ZM18.5941 93.2738H17.1073V90.6389H18.5941V93.2738ZM20.3913 93.2738H18.9045V90.6389H20.3913V93.2738ZM22.1922 93.2738H20.7054V90.6389H22.1922V93.2738ZM23.9912 93.2738H22.5044V90.6389H23.9912V93.2738ZM25.7921 93.2738H24.3053V90.6389H25.7921V93.2738ZM27.593 93.2738H26.1062V90.6389H27.593V93.2738ZM29.392 93.2738H27.9052V90.6389H29.392V93.2738ZM31.191 93.2738H29.7042V90.6389H31.191V93.2738ZM32.9919 93.2738H31.5051V90.6389H32.9919V93.2738Z" fill="#4A7CE2"/>
<path opacity="0.1" d="M19.252 99.2298C19.3003 99.2891 19.3449 99.3559 19.3913 99.4152H20.3745V100.682L20.6923 101.053V99.4078H22.1791V102.067H21.5676C21.6271 102.128 21.6847 102.193 21.7535 102.252H33.0587V99.2298H19.252ZM23.9837 102.067H22.4969V99.4189H23.9837V102.067ZM25.7846 102.067H24.2978V99.4189H25.7846V102.067ZM27.5855 102.067H26.0987V99.4189H27.5855V102.067ZM29.3845 102.067H27.8977V99.4189H29.3845V102.067ZM31.1835 102.067H29.6967V99.4189H31.1835V102.067ZM32.9844 102.067H31.4976V99.4189H32.9844V102.067Z" fill="#4A7CE2"/>
<path opacity="0.1" d="M29.1753 108.012C29.3463 108.108 29.5191 108.197 29.692 108.292V108.199H31.1788V109.035C31.2866 109.082 31.3888 109.132 31.4947 109.18V108.199H32.9815V109.805C33.0098 109.817 33.039 109.828 33.0689 109.836V108.012H29.1753Z" fill="#4A7CE2"/>
<path opacity="0.1" d="M140.4 116.647H140.586H140.4ZM128.456 88.8013C128.491 88.92 128.522 89.0387 128.554 89.1555C128.526 89.0387 128.493 88.92 128.456 88.8013ZM39.5952 34.1521V34.942H47.8971V34.1484L39.5952 34.1521ZM140.402 116.647H140.588H140.402ZM128.456 88.8013C128.491 88.92 128.522 89.0387 128.554 89.1555C128.526 89.0387 128.493 88.92 128.456 88.8013ZM140.4 116.647H140.586H140.4ZM128.456 88.8013C128.491 88.92 128.522 89.0387 128.554 89.1555C128.526 89.0387 128.493 88.92 128.456 88.8013Z" fill="#4A7CE2"/>
<path opacity="0.1" d="M163.442 160C173.443 160 181.551 158.701 181.551 157.098C181.551 155.495 173.443 154.196 163.442 154.196C153.44 154.196 145.333 155.495 145.333 157.098C145.333 158.701 153.44 160 163.442 160Z" fill="#4A7CE2"/>
<path opacity="0.1" d="M81.7684 157.098C91.7698 157.098 99.8776 155.799 99.8776 154.196C99.8776 152.593 91.7698 151.294 81.7684 151.294C71.7669 151.294 63.6592 152.593 63.6592 154.196C63.6592 155.799 71.7669 157.098 81.7684 157.098Z" fill="#4A7CE2"/>
<path d="M102.617 77.4625C102.613 77.444 102.603 77.4273 102.589 77.4142C102.312 77.1417 98.7812 72.1592 98.7812 72.1592C98.7812 72.1592 98.5953 71.6029 98.2942 70.8798C98.3907 70.7551 98.4632 70.6136 98.5079 70.4626C98.5242 70.3985 98.536 70.3335 98.5433 70.2679C98.5433 70.2475 98.5581 70.2308 98.5637 70.2104C98.6282 69.9589 98.6218 69.6945 98.5451 69.4464C98.5245 69.5101 98.499 69.572 98.4689 69.6318C98.399 69.4158 98.3055 69.2081 98.1902 69.0125C97.7218 68.2078 97.0527 67.5291 96.5602 66.7447C95.8145 65.5261 95.5181 64.086 95.7221 62.6727C95.7221 62.7451 95.7221 62.8192 95.7221 62.8915C95.7407 62.6112 95.7779 62.3325 95.8336 62.0571C95.9112 61.7437 96.0151 61.4373 96.1439 61.1411C96.5863 60.1305 97.3018 59.2497 97.7367 58.2355C97.8826 57.8933 97.9934 57.5374 98.0675 57.173C98.2207 56.5644 98.2766 55.9354 98.2329 55.3094C98.2329 55.4577 98.2087 55.6061 98.1864 55.7526C98.1394 54.2475 97.5302 52.8143 96.4785 51.7344C94.9601 50.212 92.7801 49.6205 90.6948 49.309C89.8186 49.207 88.9817 48.8883 88.2602 48.3818C87.4592 47.8645 86.424 47.7402 85.4873 47.8534C84.4107 47.9695 83.4104 48.4629 82.6643 49.2459C81.6737 50.3325 81.2444 51.8716 80.0884 52.7876C79.3877 53.3439 78.4994 53.6035 77.6835 53.9817C76.8676 54.36 76.0963 54.9089 75.8343 55.7211C75.8343 55.7211 75.8343 55.7099 75.8343 55.7044V55.7507L75.8231 55.7804C75.5518 56.7409 76.0759 57.7181 76.3491 58.6768C76.6334 59.6688 76.652 60.7165 76.6669 61.7419C76.6873 62.9954 76.7059 64.2507 76.6855 65.5061C76.6762 65.9993 76.6594 66.4981 76.6223 66.9895C76.1824 67.1222 75.7551 67.2934 75.3455 67.5013C74.9292 67.772 73.3718 69.4501 73.3718 69.4501L70.3257 81.0616L70.3666 81.108L70.3257 81.2656L70.4799 81.2304C70.9111 81.6939 72.199 83.0142 73.5892 83.8375L73.7193 86.1145C73.7193 86.1145 73.8754 88.399 75.9811 89.3428C76.0294 90.1346 76.18 93.3499 75.483 94.6238C75.0004 95.5544 74.7734 96.596 74.8251 97.6426C74.8251 97.6426 75.0686 99.5747 74.7917 100.591C74.6299 101.27 74.6178 101.976 74.7563 102.66C74.7563 102.66 74.7563 102.885 74.7563 103.27C74.7563 105.327 74.7805 111.917 74.7563 112.662C74.721 113.543 74.7563 126.569 74.7563 126.569C74.7563 126.569 74.5835 133.08 74.0297 134.843C73.4758 136.606 73.6152 142.446 73.6152 142.446C73.6152 142.446 73.2677 149.401 74.4962 150.773C74.4962 150.834 74.485 150.897 74.4831 150.959C74.4831 150.986 74.4831 151.018 74.4831 151.046C74.4683 151.574 74.5705 152.136 75.0258 152.309C75.9551 152.665 77.1835 153.733 77.4159 154.039C77.6482 154.345 78.9993 155.107 80.7612 154.903C81.8649 154.779 82.9756 154.728 84.086 154.751C84.086 154.751 84.7811 154.624 84.5562 153.762C84.4112 153.225 83.8686 152.398 83.482 151.854C83.5526 151.873 83.6214 151.888 83.6864 151.901L83.7533 151.914H83.8054C83.8338 151.915 83.8624 151.915 83.8909 151.914H83.928C83.9627 151.916 83.9975 151.916 84.0321 151.914C84.4986 151.869 86.2381 152.678 86.5485 153.212C86.8589 153.746 87.9535 154.152 88.7787 154.254C89.2694 154.313 90.5071 154.213 91.546 154.079C92.0692 154.025 92.5874 153.931 93.096 153.797C93.3413 153.705 93.3934 153.408 93.3227 153.074C93.2393 152.65 93.0123 152.268 92.6797 151.991C92.3786 151.778 91.9809 151.216 91.6873 150.756L91.6092 150.632C92.1277 150.139 93.0644 148.526 93.3488 148.192C93.6944 147.786 92.7912 132.935 92.7912 132.935V125.49L94.1758 118.444L95.1441 114.715L95.9748 109.085C95.9748 109.085 97.4282 102.51 96.9803 101.865C96.9803 101.852 96.6086 95.0818 96.2183 93.4556C96.0492 92.7306 96.0919 91.0988 96.1923 89.5116C96.2971 89.4076 96.3703 89.2761 96.4032 89.1323C96.4361 88.9886 96.4274 88.8384 96.3781 88.6994C96.3504 88.6043 96.3143 88.5119 96.2703 88.4231C96.2703 88.3953 96.2703 88.3656 96.2703 88.3378C97.0732 87.9692 97.9121 87.6846 98.7737 87.4885C100.158 87.2178 99.8126 86.5058 99.8126 86.5058C99.8126 86.5058 100.125 85.8957 100.331 85.523C100.537 85.1503 100.366 81.8608 100.331 81.5901C100.318 81.4807 100.233 80.8762 100.134 80.1901C100.578 79.8749 101.156 79.4836 101.786 79.1128C102.985 78.4044 102.716 77.6572 102.617 77.4625ZM84.5525 124.474C84.5525 124.474 83.5136 127.118 83.9299 127.795C84.3462 128.472 83.8611 130.984 83.8611 130.984L83.5136 134.713C83.5136 134.713 82.5453 141.63 82.891 143.256C83.1623 144.532 83.2627 148.342 83.2943 149.931C83.2705 149.941 83.2475 149.952 83.2255 149.965L83.1791 149.989C83.3389 149.364 83.272 148.099 82.4784 145.555L82.4115 135.047C82.4115 135.047 82.2888 122.909 83.2497 121.552C84.2105 120.194 84.5506 117.889 84.5506 117.889C84.5506 117.889 84.3425 121.214 84.2068 122.095C84.0711 122.976 84.5525 124.474 84.5525 124.474ZM82.6178 150.593C82.6085 150.616 82.5973 150.638 82.5899 150.658L82.5379 150.591C82.5644 150.594 82.5911 150.595 82.6178 150.593Z" fill="url(#paint0_linear)"/>
<path d="M93.2125 154.758C92.6754 154.964 89.7631 155.314 88.9491 155.216C88.1351 155.118 87.0572 154.706 86.7505 154.168C86.4439 153.631 84.7248 152.818 84.2639 152.87C84.0749 152.876 83.8864 152.85 83.7063 152.792C83.3883 152.696 83.0778 152.577 82.7771 152.436C82.7351 152.203 82.742 151.963 82.7975 151.732C82.8082 151.685 82.8219 151.639 82.8384 151.595C82.9469 151.29 83.1713 151.041 83.4628 150.901L83.5297 150.87C83.6586 150.814 83.7932 150.773 83.9312 150.747C85.392 150.467 91.4191 151.029 91.4191 151.029C91.4191 151.029 91.5882 151.331 91.8205 151.706C92.1104 152.169 92.5044 152.735 92.8018 152.948C93.1312 153.229 93.3547 153.614 93.4355 154.038C93.5062 154.367 93.4541 154.667 93.2125 154.758Z" fill="white"/>
<path opacity="0.1" d="M93.2126 154.758C92.6755 154.964 89.7651 155.314 88.9511 155.216C88.137 155.118 87.0591 154.704 86.7506 154.168C86.4421 153.632 84.7267 152.818 84.2658 152.87C83.8049 152.922 82.779 152.436 82.779 152.436C82.779 152.436 82.6192 151.695 83.0838 151.188L84.013 151.847C84.013 151.847 86.4997 152.616 86.9606 153.33C87.4215 154.044 88.2616 154.443 89.4752 154.515C90.3821 154.574 92.4655 154.222 93.4412 154.046C93.5062 154.367 93.4561 154.667 93.2126 154.758Z" fill="black"/>
<path d="M84.3162 155.704C83.2199 155.682 82.1235 155.734 81.0341 155.858C79.2889 156.062 77.9564 155.301 77.7241 154.988C77.4918 154.675 76.2893 153.616 75.3657 153.245C74.914 153.071 74.8081 152.503 74.8285 151.973C74.8285 151.945 74.8285 151.913 74.8285 151.886C74.8457 151.55 74.8955 151.216 74.9772 150.89L82.2086 150.736L82.8349 151.583L82.9316 151.713L83.3126 152.231C83.3126 152.231 83.4854 152.457 83.7122 152.787C84.095 153.343 84.6303 154.165 84.7734 154.708C85.002 155.578 84.3162 155.704 84.3162 155.704Z" fill="white"/>
<path opacity="0.1" d="M84.3162 155.704C83.2199 155.682 82.1235 155.734 81.0341 155.858C79.2908 156.062 77.9564 155.301 77.726 154.988C77.4955 154.675 76.2893 153.606 75.3657 153.249C74.914 153.074 74.8081 152.507 74.8285 151.977C75.3452 152.097 76.4306 152.405 76.8562 152.941C77.4137 153.657 78.4117 154.86 79.8298 154.936C80.9746 154.997 83.7624 154.793 84.7845 154.712C85.0038 155.578 84.3162 155.704 84.3162 155.704Z" fill="black"/>
<path opacity="0.1" d="M83.4563 150.894C83.3726 151.513 83.1143 151.68 82.9285 151.717C82.883 151.726 82.8363 151.726 82.7909 151.717C82.7665 151.715 82.7423 151.711 82.7185 151.706C82.7185 151.706 76.2249 153.137 74.9127 151.978C74.8794 151.949 74.8484 151.916 74.8198 151.882C74.8369 151.546 74.8867 151.213 74.9685 150.886L82.1999 150.732L82.8262 151.58C82.9347 151.276 83.1591 151.026 83.4507 150.886L83.4563 150.894Z" fill="black"/>
<path opacity="0.1" d="M91.8188 151.698C91.6739 151.858 91.5531 151.949 91.4769 151.917C91.1349 151.78 88.3323 151.303 87.442 151.713C86.5518 152.123 83.5392 151.78 83.5392 151.78C83.5392 151.78 83.5392 151.424 83.5225 150.853C83.6513 150.797 83.7859 150.756 83.9239 150.73C85.3847 150.45 91.4118 151.012 91.4118 151.012C91.4118 151.012 91.5884 151.324 91.8188 151.698Z" fill="black"/>
<path d="M96.0601 109.755L95.2387 115.418L94.2834 119.171L92.9155 126.265V133.775C92.9155 133.775 93.8039 148.717 93.4619 149.125C93.12 149.533 91.8209 151.856 91.4789 151.721C91.137 151.585 88.3343 151.107 87.4441 151.515C86.5539 151.923 83.5413 151.583 83.5413 151.583C83.5413 151.583 83.4725 145.785 83.1306 144.148C82.7886 142.51 83.7457 135.551 83.7457 135.551L84.0877 131.8C84.0877 131.8 84.5672 129.275 84.1564 128.592C83.7457 127.91 84.7716 125.255 84.7716 125.255C84.7716 125.255 84.294 123.751 84.4315 122.864C84.569 121.978 84.7716 118.635 84.7716 118.635C84.7716 118.635 84.4315 120.956 83.4818 122.319C82.5321 123.682 82.6529 135.896 82.6529 135.896L82.7198 146.466C84.4315 152.062 82.7198 151.515 82.7198 151.515C82.7198 151.515 76.2262 152.948 74.9141 151.787C73.6021 150.627 73.9775 143.321 73.9775 143.321C73.9775 143.321 73.8418 137.454 74.3882 135.681C74.9346 133.908 75.1074 127.357 75.1074 127.357C75.1074 127.357 75.0721 114.257 75.1074 113.372C75.1334 112.631 75.1074 105.99 75.1074 103.916C75.1074 103.53 75.1074 103.302 75.1074 103.302L75.8917 101.358L85.1842 100.198H89.6297C89.6297 100.198 96.3203 101.766 97.0117 102.443C97.0264 102.454 97.039 102.468 97.0488 102.484C97.4967 103.139 96.0601 109.755 96.0601 109.755Z" fill="#4A7CE2"/>
<path opacity="0.1" d="M84.7769 139.501C84.7769 139.501 86.8212 144.413 87.7858 144.754C88.7503 145.095 84.7769 139.501 84.7769 139.501Z" fill="black"/>
<path opacity="0.1" d="M85.5337 146.733C85.5337 146.733 92.4362 147.074 92.3674 147.825C92.2986 148.576 85.5337 146.733 85.5337 146.733Z" fill="black"/>
<path opacity="0.1" d="M76.2988 144.769C76.572 145.027 81.564 145.511 81.1532 145.982C80.7425 146.453 76.7096 147.369 76.7096 147.369L76.2988 144.769Z" fill="black"/>
<path opacity="0.1" d="M75.4795 136.295C75.4795 136.499 76.5054 142.844 76.7804 143.117C77.0555 143.389 79.3099 143.662 79.3099 143.662L75.4795 136.295Z" fill="black"/>
<path d="M82.9221 49.563C81.9427 50.6551 81.519 52.2035 80.3778 53.1269C79.6846 53.6832 78.8074 53.9483 78.0008 54.3266C77.1942 54.7049 76.3951 55.2816 76.1553 56.1382C75.8877 57.1025 76.4044 58.0871 76.6757 59.0513C76.9563 60.0489 76.9731 61.091 76.9898 62.135C77.0084 63.3977 77.0288 64.6605 77.0065 65.9232C76.9731 67.8906 76.8095 69.9489 75.7632 71.6159C79.5415 72.8156 83.5596 72.9788 87.5219 73.1327C88.2834 73.1869 89.0483 73.1676 89.806 73.0752C90.4626 72.9447 91.1121 72.7806 91.7519 72.5838C93.0168 72.2499 94.3202 72.0834 95.6287 72.0887C96.1992 72.0887 96.7809 72.124 97.3311 71.9756C97.8812 71.8273 98.4109 71.4471 98.5595 70.8983C98.6915 70.405 98.4982 69.8803 98.2454 69.4371C97.7845 68.6286 97.1303 67.9537 96.636 67.1563C96.1313 66.3141 95.8319 65.3654 95.7619 64.3867C95.6918 63.4079 95.8531 62.4264 96.2327 61.5212C96.6713 60.5032 97.3775 59.6169 97.8087 58.597C98.2503 57.502 98.3678 56.3036 98.147 55.144C97.9263 53.9844 97.3767 52.9123 96.5635 52.0551C95.0637 50.5235 92.9115 49.9301 90.8523 49.6149C89.9853 49.5127 89.1581 49.1938 88.4474 48.6878C87.6576 48.1686 86.6335 48.0425 85.708 48.1574C84.6403 48.2768 83.6514 48.7757 82.9221 49.563Z" fill="#3F3D56"/>
<g opacity="0.1">
<path opacity="0.1" d="M96.2905 60.4513C95.9116 61.3448 95.7492 62.3149 95.8166 63.2828C95.8582 62.5906 96.0185 61.9108 96.2905 61.2727C96.7273 60.2547 97.4335 59.3684 97.8647 58.3485C98.2171 57.4969 98.3654 56.575 98.2977 55.6561C98.2594 56.3002 98.113 56.9332 97.8647 57.5289C97.4335 58.5488 96.7273 59.4333 96.2905 60.4513Z" fill="black"/>
<path opacity="0.1" d="M77.0462 61.8828C77.0574 62.6096 77.0685 63.3384 77.0704 64.0653C77.0704 63.0639 77.0611 62.0645 77.0462 61.065C77.0314 60.0285 77.0128 58.979 76.7321 57.9795C76.5463 57.3454 76.2712 56.7019 76.1746 56.0622C76.0092 56.9708 76.4794 57.8924 76.7321 58.7991C77.0128 59.7893 77.0314 60.8462 77.0462 61.8828Z" fill="black"/>
<path opacity="0.1" d="M97.3946 70.9149C96.8371 71.0651 96.2646 71.0317 95.6941 71.028C94.3867 71.0198 93.0838 71.1831 91.8191 71.5139C91.1792 71.7099 90.5298 71.8732 89.8733 72.0034C89.115 72.0973 88.3494 72.1172 87.5873 72.0627C83.7588 71.9125 79.8764 71.7512 76.2096 70.659C76.1007 70.9015 75.9766 71.1369 75.8379 71.3637C79.6162 72.5615 83.6343 72.7266 87.5947 72.8805C88.3568 72.9349 89.1225 72.9151 89.8807 72.8211C90.5349 72.6922 91.1819 72.5294 91.8191 72.3334C93.0812 72.0015 94.3815 71.8362 95.6866 71.8421C96.2572 71.8421 96.8371 71.8773 97.3872 71.7271C97.9373 71.5769 98.467 71.2005 98.6156 70.6516C98.6783 70.3974 98.6719 70.1312 98.597 69.8802C98.4316 70.3994 97.9206 70.761 97.3946 70.9149Z" fill="black"/>
</g>
<path d="M91.8895 68.7176C91.7519 69.0254 91.1721 71.6845 91.0346 71.957C90.897 72.2296 90.1462 76.5927 90.0774 76.8375C90.0087 77.0823 85.1283 75.8139 85.1283 75.8139L82.19 73.357L79.1699 70.3587C79.1699 70.3587 79.0807 67.6533 81.3053 66.7855C81.4565 66.7262 81.6118 66.6779 81.77 66.6408C84.4685 65.9937 84.1972 57.8071 84.1972 57.8071L89.7355 60.1935C89.7355 60.1935 88.7096 64.9701 88.7449 65.8917C88.7542 66.2014 88.9977 66.3942 89.3155 66.511C89.8068 66.6505 90.3184 66.7057 90.8283 66.6742C90.8283 66.6742 92.027 68.4117 91.8895 68.7176Z" fill="#FBBEBE"/>
<path d="M101.804 77.6886L102.59 77.8945C102.59 77.8945 103.172 78.7771 101.804 79.5986C100.936 80.1249 100.102 80.7065 99.3082 81.3397L95.266 82.5673L94.4873 80.1289L98.2489 77.2807L101.804 77.6886Z" fill="#4A7CE2"/>
<path opacity="0.1" d="M101.804 77.6886L102.59 77.8945C102.59 77.8945 103.172 78.7771 101.804 79.5986C100.936 80.1249 100.102 80.7065 99.3082 81.3397L95.266 82.5673L94.4873 80.1289L98.2489 77.2807L101.804 77.6886Z" fill="black"/>
<path d="M72.3052 80.0436L70.7329 81.5789C70.7329 81.5789 73.569 84.8536 75.7509 85.0576C77.9327 85.2615 79.3396 82.5673 79.3396 82.5673L77.4514 79.6004L72.3052 80.0436Z" fill="#4A7CE2"/>
<path opacity="0.1" d="M72.3052 80.0436L70.7329 81.5789C70.7329 81.5789 73.569 84.8536 75.7509 85.0576C77.9327 85.2615 79.3396 82.5673 79.3396 82.5673L77.4514 79.6004L72.3052 80.0436Z" fill="black"/>
<path opacity="0.1" d="M87.2396 63.1566C90.2603 63.1566 92.7091 60.7134 92.7091 57.6995C92.7091 54.6856 90.2603 52.2424 87.2396 52.2424C84.2188 52.2424 81.77 54.6856 81.77 57.6995C81.77 60.7134 84.2188 63.1566 87.2396 63.1566Z" fill="black"/>
<path d="M87.2396 62.7469C90.2603 62.7469 92.7091 60.3036 92.7091 57.2897C92.7091 54.2758 90.2603 51.8326 87.2396 51.8326C84.2188 51.8326 81.77 54.2758 81.77 57.2897C81.77 60.3036 84.2188 62.7469 87.2396 62.7469Z" fill="#FBBEBE"/>
<path opacity="0.1" d="M97.0525 103.103C95.807 103.246 94.5803 103.52 93.3931 103.921C91.3487 104.6 75.3285 103.932 75.1055 103.921C75.1055 103.535 75.1055 103.307 75.1055 103.307L75.8898 101.364L85.1822 100.203H89.6278C89.6278 100.203 96.3184 101.772 97.0097 102.449C97.0376 102.857 97.0525 103.103 97.0525 103.103Z" fill="black"/>
<path opacity="0.1" d="M91.8895 68.7176C91.7519 69.0254 91.1721 71.6845 91.0346 71.9571C90.897 72.2296 90.1462 76.5927 90.0774 76.8375C90.0087 77.0823 85.1283 75.8139 85.1283 75.8139L82.19 73.357L79.1699 70.3587C79.1699 70.3587 79.0807 67.6533 81.3053 66.7855L86.8288 73.1215L89.3155 66.511C89.8068 66.6505 90.3184 66.7057 90.8283 66.6742C90.8283 66.6742 92.027 68.4117 91.8895 68.7176Z" fill="black"/>
<path d="M86.8289 73.3255L81.1753 66.8356C80.8444 66.6248 80.4661 66.4994 80.0746 66.4706C79.683 66.4418 79.2904 66.5105 78.9321 66.6705C77.6665 67.2175 76.0942 67.6607 75.6834 67.9333C75.2727 68.2059 73.7339 69.8933 73.7339 69.8933L78.3169 81.8552L76.2986 89.734C76.2986 89.734 76.6071 93.7597 75.821 95.2264C75.3423 96.1642 75.118 97.2107 75.1705 98.2618C75.1705 98.2618 75.4102 100.207 75.1371 101.229C74.9774 101.912 74.9654 102.621 75.1017 103.309C75.1017 103.309 91.3432 103.992 93.3931 103.309C94.58 102.907 95.8068 102.632 97.0525 102.491C97.0525 102.491 96.6808 95.6677 96.3091 94.0304C95.9374 92.3931 96.6176 86.1516 96.6176 86.1516L96.1734 79.465L98.8385 72.6042C98.8385 72.6042 97.3944 68.2059 95.889 67.7627C95.889 67.7627 93.1552 67.1137 92.5735 66.8077C91.9918 66.5018 90.282 66.2274 90.282 66.2274L89.3843 66.5277L86.8289 73.3255Z" fill="#4A7CE2"/>
<path opacity="0.1" d="M94.7172 79.2392L82.8205 78.4321C82.5195 78.4117 82.2588 78.6387 82.2383 78.939L80.9611 97.6796C80.9406 97.98 81.1681 98.2401 81.4692 98.2605L93.3658 99.0676C93.6669 99.088 93.9276 98.8611 93.948 98.5607L95.2252 79.8201C95.2457 79.5197 95.0182 79.2597 94.7172 79.2392Z" fill="black"/>
<path d="M95.1268 78.8323L83.2302 78.0251C82.9291 78.0047 82.6685 78.2317 82.648 78.5321L81.3708 97.2726C81.3503 97.573 81.5778 97.8331 81.8788 97.8535L93.7755 98.6606C94.0766 98.681 94.3372 98.4541 94.3577 98.1537L95.6349 79.4131C95.6554 79.1127 95.4279 78.8527 95.1268 78.8323Z" fill="#3F3D56"/>
<path d="M94.7339 80.3012L83.4194 79.5336L82.2567 96.5944L93.5711 97.362L94.7339 80.3012Z" fill="white"/>
<path opacity="0.1" d="M93.7194 84.6559L84.4771 84.0104L84.2967 86.5805L93.539 87.2259L93.7194 84.6559Z" fill="black"/>
<path opacity="0.1" d="M93.3847 94.8691L91.918 94.7696L91.8267 96.109L93.2934 96.2085L93.3847 94.8691Z" fill="black"/>
<path opacity="0.1" d="M91.9384 91.6365L84.4307 91.1271L84.3394 92.4665L91.8471 92.9759L91.9384 91.6365Z" fill="black"/>
<path d="M93.3335 79.6634L85.5161 79.1331L85.3758 81.1921L93.1932 81.7225L93.3335 79.6634Z" fill="#3F3D56"/>
<path opacity="0.1" d="M93.3335 79.6634L85.5161 79.1331L85.3758 81.1921L93.1932 81.7225L93.3335 79.6634Z" fill="black"/>
<path opacity="0.1" d="M87.5126 102.727C87.5126 102.727 87.4438 112.825 84.7769 118.624C84.7769 118.624 87.992 110.982 87.992 110.676C87.992 110.37 89.7688 107.162 89.293 106.207C88.8172 105.252 87.5126 102.727 87.5126 102.727Z" fill="black"/>
<path opacity="0.1" d="M87.6581 55.925C87.556 55.0312 87.7753 54.1303 88.277 53.3828C88.2174 54.132 88.4297 54.8776 88.8753 55.4835C89.3209 56.0895 89.97 56.5153 90.7042 56.6834C90.6416 56.6292 90.5968 56.5572 90.5759 56.4771C90.555 56.3971 90.5589 56.3125 90.5871 56.2347C90.9681 56.6649 91.2599 57.1748 91.6911 57.5531C92.1222 57.9313 92.769 58.1576 93.2764 57.8887C93.9659 57.5178 93.9733 56.5406 93.7949 55.7804C93.412 54.1613 92.6265 52.6646 91.5108 51.4284C91.2324 51.0547 90.8711 50.7504 90.4552 50.5394C90.0392 50.3284 89.58 50.2163 89.1133 50.212C88.0577 50.1304 86.9612 50.2231 86.0152 50.6959C85.4829 50.9858 84.9842 51.3334 84.5284 51.7325L81.9265 53.8501C81.6762 54.03 81.4618 54.2552 81.2946 54.5139C81.183 54.7302 81.116 54.9666 81.0976 55.2093C81.0312 55.9028 81.1598 56.6011 81.469 57.2257C81.7783 57.8503 82.2559 58.3766 82.8483 58.7454C82.8358 58.1972 82.9869 57.6578 83.2824 57.1955C83.5779 56.7333 84.0045 56.3691 84.508 56.1494C84.5868 56.2152 84.6507 56.297 84.6952 56.3894C84.7398 56.4819 84.764 56.5827 84.7663 56.6853L85.3146 55.7099C85.3961 55.5324 85.5246 55.3805 85.6863 55.2704C86.0245 55.085 86.4464 55.3038 86.7345 55.5653C87.0225 55.8267 87.3032 56.1531 87.6897 56.1939L87.7046 54.742" fill="black"/>
<path d="M87.6584 55.721C87.556 54.8266 87.7753 53.925 88.2773 53.1769C88.1101 54.6604 89.2307 56.192 90.7064 56.4775C90.6437 56.4238 90.5989 56.3522 90.5779 56.2723C90.557 56.1925 90.561 56.1082 90.5893 56.0307C90.9703 56.4609 91.2621 56.9689 91.6932 57.3491C92.1244 57.7292 92.7712 57.9536 93.2785 57.6828C93.968 57.312 93.9755 56.3348 93.7971 55.5764C93.4142 53.9573 92.6286 52.4606 91.513 51.2244C91.1668 50.8034 90.7305 50.465 90.2362 50.2342C89.8783 50.1021 89.5022 50.0258 89.1211 50.008C88.0655 49.9264 86.9689 50.0172 86.023 50.4901C85.491 50.7812 84.9924 51.1294 84.5362 51.5285L81.9343 53.6461C81.6835 53.8255 81.4691 54.0508 81.3024 54.3099C81.1905 54.5261 81.1235 54.7626 81.1054 55.0053C81.039 55.6985 81.1677 56.3965 81.477 57.0208C81.7862 57.6451 82.2638 58.171 82.8561 58.5395C82.844 57.9915 82.9953 57.4522 83.2908 56.9901C83.5862 56.5279 84.0126 56.1637 84.5157 55.9435C84.5943 56.0095 84.658 56.0914 84.7025 56.1838C84.747 56.2762 84.7714 56.3769 84.774 56.4794L85.3204 55.5078C85.4015 55.33 85.5301 55.1779 85.6921 55.0683C86.0304 54.8829 86.4523 55.1017 86.7403 55.3631C87.0284 55.6246 87.309 55.9491 87.6956 55.9917L87.7105 54.538" fill="#3F3D56"/>
<path d="M90.2487 90.142C89.7711 89.9009 81.8724 91.1303 81.8724 91.1303C81.8724 91.1303 80.5715 90.7595 77.4269 90.244C74.2823 89.7285 74.0816 86.6615 74.0816 86.6615L73.7378 80.522L74.799 79.5948L79.3449 82.5617C79.3449 82.5617 79.4155 84.0618 79.3449 84.3325C79.3003 84.518 79.1813 84.7386 79.1925 84.8888C79.1959 84.9295 79.2127 84.9679 79.2403 84.9981C79.2678 85.0282 79.3046 85.0485 79.3449 85.0557C79.6534 85.1336 83.8573 85.8122 83.8573 85.8122C83.8573 85.8122 93.6014 85.1466 96.0305 88.4212C96.2229 88.6616 96.3686 88.9358 96.4598 89.2297C97.0619 91.4678 90.6817 90.3552 90.2487 90.142Z" fill="#FBBEBE"/>
<path opacity="0.1" d="M96.4657 89.2426C96.094 89.4076 95.8635 89.5263 95.8635 89.5263C95.8635 89.5263 92.377 89.4243 90.4181 88.716C88.4593 88.0077 86.0785 88.1337 86.0785 88.1337C86.0785 88.1337 77.916 86.7319 79.1817 84.9017C79.1851 84.9424 79.2019 84.9808 79.2295 85.011C79.257 85.0412 79.2938 85.0614 79.3341 85.0686C79.6426 85.1465 83.8465 85.8252 83.8465 85.8252C83.8465 85.8252 93.5906 85.1595 96.0196 88.4341C96.218 88.6732 96.3694 88.9475 96.4657 89.2426Z" fill="black"/>
<path d="M99.8553 78.4396C99.8553 78.4396 100.335 81.8163 100.368 82.0907C100.402 82.3651 100.575 85.6713 100.368 86.0477C100.162 86.4242 99.8553 87.0361 99.8553 87.0361C99.8553 87.0361 100.197 87.7518 98.8294 88.0263C97.4616 88.3007 95.8558 89.1166 95.8558 89.1166C95.8558 89.1166 92.3674 89.0146 90.4197 88.2988C88.472 87.5831 86.0783 87.7184 86.0783 87.7184C86.0783 87.7184 75.7172 85.9439 80.1627 83.7781C84.6082 81.6123 87.7528 84.5458 87.7528 84.5458L92.7094 84.2398C92.7094 84.2398 94.5567 83.1124 95.0697 83.2163C95.4319 83.2623 95.7997 83.203 96.129 83.0457L96.1644 79.4632L99.8553 78.4396Z" fill="#FBBEBE"/>
<path opacity="0.1" d="M74.7212 70.151L73.7287 70.0991L70.7217 81.7811C70.7217 81.7811 73.9685 80.9615 75.3679 81.7811C76.7674 82.6006 79.334 82.7694 79.334 82.7694L78.3768 73.4572L74.7212 70.151Z" fill="black"/>
<path d="M74.7212 69.9452L73.7287 69.8932L70.7217 81.5752C70.7217 81.5752 73.9685 80.7556 75.3679 81.5752C76.7674 82.3948 79.334 82.5635 79.334 82.5635L78.3768 73.2513L74.7212 69.9452Z" fill="#4A7CE2"/>
<path opacity="0.1" d="M97.4636 72.5041L98.8296 72.8119C98.8296 72.8119 102.318 77.8184 102.591 78.0984C102.864 78.3784 101.29 79.3964 100.642 79.3964C99.993 79.3964 96.8131 79.7673 95.8894 80.624C94.9657 81.4806 95.3504 77.1695 95.3504 77.0712C95.3504 76.9729 96.4971 74.2527 96.4971 74.2527L97.4636 72.5041Z" fill="black"/>
<path d="M97.4636 72.3001L98.8296 72.6061C98.8296 72.6061 102.318 77.6219 102.591 77.8945C102.864 78.167 101.29 79.1925 100.642 79.1925C99.993 79.1925 96.8131 79.5633 95.8894 80.42C94.9657 81.2767 95.3504 76.9655 95.3504 76.8672C95.3504 76.7689 96.5046 74.0394 96.5046 74.0394L97.4636 72.3001Z" fill="#4A7CE2"/>
<g opacity="0.1">
<path opacity="0.1" d="M88.2674 53.1936C88.2594 53.0514 88.2625 52.9089 88.2767 52.7672C87.9938 53.1908 87.7991 53.6669 87.7043 54.1671V54.5973C87.7043 54.5973 87.7043 54.5881 87.7043 54.5825V54.6845C87.7043 54.9849 87.7043 55.2871 87.695 55.5875H87.669V55.7266C87.669 55.6784 87.669 55.632 87.6597 55.5838C87.288 55.5245 87.0223 55.2129 86.7453 54.9645C86.4684 54.716 86.0354 54.4787 85.6971 54.6696C85.5351 54.7793 85.4065 54.9313 85.3254 55.1091L84.7735 56.0807C84.771 55.9785 84.7467 55.878 84.7022 55.7859C84.6576 55.6938 84.5939 55.6122 84.5151 55.5467C84.0117 55.7665 83.5851 56.1306 83.2896 56.5929C82.9941 57.0551 82.843 57.5946 82.8555 58.1427C82.3477 57.8253 81.9229 57.3918 81.6163 56.8782C81.3096 56.3646 81.1298 55.7855 81.0918 55.1888C81.0595 55.8551 81.2059 56.5178 81.5159 57.1088C81.826 57.6997 82.2884 58.1975 82.8555 58.5507C82.8435 58.0026 82.9948 57.4634 83.2902 57.0012C83.5857 56.5391 84.012 56.1748 84.5151 55.9547C84.5937 56.0207 84.6574 56.1026 84.7019 56.195C84.7464 56.2873 84.7708 56.3881 84.7735 56.4905L85.3199 55.5189C85.4009 55.3411 85.5295 55.1891 85.6916 55.0794C86.0298 54.894 86.4517 55.1128 86.7398 55.3743C87.0278 55.6357 87.3085 55.9602 87.695 56.0029C87.695 55.5282 87.7 55.0547 87.7099 54.5825C87.8011 54.0871 87.9906 53.6149 88.2674 53.1936Z" fill="black"/>
<path opacity="0.1" d="M87.6394 55.0609C87.6487 54.9348 87.6635 54.8087 87.6821 54.6901L87.7026 54.1783C87.6467 54.469 87.6255 54.7652 87.6394 55.0609Z" fill="black"/>
<path opacity="0.1" d="M93.2781 57.273C92.7708 57.5437 92.124 57.3175 91.6928 56.9392C91.2617 56.561 90.9699 56.051 90.5889 55.6208C90.5607 55.6987 90.5568 55.7832 90.5777 55.8633C90.5986 55.9434 90.6433 56.0153 90.706 56.0696C90.6688 56.0696 90.6335 56.051 90.5982 56.0418C90.9699 56.4683 91.2654 56.9689 91.6928 57.3398C92.1203 57.7106 92.7708 57.9443 93.2781 57.6735C93.7855 57.4028 93.9305 56.7687 93.8859 56.1512C93.8524 56.637 93.6777 57.0579 93.2781 57.273Z" fill="black"/>
<path opacity="0.1" d="M90.5869 56.0381C89.9654 55.8691 89.4105 55.5146 88.9966 55.0221C88.5828 54.5296 88.3296 53.9227 88.2712 53.2827C88.1653 54.7383 89.2655 56.1976 90.7058 56.4776C90.6445 56.4244 90.6004 56.3542 90.5792 56.2759C90.558 56.1977 90.5607 56.1149 90.5869 56.0381Z" fill="black"/>
</g>
<path d="M179.839 86.3444C179.839 86.3444 179.107 86.2424 179.107 85.1799C179.107 84.1174 178.583 82.1278 178.583 82.1278C178.583 82.1278 178.13 78.6659 177.503 78.117C176.877 77.5681 176.072 74.3454 176.072 74.3454C176.072 74.3454 175.935 72.5968 175.654 72.2204C175.373 71.844 174.994 70.9224 174.435 69.6077C173.875 68.293 171.549 67.3919 171.549 67.3919C171.549 67.3919 167.332 64.9516 166.137 64.1561C166.027 64.0902 165.925 64.0132 165.832 63.9262C165.624 63.6555 164.717 63.6499 164.717 63.6499C164.622 63.051 164.531 62.3649 164.501 61.7437C164.501 61.677 164.501 61.6102 164.501 61.5435C165.834 60.7576 166.837 59.5185 167.328 58.0537C167.35 57.9833 167.369 57.9109 167.389 57.8386C167.471 57.8135 167.546 57.7715 167.61 57.7152C167.674 57.6589 167.726 57.5898 167.761 57.5123C167.867 57.2731 167.871 56.9949 168.004 56.7706C168.161 56.5073 168.458 56.3663 168.692 56.1698C169.283 55.6673 169.436 54.8236 169.408 54.0578C169.389 53.4347 169.289 52.808 169.328 52.1905C169.328 52.1386 169.328 52.0867 169.339 52.0347C169.35 51.9439 169.363 51.8493 169.38 51.7603C169.471 51.3004 169.67 50.8665 169.781 50.4104C169.893 49.9542 169.904 49.4406 169.644 49.0475C169.263 48.4708 168.469 48.3559 167.772 48.3058C166.982 48.239 166.285 48.3243 165.771 47.6698C165.534 47.3279 165.268 47.0077 164.975 46.713C164.871 46.6165 163.86 45.9991 163.86 45.9601C162.871 45.5012 161.749 45.415 160.701 45.7172C160.175 45.8693 159.682 46.1177 159.149 46.242C158.004 46.5127 156.684 46.2197 155.711 46.8743C155.168 47.2451 154.843 47.8367 154.538 48.4096C154.29 48.8819 154.038 49.3547 153.783 49.8282C153.371 50.6051 152.954 51.395 152.782 52.2554C152.745 52.4433 152.722 52.6335 152.713 52.8247C152.713 52.8933 152.713 52.9619 152.713 53.0305C152.713 53.0602 152.713 53.0898 152.713 53.1195C152.713 53.1825 152.713 53.2456 152.724 53.3049C152.735 53.3643 152.724 53.3809 152.737 53.4199C152.75 53.4588 152.754 53.546 152.765 53.6053C152.776 53.6646 152.798 53.7703 152.821 53.8501C152.821 53.8853 152.843 53.9187 152.854 53.9539C152.865 53.9891 152.895 54.0782 152.919 54.1393C152.943 54.2005 152.945 54.2042 152.96 54.2358C152.988 54.3007 153.021 54.3637 153.055 54.4212C153.07 54.4453 153.081 54.4694 153.096 54.4935C153.147 54.5803 153.204 54.6633 153.267 54.742C153.662 55.2371 154.25 55.5523 154.683 56.0159C154.683 56.0344 154.683 56.053 154.683 56.0715C154.683 56.1216 154.683 56.1716 154.683 56.2236C154.709 57.2575 154.989 58.2693 155.496 59.171C156.004 60.0727 156.725 60.8368 157.597 61.397C157.597 61.4675 157.606 61.5398 157.61 61.6121C157.646 62.1619 157.639 62.7137 157.589 63.2624C157.514 63.1737 157.419 63.103 157.312 63.0555C157.205 63.008 157.089 62.9849 156.972 62.988C156.893 62.984 156.813 62.9909 156.735 63.0084L156.718 62.9954V63.0121C156.309 63.1122 155.805 63.5368 155.324 64.744C155.324 64.744 153.859 66.3906 152.744 66.3219C151.629 66.2533 148.806 68.0372 148.806 68.0372C148.806 68.0372 146.052 69.8191 145.461 71.6363C145.13 72.667 144.734 73.6753 144.273 74.6551L140.859 81.6494L140.233 87.2122C140.233 87.2122 140.58 89.6803 140.512 90.0585C140.443 90.4368 141.941 93.8302 141.941 93.8302C141.941 93.8302 146.89 102.504 148.912 102.949L149.057 102.849C149.144 102.893 149.236 102.927 149.33 102.949L149.747 102.658C149.772 102.984 149.761 103.312 149.713 103.636C149.436 104.494 149.819 110.083 150.306 111.179C150.793 112.275 150.62 126.645 150.62 126.645L150.551 127.912C150.551 127.912 150.551 127.953 150.568 128.023L150.551 128.323L150.601 128.349C150.654 128.752 150.637 129.161 150.551 129.558C150.377 130.115 150.306 131.685 150.306 131.685C150.306 131.685 148.912 140.563 149.574 142.347C150.235 144.131 150.795 146.086 150.795 146.086C150.795 146.086 151.492 148.311 150.828 148.682C150.165 149.052 148.286 149.711 148.669 150.636C149.022 151.493 150.362 153.788 150.561 154.124L150.544 154.309L150.271 157.263C150.315 157.653 150.421 158.034 150.585 158.391C150.884 159.036 151.464 159.701 152.571 159.629C152.757 159.616 152.971 159.596 153.181 159.568C155.205 159.295 157.695 158.394 157.695 158.394C157.566 158.313 157.448 158.215 157.344 158.103C157.245 158.007 157.166 157.892 157.112 157.764C157.059 157.637 157.032 157.5 157.034 157.361C157.063 156.822 156.054 154.261 155.802 153.629L155.744 153.488C155.744 153.488 158.045 151.087 157.662 148.962C157.662 148.962 155.116 147.478 155.954 146.662C156.792 145.846 158.29 143.51 158.29 143.51C158.29 143.51 158.359 134.767 158.29 133.463C158.218 132.557 158.261 131.645 158.418 130.749C158.446 130.615 158.48 130.484 158.515 130.352C159.675 130.527 160.847 130.615 162.02 130.617C162.449 130.617 162.882 130.609 163.321 130.591C163.321 130.715 163.327 130.848 163.338 130.992C163.434 133.158 163.615 136.957 163.762 138.368C163.97 140.389 165.12 145.843 165.12 145.843C165.12 145.843 162.925 147.246 165.503 150.712C165.503 150.712 165.503 151.965 165.332 152.149C165.149 152.744 165.002 153.349 164.891 153.961C164.784 154.612 164.739 155.273 164.914 155.615C165.332 156.434 167.841 156.368 167.841 156.368C167.861 156.363 167.882 156.36 167.902 156.358C168.376 156.308 168.855 156.353 169.311 156.49C169.767 156.627 170.191 156.853 170.558 157.156C171.511 157.92 175.128 157.586 177.089 157.341C177.856 157.243 178.369 157.156 178.369 157.156C178.394 157.069 178.403 156.978 178.395 156.889C178.375 156.408 177.998 155.355 175.44 154.415C175.44 154.415 173.035 152.802 173.069 151.396H173.015H172.738C172.913 151.391 173.035 151.391 173.035 151.391C173.035 151.391 172.093 147.962 172.478 147.682C172.863 147.402 171.71 143.603 171.71 143.603C171.71 143.603 171.051 137.224 171.013 136.779C171.016 136.395 171.075 136.014 171.188 135.648L171.013 132.149C171.013 132.149 170.98 130.986 171.013 130.608C171.01 130.28 170.984 129.952 170.935 129.627C170.919 129.497 170.902 129.362 170.883 129.228C171.785 129 172.37 128.791 172.37 128.791L172.266 116.617C173.032 115.134 173.173 111.878 173.169 109.571C173.169 108.088 173.102 106.99 173.102 106.99L174.149 105.286C174.149 105.286 174.39 103.246 174.007 102.799C173.838 102.597 173.914 102.388 174.054 102.215C174.127 102.155 174.205 102.101 174.286 102.052C174.277 102.039 174.269 102.025 174.262 102.011C174.335 101.95 174.413 101.895 174.494 101.846C174.494 101.846 174.123 101.271 174.455 101.028C174.768 101.24 175.046 101.409 175.258 101.529C175.243 101.664 175.228 101.742 175.228 101.742L175.318 101.557C175.522 101.672 175.647 101.742 175.647 101.742C175.647 101.742 177.286 98.4844 177.251 98.006C177.215 97.5276 178.366 95.5027 178.366 95.5027C178.366 95.5027 178.505 94.4384 179.133 93.9933C179.761 93.5483 179.62 90.3237 179.62 90.3237C179.62 90.3237 179.795 88.6437 180.213 87.9595C180.631 87.2753 179.839 86.3444 179.839 86.3444ZM148.475 84.9148L148.507 85.6917C148.321 85.3932 148.187 85.1799 148.187 85.1799L148.475 84.9148Z" fill="url(#paint1_linear)"/>
<path d="M175.744 100.333L175.342 102.039C175.342 102.039 172.127 100.398 171.549 98.3212C170.971 96.2444 172.518 95.4526 172.518 95.4526L175.515 96.7173L175.744 100.333Z" fill="white"/>
<path opacity="0.1" d="M175.744 100.333L175.342 102.039C175.342 102.039 172.127 100.398 171.549 98.3212C170.971 96.2444 172.518 95.4526 172.518 95.4526L175.515 96.7173L175.744 100.333Z" fill="black"/>
<path d="M157.699 158.392C157.699 158.392 154.725 159.483 152.681 159.62C151.596 159.692 151.025 159.028 150.731 158.389C150.572 158.036 150.468 157.661 150.423 157.276L150.692 154.337L150.834 152.774L155.177 151.646L155.792 153.525L155.85 153.666C156.095 154.294 157.087 156.842 157.058 157.374C157.055 157.512 157.081 157.649 157.133 157.776C157.185 157.904 157.262 158.019 157.361 158.116C157.461 158.222 157.575 158.315 157.699 158.392Z" fill="white"/>
<path d="M178.001 156.898C178.009 156.988 178 157.078 177.975 157.165C177.975 157.165 171.616 158.222 170.315 157.165C169.949 156.856 169.523 156.627 169.063 156.492C168.604 156.357 168.121 156.319 167.646 156.38C167.646 156.38 165.185 156.447 164.774 155.639C164.603 155.299 164.648 154.641 164.754 153.994C164.862 153.385 165.006 152.784 165.185 152.192L165.284 152.114L165.869 151.645L172.723 151.443H172.775C172.742 152.841 175.1 154.445 175.1 154.445C177.611 155.372 177.981 156.419 178.001 156.898Z" fill="white"/>
<path opacity="0.1" d="M178.003 156.898C178.01 156.988 178.001 157.078 177.976 157.165C177.976 157.165 171.616 158.222 170.317 157.165C169.951 156.856 169.524 156.626 169.064 156.491C168.604 156.356 168.121 156.319 167.646 156.38C167.646 156.38 165.183 156.447 164.773 155.639C164.604 155.299 164.646 154.641 164.752 153.992C165.7 154.087 167.196 154.322 167.783 154.886C168.672 155.739 170.177 156.592 171.099 156.66C171.828 156.705 176.16 156.842 178.003 156.898Z" fill="black"/>
<path opacity="0.1" d="M157.699 158.392C157.699 158.392 154.726 159.483 152.681 159.62C151.596 159.692 151.026 159.028 150.732 158.389C151.49 158.643 152.54 158.908 153.092 158.665C153.746 158.374 156.066 158.188 157.367 158.109C157.465 158.217 157.577 158.313 157.699 158.392Z" fill="black"/>
<path d="M162.111 70.52C159.658 69.5688 156.502 66.4258 157.29 64.9572C157.464 64.5863 157.568 64.1865 157.597 63.7779C157.648 63.223 157.655 62.6651 157.619 62.109C157.564 61.1978 157.454 60.2907 157.29 59.3925C157.29 59.3925 164.949 59.565 164.503 60.6905C164.373 61.0224 164.351 61.5954 164.388 62.2351C164.425 62.8749 164.516 63.6036 164.613 64.2173C164.745 65.0573 164.88 65.7008 164.88 65.7008C164.88 65.7008 164.41 66.3553 164.137 66.3906C163.864 66.4258 165.631 71.8829 162.111 70.52Z" fill="#CF6F80"/>
<path opacity="0.1" d="M155.843 153.657L155.785 153.72C153.496 150.957 150.726 154.402 150.726 154.402L150.686 154.328L150.827 152.765L155.17 151.637L155.785 153.516L155.843 153.657Z" fill="black"/>
<path opacity="0.1" d="M172.779 151.637C172.779 151.637 171.106 151.604 170.214 152.39C169.322 153.176 165.01 152.559 165.196 152.39C165.25 152.304 165.284 152.207 165.293 152.106L165.878 151.637L172.732 151.435C172.758 151.565 172.779 151.637 172.779 151.637Z" fill="black"/>
<path d="M158.691 129.94C158.567 130.248 158.473 130.566 158.409 130.892C158.254 131.783 158.211 132.69 158.281 133.591C158.349 134.889 158.281 143.588 158.281 143.588C158.281 143.588 156.811 145.908 155.989 146.725C155.168 147.543 157.662 149.012 157.662 149.012C158.034 151.127 155.781 153.516 155.781 153.516C153.491 150.753 150.722 154.196 150.722 154.196C150.722 154.196 149.217 151.6 148.841 150.673C148.466 149.746 150.311 149.106 150.96 148.728C151.609 148.35 150.927 146.132 150.927 146.132C150.927 146.132 150.38 144.187 149.73 142.412C149.079 140.638 150.447 131.806 150.447 131.806C150.447 131.806 150.518 130.235 150.687 129.688C150.771 129.293 150.788 128.887 150.737 128.487C150.726 128.351 150.713 128.24 150.704 128.162C150.694 128.084 150.687 128.051 150.687 128.051L150.713 128.006L151.642 126.278C151.642 126.278 159.137 128.852 158.691 129.94Z" fill="#4A7CE2"/>
<path d="M172.779 151.433C172.779 151.433 171.106 151.398 170.214 152.175C169.322 152.952 165.01 152.346 165.196 152.175C165.382 152.004 165.365 150.743 165.365 150.743C162.836 147.296 164.994 145.898 164.994 145.898C164.994 145.898 163.866 140.474 163.661 138.463C163.518 137.059 163.341 133.271 163.247 131.125C163.206 130.198 163.182 129.558 163.182 129.558L165.23 129.152L165.495 129.1L170.48 128.101C170.48 128.101 170.617 129.028 170.71 129.786C170.757 130.11 170.783 130.437 170.787 130.764C170.755 131.134 170.787 132.297 170.787 132.297L170.958 135.776C170.847 136.141 170.79 136.52 170.787 136.901C170.822 137.346 171.471 143.69 171.471 143.69C171.471 143.69 172.599 147.476 172.214 147.749C171.829 148.021 172.779 151.433 172.779 151.433Z" fill="#4A7CE2"/>
<path opacity="0.1" d="M164.503 60.6961C164.373 61.028 164.351 61.6009 164.388 62.2407C163.362 62.857 162.183 63.1722 160.986 63.1498C159.788 63.1275 158.622 62.7687 157.619 62.1146C157.564 61.2033 157.454 60.2962 157.291 59.3981C157.291 59.3981 164.949 59.5705 164.503 60.6961Z" fill="black"/>
<path d="M167.46 56.6018C167.48 58.2842 166.83 59.9057 165.652 61.1096C164.474 62.3135 162.864 63.0011 161.178 63.0213C159.492 63.0415 157.867 62.3925 156.66 61.2171C155.454 60.0417 154.764 58.4362 154.744 56.7539C154.744 56.7019 154.744 56.6537 154.744 56.6018C154.744 54.9189 155.414 53.305 156.607 52.115C157.8 50.925 159.417 50.2565 161.104 50.2565C162.791 50.2565 164.408 50.925 165.601 52.115C166.794 53.305 167.464 54.9189 167.464 56.6018H167.46Z" fill="#CF6F80"/>
<path opacity="0.1" d="M162.111 70.52C159.658 69.5687 156.502 66.4257 157.29 64.9571C157.464 64.5862 157.568 64.1864 157.597 63.7778L160.955 66.5333L163.033 68.2337L164.613 64.2229C164.745 65.0628 164.88 65.7063 164.88 65.7063C164.88 65.7063 164.41 66.3608 164.137 66.3961C163.864 66.4313 165.631 71.8829 162.111 70.52Z" fill="black"/>
<path d="M170.796 82.697L167.992 129.703L164.334 129.942L154.861 102.686L156.415 70.3271L156.744 63.4904L160.955 66.9412L163.033 68.6416L164.659 64.5121L167.683 67.1415L170.796 82.697Z" fill="#4A7CE2"/>
<path opacity="0.1" d="M158.691 129.94C158.567 130.248 158.472 130.566 158.409 130.892C155.745 130.482 153.158 129.677 150.733 128.501L150.683 128.475L150.7 128.177V128.021L151.629 126.293C151.629 126.293 159.137 128.852 158.691 129.94Z" fill="black"/>
<path opacity="0.1" d="M165.291 130.899C164.611 131.015 163.925 131.094 163.236 131.134C163.195 130.207 163.171 129.568 163.171 129.568L165.23 129.152L165.291 130.899Z" fill="black"/>
<path opacity="0.1" d="M170.718 129.786C169.397 130.129 167.354 130.515 165.529 130.274L165.503 129.1L170.487 128.101C170.487 128.101 170.619 129.021 170.718 129.786Z" fill="black"/>
<path opacity="0.1" d="M165.495 130.489C157.876 131.787 150.897 128.066 150.897 128.066L150.964 126.805C150.964 126.805 151.137 112.51 150.657 111.414C150.178 110.318 149.804 104.768 150.075 103.921C150.347 103.074 149.085 90.2792 149.085 90.2792L148.88 85.0872L141.393 82.0517L144.738 75.0926C145.19 74.1172 145.578 73.1138 145.901 72.0887C146.483 70.2808 149.183 68.5063 149.183 68.5063C149.183 68.5063 151.953 66.7336 153.047 66.8003C154.142 66.8671 155.577 65.2316 155.577 65.2316C156.636 62.5373 157.595 63.7482 157.595 63.7482C157.595 63.878 157.595 63.7482 157.543 64.1468C157.171 67.1044 163.553 76.45 163.644 76.6169L164.26 91.388L164.875 110.081L165.495 130.489Z" fill="black"/>
<path d="M165.291 130.489C157.671 131.787 150.69 128.066 150.69 128.066L150.759 126.805C150.759 126.805 150.93 112.51 150.45 111.414C149.971 110.318 149.597 104.763 149.871 103.908C150.144 103.053 148.874 90.2718 148.874 90.2718L148.668 85.0798L141.182 82.0443L144.527 75.0852C144.978 74.1099 145.367 73.1073 145.691 72.0832C146.273 70.2808 148.982 68.5044 148.982 68.5044C148.982 68.5044 151.751 66.7317 152.844 66.7985C153.937 66.8652 155.379 65.2316 155.379 65.2316C156.44 62.5373 157.609 63.7482 157.609 63.7482C157.609 63.878 157.498 63.9336 157.557 64.1468C158.375 67.0154 163.363 76.45 163.454 76.6169L164.07 91.388L164.672 110.09L165.291 130.489Z" fill="white"/>
<path opacity="0.1" d="M163.238 77.034C162.418 76.6929 158.077 71.7475 158.077 71.7475V70.622C157.919 70.2511 156.978 70.4773 156.218 70.7369L156.545 63.9002L156.917 64.208C157.729 67.0747 163.149 76.869 163.238 77.034Z" fill="black"/>
<path d="M163.444 76.6261C162.622 76.2831 158.281 71.3396 158.281 71.3396V70.2122C158.123 69.8413 157.184 70.0676 156.422 70.3272L156.744 63.4979L157.116 63.8038C157.935 66.6668 163.353 76.4593 163.444 76.6261Z" fill="white"/>
<path opacity="0.1" d="M150.897 101.288C150.999 101.288 156.196 100.743 156.196 100.743C156.196 100.743 159.342 106.918 159.136 108.418C158.93 109.918 158.556 111.249 157.29 111.014C156.025 110.778 150.479 111.199 150.479 111.199L150.897 101.288Z" fill="black"/>
<path d="M150.691 100.878C150.795 100.878 155.991 100.333 155.991 100.333C155.991 100.333 159.136 106.517 158.931 108.001C158.727 109.484 158.35 110.832 157.086 110.596C155.822 110.361 150.272 110.782 150.272 110.782L150.691 100.878Z" fill="white"/>
<path d="M154.607 97.9874C154.607 97.9874 159.376 100.546 159.478 101.325C159.58 102.104 157.051 100.984 156.504 100.847C156.144 100.761 155.778 100.704 155.41 100.676L151.765 100.774L154.607 97.9874Z" fill="#CF6F80"/>
<path opacity="0.1" d="M161.905 77.353C162.182 77.353 162.407 77.1289 162.407 76.8524C162.407 76.5759 162.182 76.3517 161.905 76.3517C161.628 76.3517 161.403 76.5759 161.403 76.8524C161.403 77.1289 161.628 77.353 161.905 77.353Z" fill="black"/>
<path d="M161.905 77.1491C162.182 77.1491 162.407 76.9249 162.407 76.6484C162.407 76.3719 162.182 76.1478 161.905 76.1478C161.628 76.1478 161.403 76.3719 161.403 76.6484C161.403 76.9249 161.628 77.1491 161.905 77.1491Z" fill="#3F3D56"/>
<path opacity="0.1" d="M162.829 99.0258C163.106 99.0258 163.331 98.8017 163.331 98.5252C163.331 98.2487 163.106 98.0245 162.829 98.0245C162.552 98.0245 162.327 98.2487 162.327 98.5252C162.327 98.8017 162.552 99.0258 162.829 99.0258Z" fill="black"/>
<path d="M162.829 98.82C163.106 98.82 163.331 98.5958 163.331 98.3193C163.331 98.0428 163.106 97.8187 162.829 97.8187C162.552 97.8187 162.327 98.0428 162.327 98.3193C162.327 98.5958 162.552 98.82 162.829 98.82Z" fill="#3F3D56"/>
<path opacity="0.1" d="M162.407 88.1894C162.684 88.1894 162.908 87.9653 162.908 87.6888C162.908 87.4123 162.684 87.1881 162.407 87.1881C162.129 87.1881 161.905 87.4123 161.905 87.6888C161.905 87.9653 162.129 88.1894 162.407 88.1894Z" fill="black"/>
<path d="M162.407 87.9854C162.684 87.9854 162.908 87.7613 162.908 87.4848C162.908 87.2083 162.684 86.9841 162.407 86.9841C162.129 86.9841 161.905 87.2083 161.905 87.4848C161.905 87.7613 162.129 87.9854 162.407 87.9854Z" fill="#3F3D56"/>
<path d="M173.974 100.572C173.974 100.572 174.316 101.084 173.974 101.314C173.632 101.544 174.008 102.134 174.008 102.134C174.008 102.134 173.155 102.631 173.53 103.081C173.905 103.532 173.668 105.555 173.668 105.555L172.642 107.259C172.642 107.259 172.703 108.351 172.707 109.827C172.707 112.13 172.571 115.368 171.82 116.844L171.921 128.954C171.921 128.954 168.328 130.265 165.321 129.864L164.875 110.431C164.875 110.431 165.526 99.4115 165.765 97.2976C165.906 96.2002 165.963 95.0937 165.936 93.9877C165.936 93.9877 165.834 90.6797 165.49 89.1462C165.49 89.1462 165.119 82.4931 165.081 80.6518C165.065 79.771 165.111 77.201 165.163 74.757C165.221 72.085 165.286 69.565 165.286 69.565L164.607 64.208C164.607 64.208 165.286 64.1413 165.49 64.412C165.582 64.4973 165.681 64.5737 165.788 64.6401C166.96 65.43 171.097 67.8591 171.097 67.8591C171.097 67.8591 173.387 68.7677 173.935 70.0694C174.483 71.3711 174.864 72.2945 175.13 72.6654C175.396 73.0362 175.541 74.7793 175.541 74.7793C175.541 74.7793 176.329 77.9872 176.944 78.5305C177.559 79.0738 178.002 82.5227 178.002 82.5227L172.565 86.7876C172.565 86.7876 172.088 93.882 171.986 94.1565C171.883 94.4309 173.974 100.572 173.974 100.572Z" fill="white"/>
<path d="M174.18 100.572C174.18 100.572 174.52 101.084 174.18 101.314C173.84 101.544 174.212 102.134 174.212 102.134C174.212 102.134 173.359 102.631 173.734 103.081C174.11 103.532 173.872 105.555 173.872 105.555L172.85 107.259C172.85 107.259 172.911 108.351 172.916 109.827C172.916 112.13 172.781 115.368 172.03 116.844L172.132 128.954C172.132 128.954 168.54 130.265 165.533 129.864L165.088 110.431C165.088 110.431 165.737 99.4115 165.979 97.2976C166.119 96.2002 166.176 95.0937 166.148 93.9877C166.148 93.9877 166.046 90.6797 165.704 89.1462C165.704 89.1462 165.332 82.4931 165.293 80.6518C165.276 79.771 165.323 77.201 165.375 74.757C165.432 72.085 165.497 69.5651 165.497 69.5651L164.602 64.1357C164.602 64.1357 165.497 64.1357 165.704 64.412C165.794 64.4984 165.894 64.5748 166.001 64.6401C167.172 65.43 171.309 67.8591 171.309 67.8591C171.309 67.8591 173.593 68.7677 174.151 70.0694C174.708 71.3711 175.08 72.2946 175.346 72.6654C175.611 73.0363 175.756 74.7793 175.756 74.7793C175.756 74.7793 176.544 77.9872 177.159 78.5305C177.775 79.0738 178.219 82.5228 178.219 82.5228L172.783 86.7876C172.783 86.7876 172.305 93.8821 172.201 94.1565C172.097 94.4309 174.18 100.572 174.18 100.572Z" fill="white"/>
<path opacity="0.1" d="M167.67 71.1394L168.163 72.5672L165.577 75.1632C165.635 72.4911 165.7 69.9712 165.7 69.9712L164.804 64.5437C164.804 64.5437 165.7 64.5437 165.906 64.82C165.997 64.9063 166.097 64.9828 166.204 65.0481L168.4 71.3693L167.67 71.1394Z" fill="black"/>
<path d="M167.46 70.7296L167.952 72.1555L165.369 74.7515C165.424 72.0795 165.491 69.5595 165.491 69.5595L164.594 64.1302C164.594 64.1302 165.491 64.1302 165.696 64.4065C165.787 64.4923 165.887 64.5687 165.993 64.6346L168.203 70.9613L167.46 70.7296Z" fill="white"/>
<path opacity="0.1" d="M167.46 56.6018C167.461 57.2699 167.355 57.934 167.148 58.5692C167.113 58.575 167.077 58.5738 167.042 58.5655C167.008 58.5572 166.976 58.5421 166.947 58.521C166.897 56.8521 166.075 55.2834 165.063 53.9502C164.778 53.5481 164.433 53.1916 164.04 52.8932C163.643 52.5956 163.149 52.4562 162.654 52.502C162.096 52.578 161.604 52.9563 161.041 53.0045C160.297 53.0657 159.632 52.5521 158.894 52.528C158.594 52.5304 158.298 52.5969 158.026 52.7229C157.754 52.8489 157.512 53.0316 157.316 53.2585C156.928 53.7151 156.64 54.2475 156.471 54.8217C156.178 55.6929 156.019 56.603 155.999 57.5215C155.989 58.0407 155.939 58.6916 155.456 58.8807C155.493 58.4991 155.449 58.1142 155.328 57.7502C155.208 57.3863 155.013 57.0514 154.755 56.7668L154.744 56.7538C154.744 56.7019 154.744 56.6537 154.744 56.6018C154.744 54.9189 155.414 53.305 156.607 52.115C157.8 50.925 159.417 50.2565 161.104 50.2565C162.791 50.2565 164.408 50.925 165.601 52.115C166.794 53.305 167.464 54.9189 167.464 56.6018H167.46Z" fill="black"/>
<path d="M163.743 46.5275C162.777 46.0743 161.679 45.9885 160.654 46.2865C160.139 46.4385 159.654 46.6851 159.132 46.8094C158.017 47.0782 156.716 46.7871 155.759 47.438C155.227 47.8088 154.908 48.3948 154.61 48.9659L153.867 50.377C153.462 51.1502 153.053 51.9365 152.884 52.7876C152.715 53.6387 152.817 54.5918 153.358 55.2779C153.75 55.7748 154.333 56.0882 154.761 56.5573C155.018 56.8433 155.212 57.1793 155.333 57.5441C155.453 57.9088 155.496 58.2945 155.46 58.6768C155.943 58.4913 155.991 57.8368 156.002 57.3176C156.023 56.3991 156.182 55.489 156.474 54.6177C156.644 54.0436 156.932 53.5111 157.32 53.0546C157.515 52.8273 157.757 52.6444 158.029 52.5181C158.302 52.3918 158.598 52.325 158.898 52.3221C159.641 52.3481 160.308 52.8617 161.044 52.7987C161.602 52.7523 162.096 52.3741 162.658 52.298C163.152 52.2513 163.647 52.3909 164.044 52.6893C164.437 52.9867 164.781 53.3433 165.064 53.7462C166.079 55.0813 166.902 56.6426 166.951 58.317C167.161 58.4691 167.464 58.2688 167.568 58.0315C167.672 57.7941 167.675 57.516 167.807 57.2897C167.96 57.0283 168.252 56.8874 168.48 56.6908C169.06 56.192 169.205 55.352 169.183 54.5899C169.16 53.8278 169.012 53.0546 169.157 52.3055C169.244 51.8474 169.441 51.4154 169.549 50.9611C169.657 50.5068 169.67 49.9969 169.415 49.6056C169.043 49.0327 168.261 48.9177 167.579 48.8639C166.804 48.7972 166.111 48.8825 165.616 48.2316C165.384 47.8924 165.122 47.5736 164.836 47.2785C164.733 47.1802 163.743 46.5683 163.743 46.5275Z" fill="#512E4E"/>
<path opacity="0.1" d="M143.537 85.6305L141.597 82.0499L140.982 87.5757C140.982 87.5757 141.324 90.0307 141.255 90.4071C141.186 90.7836 142.656 94.1583 142.656 94.1583C142.656 94.1583 147.513 102.79 149.496 103.233L156.186 98.4566L154.41 96.2055C154.41 96.2055 153.794 95.9663 153.64 96.2055C153.64 96.2055 150.339 90.5425 149.999 90.1346C149.659 89.7266 149.724 88.9052 149.724 88.9052C149.724 88.9052 149.211 88.36 149.382 87.8483C149.553 87.3365 148.401 85.5638 148.401 85.5638L149.46 84.5755L143.537 85.6305Z" fill="black"/>
<path d="M141.699 81.6401L141.186 82.0499L140.571 87.5757C140.571 87.5757 140.913 90.0307 140.844 90.4072C140.776 90.7836 142.248 94.1584 142.248 94.1584C142.248 94.1584 147.102 102.79 149.085 103.233L155.787 98.4566L154.008 96.2055C154.008 96.2055 153.393 95.9663 153.239 96.2055C153.239 96.2055 149.94 90.5425 149.598 90.1346C149.256 89.7266 149.325 88.9052 149.325 88.9052C149.325 88.9052 148.812 88.36 148.983 87.8483C149.154 87.3365 147.99 85.5638 147.99 85.5638L149.05 84.5755L141.699 81.6401Z" fill="white"/>
<path opacity="0.1" d="M173.53 103.294C173.902 103.745 173.668 105.77 173.668 105.77L172.642 107.463C172.642 107.463 172.703 108.557 172.707 110.033L170.982 110.571C170.826 110.619 170.66 110.63 170.499 110.601C170.338 110.573 170.186 110.507 170.056 110.408C169.926 110.31 169.821 110.181 169.751 110.034C169.68 109.887 169.646 109.725 169.651 109.562L169.951 99.9937L173.974 101.527C173.632 101.765 174.008 102.347 174.008 102.347C174.008 102.347 173.155 102.844 173.53 103.294Z" fill="black"/>
<path d="M173.734 103.09C174.106 103.539 173.872 105.564 173.872 105.564L172.85 107.259C172.85 107.259 172.911 108.351 172.917 109.827L171.16 110.374C171.008 110.422 170.846 110.432 170.689 110.405C170.531 110.378 170.383 110.313 170.255 110.217C170.128 110.12 170.025 109.995 169.957 109.851C169.888 109.707 169.854 109.549 169.859 109.389L170.159 99.7879L174.18 101.325C173.837 101.562 174.212 102.145 174.212 102.145C174.212 102.145 173.359 102.64 173.734 103.09Z" fill="white"/>
<path d="M175.069 98.5252C175.069 98.5252 174.796 100.266 174.112 100.368C173.428 100.47 173.121 103.185 172.439 103.09C171.757 102.996 172.209 100.565 172.233 100.094C172.257 99.6229 171.489 97.6722 172.062 97.229C172.634 96.7858 174.455 97.229 174.455 97.229L175.069 98.5252Z" fill="#CF6F80"/>
<path opacity="0.1" d="M176.514 85.1187L177.802 82.5227C177.802 82.5227 178.317 84.5012 178.317 85.5582C178.317 86.6151 179.034 86.7189 179.034 86.7189C179.034 86.7189 179.82 87.6461 179.406 88.3229C178.992 88.9997 178.826 90.676 178.826 90.676C178.826 90.676 178.962 93.882 178.347 94.3252C177.732 94.7683 177.594 95.8271 177.594 95.8271C177.594 95.8271 176.466 97.839 176.501 98.3174C176.537 98.7958 174.929 102.035 174.929 102.035C174.929 102.035 175.715 98.0096 171.134 96.2703C171.134 96.2703 171.099 94.9056 171.44 94.531C171.782 94.1564 172.316 93.9747 171.981 92.0908C171.647 90.2068 171.885 87.9353 171.885 87.481C171.885 87.0267 172.911 84.1953 172.911 84.1953L176.514 85.1187Z" fill="black"/>
<path d="M177.087 82.1519L178.214 82.5227C178.214 82.5227 178.728 84.5012 178.728 85.5582C178.728 86.6151 179.446 86.7189 179.446 86.7189C179.446 86.7189 180.232 87.6461 179.817 88.3229C179.403 88.9997 179.236 90.676 179.236 90.676C179.236 90.676 179.373 93.882 178.758 94.3252C178.143 94.7684 178.015 95.8271 178.015 95.8271C178.015 95.8271 176.887 97.839 176.922 98.3174C176.957 98.7959 175.348 102.035 175.348 102.035C175.348 102.035 176.134 98.0096 171.553 96.2703C171.553 96.2703 171.519 94.9056 171.861 94.531C172.203 94.1564 172.737 93.9747 172.402 92.0908C172.067 90.2068 172.305 87.9353 172.305 87.481C172.305 87.0267 173.331 84.1953 173.331 84.1953L177.087 82.1519Z" fill="white"/>
<path opacity="0.1" d="M152.205 149.438C152.205 149.438 154 148.312 155.179 149.13C156.357 149.948 152.205 149.438 152.205 149.438Z" fill="black"/>
<path opacity="0.1" d="M166.159 145.958C166.159 145.958 167.748 145.754 169.083 147.187C170.417 148.62 166.159 145.958 166.159 145.958Z" fill="black"/>
<g opacity="0.1">
<path opacity="0.1" d="M168.481 56.2829C168.252 56.4813 167.959 56.6204 167.806 56.8819C167.676 57.1062 167.672 57.3844 167.568 57.6236C167.464 57.8628 167.161 58.0612 166.949 57.9091C166.901 56.2403 166.078 54.6734 165.065 53.3383C164.782 52.936 164.437 52.58 164.045 52.2833C163.647 51.9842 163.152 51.844 162.656 51.8901C162.099 51.9662 161.608 52.3444 161.045 52.3927C160.302 52.4538 159.634 51.9402 158.896 51.9161C158.597 51.9184 158.301 51.9848 158.029 52.1108C157.757 52.2368 157.516 52.4196 157.321 52.6467C156.933 53.1033 156.644 53.6357 156.475 54.2098C156.183 55.0811 156.024 55.9912 156.003 56.9097C155.992 57.427 155.943 58.0723 155.464 58.2651C155.475 58.4028 155.475 58.541 155.464 58.6786C155.949 58.4932 155.997 57.8387 156.008 57.3195C156.029 56.401 156.188 55.4909 156.48 54.6196C156.65 54.0455 156.938 53.513 157.326 53.0565C157.521 52.8294 157.763 52.6466 158.035 52.5202C158.307 52.3939 158.602 52.327 158.902 52.324C159.645 52.35 160.315 52.8636 161.05 52.8006C161.608 52.7542 162.102 52.376 162.662 52.2999C163.157 52.2533 163.652 52.3928 164.05 52.6912C164.443 52.9887 164.787 53.3452 165.07 53.7481C166.083 55.0832 166.907 56.6445 166.955 58.3189C167.167 58.471 167.47 58.2707 167.574 58.0334C167.678 57.796 167.682 57.5179 167.812 57.2916C167.964 57.0302 168.258 56.8893 168.486 56.6927C169.066 56.1939 169.211 55.3539 169.189 54.5918C169.189 54.5677 169.189 54.5455 169.189 54.5214C169.152 55.1852 168.975 55.8583 168.481 56.2829Z" fill="black"/>
<path opacity="0.1" d="M154.759 56.1531C154.333 55.684 153.75 55.3687 153.358 54.8718C153.026 54.4331 152.838 53.9038 152.817 53.355C152.759 54.0412 152.951 54.7254 153.358 55.2816C153.75 55.7785 154.333 56.0919 154.759 56.561C155.17 57.0197 155.417 57.6014 155.462 58.215C155.489 57.8419 155.442 57.4669 155.321 57.1126C155.2 56.7583 155.009 56.432 154.759 56.1531Z" fill="black"/>
<path opacity="0.1" d="M169.549 50.5532C169.439 51.0075 169.244 51.4395 169.155 51.8975C169.101 52.2072 169.082 52.5219 169.097 52.8358C169.103 52.6585 169.123 52.4818 169.155 52.3073C169.244 51.8493 169.439 51.4173 169.549 50.963C169.612 50.7123 169.633 50.4528 169.61 50.1953C169.598 50.3159 169.578 50.4355 169.549 50.5532Z" fill="black"/>
</g>
<path opacity="0.1" d="M24.6678 155.552C34.6692 155.552 42.777 154.252 42.777 152.65C42.777 151.047 34.6692 149.748 24.6678 149.748C14.6664 149.748 6.55859 151.047 6.55859 152.65C6.55859 154.252 14.6664 155.552 24.6678 155.552Z" fill="#4A7CE2"/>
<path d="M25.2512 97.0566H24.0859V123.233H25.2512V97.0566Z" fill="#535461"/>
<path d="M32.5754 123.156L32.5011 124.335L32.3989 126.004L32.3561 126.697L32.2521 128.366L32.2074 129.06L32.1052 130.728L30.9288 149.655C30.8786 150.469 30.519 151.234 29.9233 151.793C29.3276 152.352 28.5406 152.663 27.7229 152.663H21.614C20.794 152.663 20.005 152.35 19.4089 151.789C18.8127 151.227 18.4546 150.459 18.4081 149.642L17.2317 130.715L17.1295 129.047L17.0867 128.353L16.9808 126.684L16.938 125.991L16.8358 124.322L16.7615 123.143C16.7486 122.917 16.782 122.69 16.8596 122.477C16.9371 122.265 17.0573 122.07 17.2127 121.905C17.3682 121.74 17.5556 121.608 17.7637 121.518C17.9717 121.427 18.1961 121.38 18.423 121.379H30.9158C31.1437 121.38 31.369 121.428 31.5777 121.519C31.7865 121.611 31.9744 121.744 32.1298 121.91C32.2852 122.076 32.4049 122.273 32.4815 122.487C32.5582 122.701 32.5901 122.929 32.5754 123.156Z" fill="#3F3D56"/>
<path d="M32.5016 124.333L32.3975 125.998H16.9385L16.8345 124.333H32.5016Z" fill="#9D9CB5"/>
<path d="M32.3544 126.692L32.2522 128.357H17.085L16.981 126.692H32.3544Z" fill="#9D9CB5"/>
<path d="M32.2078 129.052L32.1056 130.715H17.232L17.1279 129.052H32.2078Z" fill="#9D9CB5"/>
<path d="M15.0634 106.869C21.8506 111.768 24.6774 119.43 24.6774 119.43C24.6774 119.43 16.5 119.15 9.71089 114.251C2.9218 109.352 0.0913086 101.696 0.0913086 101.696C0.0913086 101.696 8.2687 101.97 15.0634 106.869Z" fill="#4A7CE2"/>
<path d="M0.0913086 101.696C0.0913086 101.696 8.57907 106.397 11.3018 110.289C14.0245 114.181 24.6699 119.434 24.6699 119.434" stroke="#535461" stroke-width="2" stroke-miterlimit="10"/>
<path d="M19.4358 97.0009C23.1305 99.6655 24.6694 103.836 24.6694 103.836C24.6694 103.836 20.209 103.684 16.5236 101.019C12.8382 98.3546 11.29 94.1824 11.29 94.1824C11.29 94.1824 15.743 94.3345 19.4358 97.0009Z" fill="#4A7CE2"/>
<path d="M11.29 94.1824C11.29 94.1824 15.9103 96.7413 17.3933 98.8589C18.8764 100.977 24.6694 103.836 24.6694 103.836" stroke="#535461" stroke-width="2" stroke-miterlimit="10"/>
<path d="M30.0371 103.624C25.7941 108.277 24.8965 114.357 24.8965 114.357C24.8965 114.357 30.879 112.892 35.1182 108.238C39.3574 103.584 40.2588 97.5053 40.2588 97.5053C40.2588 97.5053 34.28 98.972 30.0371 103.624Z" fill="#4A7CE2"/>
<path d="M40.2625 97.5071C40.2625 97.5071 34.7354 102.276 33.3303 105.562C31.9253 108.848 24.8965 114.357 24.8965 114.357" stroke="#535461" stroke-width="2" stroke-miterlimit="10"/>
</g>
<defs>
<linearGradient id="paint0_linear" x1="86.5188" y1="154.936" x2="86.5188" y2="47.8237" gradientUnits="userSpaceOnUse">
<stop stop-color="#808080" stop-opacity="0.25"/>
<stop offset="0.54" stop-color="#808080" stop-opacity="0.12"/>
<stop offset="1" stop-color="#808080" stop-opacity="0.1"/>
</linearGradient>
<linearGradient id="paint1_linear" x1="35363.4" y1="100382" x2="35363.4" y2="30174.5" gradientUnits="userSpaceOnUse">
<stop stop-color="#808080" stop-opacity="0.25"/>
<stop offset="0.54" stop-color="#808080" stop-opacity="0.12"/>
<stop offset="1" stop-color="#808080" stop-opacity="0.1"/>
</linearGradient>
<clipPath id="clip0">
<rect width="217" height="160" fill="white"/>
</clipPath>
</defs>
</svg>
