<svg width="328" height="218" viewBox="0 0 328 218" fill="none" xmlns="http://www.w3.org/2000/svg">
<g clip-path="url(#clip0)">
<path opacity="0.1" d="M191.187 43.4791C171.891 42.7942 153.513 36.5726 135.975 29.7793C118.438 22.986 101.044 15.4273 82.2095 11.8206C70.0956 9.50059 56.2404 9.17299 46.4819 15.6596C37.0871 21.9138 34.052 32.6801 32.4211 42.681C31.1927 50.204 30.4712 58.1201 33.8343 65.1636C36.1718 70.0538 40.3161 74.1638 43.1844 78.8485C53.1635 95.1454 46.1092 115.242 35.2982 131.155C30.2297 138.621 24.3411 145.748 20.4264 153.688C16.5117 161.628 14.7019 170.739 18.1277 178.845C21.5206 186.887 29.6095 192.914 38.3722 197.158C56.1689 205.777 77.1319 208.246 97.5882 209.643C142.857 212.738 188.364 211.397 233.751 210.057C250.549 209.56 267.419 209.056 283.942 206.462C293.119 205.021 302.592 202.734 309.255 197.215C317.711 190.207 319.807 178.339 314.139 169.553C304.634 154.814 278.361 151.154 271.709 135.334C268.054 126.628 271.807 116.928 277.123 108.854C288.525 91.5328 307.633 76.3349 308.638 56.5327C309.33 42.9341 300.144 29.3147 285.94 22.8788C271.053 16.1331 250.406 16.9819 239.428 28.1473C228.104 39.6313 208.226 44.0539 191.187 43.4791Z" fill="#4A7CE2"/>
<path d="M51.0615 218C63.1166 218 72.8892 216.123 72.8892 213.807C72.8892 211.491 63.1166 209.613 51.0615 209.613C39.0064 209.613 29.2338 211.491 29.2338 213.807C29.2338 216.123 39.0064 218 51.0615 218Z" fill="#4A7CE2"/>
<path d="M50.6948 215.349C52.0977 215.349 53.2351 213.861 53.2351 212.026C53.2351 210.19 52.0977 208.702 50.6948 208.702C49.2919 208.702 48.1545 210.19 48.1545 212.026C48.1545 213.861 49.2919 215.349 50.6948 215.349Z" fill="#3F3D56"/>
<path d="M50.6948 211.287C52.0977 211.287 53.2351 209.799 53.2351 207.963C53.2351 206.128 52.0977 204.64 50.6948 204.64C49.2919 204.64 48.1545 206.128 48.1545 207.963C48.1545 209.799 49.2919 211.287 50.6948 211.287Z" fill="#3F3D56"/>
<path d="M50.6948 207.225C52.0977 207.225 53.2351 205.737 53.2351 203.901C53.2351 202.065 52.0977 200.577 50.6948 200.577C49.2919 200.577 48.1545 202.065 48.1545 203.901C48.1545 205.737 49.2919 207.225 50.6948 207.225Z" fill="#3F3D56"/>
<path d="M50.6948 203.165C52.0977 203.165 53.2351 201.677 53.2351 199.842C53.2351 198.006 52.0977 196.518 50.6948 196.518C49.2919 196.518 48.1545 198.006 48.1545 199.842C48.1545 201.677 49.2919 203.165 50.6948 203.165Z" fill="#3F3D56"/>
<path d="M50.6948 199.103C52.0977 199.103 53.2351 197.615 53.2351 195.779C53.2351 193.944 52.0977 192.456 50.6948 192.456C49.2919 192.456 48.1545 193.944 48.1545 195.779C48.1545 197.615 49.2919 199.103 50.6948 199.103Z" fill="#3F3D56"/>
<path d="M50.6948 195.041C52.0977 195.041 53.2351 193.553 53.2351 191.717C53.2351 189.881 52.0977 188.393 50.6948 188.393C49.2919 188.393 48.1545 189.881 48.1545 191.717C48.1545 193.553 49.2919 195.041 50.6948 195.041Z" fill="#3F3D56"/>
<path d="M50.6948 190.979C52.0977 190.979 53.2351 189.491 53.2351 187.655C53.2351 185.819 52.0977 184.331 50.6948 184.331C49.2919 184.331 48.1545 185.819 48.1545 187.655C48.1545 189.491 49.2919 190.979 50.6948 190.979Z" fill="#3F3D56"/>
<path d="M60.2088 159.859C60.5569 159.418 60.8738 158.953 61.1569 158.468L54.4783 157.372L61.6996 157.426C62.3929 155.92 62.7711 154.289 62.8111 152.633C62.8511 150.976 62.552 149.329 61.9321 147.791L52.2452 152.813L61.1897 146.261C60.3518 144.817 59.2255 143.561 57.8809 142.571C56.5363 141.582 55.002 140.879 53.3737 140.506C51.7454 140.134 50.0579 140.101 48.4161 140.408C46.7742 140.715 45.2133 141.357 43.8304 142.293C42.4475 143.229 41.2722 144.439 40.3777 145.848C39.4831 147.257 38.8885 148.835 38.6307 150.484C38.3729 152.132 38.4576 153.816 38.8793 155.431C39.3011 157.045 40.051 158.556 41.0823 159.868C40.5414 160.556 40.0756 161.3 39.693 162.087L48.3632 166.584L39.1205 163.487C38.4703 165.403 38.3092 167.45 38.6518 169.444C38.9944 171.438 39.8298 173.315 41.0823 174.905C39.6698 176.699 38.7909 178.853 38.5464 181.122C38.3019 183.391 38.7015 185.683 39.6996 187.736C40.6977 189.789 42.2539 191.52 44.1904 192.731C46.1269 193.942 48.3654 194.584 50.65 194.584C52.9347 194.584 55.1732 193.942 57.1097 192.731C59.0462 191.52 60.6024 189.789 61.6005 187.736C62.5986 185.683 62.9982 183.391 62.7537 181.122C62.5091 178.853 61.6303 176.699 60.2177 174.905C61.9058 172.762 62.8235 170.114 62.8235 167.387C62.8235 164.659 61.9058 162.011 60.2177 159.868L60.2088 159.859Z" fill="#4A7CE2"/>
<path opacity="0.1" d="M38.4794 167.373C38.4758 170.101 39.394 172.749 41.0853 174.89C39.6727 176.684 38.7939 178.838 38.5494 181.107C38.3048 183.376 38.7045 185.668 39.7025 187.721C40.7006 189.774 42.2569 191.505 44.1933 192.716C46.1298 193.927 48.3683 194.569 50.653 194.569C52.9376 194.569 55.1762 193.927 57.1126 192.716C59.0491 191.505 60.6054 189.774 61.6034 187.721C62.6015 185.668 63.0011 183.376 62.7566 181.107C62.5121 178.838 61.6333 176.684 60.2207 174.89C61.8426 172.826 38.4794 166.012 38.4794 167.373Z" fill="black"/>
<path d="M156.813 163.204C156.998 165.586 157.916 168.052 159.848 169.458C161.78 170.864 164.854 170.837 166.33 168.949C166.826 168.24 167.19 167.448 167.406 166.611C168.65 162.685 169.532 158.391 168.17 154.504C165.096 154.305 161.533 152.86 159.225 155.398C157.362 157.465 156.598 160.449 156.813 163.204Z" fill="#3F3D56"/>
<path d="M171.083 139.19C170.674 142.654 169.979 146.103 170.051 149.59C170.078 150.936 170.221 152.271 170.224 153.623C170.229 157.134 169.303 160.583 167.541 163.621C167.355 163.978 167.106 164.299 166.807 164.568C166.1 165.14 165.036 165.092 164.243 164.654C163.468 164.173 162.839 163.49 162.421 162.68C160.2 158.879 160.137 154.26 159.258 149.951C158.584 146.654 157.403 143.458 156.977 140.122C156.7 137.975 156.741 135.786 156.3 133.666C156.166 133.025 155.79 132.063 155.543 131.119C155.316 130.276 155.191 129.449 155.424 128.88C155.898 127.715 157.451 128.168 158.462 128.239C162.021 128.503 165.596 128.494 169.154 128.213C169.505 128.186 169.905 128.171 170.152 128.421C170.26 128.547 170.341 128.694 170.391 128.853C170.674 129.627 170.891 130.424 171.038 131.235C171.53 133.83 171.393 136.549 171.083 139.19Z" fill="#FABDBD"/>
<g opacity="0.1">
<path opacity="0.1" d="M169.711 128.213C169.528 128.193 169.343 128.193 169.159 128.213C167.454 128.35 165.746 128.418 164.04 128.427C165.93 128.431 167.821 128.359 169.711 128.213Z" fill="black"/>
<path opacity="0.1" d="M164.845 164.654C164.07 164.173 163.441 163.49 163.024 162.68C160.802 158.879 160.74 154.26 159.86 149.951C159.186 146.654 158.006 143.458 157.579 140.123C157.302 137.975 157.344 135.786 156.902 133.666C156.768 133.025 156.393 132.063 156.145 131.119C155.919 130.277 155.793 129.449 156.026 128.88C156.125 128.647 156.291 128.448 156.503 128.31C156.716 128.172 156.965 128.101 157.218 128.105C156.464 128.055 155.728 128.144 155.43 128.88C155.197 129.449 155.322 130.277 155.549 131.119C155.796 132.063 156.172 133.025 156.306 133.666C156.747 135.786 156.706 137.975 156.983 140.123C157.409 143.461 158.59 146.657 159.264 149.951C160.143 154.26 160.206 158.885 162.427 162.68C162.844 163.49 163.474 164.173 164.249 164.654C164.725 164.917 165.27 165.027 165.811 164.97C165.472 164.925 165.145 164.818 164.845 164.654Z" fill="black"/>
</g>
<path d="M182.356 157.456C180.567 161.03 180.865 166.093 180.865 166.093C181.163 178.005 176.393 203.022 176.393 203.022H172.219C172.219 203.022 171.622 175.325 172.219 172.942C172.815 170.56 171.92 162.221 171.026 150.606C170.361 141.969 172.171 134.142 173.143 130.708C173.477 129.517 173.709 128.865 173.709 128.865C173.709 128.865 180.567 118.739 184.443 123.504C185.337 124.612 185.811 126.848 185.975 129.672C186.506 138.988 183.727 154.713 182.356 157.456Z" fill="#FABDBD"/>
<path opacity="0.1" d="M185.975 129.672C185.811 126.848 185.343 124.609 184.443 123.504C183.578 122.444 182.564 122.122 181.515 122.262C182.328 122.397 183.057 122.842 183.548 123.504C184.443 124.612 184.917 126.848 185.081 129.672C185.611 138.988 182.833 154.713 181.461 157.456C179.672 161.03 179.97 166.093 179.97 166.093C180.269 178.005 175.498 203.023 175.498 203.023H176.393C176.393 203.023 181.163 178.005 180.865 166.093C180.865 166.093 180.567 161.03 182.356 157.456C183.727 154.713 186.506 138.988 185.975 129.672Z" fill="black"/>
<path d="M170.048 201.935C169.715 202.197 169.427 202.51 169.195 202.865C168.662 203.871 169.419 205.074 170.23 205.876C171.041 206.677 172.019 207.535 172.019 208.675C172.019 209.592 171.324 210.379 170.546 210.867C170.129 211.129 169.604 211.463 169.69 211.957C169.721 212.082 169.774 212.2 169.848 212.306C170.516 213.327 171.7 213.926 172.898 214.152C174.097 214.378 175.334 214.28 176.554 214.182C176.736 214.188 176.915 214.127 177.055 214.009C177.143 213.89 177.19 213.746 177.189 213.598C177.248 212.967 177.21 212.3 177.487 211.731C177.875 210.954 178.766 210.557 179.276 209.861C179.991 208.907 179.893 207.582 179.622 206.424C179.025 203.901 177.699 201.024 175.707 199.276C173.399 197.269 171.59 200.485 170.048 201.935Z" fill="#3F3D56"/>
<path d="M179.082 51.8181C180.746 49.3342 180.313 45.8616 178.614 43.3897C176.914 40.9178 174.183 39.3631 171.366 38.3595C167.567 37.0074 163.378 36.5457 159.476 37.5613C156.369 38.3684 153.578 40.0571 150.65 41.3615C145.47 43.6701 139.838 44.7896 134.168 44.6376C127.874 44.4619 120.978 42.8506 115.698 46.2875C106.032 52.5686 110.331 69.6636 101.187 76.6654C98.7211 78.5536 95.6173 79.3786 92.8743 80.8349C90.1313 82.2913 87.5314 84.8257 87.597 87.929C87.6269 89.4181 88.2828 90.8388 89.0878 92.0985C92.5165 97.5279 98.9268 100.887 105.346 100.825C111.765 100.762 118.029 97.3521 121.729 92.1045C122.657 90.7911 123.474 89.3288 124.818 88.4532C127.502 86.6961 131.038 87.9261 134.24 88.1881C141.369 88.7689 148.501 83.423 149.92 76.4093C150.516 73.4162 150.412 69.8393 152.824 67.96C154.771 66.4441 157.511 66.7687 159.979 66.5096C164.493 66.0421 168.056 63.2336 170.507 59.5644C171.631 57.8817 171.762 55.8714 173.295 54.5461C174.947 53.0898 177.502 54.1649 179.082 51.8181Z" fill="#3F3D56"/>
<g opacity="0.1">
<path opacity="0.1" d="M128.205 45.2124C130.82 45.2841 133.435 45.0845 136.008 44.6168C135.298 44.6376 134.583 44.6376 133.87 44.6168C128.93 44.4798 123.62 43.4612 119.01 44.6883C122.051 44.718 125.197 45.129 128.205 45.2124Z" fill="black"/>
<path opacity="0.1" d="M118.849 89.0459C117.505 89.9215 116.688 91.3838 115.76 92.6972C112.91 96.6933 108.745 99.5616 103.992 100.801C104.341 100.816 104.69 100.825 105.042 100.822C111.467 100.759 117.725 97.3492 121.425 92.1016C122.353 90.7882 123.17 89.3259 124.514 88.4503L124.747 88.3073C122.642 88.0184 120.576 87.9172 118.849 89.0459Z" fill="black"/>
<path opacity="0.1" d="M178.313 43.3808C176.616 40.9208 173.882 39.3542 171.065 38.3506C167.266 36.9984 163.077 36.5368 159.174 37.5524C159.085 37.5732 158.998 37.6 158.912 37.6239C161.127 37.7473 163.313 38.1928 165.4 38.9462C168.217 39.9499 170.951 41.5164 172.648 43.9764C174.344 46.4364 174.78 49.9329 173.116 52.4048C171.536 54.7606 168.981 53.6854 167.308 55.1358C165.775 56.4611 165.644 58.4714 164.52 60.1541C162.412 63.3021 159.478 65.8128 155.826 66.7658C157.081 66.6169 158.405 66.6347 159.657 66.5037C164.171 66.0361 167.734 63.2277 170.185 59.5585C171.309 57.8758 171.44 55.8655 172.973 54.5402C174.645 53.0898 177.201 54.1649 178.781 51.8092C180.448 49.3253 180.015 45.8408 178.313 43.3808Z" fill="black"/>
<path opacity="0.1" d="M153.996 67.0993C151.542 67.3555 148.802 67.0338 146.84 68.5497C144.428 70.429 144.544 74.0058 143.936 76.999C142.889 82.2317 138.638 86.5471 133.59 88.1524L133.945 88.1852C141.074 88.7659 148.205 83.42 149.625 76.4063C150.221 73.4132 150.117 69.8363 152.529 67.9571C153.083 67.5432 153.711 67.2399 154.38 67.0636C154.246 67.0666 154.124 67.0874 153.996 67.0993Z" fill="black"/>
</g>
<path d="M226.035 41.1561C226.035 41.1561 218.879 55.4516 216.494 60.8124C214.109 66.1732 192.344 74.2144 189.362 74.5122C188.563 74.6217 187.818 74.9802 187.234 75.5367C185.549 77.0258 184.592 79.5752 184.592 79.5752C184.592 79.5752 185.785 87.6164 184.294 101.018C184.264 101.277 184.237 101.537 184.213 101.787C182.913 114.54 185.635 117.548 185.635 117.548C185.635 117.548 156.715 128.567 157.609 114.271C157.889 109.771 157.848 106.483 157.57 103.735C157.267 100.92 156.694 98.1419 155.859 95.4372C155.152 92.9682 154.309 90.261 153.435 86.574C153.015 84.7344 152.461 82.9278 151.777 81.1685C151.756 81.1149 151.736 81.0613 151.718 81.0107C150.227 77.3147 148.736 76.1204 147.883 75.7333C147.078 75.3834 146.311 74.9523 145.594 74.4467C142.839 72.4602 136.926 68.0078 131.661 62.7482C124.505 55.6005 117.35 38.6246 117.35 38.6246C117.35 38.6246 115.263 28.7965 120.033 20.7553C124.804 12.7141 122.716 36.5398 122.716 36.5398C122.716 36.5398 131.363 48.1549 133.45 53.5157C134.523 56.2736 136.229 57.6852 137.624 58.4179C139.929 59.6166 142.137 60.9948 144.225 62.5397C145.637 63.6053 147.12 64.5725 148.665 65.4346C151.998 67.2215 155.99 69.2378 159.318 69.7679C159.837 69.8536 160.362 69.8984 160.889 69.9019C161.139 69.9099 161.387 69.8603 161.614 69.757C161.842 69.6537 162.043 69.4995 162.201 69.3063C163.095 68.255 163.074 65.9915 162.869 64.1301C162.759 63.1658 162.595 62.2083 162.38 61.2621C162.38 61.2621 172.07 55.1567 171.771 62.6023C171.725 63.425 171.802 64.2501 171.998 65.0504C172.157 65.785 172.508 66.4643 173.015 67.019C173.523 67.5736 174.169 67.9837 174.887 68.2073C176.051 68.5482 177.282 68.5882 178.465 68.3235C178.834 68.2605 179.19 68.1388 179.52 67.9631C180.415 67.3674 189.359 64.687 192.043 64.3892C194.726 64.0914 208.143 57.5393 208.143 57.5393L222.752 37.2874C222.752 37.2874 222.454 25.3745 228.417 20.6093C234.38 15.8442 226.035 41.1561 226.035 41.1561Z" fill="#FABDBD"/>
<g opacity="0.1">
<path opacity="0.1" d="M184.213 99.9998C183.953 102.393 183.838 104.8 183.87 107.207C183.9 105.635 184.005 103.839 184.213 101.787C184.237 101.537 184.264 101.277 184.294 101.018C184.815 96.4318 185.064 91.8184 185.039 87.2024C184.993 91.222 184.744 95.2368 184.294 99.2314C184.276 99.4905 184.237 99.7496 184.213 99.9998Z" fill="black"/>
<path opacity="0.1" d="M162.69 61.0714C162.49 61.1876 162.391 61.259 162.391 61.259C162.681 62.5331 162.873 63.8274 162.964 65.1307C163.024 63.7716 162.932 62.4101 162.69 61.0714Z" fill="black"/>
<path opacity="0.1" d="M122.856 34.9226C123.003 32.8379 123.22 29.1002 123.178 25.7765C123.128 30.22 122.731 34.7529 122.731 34.7529L122.856 34.9226Z" fill="black"/>
<path opacity="0.1" d="M157.63 113.923C157.63 114.039 157.63 114.155 157.609 114.271C156.715 128.567 185.635 117.547 185.635 117.547C185.297 117.091 185.042 116.579 184.881 116.034C180.525 117.583 158.635 124.784 157.63 113.923Z" fill="black"/>
<path opacity="0.1" d="M226.035 39.3691C226.035 39.3691 218.879 53.6646 216.494 59.0254C214.109 64.3862 192.344 72.4274 189.362 72.7252C188.562 72.8347 187.818 73.1932 187.233 73.7497C185.549 75.2388 184.592 77.7882 184.592 77.7882C184.592 77.7882 184.663 78.2736 184.75 79.1969C185.084 78.4315 185.942 76.6743 187.233 75.5367C187.818 74.9801 188.562 74.6217 189.362 74.5122C192.344 74.2143 214.109 66.1731 216.494 60.8123C218.879 55.4515 226.035 41.1561 226.035 41.1561C226.035 41.1561 231.077 25.8629 230.522 21.2883C230.063 27.1495 226.035 39.3691 226.035 39.3691Z" fill="black"/>
<path opacity="0.1" d="M157.57 101.948C157.267 99.1335 156.694 96.3549 155.859 93.6502C155.152 91.1813 154.309 88.4741 153.435 84.787C153.014 82.9474 152.46 81.1408 151.777 79.3815C151.756 79.3279 151.736 79.2743 151.718 79.2237C150.227 75.5277 148.736 74.3334 147.883 73.9463C147.078 73.5964 146.311 73.1653 145.594 72.6597C142.839 70.6732 136.926 66.2208 131.661 60.9612C124.505 53.8135 117.35 36.8376 117.35 36.8376C117.085 35.4045 116.938 33.9523 116.908 32.4954C116.836 34.5483 116.983 36.6031 117.35 38.6245C117.35 38.6245 124.505 55.6004 131.661 62.7482C136.926 68.0077 142.839 72.4601 145.594 74.4466C146.317 74.9533 147.09 75.3845 147.901 75.7332C148.751 76.1204 150.239 77.3146 151.736 81.0106C151.753 81.0613 151.774 81.1149 151.795 81.1685C152.475 82.928 153.026 84.7346 153.444 86.574C154.318 90.261 155.161 92.9682 155.868 95.4371C156.703 98.1419 157.276 100.92 157.579 103.734C157.705 104.979 157.779 106.334 157.8 107.859C157.836 105.886 157.759 103.912 157.57 101.948Z" fill="black"/>
</g>
<path d="M187.099 89.0102C186.644 89.7619 186.246 90.5463 185.907 91.357C185.457 92.6079 185.454 93.9689 185.37 95.2942C185.251 97.1541 184.968 98.9999 184.523 100.81C184.451 101.143 184.352 101.47 184.225 101.787C184.136 102 184.019 102.2 183.876 102.382C183.717 102.577 183.531 102.746 183.322 102.886C183.002 103.099 182.664 103.283 182.311 103.437C178.161 105.373 173.635 107.082 169.106 106.415C167.191 106.081 165.339 105.458 163.611 104.568C161.971 103.773 160.117 102.829 158.417 103.49C158.156 103.623 157.875 103.71 157.585 103.749C157.529 103.75 157.473 103.745 157.418 103.735C156.858 103.627 156.858 101.739 156.73 101.182C156.241 99.0438 156.166 97.3105 155.874 95.4521C155.719 94.4243 155.478 93.4112 155.155 92.4232C153.963 88.8196 153.602 84.9776 153.602 81.2013C153.602 81.0136 152.26 81.2013 151.813 81.1834C151.7 81.1834 151.637 81.1655 151.664 81.1268C151.69 81.0898 151.72 81.0558 151.753 81.0255C151.91 80.8989 152.092 80.8084 152.287 80.7605L152.639 80.6562C154.482 80.135 156.515 79.9176 157.892 78.6221C159.324 77.2849 159.681 75.1495 159.619 73.1958C159.601 72.5674 159.294 71.0425 159.344 69.7768C159.864 69.8625 160.389 69.9073 160.916 69.9108C161.165 69.9188 161.414 69.8692 161.641 69.7659C161.869 69.6626 162.069 69.5084 162.228 69.3152C162.725 70.2771 163.155 71.2722 163.516 72.2934C164.022 73.5383 164.41 74.8487 165.152 75.9745C166.345 77.8091 168.545 79.0152 170.734 78.8306C172.922 78.6459 174.959 76.9662 175.349 74.81C175.692 72.9188 174.896 70.1967 174.914 68.2311C176.077 68.572 177.309 68.6119 178.492 68.3472C178.542 68.4686 178.585 68.5929 178.62 68.7195C179.291 71.0187 180.185 73.6574 182.436 74.4734C183.891 74.9976 185.612 74.6045 186.956 75.3669C187.06 75.4263 187.159 75.4919 187.254 75.5635C187.565 75.794 187.832 76.0773 188.045 76.4004C188.597 77.3113 188.925 78.3402 189.002 79.4024C189.346 82.723 188.683 86.0704 187.099 89.0102Z" fill="#4A7CE2"/>
<path opacity="0.1" d="M171.998 65.0474C170.511 65.62 168.909 65.8351 167.323 65.6752C165.737 65.5153 164.211 64.985 162.868 64.1271C162.759 63.1628 162.595 62.2053 162.38 61.259C162.38 61.259 172.069 55.1537 171.771 62.5992C171.725 63.422 171.801 64.247 171.998 65.0474Z" fill="black"/>
<path d="M168.34 65.1308C173.938 65.1308 178.477 60.5973 178.477 55.0049C178.477 49.4125 173.938 44.8789 168.34 44.8789C162.741 44.8789 158.203 49.4125 158.203 55.0049C158.203 60.5973 162.741 65.1308 168.34 65.1308Z" fill="#FABDBD"/>
<path d="M150.602 80.1708C150.602 80.1708 170.281 67.6623 231.402 81.0643C292.523 94.4663 328.003 83.7447 328.003 83.7447V97.7424C328.003 97.7424 259.428 105.188 233.191 97.7424C206.953 90.2968 169.604 86.0022 156.524 97.5309L150.602 80.1708Z" fill="#F86D70"/>
<path opacity="0.1" d="M150.602 80.1708C150.602 80.1708 170.281 67.6623 231.402 81.0643C292.523 94.4663 328.003 83.7447 328.003 83.7447V97.7424C328.003 97.7424 259.428 105.188 233.191 97.7424C206.953 90.2968 169.604 86.0022 156.524 97.5309L150.602 80.1708Z" fill="black"/>
<path d="M151.199 80.7664C151.199 80.7664 170.28 68.2579 231.402 81.6599C292.523 95.0619 327.407 84.3403 327.407 84.3403L327.705 97.1467C327.705 97.1467 259.726 104.592 233.489 97.1467C207.251 89.7011 170.2 84.513 157.12 96.0417L151.199 80.7664Z" fill="#F86D70"/>
<path d="M144.025 100.006C144.025 100.006 124.347 112.514 63.2261 99.1123C2.10496 85.7103 5.08648 96.4319 5.08648 96.4319V82.4343C5.08648 82.4343 35.1998 74.9887 61.4372 82.4343C87.6746 89.8798 125.024 94.1744 138.104 82.6457L144.025 100.006Z" fill="#F86D70"/>
<path opacity="0.1" d="M144.025 100.006C144.025 100.006 124.347 112.514 63.2261 99.1123C2.10496 85.7103 5.08648 96.4319 5.08648 96.4319V82.4343C5.08648 82.4343 35.1998 74.9887 61.4372 82.4343C87.6746 89.8798 125.024 94.1744 138.104 82.6457L144.025 100.006Z" fill="black"/>
<path d="M143.429 99.4101C143.429 99.4101 124.347 111.919 63.2261 98.5166C2.10491 85.1146 5.68273 95.8362 5.68273 95.8362L5.38458 83.0298C5.38458 83.0298 34.9016 75.5843 61.139 83.0298C87.3764 90.4754 124.428 95.6635 137.508 84.1348L143.429 99.4101Z" fill="#F86D70"/>
<path d="M159.622 56.6816C159.323 54.8232 158.864 52.4823 160.421 51.4191C160.976 51.0829 161.618 50.9172 162.266 50.9426C165.489 50.9098 168.569 53.1524 171.73 52.4972C172.735 52.2866 173.659 51.7904 174.389 51.068C175.119 50.3457 175.625 49.428 175.845 48.4254C176.066 47.4228 175.992 46.378 175.632 45.4165C175.272 44.455 174.642 43.6178 173.817 43.0056C172.573 42.0823 171.002 41.7488 169.481 41.4361C165.483 40.6141 161.309 39.7951 157.362 40.8404C153.414 41.8858 149.806 45.4209 150.122 49.4773C150.272 51.4191 151.261 53.1822 152.296 54.8381C153.083 56.0949 156.148 61.9858 157.636 62.0752C159.735 62.1973 159.827 57.8967 159.622 56.6816Z" fill="#3F3D56"/>
<path d="M184.741 112.484C184.741 112.484 164.168 117.547 157.311 112.484C157.311 112.484 154.329 124.1 155.224 130.056C155.224 130.056 169.833 130.95 171.324 131.843C171.324 131.843 171.622 129.46 173.113 130.652C173.113 130.652 178.182 124.695 187.424 130.056C187.424 130.056 189.213 116.058 184.741 112.484Z" fill="#4A7CE2"/>
<path opacity="0.1" d="M173.823 43.0056C173.611 42.852 173.388 42.7127 173.158 42.5886C173.773 43.2873 174.194 44.135 174.378 45.0471C174.563 45.9592 174.504 46.9036 174.209 47.786C173.913 48.6685 173.391 49.458 172.695 50.0757C171.998 50.6934 171.151 51.1176 170.239 51.3059C167.078 51.9611 163.999 49.7185 160.776 49.7512C160.127 49.7258 159.485 49.8916 158.93 50.2278C157.374 51.291 157.83 53.6319 158.128 55.4903C158.325 56.7054 158.244 61.0059 156.151 60.8898H156.115C156.691 61.5897 157.228 62.0632 157.642 62.0811C159.729 62.1972 159.815 57.9116 159.619 56.6816C159.321 54.8232 158.864 52.4823 160.421 51.4191C160.976 51.0828 161.618 50.9171 162.266 50.9425C165.489 50.9098 168.569 53.1524 171.73 52.4972C172.735 52.2866 173.659 51.7904 174.389 51.068C175.119 50.3457 175.625 49.428 175.845 48.4254C176.066 47.4228 175.992 46.3779 175.632 45.4164C175.272 44.4549 174.642 43.6178 173.817 43.0056H173.823Z" fill="black"/>
<g opacity="0.1">
<path opacity="0.1" d="M25.7484 28.859C25.7484 28.859 3.45554 19.4955 0.533647 36.382C0.533647 36.382 -0.98991 39.0118 1.12995 41.1859C1.12995 41.1859 1.58612 40.0214 3.74176 41.2275C4.51128 41.6502 5.32786 41.9811 6.17468 42.2133C7.31902 42.5287 8.53496 42.4638 9.63921 42.0287C9.63921 42.0287 16.9708 41.6326 23.1366 32.0516C23.1366 32.0516 25.7782 30.4196 25.9123 29.809L21.4937 30.1069C21.4937 30.1069 21.8306 33.3382 20.003 35.2771C20.003 35.2771 21.6279 30.2647 20.8467 30.1218C20.6887 30.092 18.5122 30.3809 18.5122 30.3809C18.5122 30.3809 19.0757 35.9978 16.127 38.9045C16.127 38.9045 18.864 33.1893 17.6714 30.4821L14.4126 31.1105C14.4126 31.1105 15.3071 37.0193 12.0811 40.4592C12.0811 40.4592 14.7316 34.3836 13.709 31.2952L10.5844 32.3435C10.5844 32.3435 11.3387 38.1272 8.6404 40.9804C8.6404 40.9804 10.9958 33.651 9.88668 32.6413C9.88668 32.6413 7.07809 33.779 6.47582 34.4283C6.47582 34.4283 6.92305 38.5978 5.20569 40.0869C5.20569 40.0869 6.26115 35.0239 5.73938 34.8154C5.73938 34.8154 2.47462 37.2695 1.48177 39.387C1.48177 39.387 2.72208 36.1527 5.32793 34.324C5.32793 34.324 3.1395 33.9547 1.45196 34.869C1.45196 34.869 2.58195 32.7217 6.11803 33.7403C6.11803 33.7403 8.73879 31.9295 9.26354 31.9534C9.26354 31.9534 5.91827 30.4643 3.50026 30.6459C3.50026 30.6459 6.0912 29.1568 10.0835 31.6466L13.1962 30.5208C13.1962 30.5208 8.87594 28.308 6.70838 28.317C6.70838 28.317 9.58852 27.2061 14.0071 30.3034L17.1944 29.6512C17.1944 29.6512 13.6166 27.4622 11.2045 26.9529C11.2045 26.9529 14.0996 26.4973 18.1157 29.5023L20.2981 29.3176C20.2981 29.3176 17.6565 27.766 16.8575 27.3877C16.0584 27.0095 16.0942 26.7623 16.0942 26.7623C17.996 27.0922 19.7685 27.9439 21.2135 29.2223C21.2135 29.2223 25.7275 29.136 25.7484 28.859Z" fill="#4A7CE2"/>
</g>
<g opacity="0.1">
<path opacity="0.1" d="M24.9255 12.0737C24.9255 12.0737 17.0126 -6.17386 5.65598 2.19494C5.65598 2.19494 3.24989 2.89185 3.27076 5.38164C3.27076 5.38164 4.20696 4.9498 4.7973 6.8916C5.01802 7.58118 5.31819 8.2428 5.69176 8.86318C6.18585 9.69763 6.93828 10.3489 7.83547 10.7186C7.83547 10.7186 12.4151 14.6558 21.5505 12.4728C21.5505 12.4728 24.052 13.0089 24.4813 12.72L21.6876 10.3791C21.6876 10.3791 20.0478 12.4907 17.8474 12.5949C17.8474 12.5949 21.6727 10.5399 21.2881 10.0098C21.2106 9.90259 19.7556 8.83638 19.7556 8.83638C19.7556 8.83638 16.8844 12.4936 13.4944 12.5502C13.4944 12.5502 18.3811 10.7097 19.2159 8.42539L16.9231 6.93628C16.9231 6.93628 14.0788 10.9539 10.2058 11.1624C10.2058 11.1624 15.2446 9.07762 16.3984 6.64739L13.9446 5.49184C13.9446 5.49184 11.0943 9.36353 7.87125 9.50946C7.87125 9.50946 13.4497 6.4955 13.3632 5.26549C13.3632 5.26549 11.0466 4.34224 10.3131 4.39585C10.3131 4.39585 8.20518 7.12093 6.32384 7.04349C6.32384 7.04349 9.83905 4.63411 9.64526 4.21418C9.64526 4.21418 6.30595 3.8151 4.5081 4.512C4.5081 4.512 7.09009 3.29689 9.68103 3.69597C9.68103 3.69597 8.59278 2.22771 7.07518 1.81969C7.07518 1.81969 8.97143 1.18533 10.492 3.80318C10.492 3.80318 13.08 4.21716 13.3811 4.52689C13.3811 4.52689 12.2481 1.73034 10.6977 0.470552C10.6977 0.470552 13.0829 1.0662 14.037 4.80983L16.5266 5.91475C16.5266 5.91475 15.2237 2.14134 13.9148 0.917286C13.9148 0.917286 16.2612 1.89414 17.1199 6.24831L19.3829 7.67487C19.3829 7.67487 18.5034 4.33926 17.3644 2.67742C17.3644 2.67742 19.3441 4.05038 20.018 8.12161L21.4193 9.25333C21.4193 9.25333 20.7335 6.82906 20.4741 6.15003C20.2147 5.47099 20.3787 5.3459 20.3787 5.3459C21.3188 6.625 21.8855 8.13944 22.0156 9.72091C22.0156 9.72091 24.7645 12.2286 24.9255 12.0737Z" fill="#4A7CE2"/>
</g>
</g>
<defs>
<clipPath id="clip0">
<rect width="328" height="218" fill="white"/>
</clipPath>
</defs>
</svg>
