<svg viewBox="0 0 53 40" fill="none" xmlns="http://www.w3.org/2000/svg">
<g clip-path="url(#clip0)">
<path d="M23.8964 9.09551C21.7695 9.09716 19.6574 8.74261 17.6476 8.04658C14.9533 7.11502 12.7461 5.83011 11.0872 4.22752C7.9494 1.19605 5.37684 0.739194 3.7716 0.889627C2.03394 1.05254 1.02249 1.94235 1.01248 1.95132L0.943359 1.87426C0.95357 1.86509 1.98587 0.955088 3.75522 0.787191C4.7928 0.688798 5.87785 0.860233 6.98031 1.2969C8.35513 1.84143 9.76111 2.80238 11.1592 4.15306C12.8071 5.74511 15.0015 7.02217 17.6814 7.94872C22.6013 9.64968 28.1461 9.23786 32.8941 6.81881C34.4662 6.01782 36.0199 5.47109 37.5122 5.19381C39.3939 4.84406 41.1785 4.92524 42.8167 5.43492C46.4167 6.5549 48.8756 6.4955 50.3044 6.24858C51.8461 5.98211 52.5456 5.44882 52.5525 5.44346L52.6161 5.52518C52.5871 5.54769 51.889 6.07974 50.322 6.35058C48.8819 6.59953 46.4054 6.65984 42.786 5.53374C39.1212 4.39372 35.4095 5.65342 32.9411 6.91101C30.5943 8.11303 28.0318 8.83595 25.4028 9.03763C24.8988 9.0762 24.3967 9.0955 23.8964 9.09551Z" fill="#3F3D56"/>
<path d="M23.6878 10.3799C24.2672 10.3799 24.7369 9.91022 24.7369 9.33083C24.7369 8.75143 24.2672 8.28174 23.6878 8.28174C23.1084 8.28174 22.6387 8.75143 22.6387 9.33083C22.6387 9.91022 23.1084 10.3799 23.6878 10.3799Z" fill="#4A7CE2"/>
<path d="M39.9407 6.18754C40.5201 6.18754 40.9898 5.71785 40.9898 5.13845C40.9898 4.55905 40.5201 4.08936 39.9407 4.08936C39.3613 4.08936 38.8916 4.55905 38.8916 5.13845C38.8916 5.71785 39.3613 6.18754 39.9407 6.18754Z" fill="#4A7CE2"/>
<path d="M6.13991 2.09818C6.71931 2.09818 7.189 1.62849 7.189 1.04909C7.189 0.469694 6.71931 0 6.13991 0C5.56051 0 5.09082 0.469694 5.09082 1.04909C5.09082 1.62849 5.56051 2.09818 6.13991 2.09818Z" fill="#4A7CE2"/>
<path d="M31.2109 25.0777V35.2141H32.8047V25.9702H39.1797V35.2141H40.7735V14.9414H39.1797C38.6516 14.9414 37.841 17.692 37.841 20.4558C37.841 22.5391 38.0843 24.3245 38.4302 25.0777H31.2109ZM39.1797 25.0777H39.1642C39.1695 25.0664 39.1746 25.0544 39.1797 25.0426V25.0777Z" fill="#3F3D56"/>
<path d="M37.1168 9.92432H37.1168C35.8086 9.92432 34.748 11.1013 34.748 12.5531V14.3977H35.3154L35.6438 13.7142L35.5617 14.3977H39.2081L39.5067 13.7764L39.432 14.3977H39.8426V12.9493C39.8426 11.2787 38.6222 9.92432 37.1168 9.92432Z" fill="#2F2E41"/>
<path d="M34.4028 21.9756L32.9485 22.5937L27.8945 26.7023C27.7087 26.9307 27.5948 27.2091 27.5673 27.5023C27.5309 27.9749 26.0038 30.4474 26.5492 30.7746C27.0946 31.1019 29.058 32.0836 29.1671 31.4291C29.2762 30.7746 29.8579 27.9749 29.8579 27.9749L34.7301 23.6118L34.4028 21.9756Z" fill="#2F2E41"/>
<path d="M28.6937 30.8837L28.0756 32.7017C28.0756 32.7017 28.7301 33.3925 28.4028 33.9743V35.9741H27.8938L27.7484 34.9196C27.7484 34.9196 27.1686 35.9607 26.8757 35.9741C26.2618 36.002 25.0462 36.2203 25.0098 35.8931C24.9734 35.5659 25.9304 35.2469 25.9304 35.2469L26.9484 32.4472L27.3848 30.7383L28.6937 30.8837Z" fill="#2F2E41"/>
<path d="M38.1841 21.5031C38.1841 21.5031 38.5114 24.7027 37.566 25.2845C36.6207 25.8662 32.4393 27.7206 32.4393 27.7206C32.4393 27.7206 34.2209 29.3931 33.8573 29.7931C33.4937 30.193 31.8576 31.2838 31.6394 31.0656C31.4212 30.8475 28.9852 28.2296 29.276 27.3933C29.5669 26.5571 33.6028 23.8301 33.6028 23.8301L34.0755 22.1212L34.2209 20.7395L35.748 19.7578L38.1841 21.5031Z" fill="#2F2E41"/>
<path d="M36.5177 14.0535C37.3549 14.0535 38.0335 13.3749 38.0335 12.5377C38.0335 11.7006 37.3549 11.022 36.5177 11.022C35.6806 11.022 35.002 11.7006 35.002 12.5377C35.002 13.3749 35.6806 14.0535 36.5177 14.0535Z" fill="#FFB9B9"/>
<path d="M37.6935 13.1582C37.6935 13.1582 37.6208 14.5399 38.7479 14.9762C39.8751 15.4125 35.9482 18.2486 35.9482 18.2486V15.0853C35.9482 15.0853 36.4573 14.5399 35.9482 13.7036L37.6935 13.1582Z" fill="#FFB9B9"/>
<path d="M40.1111 19.6484L39.8202 21.0665L38.9476 25.9386C38.9476 25.9386 39.6748 28.0111 38.6931 27.9748C37.7114 27.9384 38.1841 25.7205 38.1841 25.7205L38.6931 21.6846V20.1211L40.1111 19.6484Z" fill="#FFB9B9"/>
<path d="M33.8569 18.958L33.5296 20.2306L32.0389 23.8302C32.0389 23.8302 31.0208 25.5391 31.8571 25.5027C32.6934 25.4664 32.6934 23.8302 32.6934 23.8302L34.4023 20.9214V19.2852L33.8569 18.958Z" fill="#FFB9B9"/>
<path d="M33.603 29.5747L34.8028 30.7019C34.8028 30.7019 35.6391 30.5201 35.9663 31.5018C36.2936 32.4835 36.5117 33.1016 36.5117 33.1016L36.0754 33.3561L35.53 32.5926C35.53 32.5926 35.2028 33.9742 34.8755 34.0833C34.5483 34.1924 32.9121 34.9196 33.0576 34.0833L33.8575 32.9198C33.8575 32.9198 33.9666 31.6109 33.6393 31.5018C33.3121 31.3927 32.4395 30.3019 32.4395 30.3019L33.603 29.5747Z" fill="#2F2E41"/>
<path d="M38.2418 22.6301C38.2418 22.6301 34.824 21.3939 34.6059 21.503C34.4435 21.5747 34.2705 21.6196 34.0938 21.6359L34.0968 21.1394C34.0968 21.1394 35.224 20.7394 35.8421 20.9939C36.4602 21.2484 38.3509 22.3756 38.3509 22.3756L38.2418 22.6301Z" fill="#3F3D56"/>
<path d="M36.1661 17.5218C36.1661 17.5218 37.1478 16.3946 37.4387 15.7038C37.6228 15.285 37.9606 14.9528 38.3824 14.7759C38.3824 14.7759 40.5656 15.2675 40.5293 16.1401C40.4929 17.0128 39.1476 18.3581 39.1476 18.3581C39.1476 18.3581 39.3294 23.1939 38.3477 23.1212C38.136 22.8685 37.9865 22.5696 37.9114 22.2486C37.8023 21.7395 34.4209 21.1941 34.4209 21.1941C34.4209 21.1941 34.13 21.7032 34.0936 21.485C34.0573 21.2669 34.3845 15.922 34.3845 15.922L36.1184 14.7759L36.1661 17.5218Z" fill="#D0CDE1"/>
<path d="M40.249 15.7888L40.2733 15.8024C40.351 15.8461 40.4157 15.9096 40.4607 15.9865C40.5058 16.0634 40.5295 16.1509 40.5295 16.24L40.5291 18.9383C40.5294 19.0117 40.5456 19.0841 40.5766 19.1505C40.6077 19.217 40.6529 19.2759 40.7089 19.3231C40.849 19.4422 40.9789 19.6139 40.7109 19.7033C40.2745 19.8487 38.5656 20.5759 38.5293 20.3214C38.4929 20.0668 38.4202 19.776 38.5293 19.776C38.6147 19.776 39.1235 17.1687 39.5323 16.0539C39.5573 15.9857 39.5968 15.9237 39.6481 15.8722C39.6994 15.8207 39.7612 15.781 39.8294 15.7558C39.8975 15.7306 39.9704 15.7205 40.0428 15.7262C40.1153 15.7319 40.1856 15.7532 40.249 15.7888Z" fill="#D0CDE1"/>
<path d="M34.8756 15.7944L34.3665 15.9399L33.7848 18.4487C33.7848 18.4487 33.094 18.5941 33.3121 18.8486C33.5303 19.1032 34.4393 19.7576 34.4393 19.7576L34.8756 15.7944Z" fill="#D0CDE1"/>
<path d="M37.7899 10.6482C37.6759 10.4951 37.5282 10.3703 37.3582 10.2836C37.1882 10.1968 37.0005 10.1504 36.8097 10.1479H36.7632C35.8665 10.1479 35.1396 10.9593 35.1396 11.9602V11.9602H35.4401L35.4886 11.5909L35.5598 11.9602H37.3417L37.491 11.6477L37.4537 11.9602H37.8042C37.9678 12.7726 37.7327 13.585 37.0991 14.3974H37.6962L37.9948 13.7724L37.9202 14.3974H39.0585L39.2825 12.9601C39.2825 11.8836 38.657 10.9709 37.7899 10.6482Z" fill="#2F2E41"/>
<path d="M7.33794 27.4198C7.72045 26.587 7.98946 24.6129 7.98946 22.3095C7.98946 19.2536 7.09317 16.2124 6.50924 16.2124H4.74707V38.6272H6.50924V28.4066H13.5579V38.6272H15.3201V27.4198H7.33794ZM6.50924 27.381C6.51494 27.394 6.52062 27.4073 6.52638 27.4198H6.50924V27.381Z" fill="#3F3D56"/>
<path d="M14.6827 23.3306C14.6827 23.3306 16.8049 24.2105 16.132 24.7281C15.4591 25.2457 14.0615 24.107 14.1133 23.9517C14.1651 23.7964 13.9062 23.4341 13.9062 23.4341L14.6827 23.3306Z" fill="#9F616A"/>
<path d="M12.8194 16.3945L13.4923 17.0157L13.6475 18.8273L14.1652 20.7425C14.1652 20.7425 15.0451 22.5542 14.8898 22.9165C14.7345 23.2789 15.0451 23.3824 15.0451 23.3824L13.8546 23.8482C13.8546 23.8482 12.5605 22.3989 12.5605 22.0883C12.5605 21.7778 12.8194 16.3945 12.8194 16.3945Z" fill="#575A88"/>
<path opacity="0.1" d="M12.8194 16.3945L13.4923 17.0157L13.6475 18.8273L14.1652 20.7425C14.1652 20.7425 15.0451 22.5542 14.8898 22.9165C14.7345 23.2789 15.0451 23.3824 15.0451 23.3824L13.8546 23.8482C13.8546 23.8482 12.5605 22.3989 12.5605 22.0883C12.5605 21.7778 12.8194 16.3945 12.8194 16.3945Z" fill="black"/>
<path d="M19.1855 35.0288C19.1855 35.0288 18.9267 36.2194 18.8749 36.3229C18.8232 36.4264 19.8584 36.7887 19.8584 36.7887L21.1007 35.9088C21.1007 35.9088 20.5831 34.77 20.5831 34.563L19.1855 35.0288Z" fill="#575A88"/>
<path d="M12.4049 23.4341L12.7672 23.8482C12.7672 23.8482 20.2727 24.7799 20.428 26.2292C20.5833 27.6785 21.6702 34.5111 21.0491 34.7181C20.428 34.9252 18.8234 35.7016 18.8234 35.2875C18.8234 34.8734 17.7881 29.1796 17.9952 28.1444C17.9952 28.1444 9.04041 27.0056 8.83336 25.7116C8.62632 24.4176 9.04041 23.8482 9.04041 23.8482L12.4049 23.4341Z" fill="#2F2E41"/>
<path opacity="0.1" d="M12.4049 23.4341L12.7672 23.8482C12.7672 23.8482 20.2727 24.7799 20.428 26.2292C20.5833 27.6785 21.6702 34.5111 21.0491 34.7181C20.428 34.9252 18.8234 35.7016 18.8234 35.2875C18.8234 34.8734 17.7881 29.1796 17.9952 28.1444C17.9952 28.1444 9.04041 27.0056 8.83336 25.7116C8.62632 24.4176 9.04041 23.8482 9.04041 23.8482L12.4049 23.4341Z" fill="black"/>
<path d="M19.0823 36.2194C19.0823 36.2194 18.8752 35.7535 18.7717 35.9088C18.6682 36.0641 18.3059 37.8757 18.6682 37.8757C19.0305 37.8757 22.3433 38.7039 22.8091 38.6004C23.275 38.4969 24.1549 38.6522 24.0514 38.1345C23.9479 37.6169 23.4303 37.5652 23.4303 37.5652C23.4303 37.5652 21.5151 36.4264 21.4116 35.857C21.308 35.2876 20.7387 35.5982 20.7387 35.5982V35.9605C20.7387 35.9605 19.6517 36.7887 19.0823 36.2194Z" fill="#2F2E41"/>
<path d="M9.24763 12.4607C9.24763 12.4607 9.60997 14.2206 8.83354 14.3759C8.05711 14.5311 9.81701 15.5664 9.81701 15.5664L10.9558 16.1875L11.784 15.3593C11.784 15.3593 11.0334 13.8324 11.6028 12.6936C12.1722 11.5548 9.24763 12.4607 9.24763 12.4607Z" fill="#9F616A"/>
<path d="M11.784 15.3593L10.9558 16.1875L9.81701 15.5664C9.81701 15.5664 8.05711 14.5311 8.83354 14.3759C9.33304 14.276 9.36099 13.512 9.31803 12.9798C9.30401 12.8056 9.28051 12.6323 9.24763 12.4607C9.24763 12.4607 12.1722 11.5548 11.6028 12.6936C11.5163 12.8694 11.4563 13.0571 11.4247 13.2506C11.2503 14.2739 11.784 15.3593 11.784 15.3593Z" fill="#9F616A"/>
<path d="M14.6826 36.5298V37.7203H16.6496L16.8048 37.2545L16.5978 36.0122L14.6826 36.5298Z" fill="#575A88"/>
<path d="M6.55566 24.4693C6.55566 24.4693 6.55566 27.5232 7.79794 27.6267C9.04022 27.7302 13.4917 28.2996 13.4917 28.2996C13.4917 28.2996 13.7505 33.3722 14.2164 35.0286C14.6822 36.685 14.2681 36.7885 14.6822 36.892C15.0963 36.9955 16.8562 36.6332 16.8045 36.2709C16.7527 35.9086 16.5457 26.7468 16.5457 26.7468C16.5457 26.7468 17.0115 24.7798 10.8001 23.8481L6.55566 24.4693Z" fill="#2F2E41"/>
<path d="M14.8377 37.3575C14.8377 37.3575 14.5271 36.6846 14.4754 36.8917C14.4236 37.0987 13.8025 38.9104 14.4236 39.0657C15.0447 39.221 17.0117 40.0492 18.3057 39.9974C19.5997 39.9456 19.755 39.8939 19.755 39.8939C19.755 39.8939 20.1174 39.3763 19.6515 39.0657C19.1856 38.7551 17.2705 36.9434 17.167 36.7364C17.0634 36.5293 16.287 36.3741 16.287 36.7364C16.287 37.0987 15.2 37.8234 14.8377 37.3575Z" fill="#2F2E41"/>
<path opacity="0.1" d="M11.6032 12.6936C11.5167 12.8694 11.4567 13.0571 11.4251 13.2506C11.1674 13.4064 10.995 13.3665 10.6715 13.3665C10.1917 13.3665 9.99807 12.7531 9.68802 12.4348C9.66369 12.1392 9.24805 12.4607 9.24805 12.4607C9.24805 12.4607 12.1726 11.5548 11.6032 12.6936Z" fill="black"/>
<path d="M10.5421 13.3406C11.4855 13.3406 12.2503 12.5758 12.2503 11.6325C12.2503 10.6891 11.4855 9.92432 10.5421 9.92432C9.59874 9.92432 8.83398 10.6891 8.83398 11.6325C8.83398 12.5758 9.59874 13.3406 10.5421 13.3406Z" fill="#9F616A"/>
<path d="M13.4919 17.0157C13.4919 17.0157 13.2331 18.8791 13.0778 19.552C12.9225 20.2249 12.7155 23.3306 12.612 23.7447C12.5084 24.1588 11.8873 24.2623 10.645 24.107C10.567 24.0972 10.4886 24.0913 10.41 24.0894C9.64498 24.0651 8.7697 24.3513 7.95962 24.576C7.49377 24.7054 7.04914 24.8141 6.65937 24.8317C6.06929 24.8586 5.8964 24.2043 5.91659 23.4962C5.93574 22.8373 6.1226 22.1308 6.29704 21.8813C6.61124 21.432 6.30222 17.3982 6.41817 16.0679V16.0674C6.43576 15.8645 6.46319 15.7247 6.50409 15.6699C6.81466 15.2558 8.83336 14.2205 9.05956 14.2625C9.28524 14.3044 11.2144 15.5146 11.2144 15.5146C11.6802 15.5146 11.6652 15.0094 11.6652 15.0094C11.6652 15.0094 11.9908 15.6181 12.612 15.7734C13.2331 15.9287 13.4919 17.0157 13.4919 17.0157Z" fill="#575A88"/>
<path d="M10.032 23.7261C10.032 23.7261 13.3663 23.8322 12.7822 24.2284C12.1981 24.6245 9.61004 24.9869 9.55827 24.4692C9.50651 23.9516 10.032 23.7261 10.032 23.7261Z" fill="#9F616A"/>
<path opacity="0.1" d="M10.4104 24.0895C10.4213 24.2882 9.8866 24.736 9.71371 25.0388C9.61795 25.2065 8.87673 24.9854 7.96002 24.576C7.25657 24.2603 6.57415 23.8996 5.91699 23.4963C5.93614 22.8373 6.123 22.1308 6.29744 21.8813C6.61164 21.432 6.30262 17.3982 6.41857 16.0679V16.0674C6.44621 16.0534 6.47494 16.0416 6.50449 16.0322H7.12563C9.24785 17.0157 6.81506 21.2602 6.81506 21.2602C6.81506 21.2602 10.0243 23.9 10.3348 24.0035C10.3552 24.0074 10.3737 24.0179 10.3874 24.0335C10.4011 24.0491 10.4092 24.0688 10.4104 24.0895Z" fill="black"/>
<path d="M7.12559 15.7217H6.50445C6.50445 15.7217 5.93507 15.877 5.46921 16.9122C5.00336 17.9474 3.29522 21.1567 4.79631 22.3989C6.2974 23.6412 9.50663 25.0905 9.71367 24.7282C9.92072 24.3659 10.6454 23.7965 10.3348 23.693C10.0242 23.5894 6.81502 20.9496 6.81502 20.9496C6.81502 20.9496 9.24782 16.7052 7.12559 15.7217Z" fill="#575A88"/>
<path d="M10.279 10.8374C10.279 10.8374 10.3539 9.79967 11.2787 10.2228C12.2034 10.6459 12.1431 9.47966 11.8636 9.27357C11.5842 9.06748 11.593 9.01648 10.571 9.15437C9.54887 9.29226 7.56455 9.52588 8.20617 11.581C8.84779 13.6361 9.42888 13.1074 9.42888 13.1074C9.42888 13.1074 8.91887 11.2581 9.43563 11.6104L9.95239 11.9627L10.2251 11.905L10.279 10.8374Z" fill="#2F2E41"/>
<path d="M48.436 25.7796C48.436 24.8453 41.4933 24.0879 32.929 24.0879C24.3646 24.0879 17.4219 24.8453 17.4219 25.7796C17.4219 26.1417 18.4653 26.4772 20.2413 26.7523V38.3262H21.0872V26.8717C23.9317 27.2384 28.1807 27.4713 32.929 27.4713C37.7165 27.4713 41.9967 27.2345 44.8412 26.8626V38.3262H45.6871V26.7412C47.4199 26.4682 48.436 26.1368 48.436 25.7796Z" fill="#3F3D56"/>
<path d="M34.8723 25.8151C36.6161 25.8151 38.0298 25.4674 38.0298 25.0386C38.0298 24.6098 36.6161 24.2622 34.8723 24.2622C33.1285 24.2622 31.7148 24.6098 31.7148 25.0386C31.7148 25.4674 33.1285 25.8151 34.8723 25.8151Z" fill="#F2F2F2"/>
<path d="M34.8723 25.6752C36.3016 25.6752 37.4603 25.3902 37.4603 25.0388C37.4603 24.6873 36.3016 24.4023 34.8723 24.4023C33.4429 24.4023 32.2842 24.6873 32.2842 25.0388C32.2842 25.3902 33.4429 25.6752 34.8723 25.6752Z" fill="#D0CDE1"/>
<path d="M23.1223 26.4361C24.8661 26.4361 26.2798 26.0885 26.2798 25.6597C26.2798 25.2309 24.8661 24.8833 23.1223 24.8833C21.3785 24.8833 19.9648 25.2309 19.9648 25.6597C19.9648 26.0885 21.3785 26.4361 23.1223 26.4361Z" fill="#F2F2F2"/>
<path d="M23.1223 26.2963C24.5516 26.2963 25.7103 26.0113 25.7103 25.6599C25.7103 25.3084 24.5516 25.0234 23.1223 25.0234C21.6929 25.0234 20.5342 25.3084 20.5342 25.6599C20.5342 26.0113 21.6929 26.2963 23.1223 26.2963Z" fill="#D0CDE1"/>
<path d="M34.7982 24.9836C35.6295 24.9836 36.3035 24.8772 36.3035 24.7459C36.3035 24.6147 35.6295 24.5083 34.7982 24.5083C33.9669 24.5083 33.293 24.6147 33.293 24.7459C33.293 24.8772 33.9669 24.9836 34.7982 24.9836Z" fill="#9F616A"/>
<path d="M33.9968 24.6571C34.2593 24.6571 34.4722 24.5418 34.4722 24.3996C34.4722 24.2574 34.2593 24.1421 33.9968 24.1421C33.7343 24.1421 33.5215 24.2574 33.5215 24.3996C33.5215 24.5418 33.7343 24.6571 33.9968 24.6571Z" fill="#4A7CE2"/>
<path d="M33.8181 24.6571C34.0806 24.6571 34.2935 24.5418 34.2935 24.3996C34.2935 24.2574 34.0806 24.1421 33.8181 24.1421C33.5556 24.1421 33.3428 24.2574 33.3428 24.3996C33.3428 24.5418 33.5556 24.6571 33.8181 24.6571Z" fill="#4A7CE2"/>
<path d="M35.8982 24.7161C36.1607 24.7161 36.3735 24.6008 36.3735 24.4586C36.3735 24.3164 36.1607 24.2012 35.8982 24.2012C35.6357 24.2012 35.4229 24.3164 35.4229 24.4586C35.4229 24.6008 35.6357 24.7161 35.8982 24.7161Z" fill="#4A7CE2"/>
<path d="M34.8083 24.6571C35.0709 24.6571 35.2837 24.5418 35.2837 24.3996C35.2837 24.2574 35.0709 24.1421 34.8083 24.1421C34.5458 24.1421 34.333 24.2574 34.333 24.3996C34.333 24.5418 34.5458 24.6571 34.8083 24.6571Z" fill="#4A7CE2"/>
<path d="M35.6208 24.6571C35.8834 24.6571 36.0962 24.5418 36.0962 24.3996C36.0962 24.2574 35.8834 24.1421 35.6208 24.1421C35.3583 24.1421 35.1455 24.2574 35.1455 24.3996C35.1455 24.5418 35.3583 24.6571 35.6208 24.6571Z" fill="#4A7CE2"/>
<path d="M36.2344 24.2411C35.3754 24.5326 34.4115 24.5326 33.3428 24.2411V24.201C33.3426 23.8979 33.4589 23.6063 33.6677 23.3866C33.8765 23.1669 34.1617 23.0359 34.4644 23.0206C34.7192 23.0078 34.9744 23.0081 35.2292 23.0216C35.5015 23.0374 35.7574 23.157 35.9444 23.3556C36.1313 23.5543 36.2351 23.817 36.2344 24.0898V24.2411Z" fill="#3F3D56"/>
<path d="M35.8125 25.3323C35.1776 25.3964 34.5379 25.3964 33.903 25.3323C33.7524 25.3175 33.6127 25.2473 33.511 25.1353C33.4092 25.0232 33.3528 24.8774 33.3525 24.7261H36.363C36.3628 24.8774 36.3063 25.0232 36.2046 25.1353C36.1029 25.2473 35.9631 25.3175 35.8125 25.3323Z" fill="#3F3D56"/>
<path d="M34.3928 23.3893C34.3237 23.418 34.2497 23.4328 34.1749 23.4328C34.1001 23.4328 34.0261 23.418 33.957 23.3893C34.0261 23.3605 34.1001 23.3457 34.1749 23.3457C34.2497 23.3457 34.3237 23.3605 34.3928 23.3893Z" fill="#D0CDE1"/>
<path d="M34.8283 23.5675C34.7593 23.5963 34.6852 23.6111 34.6104 23.6111C34.5357 23.6111 34.4616 23.5963 34.3926 23.5675C34.4616 23.5387 34.5357 23.5239 34.6104 23.5239C34.6852 23.5239 34.7593 23.5387 34.8283 23.5675Z" fill="#D0CDE1"/>
<path d="M34.8683 23.2506C34.7993 23.2793 34.7253 23.2941 34.6505 23.2941C34.5757 23.2941 34.5017 23.2793 34.4326 23.2506C34.5017 23.2218 34.5757 23.207 34.6505 23.207C34.7253 23.207 34.7993 23.2218 34.8683 23.2506Z" fill="#D0CDE1"/>
<path d="M35.6799 23.2506C35.6108 23.2793 35.5368 23.2941 35.462 23.2941C35.3872 23.2941 35.3132 23.2793 35.2441 23.2506C35.3132 23.2218 35.3872 23.207 35.462 23.207C35.5368 23.207 35.6108 23.2218 35.6799 23.2506Z" fill="#D0CDE1"/>
<path d="M35.4621 23.4288C35.3931 23.4576 35.319 23.4724 35.2442 23.4724C35.1694 23.4724 35.0954 23.4576 35.0264 23.4288C35.0954 23.4001 35.1694 23.3853 35.2442 23.3853C35.319 23.3853 35.3931 23.4001 35.4621 23.4288Z" fill="#D0CDE1"/>
<path d="M23.101 25.6048C23.9323 25.6048 24.6062 25.4983 24.6062 25.3671C24.6062 25.2358 23.9323 25.1294 23.101 25.1294C22.2696 25.1294 21.5957 25.2358 21.5957 25.3671C21.5957 25.4983 22.2696 25.6048 23.101 25.6048Z" fill="#9F616A"/>
<path d="M22.2986 25.2781C22.5611 25.2781 22.7739 25.1629 22.7739 25.0207C22.7739 24.8785 22.5611 24.7632 22.2986 24.7632C22.0361 24.7632 21.8232 24.8785 21.8232 25.0207C21.8232 25.1629 22.0361 25.2781 22.2986 25.2781Z" fill="#4A7CE2"/>
<path d="M22.1199 25.2781C22.3824 25.2781 22.5952 25.1629 22.5952 25.0207C22.5952 24.8785 22.3824 24.7632 22.1199 24.7632C21.8573 24.7632 21.6445 24.8785 21.6445 25.0207C21.6445 25.1629 21.8573 25.2781 22.1199 25.2781Z" fill="#4A7CE2"/>
<path d="M24.2 25.3377C24.4625 25.3377 24.6753 25.2224 24.6753 25.0802C24.6753 24.938 24.4625 24.8228 24.2 24.8228C23.9374 24.8228 23.7246 24.938 23.7246 25.0802C23.7246 25.2224 23.9374 25.3377 24.2 25.3377Z" fill="#4A7CE2"/>
<path d="M23.1101 25.2781C23.3726 25.2781 23.5854 25.1629 23.5854 25.0207C23.5854 24.8785 23.3726 24.7632 23.1101 24.7632C22.8476 24.7632 22.6348 24.8785 22.6348 25.0207C22.6348 25.1629 22.8476 25.2781 23.1101 25.2781Z" fill="#4A7CE2"/>
<path d="M23.9226 25.2781C24.1851 25.2781 24.3979 25.1629 24.3979 25.0207C24.3979 24.8785 24.1851 24.7632 23.9226 24.7632C23.6601 24.7632 23.4473 24.8785 23.4473 25.0207C23.4473 25.1629 23.6601 25.2781 23.9226 25.2781Z" fill="#4A7CE2"/>
<path d="M24.5362 24.8622C23.6771 25.1537 22.7132 25.1537 21.6445 24.8622V24.8221C21.6444 24.519 21.7607 24.2275 21.9695 24.0077C22.1782 23.788 22.4635 23.657 22.7662 23.6417C23.0209 23.6289 23.2762 23.6292 23.5309 23.6427C23.8033 23.6585 24.0592 23.7781 24.2461 23.9767C24.4331 24.1754 24.5369 24.4381 24.5362 24.7109V24.8622Z" fill="#3F3D56"/>
<path d="M24.1143 25.9534C23.4794 26.0175 22.8397 26.0175 22.2048 25.9534C22.0542 25.9386 21.9145 25.8684 21.8127 25.7563C21.711 25.6443 21.6545 25.4985 21.6543 25.3472H24.6648C24.6646 25.4985 24.6081 25.6443 24.5064 25.7563C24.4046 25.8684 24.2649 25.9386 24.1143 25.9534Z" fill="#3F3D56"/>
<path d="M22.6945 24.0104C22.6255 24.0392 22.5514 24.054 22.4767 24.054C22.4019 24.054 22.3278 24.0392 22.2588 24.0104C22.3278 23.9816 22.4019 23.9668 22.4767 23.9668C22.5514 23.9668 22.6255 23.9816 22.6945 24.0104Z" fill="#D0CDE1"/>
<path d="M23.1301 24.1886C23.061 24.2174 22.987 24.2322 22.9122 24.2322C22.8374 24.2322 22.7634 24.2174 22.6943 24.1886C22.7634 24.1598 22.8374 24.145 22.9122 24.145C22.987 24.145 23.061 24.1598 23.1301 24.1886Z" fill="#D0CDE1"/>
<path d="M23.1701 23.8717C23.1011 23.9005 23.027 23.9153 22.9522 23.9153C22.8775 23.9153 22.8034 23.9005 22.7344 23.8717C22.8034 23.8429 22.8775 23.8281 22.9522 23.8281C23.027 23.8281 23.1011 23.8429 23.1701 23.8717Z" fill="#D0CDE1"/>
<path d="M23.9816 23.8717C23.9126 23.9005 23.8386 23.9153 23.7638 23.9153C23.689 23.9153 23.6149 23.9005 23.5459 23.8717C23.6149 23.8429 23.689 23.8281 23.7638 23.8281C23.8386 23.8281 23.9126 23.8429 23.9816 23.8717Z" fill="#D0CDE1"/>
<path d="M23.7639 24.0499C23.6948 24.0787 23.6208 24.0935 23.546 24.0935C23.4712 24.0935 23.3972 24.0787 23.3281 24.0499C23.3972 24.0212 23.4712 24.0063 23.546 24.0063C23.6208 24.0063 23.6948 24.0212 23.7639 24.0499Z" fill="#D0CDE1"/>
<path d="M37.5882 24.8281L37.5955 24.9884L37.6048 25.1964C37.6048 25.1964 36.6497 25.2504 36.4573 25.4537C36.4528 25.458 36.4487 25.4628 36.445 25.4678L36.0625 25.384L36.0615 25.1956C36.0615 25.1956 36.0668 25.1926 36.0771 25.1871C36.0794 25.1859 36.0823 25.1843 36.0853 25.1828C36.5534 24.9536 37.067 24.8324 37.5882 24.8281Z" fill="#4A7CE2"/>
<path opacity="0.1" d="M37.5883 24.8281L37.5956 24.9885C37.1721 25.0016 36.3706 25.254 36.3706 25.254L36.0771 25.1871C36.5473 24.9549 37.064 24.8321 37.5883 24.8281Z" fill="black"/>
<path opacity="0.1" d="M36.0853 25.1831L36.3705 25.2543L36.4573 25.454C36.4528 25.4583 36.4487 25.4631 36.445 25.4681L36.0625 25.3843L36.0615 25.1959C36.0615 25.1959 36.0668 25.193 36.0771 25.1874C36.0794 25.1862 36.0823 25.1847 36.0853 25.1831Z" fill="white"/>
<path d="M26.0453 25.501L26.0526 25.6613L26.0618 25.8693C26.0618 25.8693 25.1067 25.9232 24.9143 26.1265C24.9099 26.1309 24.9058 26.1356 24.9021 26.1407L24.5195 26.0569L24.5186 25.8685C24.5186 25.8685 24.5238 25.8655 24.5341 25.86C24.5364 25.8588 24.5394 25.8572 24.5423 25.8557C25.0104 25.6264 25.5241 25.5052 26.0453 25.501Z" fill="#4A7CE2"/>
<path opacity="0.1" d="M26.0454 25.501L26.0526 25.6613C25.6291 25.6744 24.8276 25.9269 24.8276 25.9269L24.5342 25.86C25.0043 25.6277 25.521 25.505 26.0454 25.501Z" fill="black"/>
<path opacity="0.1" d="M24.5423 25.856L24.8275 25.9272L24.9143 26.1268C24.9099 26.1312 24.9058 26.1359 24.9021 26.141L24.5195 26.0572L24.5186 25.8688C24.5186 25.8688 24.5238 25.8658 24.5341 25.8603C24.5364 25.8591 24.5394 25.8575 24.5423 25.856Z" fill="white"/>
<path d="M43.3409 20.026C43.2594 19.9445 43.1638 19.8785 43.0589 19.8311V17.8199C43.0589 17.7963 43.0495 17.7737 43.0328 17.757C43.0162 17.7403 42.9935 17.731 42.97 17.731H42.472C42.4485 17.731 42.4258 17.7403 42.4092 17.757C42.3925 17.7737 42.3831 17.7963 42.3831 17.8199V19.7926C42.2031 19.8523 42.0465 19.9671 41.9355 20.1209C41.8245 20.2746 41.7647 20.4594 41.7646 20.649V24.9634C41.7646 25.0154 41.7749 25.0668 41.7947 25.1147C41.8146 25.1627 41.8437 25.2063 41.8804 25.243C41.9172 25.2797 41.9607 25.3088 42.0087 25.3287C42.0567 25.3486 42.1081 25.3588 42.16 25.3588H43.2266C43.3309 25.3588 43.431 25.3173 43.5048 25.2435C43.5786 25.1697 43.6201 25.0696 43.6201 24.9653V20.6999C43.6202 20.5747 43.5956 20.4507 43.5477 20.335C43.4998 20.2194 43.4295 20.1143 43.3409 20.026Z" fill="#3F3D56"/>
<path d="M43.6201 21.2812H41.7646V23.7322H43.6201V21.2812Z" fill="#4A7CE2"/>
<path d="M43.0987 17.8684H43.0586V17.8199C43.0586 17.7963 43.0492 17.7737 43.0326 17.757C43.0159 17.7403 42.9933 17.731 42.9697 17.731H42.4718C42.4482 17.731 42.4256 17.7403 42.4089 17.757C42.3922 17.7737 42.3829 17.7963 42.3829 17.8199V17.8684H42.3428V18.0746H42.3829V19.1282H43.0586V18.0746H43.0987V17.8684Z" fill="#4A7CE2"/>
<path d="M28.4849 21.7713C28.4358 21.6665 28.397 21.5924 28.3834 21.5669C27.5506 21.7724 26.9949 21.5987 26.9073 21.568C26.8644 21.649 26.5969 22.1662 26.4888 22.6622C26.3911 23.1095 26.4478 23.4094 26.6573 23.5535L26.6635 23.558L26.6649 23.5589C26.8961 23.7112 27.1167 23.8462 27.3205 23.9599C27.3479 23.9752 27.3738 23.9894 27.3981 24.0025L27.4007 24.0039L27.4026 24.0063C27.4305 24.0415 27.4566 24.0782 27.4806 24.1163C27.5256 24.1793 27.5529 24.2531 27.5597 24.3303V26.5521L27.5457 26.5524C27.0144 26.5632 26.6856 26.6533 26.6856 26.7305C26.6856 26.8152 27.0799 26.9096 27.6457 26.9096C28.2115 26.9096 28.6058 26.8152 28.6058 26.7305C28.6058 26.6544 28.2825 26.5648 27.7603 26.5528L27.7462 26.5524L27.7593 24.4972C27.7596 24.3581 27.792 24.2209 27.8538 24.0963C27.8644 24.0753 27.8757 24.0549 27.8875 24.0357C27.897 24.0203 27.907 24.0052 27.9174 23.991L27.9193 23.9884L27.9221 23.9868C27.9483 23.9725 27.976 23.957 28.0054 23.9404L28.0089 23.9385C28.2017 23.8296 28.4095 23.7019 28.6265 23.5588C28.8203 23.4311 28.8877 23.1729 28.827 22.7915C28.7692 22.4278 28.609 22.036 28.4849 21.7713Z" fill="#D0CDE1"/>
<path d="M28.5342 23.5126C28.3067 23.6625 28.1189 23.775 27.9752 23.8561H27.9751C27.7655 23.8418 27.555 23.8477 27.3466 23.8737C27.1993 23.7915 27.0007 23.6736 26.7563 23.5126C26.7539 23.511 26.7516 23.5095 26.7493 23.5078V23.5077C26.5251 23.3534 26.5196 23.0268 26.5925 22.6929C26.778 22.6723 27.0739 22.6813 27.4713 22.8233C27.942 22.9914 28.4347 22.8963 28.7202 22.8099C28.7671 23.1045 28.7385 23.3779 28.5342 23.5126Z" fill="#4A7CE2"/>
<path d="M27.1816 22.5717C27.2172 22.5717 27.2461 22.5429 27.2461 22.5073C27.2461 22.4717 27.2172 22.4429 27.1816 22.4429C27.146 22.4429 27.1172 22.4717 27.1172 22.5073C27.1172 22.5429 27.146 22.5717 27.1816 22.5717Z" fill="#4A7CE2"/>
<path d="M27.0009 23.1645C27.0365 23.1645 27.0653 23.1356 27.0653 23.1001C27.0653 23.0645 27.0365 23.0356 27.0009 23.0356C26.9654 23.0356 26.9365 23.0645 26.9365 23.1001C26.9365 23.1356 26.9654 23.1645 27.0009 23.1645Z" fill="white"/>
<path d="M27.3355 22.7009C27.3569 22.7009 27.3742 22.6836 27.3742 22.6622C27.3742 22.6408 27.3569 22.6235 27.3355 22.6235C27.3142 22.6235 27.2969 22.6408 27.2969 22.6622C27.2969 22.6836 27.3142 22.7009 27.3355 22.7009Z" fill="#4A7CE2"/>
<path d="M27.4908 23.4352C27.5121 23.4352 27.5295 23.4179 27.5295 23.3966C27.5295 23.3752 27.5121 23.3579 27.4908 23.3579C27.4695 23.3579 27.4521 23.3752 27.4521 23.3966C27.4521 23.4179 27.4695 23.4352 27.4908 23.4352Z" fill="white"/>
<path d="M27.2203 23.4737C27.2417 23.4737 27.259 23.4564 27.259 23.4351C27.259 23.4138 27.2417 23.3965 27.2203 23.3965C27.199 23.3965 27.1816 23.4138 27.1816 23.4351C27.1816 23.4564 27.199 23.4737 27.2203 23.4737Z" fill="white"/>
<path d="M28.0064 22.1852C28.0278 22.1852 28.0451 22.1679 28.0451 22.1466C28.0451 22.1252 28.0278 22.1079 28.0064 22.1079C27.9851 22.1079 27.9678 22.1252 27.9678 22.1466C27.9678 22.1679 27.9851 22.1852 28.0064 22.1852Z" fill="#4A7CE2"/>
<path d="M31.5064 19.6771C31.4573 19.5723 31.4185 19.4982 31.4049 19.4727C30.5721 19.6782 30.0164 19.5045 29.9288 19.4738C29.8859 19.5547 29.6184 20.072 29.5103 20.5679C29.4126 21.0153 29.4693 21.3152 29.6788 21.4593L29.685 21.4637L29.6864 21.4646C29.9176 21.617 30.1382 21.752 30.342 21.8657C30.3694 21.881 30.3953 21.8952 30.4196 21.9083L30.4222 21.9097L30.4241 21.912C30.452 21.9473 30.4781 21.984 30.5021 22.0221C30.5471 22.085 30.5744 22.1589 30.5812 22.236V24.4578L30.5671 24.4581C30.0359 24.469 29.7071 24.559 29.7071 24.6362C29.7071 24.721 30.1014 24.8154 30.6672 24.8154C31.2329 24.8154 31.6272 24.721 31.6272 24.6362C31.6272 24.5602 31.304 24.4706 30.7817 24.4585L30.7677 24.4582L30.7808 22.403C30.7811 22.2639 30.8134 22.1267 30.8753 22.002C30.8859 21.9811 30.8972 21.9607 30.909 21.9415C30.9185 21.926 30.9285 21.911 30.9389 21.8967L30.9407 21.8941L30.9436 21.8926C30.9697 21.8783 30.9975 21.8628 31.0269 21.8461L31.0304 21.8443C31.2232 21.7353 31.431 21.6076 31.648 21.4646C31.8418 21.3368 31.9092 21.0787 31.8485 20.6973C31.7907 20.3336 31.6305 19.9418 31.5064 19.6771Z" fill="#D0CDE1"/>
<path d="M31.5557 21.4178C31.3282 21.5678 31.1404 21.6802 30.9967 21.7613H30.9966C30.787 21.747 30.5765 21.7529 30.3681 21.7789C30.2208 21.6967 30.0222 21.5788 29.7777 21.4178C29.7754 21.4163 29.7731 21.4147 29.7708 21.413V21.4129C29.5466 21.2587 29.5411 20.9321 29.614 20.5981C29.7995 20.5775 30.0953 20.5865 30.4928 20.7285C30.9635 20.8967 31.4562 20.8016 31.7417 20.7151C31.7886 21.0098 31.76 21.2832 31.5557 21.4178Z" fill="#4A7CE2"/>
<path d="M30.2031 20.4775C30.2387 20.4775 30.2675 20.4487 30.2675 20.4131C30.2675 20.3775 30.2387 20.3486 30.2031 20.3486C30.1675 20.3486 30.1387 20.3775 30.1387 20.4131C30.1387 20.4487 30.1675 20.4775 30.2031 20.4775Z" fill="#4A7CE2"/>
<path d="M30.0224 21.0698C30.058 21.0698 30.0868 21.0409 30.0868 21.0053C30.0868 20.9698 30.058 20.9409 30.0224 20.9409C29.9868 20.9409 29.958 20.9698 29.958 21.0053C29.958 21.0409 29.9868 21.0698 30.0224 21.0698Z" fill="white"/>
<path d="M30.358 20.6061C30.3793 20.6061 30.3966 20.5888 30.3966 20.5675C30.3966 20.5461 30.3793 20.5288 30.358 20.5288C30.3366 20.5288 30.3193 20.5461 30.3193 20.5675C30.3193 20.5888 30.3366 20.6061 30.358 20.6061Z" fill="#4A7CE2"/>
<path d="M30.5123 21.3405C30.5336 21.3405 30.5509 21.3232 30.5509 21.3018C30.5509 21.2805 30.5336 21.2632 30.5123 21.2632C30.4909 21.2632 30.4736 21.2805 30.4736 21.3018C30.4736 21.3232 30.4909 21.3405 30.5123 21.3405Z" fill="white"/>
<path d="M30.2418 21.3791C30.2631 21.3791 30.2804 21.3618 30.2804 21.3404C30.2804 21.3191 30.2631 21.3018 30.2418 21.3018C30.2204 21.3018 30.2031 21.3191 30.2031 21.3404C30.2031 21.3618 30.2204 21.3791 30.2418 21.3791Z" fill="white"/>
<path d="M31.0279 20.0905C31.0493 20.0905 31.0666 20.0732 31.0666 20.0519C31.0666 20.0305 31.0493 20.0132 31.0279 20.0132C31.0066 20.0132 30.9893 20.0305 30.9893 20.0519C30.9893 20.0732 31.0066 20.0905 31.0279 20.0905Z" fill="#4A7CE2"/>
</g>
<defs>
<clipPath id="clip0">
<rect width="51.6727" height="40" fill="white" transform="translate(0.943359)"/>
</clipPath>
</defs>
</svg>
