<svg width="348" height="253" viewBox="0 0 348 253" fill="none" xmlns="http://www.w3.org/2000/svg">
<g clip-path="url(#clip0)">
<path d="M200 253C281.738 253 348 243.15 348 231C348 218.85 281.738 209 200 209C118.262 209 52 218.85 52 231C52 243.15 118.262 253 200 253Z" fill="#3F3D56"/>
<path d="M249.066 77.4171C246.788 75.1434 244.118 73.2999 241.184 71.9757V15.7994C241.184 15.4733 241.119 15.1503 240.994 14.849C240.869 14.5477 240.686 14.2739 240.456 14.0432C240.225 13.8126 239.951 13.6297 239.649 13.5048C239.347 13.38 239.024 13.3158 238.698 13.3158H224.779C224.453 13.3158 224.13 13.38 223.828 13.5048C223.526 13.6297 223.252 13.8126 223.022 14.0432C222.791 14.2739 222.608 14.5477 222.483 14.849C222.358 15.1503 222.294 15.4733 222.294 15.7994V70.8981C217.262 72.5655 212.884 75.7738 209.781 80.0678C206.677 84.3617 205.006 89.5231 205.004 94.8196V215.326C205.004 218.254 206.169 221.063 208.242 223.134C210.314 225.205 213.125 226.368 216.057 226.368H245.871C248.788 226.368 251.587 225.21 253.65 223.149C255.713 221.088 256.872 218.292 256.872 215.377V96.24C256.876 92.7434 256.189 89.2805 254.849 86.0502C253.51 82.8199 251.544 79.886 249.066 77.4171Z" fill="#3F3D56"/>
<path d="M256.872 112.484H205.004V180.943H256.872V112.484Z" fill="#4A7CE2"/>
<path d="M242.304 17.1546H241.183V15.7994C241.183 15.4733 241.119 15.1503 240.994 14.849C240.869 14.5477 240.686 14.2739 240.455 14.0432C240.225 13.8126 239.951 13.6297 239.649 13.5048C239.347 13.38 239.024 13.3158 238.698 13.3158H224.779C224.453 13.3158 224.13 13.38 223.828 13.5048C223.526 13.6297 223.252 13.8126 223.022 14.0432C222.791 14.2739 222.608 14.5477 222.483 14.849C222.358 15.1503 222.293 15.4733 222.293 15.7994V17.1546H221.173V22.9128H222.293V52.3435H241.183V22.9128H242.304V17.1546Z" fill="#4A7CE2"/>
<path d="M299.554 188.76L339.175 170.046L343.497 165.008L345.298 167.167L340.616 171.486L304.597 194.518L299.554 188.76Z" fill="#3F3D56"/>
<path d="M319.725 223.669C326.29 223.669 331.611 218.352 331.611 211.793C331.611 205.234 326.29 199.917 319.725 199.917C313.161 199.917 307.839 205.234 307.839 211.793C307.839 218.352 313.161 223.669 319.725 223.669Z" fill="#4A7CE2"/>
<path opacity="0.1" d="M319.725 223.669C326.29 223.669 331.611 218.352 331.611 211.793C331.611 205.234 326.29 199.917 319.725 199.917C313.161 199.917 307.839 205.234 307.839 211.793C307.839 218.352 313.161 223.669 319.725 223.669Z" fill="black"/>
<path d="M288.389 231.587C294.953 231.587 300.275 226.27 300.275 219.71C300.275 213.151 294.953 207.834 288.389 207.834C281.824 207.834 276.502 213.151 276.502 219.71C276.502 226.27 281.824 231.587 288.389 231.587Z" fill="#4A7CE2"/>
<path opacity="0.1" d="M288.389 231.587C294.953 231.587 300.275 226.27 300.275 219.71C300.275 213.151 294.953 207.834 288.389 207.834C281.824 207.834 276.502 213.151 276.502 219.71C276.502 226.27 281.824 231.587 288.389 231.587Z" fill="black"/>
<path d="M263.535 222.59C270.1 222.59 275.422 217.272 275.422 210.713C275.422 204.154 270.1 198.837 263.535 198.837C256.971 198.837 251.649 204.154 251.649 210.713C251.649 217.272 256.971 222.59 263.535 222.59Z" fill="#4A7CE2"/>
<path d="M267.677 214.852C274.242 214.852 279.564 209.535 279.564 202.976C279.564 196.417 274.242 191.1 267.677 191.1C261.113 191.1 255.791 196.417 255.791 202.976C255.791 209.535 261.113 214.852 267.677 214.852Z" fill="#4A7CE2"/>
<path d="M265.516 202.256C270.887 202.256 275.241 197.906 275.241 192.539C275.241 187.173 270.887 182.822 265.516 182.822C260.145 182.822 255.791 187.173 255.791 192.539C255.791 197.906 260.145 202.256 265.516 202.256Z" fill="#4A7CE2"/>
<path d="M273.44 220.25C278.812 220.25 283.166 215.9 283.166 210.533C283.166 205.167 278.812 200.817 273.44 200.817C268.069 200.817 263.715 205.167 263.715 210.533C263.715 215.9 268.069 220.25 273.44 220.25Z" fill="#4A7CE2"/>
<path opacity="0.1" d="M273.44 220.25C278.812 220.25 283.166 215.9 283.166 210.533C283.166 205.167 278.812 200.817 273.44 200.817C268.069 200.817 263.715 205.167 263.715 210.533C263.715 215.9 268.069 220.25 273.44 220.25Z" fill="black"/>
<path d="M280.284 197.218C285.058 197.218 288.929 193.351 288.929 188.58C288.929 183.81 285.058 179.943 280.284 179.943C275.51 179.943 271.64 183.81 271.64 188.58C271.64 193.351 275.51 197.218 280.284 197.218Z" fill="#4A7CE2"/>
<path opacity="0.1" d="M280.284 197.218C285.058 197.218 288.929 193.351 288.929 188.58C288.929 183.81 285.058 179.943 280.284 179.943C275.51 179.943 271.64 183.81 271.64 188.58C271.64 193.351 275.51 197.218 280.284 197.218Z" fill="black"/>
<path d="M232.019 233.206C236.793 233.206 240.663 229.339 240.663 224.569C240.663 219.799 236.793 215.932 232.019 215.932C227.244 215.932 223.374 219.799 223.374 224.569C223.374 229.339 227.244 233.206 232.019 233.206Z" fill="#4A7CE2"/>
<path d="M244.985 235.006C249.76 235.006 253.63 231.139 253.63 226.368C253.63 221.598 249.76 217.731 244.985 217.731C240.211 217.731 236.341 221.598 236.341 226.368C236.341 231.139 240.211 235.006 244.985 235.006Z" fill="#4A7CE2"/>
<path d="M244.985 227.088C249.76 227.088 253.63 223.221 253.63 218.451C253.63 213.681 249.76 209.814 244.985 209.814C240.211 209.814 236.341 213.681 236.341 218.451C236.341 223.221 240.211 227.088 244.985 227.088Z" fill="#4A7CE2"/>
<path opacity="0.1" d="M244.985 227.088C249.76 227.088 253.63 223.221 253.63 218.451C253.63 213.681 249.76 209.814 244.985 209.814C240.211 209.814 236.341 213.681 236.341 218.451C236.341 223.221 240.211 227.088 244.985 227.088Z" fill="black"/>
<path d="M232.019 220.25C236.793 220.25 240.663 216.383 240.663 211.613C240.663 206.843 236.793 202.976 232.019 202.976C227.244 202.976 223.374 206.843 223.374 211.613C223.374 216.383 227.244 220.25 232.019 220.25Z" fill="#4A7CE2"/>
<path d="M252.189 207.294C256.964 207.294 260.834 203.427 260.834 198.657C260.834 193.887 256.964 190.02 252.189 190.02C247.415 190.02 243.545 193.887 243.545 198.657C243.545 203.427 247.415 207.294 252.189 207.294Z" fill="#4A7CE2"/>
<path opacity="0.1" d="M252.189 207.294C256.964 207.294 260.834 203.427 260.834 198.657C260.834 193.887 256.964 190.02 252.189 190.02C247.415 190.02 243.545 193.887 243.545 198.657C243.545 203.427 247.415 207.294 252.189 207.294Z" fill="black"/>
<path d="M270.019 208.914C269.247 208.914 268.476 208.989 267.718 209.138C267.332 207.675 266.609 206.321 265.607 205.186C264.605 204.051 263.351 203.165 261.946 202.6C260.541 202.034 259.023 201.805 257.513 201.929C256.003 202.053 254.543 202.528 253.25 203.316C252.73 201.627 251.705 200.139 250.312 199.051C248.92 197.962 247.227 197.327 245.461 197.23C243.696 197.133 241.944 197.579 240.44 198.508C238.936 199.437 237.754 200.804 237.052 202.426C236.35 204.047 236.163 205.844 236.515 207.575C236.867 209.306 237.742 210.888 239.022 212.107C240.301 213.325 241.924 214.123 243.672 214.392C245.419 214.66 247.207 214.387 248.794 213.609C249.09 215.021 249.697 216.348 250.572 217.494C249.431 219.346 248.944 221.526 249.19 223.687C249.436 225.848 250.4 227.863 251.928 229.412C253.456 230.96 255.46 231.952 257.619 232.228C259.777 232.504 261.966 232.049 263.836 230.934C265.403 231.888 267.17 232.466 268.998 232.624C270.826 232.781 272.666 232.513 274.374 231.842C276.081 231.17 277.61 230.112 278.84 228.752C280.069 227.391 280.968 225.764 281.463 223.999C281.959 222.234 282.039 220.378 281.697 218.576C281.355 216.775 280.6 215.077 279.491 213.616C278.383 212.155 276.951 210.97 275.307 210.154C273.664 209.339 271.854 208.914 270.019 208.914Z" fill="#4A7CE2"/>
<path d="M260.294 204.235C265.068 204.235 268.938 200.368 268.938 195.598C268.938 190.828 265.068 186.961 260.294 186.961C255.519 186.961 251.649 190.828 251.649 195.598C251.649 200.368 255.519 204.235 260.294 204.235Z" fill="#4A7CE2"/>
<path d="M331.612 183.722C329.254 183.718 326.949 184.419 324.993 185.733C323.953 183.919 322.452 182.411 320.641 181.363C318.831 180.315 316.775 179.763 314.683 179.763C314.379 179.763 314.08 179.778 313.782 179.801C314.957 178.5 315.828 176.955 316.335 175.278C316.841 173.601 316.97 171.833 316.713 170.1C316.455 168.367 315.817 166.713 314.844 165.255C313.871 163.798 312.587 162.574 311.085 161.671C309.583 160.767 307.899 160.207 306.155 160.03C304.41 159.853 302.648 160.064 300.995 160.648C299.342 161.231 297.838 162.173 296.592 163.405C295.346 164.638 294.389 166.13 293.788 167.776C292.587 165.387 290.615 163.472 288.189 162.342C285.764 161.212 283.029 160.933 280.425 161.549C277.821 162.166 275.502 163.642 273.842 165.739C272.182 167.836 271.279 170.432 271.28 173.105C271.28 173.439 271.297 173.768 271.324 174.095C269.93 173.905 268.512 174.02 267.167 174.431C265.822 174.842 264.583 175.539 263.534 176.475C262.485 177.411 261.651 178.563 261.091 179.852C260.531 181.141 260.257 182.536 260.289 183.941C260.321 185.346 260.657 186.727 261.275 187.99C261.892 189.252 262.777 190.366 263.867 191.254C264.957 192.142 266.227 192.783 267.589 193.133C268.951 193.483 270.373 193.533 271.757 193.281C270.549 194.375 269.58 195.706 268.91 197.19C268.239 198.675 267.881 200.281 267.858 201.909C267.835 203.538 268.148 205.154 268.776 206.656C269.405 208.159 270.336 209.516 271.512 210.644C272.687 211.772 274.083 212.646 275.611 213.212C277.14 213.778 278.768 214.024 280.396 213.934C282.023 213.845 283.615 213.422 285.072 212.692C286.529 211.962 287.82 210.94 288.865 209.69C289.639 211.639 290.915 213.348 292.564 214.645C294.213 215.942 296.176 216.78 298.254 217.074C297.329 219.366 297.144 221.89 297.723 224.293C298.303 226.696 299.618 228.859 301.487 230.48C303.355 232.1 305.682 233.098 308.145 233.334C310.608 233.57 313.083 233.032 315.225 231.796C317.367 230.559 319.07 228.686 320.096 226.437C321.122 224.187 321.42 221.674 320.948 219.248C320.476 216.821 319.259 214.602 317.465 212.9C315.671 211.198 313.39 210.097 310.941 209.752C311.79 207.645 312.017 205.339 311.593 203.108C313.232 203.548 314.946 203.633 316.621 203.357C318.295 203.08 319.891 202.449 321.301 201.505C322.34 203.315 323.837 204.819 325.643 205.867C327.448 206.914 329.498 207.469 331.586 207.473C333.674 207.478 335.726 206.933 337.536 205.893C339.346 204.853 340.85 203.356 341.897 201.55C342.943 199.745 343.496 197.697 343.498 195.61C343.5 193.524 342.952 191.474 341.91 189.667C340.867 187.86 339.366 186.359 337.558 185.315C335.751 184.271 333.699 183.722 331.612 183.722ZM276.953 190.532C278.561 188.901 279.539 186.754 279.712 184.471C280.832 184.81 281.996 184.982 283.166 184.982C283.332 184.982 283.497 184.976 283.661 184.969C283.2 186.928 283.246 188.972 283.794 190.908C281.6 190.116 279.221 189.985 276.953 190.532Z" fill="#4A7CE2"/>
<path d="M179.684 120.34L177.036 182.841L175.381 210.95C175.381 210.95 179.022 216.903 173.726 217.564C168.431 218.225 158.501 216.572 159.825 213.265C161.149 209.958 162.142 209.958 162.142 209.958L163.466 178.211L153.537 139.189L140.96 181.188L138.312 211.281C138.312 211.281 141.953 215.911 138.312 216.903C134.671 217.895 125.073 217.895 125.404 214.918C125.735 211.942 127.059 211.942 127.059 211.942L125.404 124.639L130.368 117.033L179.684 120.34Z" fill="#2F2E41"/>
<path d="M172.402 215.58L173.726 223.847C173.726 223.847 181.339 239.721 170.747 239.721C160.156 239.721 163.135 233.437 163.135 233.437L164.128 215.58H172.402Z" fill="#2F2E41"/>
<path d="M127.389 215.58L126.066 223.847C126.066 223.847 118.453 239.721 129.044 239.721C139.636 239.721 136.657 233.437 136.657 233.437L135.664 215.58H127.389Z" fill="#2F2E41"/>
<path d="M161.149 26.753C161.149 26.753 164.459 38.658 165.121 38.658C165.783 38.658 158.832 47.9175 158.832 47.9175L148.572 53.5393L144.931 38.3273C144.931 38.3273 148.241 30.0599 147.579 25.7609L161.149 26.753Z" fill="#A0616A"/>
<path d="M155.854 31.3827C162.617 31.3827 168.1 25.9046 168.1 19.147C168.1 12.3894 162.617 6.91125 155.854 6.91125C149.09 6.91125 143.607 12.3894 143.607 19.147C143.607 25.9046 149.09 31.3827 155.854 31.3827Z" fill="#A0616A"/>
<path d="M154.199 44.6104L163.983 36.1203L169.754 38.9886L182.332 46.9252C182.332 46.9252 179.022 118.355 180.677 121.001C180.677 121.001 177.036 129.268 155.523 124.308C134.009 119.348 128.383 118.686 128.383 118.686L133.016 75.0344L127.39 47.5867L146.289 34.3817L152.213 44.6104H154.199Z" fill="#3F3D56"/>
<path d="M190.605 72.3888C190.605 72.3888 195.57 87.9315 191.929 89.585C188.288 91.2384 185.31 90.577 185.31 90.577L179.683 77.0185L190.605 72.3888Z" fill="#A0616A"/>
<path d="M121.763 69.7433L118.784 83.6325V111.742C118.784 111.742 123.087 129.599 126.397 124.969C129.706 120.34 129.638 118.874 129.638 118.874L125.404 112.403L127.39 85.9473L132.666 73.3272L121.763 69.7433Z" fill="#A0616A"/>
<path d="M144.269 6.91118C144.269 6.91118 148.241 -1.68689 155.853 0.29727C163.466 2.28143 167.768 5.2577 168.099 8.23395C168.43 11.2102 167.934 15.6746 167.934 15.6746C167.934 15.6746 167.106 9.55674 161.811 10.8795C156.515 12.2023 148.241 11.2102 148.241 11.2102L146.917 23.1153C146.917 23.1153 145.428 20.9657 143.773 22.2885C142.118 23.6113 138.974 9.55674 144.269 6.91118Z" fill="#2F2E41"/>
<path d="M179.683 47.5867L182.331 46.9253C182.331 46.9253 187.296 53.2085 188.951 60.4838C190.605 67.7591 192.922 75.0344 191.598 75.0344C190.274 75.0344 178.359 79.6641 178.359 79.6641L179.683 47.5867Z" fill="#3F3D56"/>
<path d="M135.002 46.9253L127.389 47.5867C127.389 47.5867 118.784 71.066 119.777 71.7274C120.77 72.3888 132.685 76.3572 134.34 75.3651C135.995 74.373 135.002 46.9253 135.002 46.9253Z" fill="#3F3D56"/>
<path d="M175.296 74.691C172.113 76.787 169.485 78.3591 167.476 79.4917H167.474C164.542 79.2917 161.598 79.3744 158.683 79.7384C156.623 78.5895 153.843 76.9419 150.425 74.691C150.392 74.6694 150.36 74.6478 150.327 74.6244V74.6226C147.191 72.4671 147.114 67.9023 148.134 63.2348C150.729 62.9467 154.867 63.0728 160.427 65.0572C167.011 67.4071 173.902 66.0782 177.896 64.8699C178.552 68.9881 178.152 72.8093 175.296 74.691Z" fill="#4A7CE2"/>
<path d="M162.86 117.008C156.832 117.008 150.425 116.093 150.425 114.397C150.425 112.786 156.089 111.927 161.418 111.802V84.2349C161.418 83.5791 161.102 82.7387 160.478 81.7369C160.19 81.2802 159.878 80.8391 159.542 80.4157C159.245 80.2547 158.929 80.0814 158.595 79.8959C156.024 78.4622 153.242 76.7617 150.325 74.8414C150.29 74.818 150.256 74.7952 150.222 74.7706L150.147 74.7164C147.443 72.795 146.707 68.92 147.958 63.1965C149.442 56.3947 153.291 49.2858 153.33 49.2148L153.407 49.0745L153.555 49.1337C153.627 49.1623 160.851 51.958 172.188 49.1262L172.323 49.0925L172.39 49.2148C172.396 49.2252 172.967 50.2759 173.741 51.9256C175.313 55.2725 177.34 60.2301 178.074 64.8416C178.862 69.7869 177.96 73.1513 175.395 74.8414C172.643 76.6536 170.008 78.2711 167.564 79.6487L167.521 79.6719C167.178 79.8666 166.853 80.0477 166.545 80.2154C166.429 80.3772 166.316 80.5475 166.209 80.7221C166.066 80.9551 165.928 81.202 165.8 81.4562C165.047 82.9729 164.653 84.6425 164.65 86.3356L164.487 111.808C169.727 111.945 175.296 112.808 175.296 114.397C175.296 116.093 168.888 117.008 162.86 117.008ZM150.507 74.5298L150.525 74.5412C153.433 76.4561 156.208 78.152 158.77 79.5813C159.116 79.7734 159.441 79.9518 159.747 80.1166L159.78 80.1344L159.803 80.1636C160.154 80.6064 160.482 81.0681 160.784 81.5465C161.444 82.6063 161.779 83.5107 161.779 84.2349V112.155L161.602 112.159C154.921 112.295 150.785 113.427 150.785 114.397C150.785 115.461 155.744 116.648 162.86 116.648C169.976 116.648 174.935 115.461 174.935 114.397C174.935 113.441 170.869 112.315 164.301 112.164L164.124 112.16L164.289 86.3333C164.293 84.5847 164.7 82.8605 165.478 81.2943C165.611 81.031 165.753 80.775 165.902 80.5337C166.021 80.3396 166.147 80.1502 166.277 79.9714L166.301 79.9385L166.337 79.919C166.666 79.7394 167.015 79.5449 167.385 79.3353L167.428 79.3117C169.854 77.9431 172.467 76.3383 175.196 74.5407C177.633 72.9356 178.482 69.6913 177.718 64.8983C176.991 60.3283 174.976 55.4044 173.415 52.0785C172.797 50.7616 172.31 49.8301 172.139 49.5095C161.664 52.0923 154.676 49.9098 153.574 49.5238C153.035 50.5407 149.67 57.0411 148.31 63.2732C147.081 68.8946 147.795 72.6632 150.429 74.4742L150.507 74.5298Z" fill="#F2F2F2"/>
<path d="M156.372 61.5457C156.869 61.5457 157.273 61.1426 157.273 60.6454C157.273 60.1481 156.869 59.745 156.372 59.745C155.874 59.745 155.471 60.1481 155.471 60.6454C155.471 61.1426 155.874 61.5457 156.372 61.5457Z" fill="#4A7CE2"/>
<path d="M153.849 69.8292C154.347 69.8292 154.75 69.4261 154.75 68.9288C154.75 68.4316 154.347 68.0284 153.849 68.0284C153.352 68.0284 152.948 68.4316 152.948 68.9288C152.948 69.4261 153.352 69.8292 153.849 69.8292Z" fill="white"/>
<path d="M158.535 63.3465C158.833 63.3465 159.075 63.1047 159.075 62.8063C159.075 62.508 158.833 62.2661 158.535 62.2661C158.236 62.2661 157.994 62.508 157.994 62.8063C157.994 63.1047 158.236 63.3465 158.535 63.3465Z" fill="#4A7CE2"/>
<path d="M160.697 73.6106C160.996 73.6106 161.238 73.3687 161.238 73.0704C161.238 72.772 160.996 72.5302 160.697 72.5302C160.399 72.5302 160.157 72.772 160.157 73.0704C160.157 73.3687 160.399 73.6106 160.697 73.6106Z" fill="white"/>
<path d="M156.913 74.1507C157.211 74.1507 157.453 73.9089 157.453 73.6105C157.453 73.3122 157.211 73.0703 156.913 73.0703C156.614 73.0703 156.372 73.3122 156.372 73.6105C156.372 73.9089 156.614 74.1507 156.913 74.1507Z" fill="white"/>
<path d="M167.906 56.1437C168.205 56.1437 168.447 55.9018 168.447 55.6034C168.447 55.3051 168.205 55.0632 167.906 55.0632C167.608 55.0632 167.366 55.3051 167.366 55.6034C167.366 55.9018 167.608 56.1437 167.906 56.1437Z" fill="#4A7CE2"/>
<path d="M188.951 79.9949C188.951 79.9949 192.922 87.2702 191.929 89.585C190.937 91.8999 182.662 93.2227 181.669 93.2227C180.676 93.2227 168.761 90.5771 168.761 90.5771C168.761 90.5771 150.558 81.979 155.853 77.68C161.149 73.381 171.078 83.6325 171.078 83.6325H179.021L183.324 80.6563L188.951 79.9949Z" fill="#A0616A"/>
</g>
<defs>
<clipPath id="clip0">
<rect width="348" height="253" fill="white"/>
</clipPath>
</defs>
</svg>
