<svg width="44" height="40" viewBox="0 0 44 40" fill="none" xmlns="http://www.w3.org/2000/svg">
<g clip-path="url(#clip0)">
<path opacity="0.1" d="M24.5926 6.25637C22.2029 6.17352 19.927 5.40241 17.7549 4.55943C15.5828 3.71644 13.4277 2.78113 11.0954 2.33193C9.59509 2.04445 7.87968 2.00353 6.67086 2.80758C5.50795 3.58168 5.13163 4.91778 4.92999 6.15755C4.78026 7.09037 4.68843 8.0721 5.10518 8.94503C5.39416 9.55144 5.90773 10.061 6.26259 10.642C7.49836 12.6623 6.62494 15.1539 5.28585 17.1268C4.65798 18.0521 3.92929 18.935 3.44466 19.9218C2.96004 20.9085 2.73544 22.0355 3.15968 23.0407C3.57992 24.0389 4.58162 24.7845 5.66666 25.3111C7.8707 26.3796 10.4675 26.6856 13 26.8583C18.6059 27.2416 24.2412 27.0759 29.8621 26.9082C31.9418 26.8463 34.0311 26.7839 36.0774 26.4625C37.2139 26.2838 38.3872 26.0003 39.2123 25.3146C40.2604 24.4456 40.5189 22.9748 39.8172 21.8852C38.6398 20.058 35.3856 19.6038 34.5626 17.6429C34.1099 16.5633 34.5751 15.361 35.2329 14.3603C36.6449 12.2141 39.0111 10.3285 39.1359 7.87196C39.2217 6.1865 38.0838 4.49804 36.325 3.69997C34.4813 2.86398 31.9244 2.96929 30.5643 4.3533C29.1638 5.78172 26.7023 6.32974 24.5926 6.25637Z" fill="#4A7CE2"/>
<path opacity="0.1" d="M19.846 40.0001C28.2248 40.0001 35.0172 39.0813 35.0172 37.9478C35.0172 36.8144 28.2248 35.8955 19.846 35.8955C11.4672 35.8955 4.6748 36.8144 4.6748 37.9478C4.6748 39.0813 11.4672 40.0001 19.846 40.0001Z" fill="#4A7CE2"/>
<path d="M23.5906 10.461C23.5906 10.461 23.1209 9.53418 23.1843 9.25867C23.2477 8.98317 22.8539 8.39473 22.8539 8.39473L22.8793 7.41849C22.8793 7.41849 22.8249 7.51831 22.5415 7.60565C22.5175 7.57421 22.4915 7.54326 22.4646 7.51382C22.3619 7.40691 22.2478 7.31167 22.1242 7.22983L21.6251 6.15277L21.1425 5.4136C21.1425 5.4136 20.3813 3.86639 19.5953 3.525L19.4715 3.28294C19.4755 3.28053 19.4786 3.27668 19.48 3.27216C19.4813 3.26763 19.481 3.26276 19.479 3.25848L19.3532 3.01242C19.3509 3.00817 19.3472 3.0049 19.3427 3.00324C19.3382 3.00158 19.3332 3.00165 19.3287 3.00344L19.2085 2.76786C19.1625 2.46257 19.0426 2.17316 18.8591 1.92488C18.8466 1.90741 18.8331 1.89144 18.8201 1.87497L19.0158 1.86798C19.1875 1.8615 19.3791 1.84652 19.4944 1.71825C19.5358 1.67044 19.5662 1.61426 19.5838 1.55355C19.5986 1.50598 19.6083 1.45695 19.6127 1.40731C19.6127 1.39983 19.6127 1.39234 19.6127 1.38535C19.6127 1.36838 19.6127 1.35175 19.6127 1.33544C19.6127 1.32197 19.6127 1.30899 19.6127 1.29551C19.6127 1.28204 19.6127 1.27405 19.6127 1.26357C19.6127 1.25309 19.6072 1.22913 19.6042 1.21366C19.6042 1.20717 19.6042 1.20069 19.6002 1.1942C19.5961 1.17465 19.5909 1.15532 19.5848 1.1363C19.5833 1.13257 19.5821 1.12873 19.5813 1.12482C19.5743 1.10486 19.5668 1.08489 19.5583 1.06543C19.5569 1.06286 19.5558 1.06019 19.5548 1.05744C19.5458 1.03798 19.5359 1.01901 19.5254 1.00055L19.5224 0.994557C19.5187 0.98681 19.5145 0.979308 19.5099 0.972097C19.3747 0.75948 19.1371 0.635204 18.911 0.522906C18.7 0.411981 18.4834 0.312028 18.2622 0.223445C17.4394 -0.0851201 16.5305 -0.072289 15.7167 0.259381C15.6364 0.289814 15.5602 0.330404 15.4901 0.380163C15.3925 0.462838 15.309 0.560965 15.2431 0.67064L14.8563 1.24211C14.8022 1.31163 14.7599 1.38952 14.731 1.4727C14.6586 1.74421 14.8857 2.01622 14.8603 2.29621C14.8473 2.43546 14.7724 2.56323 14.758 2.70248C14.7395 2.88216 14.8228 3.05535 14.9042 3.21755L15.4577 4.31558C15.4283 4.45982 15.3958 4.60755 15.3604 4.75029C15.1053 5.01382 15.0195 5.15756 14.996 5.23542L14.9885 5.23941C14.938 5.27203 14.8946 5.31446 14.8608 5.36419L14.3347 5.87527C14.3347 5.87527 13.4204 6.11284 13.2302 6.4138C13.2302 6.4138 11.7953 6.35091 11.8078 8.3548C11.8078 8.3548 11.7444 9.10645 11.7079 9.20677C11.6715 9.30709 11.7079 10.3213 11.7079 10.3213L11.691 12.3756C11.691 12.3756 11.6361 13.4651 11.691 13.8534C11.7459 14.2417 11.8093 15.7195 11.8093 15.7195C11.8093 15.7195 12.1522 17.1599 12.0254 17.6735C11.9036 18.1651 12.0254 19.2402 12.225 19.2447C12.263 19.3231 12.3064 19.3615 12.3538 19.3395C12.3744 19.3306 12.3956 19.3229 12.4172 19.3166V20.5439C12.4172 20.5439 12.1701 22.2633 12.4471 22.5902C12.2634 22.8517 12.0478 23.2979 11.9929 23.4152L10.0514 23.3109L9.80438 23.3802L9.57778 23.4436L9.44053 26.6014L9.49543 26.6054L9.49144 26.7018L9.62121 26.7112L9.44053 29.8915L12.1282 30.1126C12.0099 30.3776 11.8727 30.6616 11.8193 30.6891C11.7194 30.739 11.5018 30.5893 11.4509 30.6512C11.4 30.713 11.2478 30.7889 11.0701 30.751C10.8924 30.713 10.7781 30.9137 10.7781 30.9137C10.7781 30.9137 10.8041 30.9366 10.843 30.9791C10.5545 30.9441 10.1897 31.0988 9.99154 31.1987C9.9027 31.2436 9.8473 31.277 9.8473 31.277H9.32324L9.61122 33.1142L9.81436 33.253L9.86427 34.7004C9.86427 34.7004 10.6768 37.2054 11.0491 37.1889C11.0733 37.188 11.097 37.182 11.1186 37.1711C11.1403 37.1603 11.1593 37.1449 11.1744 37.126C11.3741 36.8954 11.2358 36.1033 11.2358 36.1033V34.7847C11.2358 34.7847 11.5403 34.6509 11.5063 34.5506C11.4724 34.4503 11.9974 33.3528 12.0443 33.253C12.0457 33.2521 12.0468 33.251 12.0475 33.2495C12.0482 33.2481 12.0485 33.2466 12.0483 33.245C12.0483 33.1322 12.2769 33.0069 12.2639 32.957C12.251 32.9071 12.8229 32.5937 12.8629 32.3181C12.9028 32.0426 13.2816 32.1929 13.2816 32.1929L13.7637 31.6389C13.7782 32.3142 13.8057 32.7868 13.8531 32.9066C14.0817 33.4831 14.1705 34.3849 14.1705 34.3849C14.1705 34.3849 14.0308 35.0737 14.1705 35.2993C14.2564 35.437 14.456 35.5848 14.5948 35.7071C14.4505 36.1443 14.471 37.0736 14.471 37.0736V37.6076L15.5376 37.9071C15.5376 37.9071 15.571 37.6401 15.6219 37.6401C15.6728 37.6401 16.3501 38.1576 16.3501 38.1576C16.3501 38.1576 18.9574 38.1911 19.6172 38.1576C19.8668 38.1452 19.9346 38.0378 19.8962 37.9081C19.8328 37.692 19.477 37.412 19.1605 37.3905C18.6525 37.3571 18.0091 36.823 18.0091 36.823C18.0091 36.823 18.059 36.7057 17.789 36.5391C17.6023 36.4243 17.0858 35.9596 16.7663 35.6876C16.7813 35.6671 16.7968 35.6467 16.8113 35.6247C16.8113 35.6247 16.3795 35.0258 16.4689 34.7603C16.5582 34.4947 16.4304 34.1114 16.4304 34.1114C16.4304 34.1114 16.1894 33.3723 16.1894 32.9964C16.1894 32.7584 16.1534 31.4043 16.1275 30.444L16.3501 30.4625L16.3546 30.3667L16.4544 30.3757L17.3982 30.4625L17.3693 29.4538C17.8239 29.2542 18.2023 29.069 18.359 28.9507C18.892 28.5514 19.3492 28.525 19.3492 28.525C19.3492 28.525 20.4283 27.949 20.5935 27.7109C20.7587 27.4729 20.7432 25.7445 20.7432 25.7445L20.6543 22.0402V22.0372C20.6543 22.0372 20.5785 20.2464 20.4258 19.8581C20.3699 19.7143 20.2316 19.2352 20.0804 18.6882C20.1673 18.6792 20.2551 18.6829 20.3409 18.6992C20.3464 18.8329 20.3499 18.9248 20.3499 18.9562C20.3499 19.1688 20.6543 19.3495 20.6543 19.3495L20.4387 14.5581V11.2985C21.1035 11.5101 22.7111 11.576 22.7111 11.576C23.8696 11.5151 23.5906 10.461 23.5906 10.461ZM17.3198 6.34442H17.3164C17.34 6.21881 17.3708 6.09466 17.4087 5.97259L17.3198 6.34442ZM12.9567 22.7783C13.3505 22.8432 13.8052 22.8242 13.8396 22.7479C13.8431 22.7404 13.8476 22.7269 13.8536 22.7095C13.8661 22.7314 13.878 22.7539 13.8905 22.7768L13.8521 23.4995V23.516L12.5544 23.4461C12.6453 23.0593 12.817 22.8707 12.9567 22.7783ZM17.2824 26.4248L17.249 25.2544C17.3069 25.0388 17.3588 24.8431 17.4032 24.6754C17.4232 24.8147 17.4401 24.9429 17.4531 25.0612C17.5759 26.1717 17.3947 26.3883 17.2824 26.4248ZM20.9758 8.87736C20.9014 8.90581 20.6184 8.72763 20.3499 8.54296C20.3499 8.50902 20.3524 8.47558 20.3539 8.44314C20.3918 7.67902 19.1476 7.20338 18.7667 7.11553C18.6743 7.09168 18.5847 7.05823 18.4992 7.01571C18.2963 6.91522 18.0991 6.80376 17.9083 6.68182L17.9133 6.66734C17.9133 6.66734 17.4222 6.3564 17.4117 5.9686C17.5236 5.61587 17.6648 5.27312 17.8339 4.94394C17.8434 4.92448 17.8539 4.90402 17.8639 4.88455C18.096 4.81237 18.3126 4.69761 18.5027 4.54616C18.5791 5.54436 20.0235 6.40332 20.0235 6.40332L20.1777 6.65287L20.2141 6.71176C20.1363 6.75768 20.0988 6.79461 20.1253 6.81607C20.2351 6.90392 20.5006 7.40102 20.6104 7.61114C20.6404 7.66804 20.6603 7.70348 20.6603 7.70348C20.6603 7.70348 20.8964 8.34582 21.0317 8.88335C21.0137 8.87585 20.9939 8.87376 20.9748 8.87736H20.9758Z" fill="url(#paint0_linear)"/>
<path d="M21.533 6.28869L21.5161 6.31115L21.4582 6.38851L20.3477 7.1731L20.1121 6.7858L19.9623 6.53624C19.9623 6.53624 17.7488 5.20863 18.7006 3.92894C19.6524 2.64924 21.0589 5.55102 21.0589 5.55102L21.533 6.28869Z" fill="#FFC5D3"/>
<path d="M19.3002 3.16248C19.2955 3.15312 19.2841 3.14936 19.2747 3.15407C19.2654 3.15878 19.2616 3.17018 19.2663 3.17954L19.3898 3.42471C19.3945 3.43406 19.4059 3.43783 19.4153 3.43312C19.4246 3.4284 19.4284 3.417 19.4237 3.40765L19.3002 3.16248Z" fill="#3A3768"/>
<path d="M18.0332 3.50532L18.0328 3.50554C18.0276 3.50814 18.0255 3.51444 18.0282 3.51961L18.065 3.59272C18.0676 3.59789 18.0739 3.59997 18.079 3.59737L18.0795 3.59714C18.0847 3.59454 18.0867 3.58824 18.0841 3.58307L18.0473 3.50996C18.0447 3.50479 18.0384 3.50271 18.0332 3.50532Z" fill="#3A3768"/>
<path d="M18.1332 3.67814C18.1303 3.67224 18.1231 3.66986 18.1171 3.67283C18.1112 3.67581 18.1089 3.68301 18.1118 3.68892L18.1817 3.82756C18.1846 3.83347 18.1918 3.83585 18.1978 3.83287C18.2037 3.82989 18.206 3.82269 18.2031 3.81678L18.1332 3.67814Z" fill="#3A3768"/>
<path d="M18.2415 3.89397C18.2386 3.88831 18.2317 3.88603 18.2261 3.88888C18.2204 3.89173 18.2181 3.89863 18.221 3.9043L18.2919 4.04516C18.2948 4.05082 18.3017 4.0531 18.3074 4.05025C18.313 4.0474 18.3153 4.0405 18.3125 4.03483L18.2415 3.89397Z" fill="#3A3768"/>
<path d="M18.9123 2.68125L17.9797 3.15089C17.9246 3.17866 17.9024 3.24588 17.9302 3.30102L18.9884 5.40236C19.0162 5.45751 19.0834 5.4797 19.1386 5.45193L20.0711 4.9823C20.1262 4.95452 20.1484 4.8873 20.1207 4.83216L19.0624 2.73082C19.0346 2.67567 18.9674 2.65348 18.9123 2.68125Z" fill="#3A3768"/>
<path d="M18.7934 2.81421C18.788 2.81686 18.7833 2.82054 18.7794 2.82505C18.7755 2.82956 18.7725 2.8348 18.7706 2.84047C18.7688 2.84614 18.7681 2.85212 18.7685 2.85806C18.769 2.86401 18.7707 2.8698 18.7734 2.8751L18.7774 2.88358C18.7802 2.88892 18.7818 2.89475 18.7823 2.90073C18.7828 2.90671 18.7821 2.91273 18.7802 2.91844C18.7784 2.92415 18.7754 2.92944 18.7715 2.93399C18.7676 2.93854 18.7628 2.94228 18.7574 2.94497L18.2773 3.18654C18.272 3.18928 18.2662 3.19094 18.2603 3.19142C18.2543 3.19189 18.2483 3.19118 18.2427 3.18932C18.237 3.18747 18.2318 3.1845 18.2273 3.18059C18.2228 3.17669 18.2191 3.17192 18.2164 3.16658L18.2119 3.15809C18.2093 3.15275 18.2056 3.14798 18.2011 3.14406C18.1966 3.14014 18.1914 3.13715 18.1857 3.13525C18.1801 3.13335 18.1741 3.13258 18.1681 3.13299C18.1622 3.1334 18.1564 3.13497 18.151 3.13763L18.0577 3.18504C18.0475 3.19008 18.0384 3.1971 18.0309 3.2057C18.0234 3.2143 18.0177 3.2243 18.0141 3.23513C18.0105 3.24595 18.0091 3.25738 18.01 3.26875C18.0109 3.28012 18.0141 3.29119 18.0193 3.30133L19.0394 5.32619C19.0499 5.3467 19.0681 5.36224 19.0899 5.36944C19.1118 5.37664 19.1356 5.37491 19.1562 5.36463L19.9937 4.94288C20.0142 4.93241 20.0298 4.91427 20.037 4.8924C20.0442 4.87052 20.0424 4.8467 20.0322 4.82609L19.0115 2.80023C19.0064 2.79003 18.9993 2.78095 18.9906 2.77349C18.982 2.76604 18.9719 2.76036 18.9611 2.75679C18.9502 2.75322 18.9388 2.75183 18.9274 2.75269C18.916 2.75355 18.9049 2.75665 18.8947 2.7618L18.7934 2.81421Z" fill="#4A7CE2"/>
<path d="M18.5143 2.96794L18.3881 3.03147C18.3793 3.03593 18.3757 3.04674 18.3802 3.0556C18.3846 3.06446 18.3954 3.06803 18.4043 3.06356L18.5304 3.00003C18.5393 2.99557 18.5429 2.98477 18.5384 2.9759C18.5339 2.96704 18.5231 2.96347 18.5143 2.96794Z" fill="#E6E8EC"/>
<path d="M18.58 2.97354C18.5913 2.97354 18.6005 2.96438 18.6005 2.95308C18.6005 2.94178 18.5913 2.93262 18.58 2.93262C18.5687 2.93262 18.5596 2.94178 18.5596 2.95308C18.5596 2.96438 18.5687 2.97354 18.58 2.97354Z" fill="#E6E8EC"/>
<path d="M19.5121 10.5811L19.2002 18.952C19.2002 18.952 20.2483 18.6026 20.4105 18.8646C20.5727 19.1267 20.2358 14.6722 20.2358 14.6722L19.5121 10.5811Z" fill="#5F5570"/>
<path opacity="0.15" d="M19.5121 10.5811L19.2002 18.952C19.2002 18.952 20.2483 18.6026 20.4105 18.8646C20.5727 19.1267 20.2358 14.6722 20.2358 14.6722L19.5121 10.5811Z" fill="black"/>
<path d="M19.5623 38.1729C18.9135 38.2063 16.3516 38.1729 16.3516 38.1729C16.3516 38.1729 15.6858 37.6573 15.6359 37.6573C15.586 37.6573 15.553 37.9234 15.553 37.9234L14.5049 37.6239V37.0919C14.5049 37.0919 14.4715 35.5771 14.7874 35.5112C15.1033 35.4453 16.5013 35.5112 16.5013 35.5112C16.5512 35.4947 17.4995 36.3931 17.7656 36.5593C18.0316 36.7255 17.9817 36.8423 17.9817 36.8423C17.9817 36.8423 18.614 37.3743 19.1131 37.4078C19.4241 37.4288 19.7739 37.7072 19.8363 37.9234C19.8743 38.0536 19.8069 38.1604 19.5623 38.1729Z" fill="#BC8487"/>
<path opacity="0.1" d="M19.5623 38.1726C18.9134 38.2061 16.3516 38.1726 16.3516 38.1726C16.3516 38.1726 15.6858 37.657 15.6358 37.657C15.5859 37.657 15.553 37.9231 15.553 37.9231L14.5049 37.6236V37.1021L15.4861 37.4574L16.2682 37.9231H19.8363C19.8742 38.0533 19.8068 38.1601 19.5623 38.1726Z" fill="black"/>
<g opacity="0.1">
<path d="M16.6484 37.3912C16.6484 37.3912 17.447 36.6261 17.981 36.8422L16.6484 37.3912Z" fill="black"/>
<path d="M16.6484 37.3912C16.6484 37.3912 17.447 36.6261 17.981 36.8422" stroke="black" stroke-miterlimit="10"/>
</g>
<path d="M11.5924 34.579C11.6259 34.6788 11.3264 34.8121 11.3264 34.8121V36.1262C11.3264 36.1262 11.4622 36.9153 11.266 37.1454C11.2513 37.1641 11.2327 37.1793 11.2115 37.1901C11.1903 37.2008 11.167 37.2069 11.1432 37.2078C10.7774 37.2242 9.97883 34.7287 9.97883 34.7287L9.92892 33.2868L9.72928 33.1486L9.44629 31.3184H9.96236C9.96236 31.3184 10.0168 31.2849 10.1041 31.24C10.3537 31.1128 10.8762 30.8907 11.1602 31.1023L12.125 33.2759C12.125 33.2759 11.5595 34.4792 11.5924 34.579Z" fill="#BC8487"/>
<path opacity="0.1" d="M11.266 37.1456C11.2513 37.1642 11.2327 37.1795 11.2115 37.1903C11.1903 37.201 11.167 37.2071 11.1432 37.208C10.7774 37.2244 9.97883 34.7289 9.97883 34.7289L9.92892 33.287L9.72928 33.1488L9.44629 31.3186H9.96236C9.96236 31.3186 10.0168 31.2852 10.1041 31.2402L10.2284 33.1154L10.2948 34.7289C10.2948 34.7289 10.9216 36.4858 11.266 37.1456Z" fill="black"/>
<path d="M20.5231 27.7624C20.3609 27.9995 19.3003 28.5735 19.3003 28.5735C19.3003 28.5735 18.8511 28.5984 18.327 28.9977C18.056 29.2043 17.1142 29.6141 16.2682 29.962C15.4781 30.2869 14.7709 30.5574 14.7709 30.5574L13.9564 31.5057L13.336 32.2279C13.336 32.2279 12.9617 32.0782 12.9242 32.3527C12.8868 32.6272 12.3253 32.9391 12.3378 32.989C12.3503 33.0389 12.1257 33.1637 12.1257 33.276C12.1257 33.3883 11.2897 32.465 11.3022 31.9035C11.3146 31.342 10.8779 30.9552 10.8779 30.9552C10.8779 30.9552 10.9902 30.7555 11.1649 30.793C11.3396 30.8304 11.4893 30.7555 11.5392 30.6931C11.5891 30.6308 11.8013 30.7805 11.9011 30.7306C12.0009 30.6807 12.4002 29.6949 12.4002 29.6949L13.9559 28.6513L17.0503 26.5771L17.1931 26.4812C17.1931 26.4812 17.6048 26.6699 17.4376 25.1242C17.4052 24.8247 17.3508 24.4609 17.2679 24.0177C16.7563 21.2851 18.5905 20.9731 18.5905 20.9731L20.2002 21.5097L20.587 22.1086V22.1116L20.6743 25.802C20.6743 25.802 20.6853 27.5254 20.5231 27.7624Z" fill="#433A59"/>
<path opacity="0.1" d="M16.2556 29.5094C16.2556 29.5094 16.2606 29.6865 16.2681 29.962C15.478 30.287 14.7708 30.5575 14.7708 30.5575L13.9563 31.5058C13.9428 30.7197 13.9458 29.6985 13.9563 28.6519L17.0507 26.5776C16.6679 27.9966 16.2556 29.5094 16.2556 29.5094Z" fill="black"/>
<path opacity="0.1" d="M20.5849 22.1101V22.1131L18.1642 22.16C18.1642 22.16 17.74 23.8195 17.6776 24.1688C17.6622 24.2547 17.5683 24.6215 17.4356 25.1256C17.4031 24.8261 17.3487 24.4623 17.2659 24.0191C16.7543 21.2865 18.5885 20.9746 18.5885 20.9746L20.1981 21.5111L20.5849 22.1101Z" fill="black"/>
<path d="M14.2096 17.5807L13.8977 23.5699C13.8977 23.5699 13.6731 32.3666 13.8977 32.9406C14.1223 33.5146 14.2096 34.4129 14.2096 34.4129C14.2096 34.4129 14.0724 35.0992 14.2096 35.3238C14.3469 35.5484 14.7836 35.7979 14.7711 35.9227C14.7586 36.0475 16.1062 36.7213 16.8049 35.6482C16.8049 35.6482 16.3807 35.0493 16.468 34.7873C16.5554 34.5252 16.4306 34.1384 16.4306 34.1384C16.4306 34.1384 16.1935 33.4023 16.1935 33.0264C16.1935 32.6506 16.1062 29.5078 16.1062 29.5078C16.1062 29.5078 17.4662 24.5167 17.5286 24.1674C17.591 23.818 18.0153 22.1585 18.0153 22.1585L20.5856 22.1086C20.5856 22.1086 20.5108 20.3243 20.361 19.9375C20.2113 19.5507 19.4751 16.7183 19.4751 16.7183L14.2096 17.5807Z" fill="#433A59"/>
<path d="M9.91958 23.4521L9.69648 23.516L9.6875 23.7366L16.3765 23.823V23.7361L9.91958 23.4521Z" fill="#7B728F"/>
<path d="M17.809 5.08432C16.8358 7.05826 17.4402 7.47102 17.5365 7.52193C17.3304 7.4261 14.6512 6.16737 15.0036 5.84794C15.2327 5.63982 15.4288 4.73445 15.5441 4.08561C15.6125 3.69831 15.6524 3.40234 15.6524 3.40234L18.4639 3.91792C18.1913 4.35713 17.9747 4.74393 17.809 5.08432Z" fill="#FFC5D3"/>
<path opacity="0.1" d="M21.5183 6.31118L21.4604 6.38854L20.3479 7.17314L20.1123 6.78583C20.4552 6.58619 21.4833 6.23682 21.4833 6.23682L21.5183 6.31118Z" fill="black"/>
<path d="M22.5445 8.11026C22.4447 8.45964 20.7603 8.11026 20.7603 8.11026L20.5856 7.83575C20.5856 7.83575 20.5681 7.80082 20.5387 7.74392C20.4308 7.53479 20.1698 7.03968 20.062 6.95184C19.9248 6.83954 21.5344 6.29053 21.5344 6.29053L22.0275 7.3636C22.149 7.44532 22.2612 7.54023 22.3619 7.64659C22.4866 7.78185 22.59 7.95105 22.5445 8.11026Z" fill="#E5E8EF"/>
<path d="M19.749 8.271C19.749 8.271 20.7472 9.05858 20.897 9.00168C21.0467 8.94478 23.4673 10.5793 23.4673 10.5793C23.4673 10.5793 23.7418 11.6274 22.6064 11.6898C22.6064 11.6898 20.1982 11.59 20.0984 11.2406C19.9986 10.8913 19.749 8.271 19.749 8.271Z" fill="#5F5570"/>
<path opacity="0.1" d="M17.0289 6.68802L15.9434 7.811L17.4656 17.4936L18.0645 17.1442C18.0645 17.1442 19.6118 17.8305 19.7365 17.1941C19.8613 16.5578 19.8269 14.0498 19.8269 14.0498L19.6242 9.51893C19.6242 9.51893 18.913 7.93428 18.913 7.88437C18.913 7.83446 17.8874 7.06085 17.8874 7.06085L17.4032 6.68652L17.0289 6.68802Z" fill="black"/>
<path d="M17.0289 6.53812L15.9434 7.6611L17.4656 17.3437L18.0645 16.9943C18.0645 16.9943 19.6118 17.6806 19.7365 17.0442C19.8613 16.4079 19.8269 13.8999 19.8269 13.8999L19.6242 9.36902C19.6242 9.36902 18.913 7.78438 18.913 7.73447C18.913 7.68455 17.8874 6.91095 17.8874 6.91095L17.4032 6.53662L17.0289 6.53812Z" fill="#E5E8EF"/>
<path opacity="0.1" d="M17.0915 6.70043L16.792 7.31183L17.0915 7.62776C17.0915 7.62776 18.1645 9.79486 17.9524 11.08L18.177 15.3099L18.9007 16.0212L19.4747 15.3583L19.2002 11.5153C19.2002 11.5153 18.464 8.34597 17.6904 7.36024L17.4658 6.48682L17.0915 6.70043Z" fill="black"/>
<path d="M17.0915 6.60082L16.792 7.21222L17.0915 7.52815C17.0915 7.52815 18.1645 9.69525 17.9524 10.9804L18.177 15.2103L18.9007 15.9216L19.4747 15.2587L19.2002 11.4157C19.2002 11.4157 18.464 8.24636 17.6904 7.26064L17.4658 6.38721L17.0915 6.60082Z" fill="#BC8487"/>
<path opacity="0.1" d="M18.4637 3.91797C18.1912 4.35718 17.9766 4.74398 17.8089 5.08437C17.6322 5.13646 17.449 5.16285 17.2648 5.16273C16.648 5.16273 16.2926 4.736 15.9432 4.28281C15.8634 4.18 15.6008 4.20395 15.5439 4.08317C15.6123 3.69587 15.6523 3.3999 15.6523 3.3999L18.4637 3.91797Z" fill="black"/>
<path d="M19.1787 3.19929C19.1786 3.65491 19.016 4.09555 18.72 4.44194C18.4241 4.78832 18.0142 5.0177 17.5642 5.08881C17.1141 5.15991 16.6535 5.06807 16.2651 4.8298C15.8768 4.59153 15.5862 4.22249 15.4458 3.78908C15.3053 3.35567 15.3241 2.88635 15.4988 2.46557C15.6735 2.04479 15.9927 1.70018 16.3988 1.49376C16.805 1.28733 17.2715 1.23264 17.7144 1.33953C18.1573 1.44641 18.5475 1.70786 18.8148 2.07682C19.0513 2.40329 19.1787 2.79614 19.1787 3.19929Z" fill="#FFC5D3"/>
<path opacity="0.1" d="M16.6548 7.46172L15.0826 5.56513C15.0826 5.56513 14.9373 5.50674 15.428 4.99316C15.428 4.99316 17.2297 6.39764 17.3415 6.63621C17.4533 6.87478 16.6548 7.46172 16.6548 7.46172Z" fill="black"/>
<path d="M16.605 7.36162L15.0328 5.46504C15.0328 5.46504 14.8875 5.40664 15.3782 4.89307C15.3782 4.89307 17.1799 6.29754 17.2917 6.53611C17.4035 6.77468 16.605 7.36162 16.605 7.36162Z" fill="#E5E8EF"/>
<path d="M20.5847 19.4323C20.5847 19.4323 20.2853 19.2527 20.2853 19.0405C20.2853 18.8284 20.1355 15.8338 20.1355 15.8338C20.1355 15.8338 19.9159 14.0465 19.6863 12.6261C19.5516 11.7891 19.4133 11.0789 19.3155 10.9381L19.3115 10.9321C19.0495 10.5952 19.0994 8.9482 17.4648 6.54004C17.4868 6.55501 18.0503 6.9503 18.463 7.14894C18.5471 7.19116 18.6352 7.22461 18.7261 7.24876C19.1004 7.33611 20.3232 7.81025 20.2858 8.57138C20.2483 9.33251 20.3731 11.0794 20.3731 11.0794V14.6594L20.5847 19.4323Z" fill="#5F5570"/>
<path d="M20.585 7.83579C20.585 7.83579 21.109 9.28318 21.0342 9.64503C20.9593 10.0069 22.2445 11.4293 22.2445 11.4293L23.4673 10.5808C23.4673 10.5808 23.0056 9.65751 23.068 9.383C23.1304 9.1085 22.7436 8.52205 22.7436 8.52205L22.7685 7.5498C22.7685 7.5498 22.5439 7.97155 20.585 7.83579Z" fill="#5F5570"/>
<path opacity="0.1" d="M18.8145 2.07674L17.8662 2.11268C17.7736 2.11207 17.6813 2.12365 17.5917 2.14712C17.2528 2.25143 17.0966 2.61178 17.0841 2.9357C17.0716 3.25962 16.8845 3.62246 16.5216 3.65091C16.4855 3.65705 16.4484 3.64881 16.4183 3.62795C16.3953 3.60347 16.38 3.57274 16.3744 3.53961C16.3223 3.35087 16.2419 3.17113 16.1358 3.00657C15.9861 3.03352 15.8753 3.17577 15.8364 3.3245C15.7974 3.47323 15.8079 3.62995 15.8084 3.78417C15.8089 3.98004 15.79 4.17547 15.752 4.36762C15.5973 4.16677 15.484 3.93716 15.4188 3.69215C15.3536 3.44714 15.3378 3.19161 15.3722 2.94042C15.4066 2.68922 15.4906 2.44738 15.6194 2.22894C15.7481 2.01051 15.9189 1.81984 16.122 1.66802C16.325 1.51619 16.5563 1.40625 16.8022 1.34457C17.0481 1.2829 17.3038 1.27072 17.5545 1.30875C17.8052 1.34679 18.0458 1.43426 18.2623 1.56611C18.4789 1.69795 18.6671 1.87153 18.816 2.07674H18.8145Z" fill="black"/>
<path d="M17.5423 2.09719C17.6319 2.07372 17.7242 2.06214 17.8168 2.06275L18.9683 2.01983C19.137 2.01334 19.3251 1.99836 19.4384 1.87309C19.4791 1.82525 19.509 1.76926 19.5263 1.70889C19.5559 1.61242 19.5646 1.51073 19.5518 1.41062C19.539 1.31052 19.5049 1.21431 19.4519 1.12843C19.3186 0.916313 19.0851 0.793034 18.8625 0.679239C18.6553 0.568556 18.4426 0.468604 18.2251 0.379778C17.4174 0.073048 16.5231 0.0858998 15.7246 0.415714C15.6457 0.445998 15.5709 0.486073 15.502 0.534999C15.4057 0.617471 15.3238 0.715282 15.2594 0.824478L14.8806 1.39545C14.8283 1.46517 14.788 1.54309 14.7613 1.62604C14.6899 1.89705 14.9111 2.16806 14.8881 2.44706C14.8751 2.58581 14.8017 2.71308 14.7883 2.85183C14.7703 3.03101 14.8522 3.2012 14.9325 3.36441L15.5983 4.70749C15.7058 4.3943 15.7603 4.06537 15.7595 3.73424C15.7595 3.58002 15.7466 3.4233 15.7875 3.27457C15.8284 3.12584 15.9372 2.98359 16.0869 2.95664C16.1933 3.12112 16.2739 3.30087 16.326 3.48968C16.3315 3.52285 16.3468 3.55361 16.3699 3.57802C16.4 3.59892 16.4371 3.60717 16.4732 3.60098C16.8381 3.57253 17.0223 3.21318 17.0357 2.88577C17.0492 2.55836 17.2034 2.2015 17.5423 2.09719Z" fill="#8F7080"/>
<path d="M9.69629 23.5161L10.1625 23.3828L17.1913 23.7656L16.4177 23.8655L9.69629 23.5161Z" fill="#7B728F"/>
<path opacity="0.1" d="M9.69629 23.5161L10.1625 23.3828L17.1913 23.7656L16.4177 23.8655L9.69629 23.5161Z" fill="black"/>
<path d="M17.3826 30.5035L16.4553 30.4171L16.1299 30.3872V25.2295L16.2157 24.0321L16.2347 23.7656H17.1915L17.3826 30.5035Z" fill="#7B728F"/>
<path opacity="0.1" d="M17.1291 30.3206L16.3894 30.2388L16.1299 30.2103V25.3201L16.1983 24.1852L16.2132 23.9321H16.9764L17.1291 30.3206Z" fill="black"/>
<path d="M12.0566 23.5161C12.0566 23.5161 12.5183 22.5034 12.712 22.472C12.9056 22.4405 13.261 22.472 13.261 22.472L13.2296 22.7655C13.2296 22.7655 12.7554 22.8029 12.6057 23.595L12.0566 23.5161Z" fill="#7B728F"/>
<path opacity="0.1" d="M12.0566 23.5161C12.0566 23.5161 12.5183 22.5034 12.712 22.472C12.9056 22.4405 13.261 22.472 13.261 22.472L13.2296 22.7655C13.2296 22.7655 12.7554 22.8029 12.6057 23.595L12.0566 23.5161Z" fill="black"/>
<path d="M13.8476 22.3662C13.8476 22.3662 15.0888 22.9836 14.9266 23.7073L14.2528 23.6698C14.2528 23.6698 13.9284 22.5908 13.6729 22.5344C13.4173 22.478 13.8476 22.3662 13.8476 22.3662Z" fill="#7B728F"/>
<path d="M18.4644 12.5898V12.6262L18.4395 16.7822C18.4395 16.7822 17.8031 20.276 17.6284 20.4132C17.4537 20.5505 13.6231 20.1761 13.6231 20.1761L11.8888 8.48467C11.8763 6.48826 13.2862 6.55065 13.2862 6.55065C13.4734 6.25119 14.3718 6.01411 14.3718 6.01411L14.8709 5.52749L14.8869 5.50503C14.92 5.45559 14.9628 5.41332 15.0126 5.38075C15.1154 5.32136 15.1808 5.39972 15.2183 5.47708C15.2351 5.5134 15.2482 5.55137 15.2572 5.59038C17.2791 7.07321 18.4644 12.5898 18.4644 12.5898Z" fill="#5F5570"/>
<path opacity="0.1" d="M18.4139 12.6397V12.6761C17.7866 11.5282 15.3694 7.17902 14.7081 6.96241L14.9626 6.78772C14.9626 6.78772 15.1323 6.6879 14.8204 6.58808C14.8204 6.58808 14.3338 6.65047 14.3213 6.06403L14.8364 5.55494L14.9621 5.43066L15.1678 5.52699C15.1846 5.56331 15.1977 5.60128 15.2067 5.64029C17.2286 7.12312 18.4139 12.6397 18.4139 12.6397Z" fill="black"/>
<path d="M18.4637 12.5899V12.6263C17.8364 11.4784 15.4192 7.12921 14.7579 6.9126L15.0124 6.73792C15.0124 6.73792 15.1821 6.6381 14.8702 6.53828C14.8702 6.53828 14.3836 6.60066 14.3711 6.01422L14.8862 5.50514L15.0119 5.38086L15.2176 5.47719C15.2344 5.51351 15.2475 5.55147 15.2565 5.59048C17.2784 7.07331 18.4637 12.5899 18.4637 12.5899Z" fill="#433A59"/>
<path opacity="0.1" d="M19.3663 10.9865L19.3623 10.9805C19.1003 10.6436 19.1502 8.99654 17.5156 6.58838C17.5376 6.60335 18.1011 6.99864 18.5138 7.19728L18.3985 7.5776L18.6481 7.71086L19.3663 10.9865Z" fill="black"/>
<path d="M19.3165 10.9362L19.3125 10.9302C19.0505 10.5933 19.1004 8.94626 17.4658 6.53809C17.4878 6.55306 18.0513 6.94835 18.464 7.14699L18.3487 7.52731L18.5983 7.66057L19.3165 10.9362Z" fill="#433A59"/>
<path opacity="0.1" d="M17.3943 6.15381L17.292 6.58603C17.292 6.58603 17.3669 7.01876 17.8155 7.05619L17.8879 6.85006C17.8879 6.85006 17.4038 6.53962 17.3943 6.15381Z" fill="black"/>
<path d="M17.3943 6.104L17.292 6.53623C17.292 6.53623 17.3669 6.96895 17.8155 7.00638L17.8879 6.80025C17.8879 6.80025 17.4038 6.48981 17.3943 6.104Z" fill="#E5E8EF"/>
<path opacity="0.1" d="M16.7488 23.8354L16.4553 30.4171L16.1299 30.3872V25.2294L16.2157 24.0321L16.7488 23.8354Z" fill="black"/>
<path d="M9.76312 26.3774L9.56348 29.9375L16.3512 30.5035L16.6487 23.8354L9.76312 26.3774Z" fill="#7B728F"/>
<path opacity="0.1" d="M9.61328 26.7606L9.74604 23.6162L16.6985 23.9356L16.3676 27.2597L9.61328 26.7606Z" fill="black"/>
<path d="M9.56348 26.6605L9.69624 23.5161L16.6487 23.8355L16.3178 27.1596L9.56348 26.6605Z" fill="#7B728F"/>
<path d="M13.3233 26.6646H12.4873V27.6378H13.3233V26.6646Z" fill="#C3BBC8"/>
<path d="M12.6124 20.2886L12.4877 20.6255C12.4877 20.6255 12.2256 22.4722 12.55 22.6968C12.8745 22.9214 13.8352 22.9339 13.8851 22.8216C13.935 22.7093 14.2844 21.4365 14.2844 21.4365C14.2844 21.4365 14.5963 22.3724 14.7586 22.2975C14.9208 22.2226 14.3842 20.4438 14.3842 20.4438L12.6124 20.2886Z" fill="#FFC5D3"/>
<path opacity="0.1" d="M12.4873 18.8908V20.6751C12.4873 20.6751 13.8099 20.9246 14.3839 20.4934C14.3839 20.4934 13.8474 18.766 14.047 18.3293C14.2467 17.8926 12.4873 18.8908 12.4873 18.8908Z" fill="black"/>
<path d="M12.4873 18.841V20.6253C12.4873 20.6253 13.8099 20.8748 14.3839 20.4436C14.3839 20.4436 13.8474 18.7162 14.047 18.2795C14.2467 17.8428 12.4873 18.841 12.4873 18.841Z" fill="#E5E8EF"/>
<path opacity="0.1" d="M12.3378 8.39724L11.9884 8.58441C11.9884 8.58441 11.926 9.33306 11.8886 9.43288C11.8511 9.5327 11.8886 10.5434 11.8886 10.5434L11.8716 12.5897C11.8716 12.5897 11.8177 13.6752 11.8716 14.062C11.9255 14.4489 11.9859 15.9212 11.9859 15.9212C11.9859 15.9212 12.3233 17.3561 12.1985 17.8677C12.0738 18.3793 12.211 19.5272 12.4231 19.4274C12.6352 19.3276 14.5942 18.9408 14.694 18.8659C14.7939 18.791 14.744 18.0923 14.694 18.005C14.6441 17.9176 14.3447 16.7322 14.3696 16.4577C14.3946 16.1832 14.2823 13.7751 14.2823 13.7751C14.2823 13.7751 14.4694 11.2047 14.5443 10.6058C14.6192 10.0068 14.3946 8.24751 14.1949 8.22256C13.9953 8.1976 13.4108 6.83755 12.3378 8.39724Z" fill="black"/>
<path d="M12.2382 8.29763L11.8888 8.4848C11.8888 8.4848 11.8264 9.23345 11.789 9.33327C11.7515 9.43309 11.789 10.4438 11.789 10.4438L11.772 12.4901C11.772 12.4901 11.7181 13.5756 11.772 13.9624C11.8259 14.3492 11.8863 15.8216 11.8863 15.8216C11.8863 15.8216 12.2237 17.2565 12.0989 17.7681C11.9741 18.2797 12.1114 19.4276 12.3235 19.3278C12.5356 19.228 14.4946 18.8412 14.5944 18.7663C14.6943 18.6914 14.6443 17.9927 14.5944 17.9053C14.5445 17.818 14.2451 16.6326 14.27 16.3581C14.295 16.0836 14.1827 13.6755 14.1827 13.6755C14.1827 13.6755 14.3698 11.1051 14.4447 10.5062C14.5196 9.90724 14.295 8.1479 14.0953 8.12295C13.8957 8.09799 13.3112 6.73794 12.2382 8.29763Z" fill="#5F5570"/>
<g opacity="0.1">
<path opacity="0.1" d="M16.0112 2.76953C15.8615 2.79648 15.7507 2.93873 15.7118 3.08746C15.6728 3.23619 15.6833 3.39291 15.6838 3.54713C15.6848 3.87823 15.6305 4.20716 15.5231 4.52038L14.8568 3.1773C14.8438 3.15084 14.8304 3.12339 14.8174 3.09594C14.8482 3.18837 14.8864 3.27817 14.9317 3.36446L15.598 4.70754C15.7053 4.39433 15.7596 4.06539 15.7587 3.73429C15.7587 3.58007 15.7462 3.42335 15.7866 3.27462C15.8271 3.12589 15.9364 2.98365 16.0861 2.95669C16.1344 3.0324 16.1776 3.11127 16.2154 3.19277C16.1647 3.04396 16.0961 2.90185 16.0112 2.76953Z" fill="black"/>
<path opacity="0.1" d="M19.4638 1.1499C19.493 1.27269 19.4889 1.40108 19.4518 1.52173C19.4344 1.58214 19.4043 1.63813 19.3634 1.68594C19.2501 1.81121 19.064 1.82618 18.8933 1.83267L17.7423 1.8756C17.6496 1.87498 17.5571 1.88656 17.4673 1.91003C17.1289 2.01435 16.9722 2.3747 16.9598 2.69861C16.9473 3.02253 16.7601 3.38538 16.3973 3.41382C16.3611 3.41996 16.3241 3.41172 16.2939 3.39087C16.3054 3.42331 16.3164 3.45625 16.3259 3.49069C16.331 3.52387 16.3462 3.55469 16.3693 3.57903C16.3994 3.59988 16.4365 3.60812 16.4726 3.60198C16.838 3.57354 17.0216 3.21418 17.0351 2.88677C17.0486 2.55936 17.2043 2.20251 17.5427 2.09819C17.6325 2.07472 17.7249 2.06315 17.8177 2.06376L18.9686 2.02083C19.1373 2.01434 19.3255 1.99937 19.4388 1.8741C19.4796 1.82629 19.5097 1.7703 19.5271 1.70989C19.5554 1.61718 19.5644 1.51965 19.5535 1.42333C19.5426 1.32701 19.5121 1.23395 19.4638 1.1499Z" fill="black"/>
</g>
<path opacity="0.1" d="M17.5898 21.6208C17.5898 21.6208 18.0221 21.3962 18.1888 21.4087C18.3555 21.4212 19.8523 23.3248 19.8523 23.3248L17.5898 21.6208Z" fill="black"/>
<path opacity="0.1" d="M13.1562 8.73779C13.1562 8.73779 12.3662 9.07519 12.3871 9.30827C12.4081 9.54136 13.1562 8.73779 13.1562 8.73779Z" fill="black"/>
<path opacity="0.1" d="M12.7709 9.84082C12.7709 9.84082 11.9419 10.9009 12.1251 10.9363C12.3082 10.9718 12.7709 9.84082 12.7709 9.84082Z" fill="black"/>
<path opacity="0.1" d="M15.5447 11.4292C15.5447 11.4292 15.6206 13.7999 15.0127 14.0994L15.5447 11.4292Z" fill="black"/>
<path opacity="0.1" d="M12.3848 17.7596C12.3848 17.7596 12.9697 17.4273 13.104 17.4936C13.2382 17.56 12.3848 17.7596 12.3848 17.7596Z" fill="black"/>
<path opacity="0.1" d="M12.4873 18.219C12.4873 18.219 12.8566 18.2454 13.0318 18.1691C13.207 18.0927 12.4873 18.219 12.4873 18.219Z" fill="black"/>
<path opacity="0.1" d="M21.3037 9.48926C21.3037 9.48926 21.7619 10.8054 22.0259 10.8054L21.3037 9.48926Z" fill="black"/>
<path opacity="0.1" d="M14.7891 34.6959C14.7891 34.6959 15.6485 34.4628 15.7753 34.6959C15.9021 34.9289 14.7891 34.6959 14.7891 34.6959Z" fill="black"/>
<path opacity="0.1" d="M12.0561 31.2402C12.0561 31.2402 11.842 31.5682 12.125 31.668C12.408 31.7678 12.0561 31.2402 12.0561 31.2402Z" fill="black"/>
<path opacity="0.1" d="M17.7656 26.6646C17.7656 26.6646 18.4145 27.2425 18.7209 27.2595C19.0274 27.2764 17.7656 26.6646 17.7656 26.6646Z" fill="black"/>
<path d="M43.3216 2.98603C43.3216 2.98603 39.1197 2.73099 39.6148 5.67569C39.6148 5.67569 39.5149 6.19625 39.9881 6.43282C39.9881 6.43282 39.9956 6.21422 40.4193 6.28858C40.57 6.31359 40.7231 6.32096 40.8755 6.31054C41.0812 6.29656 41.2769 6.21617 41.433 6.08146C41.433 6.08146 42.6144 5.59383 43.0736 3.66281C43.0736 3.66281 43.4135 3.24157 43.4 3.13326L42.6908 3.43622C42.6908 3.43622 42.9333 3.9478 42.7407 4.37303C42.7407 4.37303 42.7177 3.45468 42.5815 3.47465C42.5535 3.47914 42.2126 3.65183 42.2126 3.65183C42.2126 3.65183 42.6299 4.54323 42.3149 5.19056C42.3149 5.19056 42.4347 4.09254 42.0828 3.71621L41.5837 4.00769C41.5837 4.00769 42.0714 4.92803 41.741 5.67918C41.741 5.67918 41.8258 4.52725 41.4789 4.07856L41.0267 4.43143C41.0267 4.43143 41.4844 5.33879 41.2054 5.96167C41.2054 5.96167 41.169 4.62059 40.9284 4.51927C40.9284 4.51927 40.5331 4.86864 40.4727 5.01138C40.4727 5.01138 40.7862 5.6702 40.5915 6.01757C40.5915 6.01757 40.4722 5.12418 40.3744 5.11919C40.3744 5.11919 39.9801 5.71112 39.9392 6.11739C39.9392 6.11739 39.9562 5.51348 40.2791 5.06279C40.2791 5.06279 39.8978 5.12817 39.6752 5.37573C39.6752 5.37573 39.7366 4.95698 40.3739 4.92055C40.3739 4.92055 40.6993 4.47136 40.7867 4.4439C40.7867 4.4439 40.1503 4.391 39.7645 4.56169C39.7645 4.56169 40.1044 4.1669 40.9035 4.34658L41.3527 3.98224C41.3527 3.98224 40.5147 3.86744 40.1598 3.99421C40.1598 3.99421 40.5686 3.64484 41.4729 3.89938L41.9591 3.60841C41.9591 3.60841 41.2449 3.45468 40.8196 3.50859C40.8196 3.50859 41.2688 3.26652 42.1013 3.52905L42.4507 3.37283C42.4507 3.37283 41.9276 3.27002 41.7744 3.25405C41.6212 3.23807 41.6127 3.19515 41.6127 3.19515C41.9442 3.13991 42.2846 3.17774 42.5959 3.30446C42.5959 3.30446 43.3346 3.03045 43.3216 2.98603Z" fill="#4A7CE2"/>
<path d="M34.9811 2.4214C34.9811 2.4214 33.0845 2.30711 33.3061 3.63772C33.3061 3.63772 33.2617 3.87279 33.4748 3.9796C33.4748 3.9796 33.4783 3.87978 33.6694 3.91422C33.7377 3.92594 33.807 3.92929 33.8761 3.9242C33.9683 3.9173 34.0558 3.8809 34.1256 3.82039C34.1256 3.82039 34.6592 3.59978 34.8668 2.72735C34.8668 2.72735 35.0205 2.53719 35.0165 2.48828L34.6951 2.62504C34.6951 2.62504 34.8044 2.85612 34.7186 3.04827C34.7186 3.04827 34.7081 2.63352 34.6462 2.643C34.6337 2.643 34.48 2.72336 34.48 2.72336C34.48 2.72336 34.6681 3.12613 34.5259 3.41861C34.5259 3.41861 34.5803 2.9225 34.4211 2.75231L34.196 2.88407C34.196 2.88407 34.4161 3.29982 34.2669 3.63921C34.2669 3.63921 34.3053 3.11865 34.1486 2.91601L33.9445 3.07573C33.9445 3.07573 34.1511 3.48549 34.0248 3.76698C34.0248 3.76698 34.0083 3.16107 33.9 3.11515C33.9 3.11515 33.7214 3.27287 33.6939 3.33775C33.6939 3.33775 33.8356 3.63722 33.7478 3.79244C33.7478 3.79244 33.6939 3.38866 33.648 3.38667C33.648 3.38667 33.4698 3.65419 33.4513 3.83586C33.46 3.66642 33.513 3.50222 33.6051 3.35972C33.5022 3.37908 33.4073 3.42819 33.3321 3.50096C33.3321 3.50096 33.36 3.3118 33.649 3.29533C33.649 3.29533 33.7962 3.0922 33.8356 3.08022C33.8356 3.08022 33.5482 3.05576 33.3735 3.13312C33.3735 3.13312 33.5272 2.95494 33.8881 3.0333L34.0877 2.8686C34.0877 2.8686 33.7089 2.81869 33.5487 2.87409C33.5487 2.87409 33.7333 2.71637 34.1416 2.83117L34.3617 2.6999C34.3617 2.6999 34.0388 2.63053 33.8466 2.65548C33.8466 2.65548 34.0493 2.54618 34.4261 2.66446L34.5828 2.59409C34.5828 2.59409 34.3467 2.54767 34.2774 2.54019C34.208 2.5327 34.2045 2.51374 34.2045 2.51374C34.3543 2.48913 34.508 2.5064 34.6487 2.56365C34.6487 2.56365 34.9871 2.44236 34.9811 2.4214Z" fill="#4A7CE2"/>
<path opacity="0.1" d="M42.4232 36.3062C43.1655 36.3062 43.7673 36.2046 43.7673 36.0791C43.7673 35.9537 43.1655 35.8521 42.4232 35.8521C41.6809 35.8521 41.0791 35.9537 41.0791 36.0791C41.0791 36.2046 41.6809 36.3062 42.4232 36.3062Z" fill="#4A7CE2"/>
<path opacity="0.1" d="M1.51303 32.9259C2.25534 32.9259 2.85711 32.8242 2.85711 32.6988C2.85711 32.5734 2.25534 32.4717 1.51303 32.4717C0.770711 32.4717 0.168945 32.5734 0.168945 32.6988C0.168945 32.8242 0.770711 32.9259 1.51303 32.9259Z" fill="#4A7CE2"/>
<path opacity="0.1" d="M41.4876 31.9078C42.23 31.9078 42.8317 31.8061 42.8317 31.6807C42.8317 31.5553 42.23 31.4536 41.4876 31.4536C40.7453 31.4536 40.1436 31.5553 40.1436 31.6807C40.1436 31.8061 40.7453 31.9078 41.4876 31.9078Z" fill="#4A7CE2"/>
<path opacity="0.1" d="M6.71127 34.1441C7.45358 34.1441 8.05535 34.0425 8.05535 33.917C8.05535 33.7916 7.45358 33.6899 6.71127 33.6899C5.96895 33.6899 5.36719 33.7916 5.36719 33.917C5.36719 34.0425 5.96895 34.1441 6.71127 34.1441Z" fill="#4A7CE2"/>
<path opacity="0.1" d="M35.4964 34.3389C36.2387 34.3389 36.8405 34.2373 36.8405 34.1119C36.8405 33.9864 36.2387 33.8848 35.4964 33.8848C34.7541 33.8848 34.1523 33.9864 34.1523 34.1119C34.1523 34.2373 34.7541 34.3389 35.4964 34.3389Z" fill="#4A7CE2"/>
<path d="M39.4815 38.8521C40.5899 38.8521 41.4884 38.7002 41.4884 38.5127C41.4884 38.3253 40.5899 38.1733 39.4815 38.1733C38.3731 38.1733 37.4746 38.3253 37.4746 38.5127C37.4746 38.7002 38.3731 38.8521 39.4815 38.8521Z" fill="#4A7CE2"/>
<path d="M40.311 37.9575C40.4025 37.8829 40.4691 37.7823 40.5022 37.6691C40.5271 37.5543 40.4782 37.4195 40.3684 37.3751C40.2456 37.3282 40.1144 37.413 40.015 37.4989C39.9157 37.5847 39.8014 37.683 39.6712 37.6651C39.7382 37.6043 39.7884 37.5273 39.8168 37.4414C39.8452 37.3555 39.8509 37.2637 39.8334 37.175C39.8275 37.1382 39.8118 37.1037 39.788 37.0751C39.7201 37.0023 39.5963 37.0337 39.5149 37.0911C39.2554 37.2738 39.183 37.6261 39.1815 37.9436C39.1556 37.8288 39.1775 37.7095 39.1765 37.5942C39.1755 37.4789 39.1441 37.3446 39.0448 37.2838C38.9835 37.2508 38.9147 37.2345 38.8451 37.2363C38.7283 37.2324 38.5986 37.2438 38.5192 37.3292C38.4194 37.435 38.4459 37.6132 38.5317 37.7285C38.6175 37.8437 38.7488 37.9181 38.8696 37.999C38.9663 38.0564 39.0488 38.1351 39.1107 38.229C39.1182 38.2419 39.1243 38.2557 39.1286 38.27H39.8603C40.0239 38.1866 40.1755 38.0815 40.311 37.9575Z" fill="#4A7CE2"/>
<path d="M6.78118 28.335C6.78118 28.335 7.05569 28.6933 6.65491 29.2333C6.25413 29.7734 5.92373 30.2315 6.05599 30.5689C6.05599 30.5689 6.6609 29.5637 7.15401 29.5498C7.64712 29.5358 7.3227 28.9409 6.78118 28.335Z" fill="#4A7CE2"/>
<path opacity="0.1" d="M6.78067 28.335C6.80468 28.3695 6.82351 28.4073 6.83657 28.4473C7.3167 29.0112 7.57274 29.5378 7.11107 29.5513C6.68134 29.5633 6.16577 30.3319 6.04199 30.526C6.04606 30.5411 6.05089 30.5559 6.05647 30.5704C6.05647 30.5704 6.66138 29.5652 7.15449 29.5513C7.64761 29.5373 7.32219 28.9409 6.78067 28.335Z" fill="black"/>
<path d="M7.29042 28.7932C7.29042 28.9194 7.27645 29.0217 7.25898 29.0217C7.24151 29.0217 7.22754 28.9219 7.22754 28.7932C7.22754 28.6644 7.24501 28.7263 7.26248 28.7263C7.27994 28.7263 7.29042 28.6669 7.29042 28.7932Z" fill="#FFD037"/>
<path d="M7.46615 28.9437C7.35535 29.0041 7.25852 29.0405 7.25053 29.0256C7.24255 29.0106 7.3249 28.9487 7.4357 28.8883C7.54651 28.8279 7.50309 28.8718 7.51107 28.8883C7.51906 28.9048 7.57695 28.8838 7.46615 28.9437Z" fill="#FFD037"/>
<path d="M5.33295 28.335C5.33295 28.335 5.05845 28.6933 5.45923 29.2333C5.86 29.7734 6.19041 30.2315 6.05815 30.5689C6.05815 30.5689 5.45374 29.5637 4.96013 29.5498C4.46652 29.5358 4.79143 28.9409 5.33295 28.335Z" fill="#4A7CE2"/>
<path opacity="0.1" d="M5.33306 28.335C5.30899 28.3695 5.29 28.4073 5.27666 28.4473C4.79653 29.0112 4.54099 29.5378 5.00216 29.5513C5.43238 29.5633 5.94796 30.3319 6.07173 30.526C6.06772 30.5411 6.06272 30.556 6.05676 30.5704C6.05676 30.5704 5.45235 29.5652 4.95874 29.5513C4.46513 29.5373 4.79154 28.9409 5.33306 28.335Z" fill="black"/>
<path d="M4.82324 28.7932C4.82324 28.9194 4.83772 29.0217 4.85519 29.0217C4.87265 29.0217 4.88663 28.9219 4.88663 28.7932C4.88663 28.6644 4.86916 28.7263 4.85169 28.7263C4.83422 28.7263 4.82324 28.6669 4.82324 28.7932Z" fill="#FFD037"/>
<path d="M4.64879 28.9437C4.75959 29.0041 4.85592 29.0405 4.86441 29.0256C4.87289 29.0106 4.78954 28.9487 4.67874 28.8883C4.56794 28.8279 4.61186 28.8718 4.60337 28.8883C4.59489 28.9048 4.53749 28.8838 4.64879 28.9437Z" fill="#FFD037"/>
<path d="M4.91016 30.525C4.91016 30.525 5.67677 30.5016 5.90836 30.3369C6.13994 30.1722 7.08773 29.976 7.14463 30.24C7.20153 30.5041 8.29705 31.5522 7.43161 31.5592C6.56617 31.5661 5.42024 31.4244 5.18965 31.2837C4.95907 31.1429 4.91016 30.525 4.91016 30.525Z" fill="#A8A8A8"/>
<path opacity="0.2" d="M7.44659 31.4672C6.58115 31.4742 5.43521 31.3325 5.20463 31.1917C5.02944 31.0849 4.95907 30.7011 4.93561 30.5239H4.91016C4.91016 30.5239 4.96007 31.1423 5.18915 31.2826C5.41824 31.4228 6.56568 31.5651 7.43112 31.5581C7.68067 31.5581 7.76702 31.4672 7.76253 31.3355C7.72759 31.4158 7.63226 31.4657 7.44659 31.4672Z" fill="black"/>
</g>
<defs>
<linearGradient id="paint0_linear" x1="16.4719" y1="38.1726" x2="16.4719" y2="-0.000151973" gradientUnits="userSpaceOnUse">
<stop stop-color="#808080" stop-opacity="0.25"/>
<stop offset="0.54" stop-color="#808080" stop-opacity="0.12"/>
<stop offset="1" stop-color="#808080" stop-opacity="0.1"/>
</linearGradient>
<clipPath id="clip0">
<rect width="43.598" height="40" fill="white" transform="translate(0.168945)"/>
</clipPath>
</defs>
</svg>
