<svg width="41" height="40" viewBox="0 0 41 40" fill="none" xmlns="http://www.w3.org/2000/svg">
<g clip-path="url(#clip0)">
<path d="M27.4007 17.2969L26.968 18.3065L24.3142 21.8256C24.3142 21.8256 22.4969 23.7871 23.5065 23.9025C24.5161 24.0179 25.1796 22.0853 25.1796 22.0853L28.2949 18.9988L28.641 17.5853L27.4007 17.2969Z" fill="#9F616A"/>
<path d="M28.7276 13.2007L28.3095 13.3177C28.3095 13.3177 26.4319 18.3054 26.605 18.9111C26.7781 19.5169 27.5569 20.2669 27.9031 20.2092C28.2492 20.1515 28.7276 13.2007 28.7276 13.2007Z" fill="#4A7CE2"/>
<path d="M34.5703 38.8327C34.5703 38.8327 34.3867 39.7528 34.9386 39.3846C35.4904 39.0164 35.7782 38.3042 35.7782 38.3042L34.5703 38.8327Z" fill="#2F2E41"/>
<path d="M28.035 18.0757C28.035 18.0757 22.1794 38.7291 24.2562 39.3349C26.3331 39.9406 29.3908 39.2772 29.3619 38.8734C29.3331 38.4695 28.8138 30.4793 28.8138 30.4793C28.8138 30.4793 31.8426 41.0945 35.5925 38.6137C39.3425 36.133 38.506 35.6715 38.1598 35.4984C37.8137 35.3253 32.5926 27.1043 32.6215 25.5755C32.6503 24.0467 32.5638 19.2583 31.9292 18.5372L28.035 18.0757Z" fill="#2F2E41"/>
<path d="M40.9523 39.9998H5.41406V39.8647H40.9768L40.9523 39.9998Z" fill="#3F3D56"/>
<path d="M31.7546 10.7329C31.5292 10.5291 31.3887 10.2481 31.3609 9.94558C31.333 9.64307 31.4198 9.34113 31.6041 9.09961C31.5797 9.12248 31.5558 9.14622 31.533 9.17147C31.3178 9.40985 31.206 9.72394 31.2223 10.0447C31.2385 10.3655 31.3815 10.6666 31.6197 10.882C31.8579 11.0974 32.1719 11.2094 32.4927 11.1934C32.8135 11.1774 33.1148 11.0346 33.3303 10.7965C33.3531 10.7713 33.3744 10.7452 33.3947 10.7186C33.1729 10.9262 32.8812 11.0429 32.5774 11.0455C32.2736 11.0482 31.9799 10.9366 31.7546 10.7329Z" fill="#2F2E41"/>
<path d="M31.6406 11.023C33.0187 11.023 34.1358 9.90589 34.1358 8.52786C34.1358 7.14983 33.0187 6.03271 31.6406 6.03271C30.2626 6.03271 29.1455 7.14983 29.1455 8.52786C29.1455 9.90589 30.2626 11.023 31.6406 11.023Z" fill="#2F2E41"/>
<path d="M24.9199 39.2485C24.9199 39.2485 24.2564 39.912 24.9199 39.912C25.5833 39.912 26.2179 39.4793 26.2179 39.4793L24.9199 39.2485Z" fill="#2F2E41"/>
<path d="M30.0544 10.0858C30.0544 10.0858 30.4871 11.8742 30.1698 12.2203C29.8525 12.5665 29.1602 12.8261 29.1602 12.8261L29.2755 16.0568C29.2755 16.0568 30.6024 15.5953 30.6601 15.5376C30.7178 15.4799 31.9005 13.6049 31.9005 13.6049L33.0543 12.5088C33.0543 12.5088 31.2947 11.6723 31.814 10.23C32.3332 8.7877 30.0544 10.0858 30.0544 10.0858Z" fill="#9F616A"/>
<path d="M32.6019 9.48919C32.7346 8.67148 32.1792 7.90102 31.3615 7.76832C30.5438 7.63562 29.7734 8.19094 29.6407 9.00866C29.508 9.82637 30.0633 10.5968 30.881 10.7295C31.6987 10.8622 32.4692 10.3069 32.6019 9.48919Z" fill="#9F616A"/>
<path d="M31.9297 18.5372C31.9297 18.5372 32.5931 16.3449 32.9104 16.0565C33.2277 15.768 34.0066 13.0565 34.0066 13.0565C34.0066 13.0565 33.5162 12.3931 33.1124 12.3931C32.7085 12.3931 32.3335 12.5373 31.872 12.97C31.6547 13.1737 31.2582 13.3979 30.8996 13.5781C30.7723 13.6432 30.6334 13.6822 30.4908 13.6929C30.3483 13.7036 30.2051 13.6859 30.0695 13.6406C29.9339 13.5953 29.8087 13.5235 29.7012 13.4294C29.5937 13.3352 29.506 13.2205 29.4433 13.0921C29.3716 12.9397 29.348 12.7937 29.4201 12.6815C29.4201 12.6815 28.3528 12.97 28.2951 13.3738C28.2375 13.7777 28.2951 14.6142 28.2086 14.7873C28.1221 14.9603 27.8625 15.2199 27.9778 16.3161C28.0932 17.4122 27.8574 18.7983 27.8574 18.7983C28.935 19.8265 30.4277 19.1918 31.9297 18.5372Z" fill="#4A7CE2"/>
<path d="M31.1071 8.77322C31.8081 8.77322 32.3763 8.38578 32.3763 7.90785C32.3763 7.42992 31.8081 7.04248 31.1071 7.04248C30.4061 7.04248 29.8379 7.42992 29.8379 7.90785C29.8379 8.38578 30.4061 8.77322 31.1071 8.77322Z" fill="#2F2E41"/>
<path d="M33.2711 7.84979C33.9402 7.84979 34.4826 7.30737 34.4826 6.63827C34.4826 5.96917 33.9402 5.42676 33.2711 5.42676C32.602 5.42676 32.0596 5.96917 32.0596 6.63827C32.0596 7.30737 32.602 7.84979 33.2711 7.84979Z" fill="#2F2E41"/>
<path d="M34.1363 7.50411C33.8325 7.50407 33.5398 7.38988 33.3163 7.18418C33.0927 6.97848 32.9546 6.69629 32.9293 6.39355C32.9266 6.42688 32.9248 6.46048 32.9248 6.49452C32.9249 6.81571 33.0524 7.12374 33.2795 7.35089C33.5066 7.57803 33.8146 7.70571 34.1358 7.70585C34.457 7.70598 34.7651 7.57857 34.9924 7.35161C35.2197 7.12466 35.3475 6.81674 35.3478 6.49555V6.49452C35.3478 6.46048 35.3461 6.42688 35.3433 6.39355C35.318 6.69629 35.1799 6.97848 34.9564 7.18418C34.7328 7.38988 34.4401 7.50407 34.1363 7.50411Z" fill="#2F2E41"/>
<path d="M31.2943 26.0327H30.8913L30.0859 33.0577L32.7423 32.9685L31.2943 26.0327Z" fill="#4A7CE2"/>
<path opacity="0.2" d="M31.2943 26.0327H30.8913L30.0859 33.0577L32.7423 32.9685L31.2943 26.0327Z" fill="black"/>
<path d="M31.1601 25.9429L30.668 33.013L36.6969 33.4606L37.189 26.5693L31.1601 25.9429Z" fill="#4A7CE2"/>
<path opacity="0.2" d="M33.1903 26.6595C33.2399 26.6595 33.2801 26.6193 33.2801 26.5697C33.2801 26.5202 33.2399 26.48 33.1903 26.48C33.1408 26.48 33.1006 26.5202 33.1006 26.5697C33.1006 26.6193 33.1408 26.6595 33.1903 26.6595Z" fill="black"/>
<path opacity="0.2" d="M35.0693 26.8827C35.1188 26.8827 35.159 26.8425 35.159 26.7929C35.159 26.7433 35.1188 26.7031 35.0693 26.7031C35.0197 26.7031 34.9795 26.7433 34.9795 26.7929C34.9795 26.8425 35.0197 26.8827 35.0693 26.8827Z" fill="black"/>
<path d="M35.092 26.7937H35.0475C35.0475 26.7745 35.079 24.887 33.9951 24.713C33.7815 24.679 33.6069 24.7273 33.4763 24.8567C33.0287 25.3005 33.2138 26.5541 33.2157 26.5665L33.1717 26.5733C33.1637 26.5207 32.9817 25.2844 33.4454 24.8251C33.5865 24.6846 33.7747 24.6319 34.0025 24.6685C35.1242 24.848 35.0926 26.7745 35.092 26.7937Z" fill="#3F3D56"/>
<path d="M34.093 17.0371L33.9488 18.6525L34.2372 23.4985C34.2372 23.4985 34.9007 25.9504 33.8911 25.8927C32.8815 25.835 33.2565 23.3255 33.2565 23.3255L32.7949 17.7006L34.093 17.0371Z" fill="#9F616A"/>
<path d="M33.2565 12.6528L34.0065 13.0567C34.0065 13.0567 35.0161 19.9187 34.4392 20.5821C33.8623 21.2456 32.6796 21.5052 32.6219 21.2456C32.5642 20.986 32.3623 15.7105 32.3623 15.7105L33.2565 12.6528Z" fill="#4A7CE2"/>
<path d="M4.08361 0H3.24239C3.21281 0 3.18444 0.0117502 3.16353 0.0326659C3.14261 0.0535816 3.13086 0.0819496 3.13086 0.111529V0.480766C3.13086 0.510345 3.14261 0.538713 3.16353 0.559629C3.18444 0.580545 3.21281 0.592295 3.24239 0.592295H3.38179V1.14554H3.94421V0.592295H4.08361C4.11319 0.592295 4.14156 0.580545 4.16247 0.559629C4.18339 0.538713 4.19514 0.510345 4.19514 0.480766V0.111529C4.19514 0.0819502 4.18339 0.0535829 4.16247 0.0326673C4.14156 0.0117517 4.11319 9.85064e-07 4.08361 0Z" fill="#E6E6E6"/>
<path d="M4.92615 3.37917C4.41096 2.62531 4.14759 1.72773 4.17376 0.815021C4.17423 0.793962 4.16739 0.77339 4.15442 0.756797C4.14144 0.740205 4.12312 0.728616 4.10256 0.723998V0.564453H3.21412V0.721781H3.20188C3.18991 0.721797 3.17806 0.72417 3.167 0.728766C3.15595 0.733361 3.14591 0.740089 3.13745 0.748565C3.129 0.757042 3.1223 0.7671 3.11773 0.778166C3.11316 0.789232 3.11082 0.801091 3.11084 0.813062C3.11084 0.815276 3.11092 0.817487 3.11108 0.819697C3.18108 1.79538 2.94473 2.67035 2.40204 3.44461C2.37081 3.4891 2.35486 3.54253 2.35657 3.59686L2.45372 6.60188C2.45605 6.66891 2.48418 6.73244 2.53224 6.77923C2.58029 6.82601 2.64456 6.85242 2.71163 6.85295H4.72115C4.78898 6.8524 4.85392 6.82539 4.90212 6.77766C4.95032 6.72994 4.97799 6.66528 4.97922 6.59745L5.01665 3.67982C5.01776 3.57273 4.98619 3.46785 4.92615 3.37917Z" fill="#E6E6E6"/>
<path d="M4.60742 4.37744H2.85829C2.8324 4.37744 2.80681 4.38304 2.78329 4.39386C2.75976 4.40467 2.73885 4.42044 2.72199 4.44009C2.70514 4.45974 2.69273 4.48281 2.68562 4.5077C2.67851 4.5326 2.67686 4.55874 2.6808 4.58433L2.94512 6.3024H4.46287L4.78392 4.59012C4.78879 4.56418 4.78787 4.53749 4.78125 4.51195C4.77463 4.48641 4.76246 4.46264 4.74561 4.44234C4.72876 4.42203 4.70764 4.40569 4.68375 4.39447C4.65987 4.38326 4.63381 4.37744 4.60742 4.37744V4.37744Z" fill="white"/>
<path d="M13.4479 9.00195H12.6066C12.5771 9.00195 12.5487 9.0137 12.5278 9.03462C12.5069 9.05553 12.4951 9.0839 12.4951 9.11348V9.48272C12.4951 9.5123 12.5069 9.54067 12.5278 9.56158C12.5487 9.5825 12.5771 9.59425 12.6066 9.59425H12.7461V10.1475H13.3085V9.59425H13.4479C13.4775 9.59425 13.5058 9.5825 13.5267 9.56158C13.5477 9.54067 13.5594 9.5123 13.5594 9.48272V9.11348C13.5594 9.0839 13.5477 9.05553 13.5267 9.03462C13.5058 9.0137 13.4775 9.00195 13.4479 9.00195Z" fill="#E6E6E6"/>
<path d="M14.2904 12.3811C13.7752 11.6273 13.5119 10.7297 13.538 9.81698C13.5385 9.79592 13.5317 9.77534 13.5187 9.75875C13.5057 9.74216 13.4874 9.73057 13.4668 9.72595V9.56641H12.5784V9.72374H12.5661C12.5542 9.72375 12.5423 9.72612 12.5313 9.73072C12.5202 9.73532 12.5102 9.74204 12.5017 9.75052C12.4933 9.759 12.4866 9.76905 12.482 9.78012C12.4774 9.79119 12.4751 9.80304 12.4751 9.81502C12.4751 9.81723 12.4752 9.81944 12.4753 9.82165C12.5453 10.7973 12.309 11.6723 11.7663 12.4466C11.7351 12.4911 11.7191 12.5445 11.7208 12.5988L11.818 15.6038C11.8203 15.6709 11.8484 15.7344 11.8965 15.7812C11.9446 15.828 12.0088 15.8544 12.0759 15.8549H14.0854C14.1532 15.8544 14.2182 15.8273 14.2664 15.7796C14.3146 15.7319 14.3423 15.6672 14.3435 15.5994L14.3809 12.6818C14.382 12.5747 14.3505 12.4698 14.2904 12.3811Z" fill="#E6E6E6"/>
<path d="M13.9727 13.3794H12.2235C12.1976 13.3794 12.172 13.385 12.1485 13.3958C12.125 13.4066 12.1041 13.4224 12.0872 13.442C12.0704 13.4617 12.058 13.4848 12.0509 13.5097C12.0437 13.5346 12.0421 13.5607 12.046 13.5863L12.3104 15.3044H13.8281L14.1492 13.5921C14.154 13.5661 14.1531 13.5394 14.1465 13.5139C14.1399 13.4884 14.1277 13.4646 14.1108 13.4443C14.094 13.424 14.0729 13.4076 14.049 13.3964C14.0251 13.3852 13.999 13.3794 13.9727 13.3794V13.3794Z" fill="white"/>
<path d="M2.90115 21.728H2.50212C2.48809 21.728 2.47464 21.7336 2.46471 21.7435C2.45479 21.7534 2.44922 21.7669 2.44922 21.7809V21.9561C2.44922 21.9701 2.45479 21.9836 2.46471 21.9935C2.47464 22.0034 2.48809 22.009 2.50212 22.009H2.56825V22.2714H2.83503V22.009H2.90115C2.91518 22.009 2.92864 22.0034 2.93856 21.9935C2.94848 21.9836 2.95405 21.9701 2.95405 21.9561V21.7809C2.95405 21.7669 2.94848 21.7534 2.93856 21.7435C2.92864 21.7336 2.91518 21.728 2.90115 21.728Z" fill="#E6E6E6"/>
<path d="M3.29998 23.3308C3.0556 22.9732 2.93068 22.5474 2.94309 22.1145C2.94331 22.1045 2.94007 22.0947 2.93391 22.0868C2.92776 22.079 2.91907 22.0735 2.90932 22.0713V21.9956H2.48789V22.0702H2.48208C2.4764 22.0702 2.47078 22.0714 2.46554 22.0735C2.46029 22.0757 2.45553 22.0789 2.45152 22.0829C2.44751 22.087 2.44433 22.0917 2.44217 22.097C2.44 22.1022 2.43889 22.1079 2.4389 22.1135C2.4389 22.1146 2.43894 22.1156 2.43902 22.1167C2.47791 22.5585 2.35872 22.9997 2.10268 23.3618C2.08787 23.3829 2.0803 23.4082 2.08111 23.434L2.12719 24.8594C2.1283 24.8912 2.14165 24.9214 2.16444 24.9436C2.18724 24.9657 2.21772 24.9783 2.24953 24.9785H3.20274C3.23492 24.9783 3.26572 24.9655 3.28858 24.9428C3.31145 24.9202 3.32457 24.8895 3.32516 24.8573L3.34291 23.4734C3.34344 23.4226 3.32846 23.3728 3.29998 23.3308Z" fill="#E6E6E6"/>
<path d="M3.16342 23.855H2.25391V24.3097H3.16342V23.855Z" fill="white"/>
<path d="M4.75857 21.728H4.35954C4.34551 21.728 4.33206 21.7336 4.32214 21.7435C4.31221 21.7534 4.30664 21.7669 4.30664 21.7809V21.9561C4.30664 21.9701 4.31221 21.9836 4.32214 21.9935C4.33206 22.0034 4.34551 22.009 4.35954 22.009H4.42567V22.2714H4.69245V22.009H4.75857C4.7726 22.009 4.78606 22.0034 4.79598 21.9935C4.8059 21.9836 4.81148 21.9701 4.81148 21.9561V21.7809C4.81148 21.774 4.81011 21.7671 4.80745 21.7607C4.80479 21.7543 4.80089 21.7484 4.79598 21.7435C4.79107 21.7386 4.78524 21.7347 4.77882 21.7321C4.7724 21.7294 4.76552 21.728 4.75857 21.728Z" fill="#E6E6E6"/>
<path d="M5.1574 23.3308C4.91303 22.9732 4.7881 22.5474 4.80051 22.1145C4.80073 22.1045 4.79749 22.0947 4.79133 22.0868C4.78518 22.079 4.77649 22.0735 4.76674 22.0713V21.9956H4.34531V22.0702H4.3395C4.33382 22.0702 4.3282 22.0714 4.32296 22.0735C4.31772 22.0757 4.31295 22.0789 4.30894 22.0829C4.30493 22.087 4.30175 22.0917 4.29959 22.097C4.29742 22.1022 4.29631 22.1079 4.29632 22.1135C4.29632 22.1146 4.29636 22.1156 4.29644 22.1167C4.33533 22.5585 4.21614 22.9997 3.9601 23.3618C3.94529 23.3829 3.93772 23.4082 3.93854 23.434L3.98462 24.8594C3.98572 24.8912 3.99907 24.9214 4.02186 24.9436C4.04466 24.9657 4.07514 24.9783 4.10696 24.9785H5.06016C5.09234 24.9783 5.12314 24.9655 5.14601 24.9428C5.16887 24.9202 5.18199 24.8895 5.18258 24.8573L5.20033 23.4734C5.20086 23.4226 5.18588 23.3728 5.1574 23.3308Z" fill="#E6E6E6"/>
<path d="M5.02084 23.855H4.11133V24.3097H5.02084V23.855Z" fill="white"/>
<path d="M6.616 21.728H6.21697C6.20294 21.728 6.18948 21.7336 6.17956 21.7435C6.16964 21.7534 6.16406 21.7669 6.16406 21.7809V21.9561C6.16406 21.9701 6.16964 21.9836 6.17956 21.9935C6.18948 22.0034 6.20294 22.009 6.21697 22.009H6.28309V22.2714H6.54987V22.009H6.616C6.63003 22.009 6.64348 22.0034 6.6534 21.9935C6.66332 21.9836 6.6689 21.9701 6.6689 21.9561V21.7809C6.6689 21.7669 6.66332 21.7534 6.6534 21.7435C6.64348 21.7336 6.63003 21.728 6.616 21.728Z" fill="#E6E6E6"/>
<path d="M7.0158 23.3308C6.77143 22.9732 6.64649 22.5474 6.65891 22.1145C6.65913 22.1045 6.65589 22.0947 6.64973 22.0868C6.64358 22.079 6.63489 22.0735 6.62514 22.0713V21.9956H6.20371V22.0702H6.1979C6.19222 22.0702 6.1866 22.0714 6.18136 22.0735C6.17611 22.0757 6.17135 22.0789 6.16734 22.0829C6.16333 22.087 6.16015 22.0917 6.15799 22.097C6.15582 22.1022 6.15471 22.1079 6.15472 22.1135C6.15472 22.1146 6.15476 22.1156 6.15483 22.1167C6.19373 22.5585 6.07454 22.9997 5.8185 23.3618C5.80369 23.3829 5.79612 23.4082 5.79693 23.434L5.84302 24.8594C5.84412 24.8912 5.85747 24.9214 5.88026 24.9436C5.90306 24.9657 5.93354 24.9783 5.96535 24.9785H6.91856C6.95074 24.9783 6.98154 24.9655 7.00441 24.9428C7.02727 24.9202 7.04039 24.8895 7.04098 24.8573L7.05873 23.4734C7.05926 23.4226 7.04428 23.3728 7.0158 23.3308Z" fill="#E6E6E6"/>
<path d="M6.87827 23.855H5.96875V24.3097H6.87827V23.855Z" fill="white"/>
<path d="M11.986 18.2456H11.1447C11.1152 18.2456 11.0868 18.2574 11.0659 18.2783C11.045 18.2992 11.0332 18.3276 11.0332 18.3571V18.7264C11.0332 18.756 11.045 18.7843 11.0659 18.8052C11.0868 18.8261 11.1152 18.8379 11.1447 18.8379H11.2841V19.3911H11.8466V18.8379H11.986C12.0006 18.8379 12.0151 18.835 12.0286 18.8294C12.0422 18.8238 12.0545 18.8156 12.0648 18.8052C12.0752 18.7949 12.0834 18.7826 12.089 18.7691C12.0946 18.7555 12.0975 18.741 12.0975 18.7264V18.3571C12.0975 18.3276 12.0857 18.2992 12.0648 18.2783C12.0439 18.2574 12.0155 18.2456 11.986 18.2456Z" fill="#E6E6E6"/>
<path d="M12.8285 21.6248C12.3133 20.8709 12.0499 19.9733 12.0761 19.0606C12.0766 19.0396 12.0697 19.019 12.0568 19.0024C12.0438 18.9858 12.0255 18.9742 12.0049 18.9696V18.8101H11.1165V18.9674H11.1042C11.0923 18.9674 11.0804 18.9698 11.0693 18.9744C11.0583 18.979 11.0483 18.9857 11.0398 18.9942C11.0313 19.0026 11.0246 19.0127 11.0201 19.0238C11.0155 19.0348 11.0132 19.0467 11.0132 19.0587C11.0132 19.0609 11.0133 19.0631 11.0134 19.0653C11.0834 20.041 10.8471 20.916 10.3044 21.6902C10.2732 21.7347 10.2572 21.7881 10.2589 21.8425L10.3561 24.8475C10.3584 24.9145 10.3865 24.978 10.4346 25.0248C10.4826 25.0716 10.5469 25.098 10.614 25.0986H12.6235C12.6913 25.098 12.7563 25.071 12.8045 25.0233C12.8527 24.9755 12.8803 24.9109 12.8816 24.8431L12.919 21.9254C12.9201 21.8183 12.8885 21.7135 12.8285 21.6248Z" fill="#E6E6E6"/>
<path d="M12.5107 22.6231H10.7616C10.7357 22.6231 10.7101 22.6287 10.6866 22.6395C10.6631 22.6503 10.6422 22.666 10.6253 22.6857C10.6085 22.7054 10.596 22.7284 10.5889 22.7533C10.5818 22.7782 10.5802 22.8043 10.5841 22.8299L10.8484 24.548H12.3662L12.6872 22.8357C12.6921 22.8098 12.6912 22.7831 12.6846 22.7576C12.6779 22.732 12.6658 22.7082 12.6489 22.6879C12.6321 22.6676 12.611 22.6513 12.5871 22.6401C12.5632 22.6289 12.5371 22.623 12.5107 22.623V22.6231Z" fill="white"/>
<path d="M12.4452 7.23995H7.43066C7.78125 5.34451 7.70059 3.0557 7.43066 0.594238H12.4452C12.1824 3.0557 12.1039 5.34451 12.4452 7.23995Z" fill="#E6E6E6"/>
<path d="M9.96808 4.94397C10.6354 4.94397 11.1764 4.40299 11.1764 3.73566C11.1764 3.06832 10.6354 2.52734 9.96808 2.52734C9.30074 2.52734 8.75977 3.06832 8.75977 3.73566C8.75977 4.40299 9.30074 4.94397 9.96808 4.94397Z" fill="white"/>
<path d="M7.85434 16.0608H2.83984C3.19043 14.1653 3.10977 11.8765 2.83984 9.41504H7.85434C7.59159 11.8765 7.51308 14.1653 7.85434 16.0608Z" fill="#E6E6E6"/>
<path d="M5.37726 13.7648C6.04459 13.7648 6.58557 13.2238 6.58557 12.5565C6.58557 11.8891 6.04459 11.3481 5.37726 11.3481C4.70992 11.3481 4.16895 11.8891 4.16895 12.5565C4.16895 13.2238 4.70992 13.7648 5.37726 13.7648Z" fill="white"/>
<path d="M15.285 7.6628H10.2705C10.6211 5.76736 10.5404 3.47855 10.2705 1.01709H15.285C15.0223 3.47856 14.9437 5.76736 15.285 7.6628Z" fill="#E6E6E6"/>
<path d="M12.8079 5.36682C13.4753 5.36682 14.0162 4.82584 14.0162 4.15851C14.0162 3.49118 13.4753 2.9502 12.8079 2.9502C12.1406 2.9502 11.5996 3.49118 11.5996 4.15851C11.5996 4.82584 12.1406 5.36682 12.8079 5.36682Z" fill="white"/>
<path d="M15.285 7.36055H10.2705C10.6211 5.46511 10.5404 3.1763 10.2705 0.714844H15.285C15.0223 3.17631 14.9437 5.46512 15.285 7.36055Z" fill="#E6E6E6"/>
<path d="M12.8079 5.06506C13.4753 5.06506 14.0162 4.52408 14.0162 3.85675C14.0162 3.18942 13.4753 2.64844 12.8079 2.64844C12.1406 2.64844 11.5996 3.18942 11.5996 3.85675C11.5996 4.52408 12.1406 5.06506 12.8079 5.06506Z" fill="white"/>
<path d="M15.285 7.6628H10.2705C10.6211 5.76736 10.5404 3.47855 10.2705 1.01709H15.285C15.0223 3.47856 14.9437 5.76736 15.285 7.6628Z" fill="#E6E6E6"/>
<path d="M12.8079 5.36682C13.4753 5.36682 14.0162 4.82584 14.0162 4.15851C14.0162 3.49118 13.4753 2.9502 12.8079 2.9502C12.1406 2.9502 11.5996 3.49118 11.5996 4.15851C11.5996 4.82584 12.1406 5.36682 12.8079 5.36682Z" fill="white"/>
<path d="M16.433 6.87744H0V8.68991H16.433V6.87744Z" fill="#E6E6E6"/>
<path d="M16.433 15.8794H0V17.6919H16.433V15.8794Z" fill="#E6E6E6"/>
<path d="M16.433 24.8813H0V26.6938H16.433V24.8813Z" fill="#E6E6E6"/>
</g>
<defs>
<clipPath id="clip0">
<rect width="40.9766" height="40" fill="white"/>
</clipPath>
</defs>
</svg>
