<svg viewBox="0 0 42 40" fill="none" xmlns="http://www.w3.org/2000/svg">
<g clip-path="url(#clip0)">
<path d="M36.4912 35.3608C36.4912 35.3608 36.5226 34.7026 37.1665 34.7791L36.4912 35.3608Z" fill="#3F3D56"/>
<path d="M36.3086 34.7344C36.4866 34.7344 36.6309 34.5901 36.6309 34.4121C36.6309 34.2341 36.4866 34.0898 36.3086 34.0898C36.1306 34.0898 35.9863 34.2341 35.9863 34.4121C35.9863 34.5901 36.1306 34.7344 36.3086 34.7344Z" fill="#4A7CE2"/>
<path d="M36.3478 34.9546H36.2568V35.5914H36.3478V34.9546Z" fill="#3F3D56"/>
<path d="M14.6123 16.0116C14.6123 16.1728 14.6071 16.3326 14.5966 16.4911C14.5381 17.405 14.3072 18.2997 13.9161 19.1279C13.9131 19.1349 13.9095 19.1415 13.9065 19.1481C13.8883 19.1865 13.8696 19.2249 13.8504 19.2628C13.7341 19.497 13.6051 19.7247 13.4639 19.9448C12.8191 20.9554 11.9353 21.7916 10.8905 22.3795C9.84581 22.9674 8.67237 23.289 7.47388 23.3157L7.54613 27.4707L8.48839 26.9746L8.65663 27.2944L7.55321 27.8754L7.68811 35.5923L7.68961 35.6954L6.96107 35.8576L6.96258 35.754L7.19195 23.3162C6.22728 23.3024 5.27498 23.097 4.39032 22.7121C3.50566 22.3272 2.70628 21.7704 2.03859 21.074C1.99263 21.0265 1.94714 20.9775 1.90269 20.929C1.90067 20.927 1.89916 20.925 1.89763 20.9234C1.34132 20.3168 0.891412 19.6206 0.566858 18.8641C0.573938 18.8722 0.581509 18.8798 0.588592 18.8879C-0.144914 17.1726 -0.194663 15.2418 0.44954 13.491C1.09374 11.7402 2.38312 10.3021 4.05345 9.47137C4.07871 9.45874 4.10449 9.44661 4.12975 9.43398C5.78201 8.63813 7.67298 8.4921 9.42784 9.02484C11.1827 9.55758 12.6734 10.7302 13.6043 12.3103C13.6488 12.385 13.6918 12.4613 13.7332 12.5381C14.3115 13.6044 14.6137 14.7985 14.6123 16.0116Z" fill="#E5E5E5"/>
<path d="M13.6289 19.1523C18.9176 19.1523 23.205 14.8649 23.205 9.57613C23.205 4.28738 18.9176 0 13.6289 0C8.34011 0 4.05273 4.28738 4.05273 9.57613C4.05273 14.8649 8.34011 19.1523 13.6289 19.1523Z" fill="#4A7CE2"/>
<path opacity="0.2" d="M6.55786 3.18018C4.47876 8.04357 6.73587 13.6716 11.5993 15.7507C13.4444 16.5395 15.4908 16.7288 17.4493 16.2918C19.4079 15.8548 21.1797 14.8136 22.5145 13.3153C20.4356 18.1788 14.8077 20.4362 9.94418 18.3573C5.08064 16.2785 2.82324 10.6505 4.90211 5.78699C5.30937 4.8342 5.86856 3.95382 6.55786 3.18018Z" fill="black"/>
<path d="M14.1471 36.2534L13.1689 35.9791L13.171 35.874L13.464 19.945L13.4787 19.1508L13.4792 19.1276L13.5302 16.3448L13.6045 12.311V12.3105L13.655 9.57617H13.6818L13.7333 12.5383L13.8005 16.3938L13.8485 19.1296V19.1498L13.8505 19.2625V19.263L13.9435 24.5957L13.9531 25.1257L14.1451 36.1473L14.1471 36.2534Z" fill="#3F3D56"/>
<path d="M15.1777 23.9454L13.5947 24.7788L13.8153 25.1978L15.3983 24.3644L15.1777 23.9454Z" fill="#3F3D56"/>
<path d="M13.4411 38.1812H8.92578V38.2822H13.4411V38.1812Z" fill="#CBCBCB"/>
<path d="M21.7273 39.8989H17.2119V40H21.7273V39.8989Z" fill="#CBCBCB"/>
<path d="M34.6101 38.5854H30.0947V38.6865H34.6101V38.5854Z" fill="#CBCBCB"/>
<path d="M32.5479 34.4738V31.5347C32.5479 31.5347 33.6932 33.6184 32.5479 34.4738Z" fill="#F1F1F1"/>
<path d="M32.6193 34.4735L30.4541 32.4858C30.4541 32.4858 32.7637 33.0512 32.6193 34.4735Z" fill="#F1F1F1"/>
<path d="M10.166 35.1813V32.2422C10.166 32.2422 11.3114 34.3259 10.166 35.1813Z" fill="#F1F1F1"/>
<path d="M10.2374 35.181L8.07227 33.1934C8.07227 33.1934 10.3819 33.7587 10.2374 35.181Z" fill="#F1F1F1"/>
<path d="M17.9473 37.3033V33.6484C17.9473 33.6484 19.3716 36.2396 17.9473 37.3033Z" fill="#F1F1F1"/>
<path d="M18.0351 37.3027L15.3428 34.8311C15.3428 34.8311 18.2148 35.5341 18.0351 37.3027Z" fill="#F1F1F1"/>
<path d="M41.0911 36.8561L41.0633 36.9537L32.584 34.5386L26.1963 35.9467L18.0272 37.3422L18.0161 37.3391L14.147 36.2534L13.1689 35.9791L10.1814 35.1404L7.68964 35.6956L6.9611 35.8578L5.37719 36.211L5.35547 36.1124L6.96261 35.7542L7.68813 35.5926L10.1845 35.0363L10.1966 35.0393L13.1709 35.874L14.145 36.1473L18.0323 37.2386L26.1766 35.8477L32.587 34.4346L32.5996 34.4376L41.0911 36.8561Z" fill="#CBCBCB"/>
<path d="M25.921 6.13559L26.5675 5.61857C26.0653 5.56316 25.859 5.83704 25.7745 6.05382C25.3822 5.89091 24.9551 6.10441 24.9551 6.10441L26.2485 6.57396C26.1832 6.39968 26.0696 6.24761 25.921 6.13559Z" fill="#3F3D56"/>
<path d="M2.17495 5.93345L2.82138 5.41642C2.3192 5.36102 2.11286 5.6349 2.02841 5.85168C1.63608 5.68877 1.20898 5.90227 1.20898 5.90227L2.50238 6.37182C2.43713 6.19754 2.32355 6.04547 2.17495 5.93345Z" fill="#3F3D56"/>
<path d="M24.506 15.7855L25.1524 15.2685C24.6502 15.2131 24.4439 15.4869 24.3594 15.7037C23.9671 15.5408 23.54 15.7543 23.54 15.7543L24.8334 16.2239C24.7682 16.0496 24.6546 15.8975 24.506 15.7855Z" fill="#3F3D56"/>
<path d="M20.1162 38.0224L20.6103 38.2059L21.5534 36.3876L20.8242 36.1167L20.1162 38.0224Z" fill="#FFB7B7"/>
<path d="M20.0504 37.8145L21.0234 38.176L21.0234 38.176C21.1879 38.2371 21.3213 38.361 21.3944 38.5205C21.4675 38.68 21.4742 38.862 21.4131 39.0264L21.4056 39.0466L19.8125 38.4547L20.0504 37.8145Z" fill="#2F2E41"/>
<path d="M24.9786 38.5354L25.5057 38.5354L25.7564 36.5024L24.9785 36.5025L24.9786 38.5354Z" fill="#FFB7B7"/>
<path d="M24.8867 38.3638L25.9247 38.3638H25.9247C26.1002 38.3638 26.2684 38.4335 26.3925 38.5575C26.5165 38.6816 26.5862 38.8498 26.5862 39.0252V39.0467L24.8868 39.0468L24.8867 38.3638Z" fill="#2F2E41"/>
<path d="M22.5649 24.4362L22.7369 24.0923L24.1986 24.8231L24.1556 25.1241L24.4351 25.4895C24.4351 25.4895 24.908 25.7474 24.822 26.6073L24.736 27.4241L24.6285 28.4774L25.3809 31.0784L25.7678 34.5177L26.0472 37.2906L24.693 37.2261L23.4463 32.712L21.2537 37.57L19.749 37.1831L21.8126 32.3681L22.0706 30.3475C22.0706 30.3475 21.8986 29.2727 22.7154 28.5419L22.5864 28.155V27.6782L22.1565 25.4035L22.5649 24.4362Z" fill="#2F2E41"/>
<path opacity="0.2" d="M22.5252 29.352L22.4766 29.3657L23.4224 32.719L23.471 32.7052L22.5252 29.352Z" fill="black"/>
<path d="M22.6083 28.6924H24.7148V28.4774H22.6083V28.6924Z" fill="#3F3D56"/>
<path d="M24.7149 28.8215C24.7624 28.8215 24.8009 28.7253 24.8009 28.6066C24.8009 28.4878 24.7624 28.3916 24.7149 28.3916C24.6674 28.3916 24.6289 28.4878 24.6289 28.6066C24.6289 28.7253 24.6674 28.8215 24.7149 28.8215Z" fill="#3F3D56"/>
<path d="M24.7707 23.4244C25.0742 22.869 24.8701 22.1728 24.3148 21.8692C23.7595 21.5656 23.0632 21.7697 22.7596 22.325C22.4561 22.8804 22.6601 23.5767 23.2155 23.8802C23.7708 24.1838 24.4671 23.9797 24.7707 23.4244Z" fill="#FFB7B7"/>
<path d="M22.0109 22.4656C22.5708 22.4656 23.0246 22.0117 23.0246 21.4518C23.0246 20.8919 22.5708 20.438 22.0109 20.438C21.451 20.438 20.9971 20.8919 20.9971 21.4518C20.9971 22.0117 21.451 22.4656 22.0109 22.4656Z" fill="#2F2E41"/>
<path d="M20.7248 21.3433C20.6848 21.4776 20.6731 21.6187 20.6904 21.7578C20.7077 21.8969 20.7537 22.0309 20.8254 22.1513C20.8971 22.2717 20.993 22.3759 21.107 22.4574C21.2211 22.5389 21.3507 22.5959 21.4879 22.6247C21.625 22.6535 21.7667 22.6536 21.9039 22.6249C22.0411 22.5963 22.1708 22.5395 22.2849 22.4581C22.3991 22.3768 22.4951 22.2727 22.5669 22.1523C22.6388 22.032 22.6849 21.8981 22.7024 21.759C22.6298 22.0029 22.4681 22.2106 22.2494 22.3408C22.0308 22.4709 21.7712 22.5142 21.5221 22.4618C21.2731 22.4095 21.0529 22.2654 20.9052 22.0582C20.7574 21.8509 20.693 21.5958 20.7248 21.3433Z" fill="#2F2E41"/>
<path d="M24.7294 22.5566C24.7592 22.8187 24.7017 23.0832 24.5658 23.3093C24.4299 23.5353 24.2233 23.7103 23.978 23.807C23.7326 23.9037 23.4622 23.9168 23.2087 23.8442C22.9551 23.7716 22.7326 23.6175 22.5755 23.4056C22.4185 23.1937 22.3357 22.9359 22.34 22.6722C22.3443 22.4085 22.4355 22.1536 22.5994 21.947C22.7632 21.7403 22.9907 21.5935 23.2465 21.5293C23.5023 21.465 23.7721 21.4869 24.0142 21.5916C24.2144 21.4302 24.4626 21.4802 24.6644 21.6506C24.8926 21.8433 24.9603 21.9756 25.1373 22.2925C24.9632 22.3169 24.9034 22.5322 24.7294 22.5566Z" fill="#2F2E41"/>
<path d="M20.5172 26.0026C20.53 26.3422 20.5554 27.0107 20.5554 27.0448C20.5554 27.0808 21.0622 28.1301 21.2811 28.5817V28.5819C21.2967 28.6137 21.3107 28.6426 21.323 28.668C21.3399 28.703 21.3666 28.7325 21.3997 28.7529C21.4329 28.7732 21.4712 28.7837 21.5101 28.7829L22.4669 28.7658C22.5195 28.7649 22.5697 28.7437 22.607 28.7067C22.6443 28.6696 22.6659 28.6196 22.6673 28.567L22.774 24.3577C22.7743 24.3438 22.7719 24.33 22.7668 24.3171C22.7618 24.3041 22.7542 24.2924 22.7445 24.2824C22.7348 24.2725 22.7232 24.2646 22.7104 24.2592C22.6976 24.2538 22.6839 24.251 22.67 24.251H21.4361C21.384 24.251 21.333 24.2657 21.2888 24.2934C21.2447 24.3211 21.2092 24.3607 21.1865 24.4076L20.5943 25.6328C20.5388 25.7479 20.5123 25.8749 20.5172 26.0026V26.0026Z" fill="#4A7CE2"/>
<path d="M22.684 28.2781C22.9295 28.1294 23.1501 27.9429 23.3377 27.7256C23.7736 27.2353 24.0388 26.6168 24.0933 25.963C24.1419 25.4036 24.0309 24.9877 23.7634 24.7271C23.4233 24.3957 22.9603 24.4438 22.9408 24.446L22.9201 24.4484L22.6064 24.7138L22.6952 24.8187L22.9758 24.5812C23.0617 24.5769 23.4124 24.576 23.6686 24.8265C23.9044 25.0572 24.0012 25.4355 23.9564 25.9511C23.9045 26.5736 23.6527 27.1627 23.2386 27.6303C23.0599 27.837 22.8505 28.0149 22.6176 28.1578L22.684 28.2781Z" fill="#4A7CE2"/>
<path d="M20.9037 26.6793L20.8945 26.7241L22.5663 27.0674L22.5755 27.0226L20.9037 26.6793Z" fill="#3F3D56"/>
<path d="M22.006 24.2501L21.8975 26.9102L21.9432 26.912L22.0518 24.2519L22.006 24.2501Z" fill="#3F3D56"/>
<path d="M20.5172 26.0028C20.53 26.3425 20.5555 27.0109 20.5555 27.045C20.5555 27.081 21.0623 28.1303 21.2812 28.5819L20.8731 26.2124C20.8573 26.1212 20.8176 26.0359 20.758 25.9651C20.6984 25.8943 20.6211 25.8407 20.5339 25.8096C20.5202 25.873 20.5146 25.938 20.5172 26.0028Z" fill="#3F3D56"/>
<path d="M23.0251 30.9687C22.9889 30.9221 22.9635 30.8682 22.9504 30.8108C22.9374 30.7533 22.9371 30.6936 22.9496 30.636C22.9621 30.5785 22.9871 30.5243 23.0228 30.4774C23.0585 30.4305 23.104 30.392 23.1562 30.3646L23.0732 29.4471L23.6185 29.2607L23.7174 30.5581C23.7576 30.6488 23.7631 30.7511 23.733 30.8456C23.7028 30.9401 23.639 31.0203 23.5536 31.0709C23.4683 31.1215 23.3673 31.1391 23.2699 31.1202C23.1725 31.1014 23.0854 31.0475 23.0251 30.9687Z" fill="#FFB7B7"/>
<path d="M22.6678 25.4314C22.6572 25.2921 22.6932 25.1532 22.7703 25.0366C22.8473 24.92 22.961 24.8324 23.0933 24.7876C23.21 24.7491 23.336 24.7492 23.4527 24.7879C23.5775 24.8305 23.6858 24.9111 23.7622 25.0186C23.8387 25.126 23.8794 25.2547 23.8788 25.3866L23.9196 30.0459L22.9535 30.081L22.6678 25.4314Z" fill="#CBCBCB"/>
</g>
<defs>
<clipPath id="clip0">
<rect width="41.091" height="40" fill="white"/>
</clipPath>
</defs>
</svg>
