<svg width="156" height="30" viewBox="0 0 156 30" fill="none" xmlns="http://www.w3.org/2000/svg">
<path d="M35.5684 13.4219H34.2705V3.4917H35.5684V13.4219Z" fill="#917B4C"/>
<path d="M43.8452 13.4218H42.6721V8.96723C42.7073 8.47327 42.5986 7.97972 42.3601 7.55001C42.1479 7.22791 41.7548 7.07331 41.1838 7.07331C40.988 7.0774 40.7937 7.10992 40.6066 7.16993C40.3805 7.24121 40.1741 7.36709 40.0045 7.53712C39.7972 7.74647 39.6355 7.99902 39.5302 8.27794C39.3872 8.66072 39.3203 9.06932 39.3337 9.47936V13.4218H38.1543V6.18754H39.2401V7.21181H39.265C39.3274 7.1184 39.4179 7.00244 39.5333 6.86072C39.661 6.70527 39.8079 6.56775 39.9701 6.45166C40.1636 6.31656 40.3734 6.20827 40.5941 6.12956C40.8517 6.0316 41.1247 5.98461 41.3991 5.99106C41.6807 5.99347 41.9611 6.02803 42.2353 6.09413C42.5229 6.16324 42.7937 6.2926 43.0309 6.47421C43.2801 6.6742 43.4783 6.93405 43.6081 7.23113C43.7739 7.63044 43.8517 8.06281 43.8358 8.49697L43.8452 13.4218Z" fill="#917B4C"/>
<path d="M47.5429 7.19898V13.4219H46.3635V7.19898H45.3994V6.1876H46.3635V4.94431C46.3443 4.71783 46.3776 4.48989 46.4606 4.2793C46.5436 4.06872 46.674 3.88155 46.8409 3.73323C47.2361 3.45673 47.709 3.32309 48.1856 3.35316C48.2771 3.35316 48.3645 3.35316 48.4477 3.35316L48.7222 3.37248V4.46439C48.6505 4.46439 48.5693 4.44828 48.482 4.44506H48.2386C48.1396 4.43335 48.0392 4.44559 47.9456 4.48081C47.8519 4.51602 47.7674 4.57326 47.6989 4.64798C47.5792 4.83897 47.5244 5.06554 47.5429 5.29217V6.19082H48.7222V7.2022L47.5429 7.19898Z" fill="#917B4C"/>
<path d="M49.873 9.7983C49.8736 9.32739 49.9388 8.85893 50.0665 8.40685C50.1898 7.96521 50.3919 7.55121 50.6624 7.18611C50.954 6.79816 51.3278 6.4842 51.755 6.26821C52.1821 6.05223 52.6515 5.93994 53.1272 5.93994C53.6029 5.93994 54.0723 6.05223 54.4995 6.26821C54.9267 6.4842 55.3004 6.79816 55.592 7.18611C55.8637 7.55043 56.0659 7.96468 56.1879 8.40685C56.4458 9.31429 56.4458 10.2791 56.1879 11.1865C56.0666 11.63 55.8643 12.0454 55.592 12.4105C55.3203 12.7736 54.9754 13.0715 54.5811 13.2834C54.1256 13.5018 53.6295 13.615 53.1272 13.615C52.625 13.615 52.1288 13.5018 51.6733 13.2834C51.279 13.0715 50.9341 12.7736 50.6624 12.4105C50.3913 12.0446 50.1891 11.6294 50.0665 11.1865C49.9388 10.7355 49.8737 10.2682 49.873 9.7983ZM51.093 9.7983C51.0962 10.0792 51.1223 10.3593 51.171 10.6358C51.2294 10.9522 51.3347 11.2574 51.483 11.5408C51.6323 11.8301 51.8462 12.0785 52.107 12.2656C52.4175 12.4614 52.7743 12.565 53.1381 12.565C53.502 12.565 53.8588 12.4614 54.1693 12.2656C54.4302 12.0787 54.6442 11.8303 54.7933 11.5408C54.9443 11.2587 55.0497 10.953 55.1053 10.6358C55.1548 10.3594 55.1819 10.0793 55.1864 9.7983C55.1819 9.51731 55.1548 9.23719 55.1053 8.96085C55.0502 8.64351 54.9447 8.33772 54.7933 8.05577C54.6442 7.76634 54.4302 7.51787 54.1693 7.33105C53.8588 7.13524 53.502 7.03163 53.1381 7.03163C52.7743 7.03163 52.4175 7.13524 52.107 7.33105C51.8462 7.51806 51.6323 7.76648 51.483 8.05577C51.3342 8.33897 51.229 8.6443 51.171 8.96085C51.1234 9.23735 51.0983 9.51748 51.0961 9.7983H51.093Z" fill="#917B4C"/>
<path d="M59.57 13.4219H58.3906V6.18765H59.5201V7.39229C59.7281 6.99922 60.0078 6.65141 60.3438 6.36803C60.671 6.10702 61.0754 5.97051 61.4888 5.98151H61.6635C61.7095 5.98722 61.7546 5.99913 61.7977 6.01694V7.27634H61.3546C61.0994 7.271 60.8461 7.32264 60.6121 7.42772C60.3977 7.52513 60.2062 7.66904 60.0505 7.84967C59.8922 8.03088 59.7693 8.24196 59.6885 8.47131C59.6032 8.70834 59.5599 8.95928 59.5606 9.21213L59.57 13.4219Z" fill="#917B4C"/>
<path d="M63.3486 6.18737H64.4594V7.21163H64.4874C64.5498 7.11822 64.6372 7.00227 64.7464 6.86055C64.8696 6.70531 65.0123 6.56774 65.1707 6.45149C65.3578 6.31502 65.5626 6.20658 65.7791 6.12939C66.0432 6.03181 66.3223 5.98488 66.6028 5.99089C66.8716 5.98371 67.1393 6.0285 67.3921 6.12295C67.586 6.20125 67.767 6.30989 67.9288 6.44504C68.0574 6.54739 68.1681 6.67155 68.2564 6.81223L68.4592 7.15688C68.5996 6.99261 68.7431 6.83478 68.8866 6.68662C69.0243 6.54472 69.1771 6.41938 69.3421 6.31299C69.5136 6.2069 69.6984 6.12561 69.8913 6.07141C70.1232 6.00733 70.3626 5.97698 70.6026 5.98123C70.824 5.98607 71.044 6.01852 71.2578 6.07786C71.5157 6.14566 71.757 6.26855 71.9661 6.4386C72.2085 6.63622 72.4038 6.88854 72.537 7.1762C72.7072 7.56522 72.7873 7.98977 72.771 8.41627V13.4216H71.5917V8.74803C71.6103 8.3259 71.5152 7.9067 71.3171 7.53695C71.2024 7.37216 71.0469 7.24219 70.8669 7.1606C70.6868 7.07901 70.4889 7.04881 70.2937 7.07313C70.058 7.06883 69.825 7.12647 69.6167 7.24062C69.4207 7.35032 69.2478 7.49923 69.1081 7.67867C68.9616 7.86406 68.8476 8.07443 68.7712 8.30032C68.6938 8.52919 68.6537 8.76973 68.6526 9.01215V13.4249H67.4733V8.41627C67.4725 8.26045 67.4568 8.10509 67.4265 7.95245C67.3964 7.79608 67.3371 7.64728 67.2517 7.5144C67.164 7.38132 67.0476 7.27107 66.9117 7.19231C66.7464 7.10314 66.5614 7.05986 66.375 7.06669C66.1792 7.07103 65.9849 7.10356 65.7978 7.16332C65.572 7.23538 65.3658 7.36115 65.1957 7.53051C64.9884 7.73986 64.8267 7.99241 64.7214 8.27133C64.5795 8.65435 64.5138 9.06293 64.528 9.47275V13.4216H63.3486V6.18737Z" fill="#917B4C"/>
<path d="M75.0387 8.38745C75.0381 8.00671 75.1157 7.63016 75.2665 7.28266C75.4015 6.98796 75.6039 6.73152 75.8562 6.5354C76.1265 6.33206 76.4345 6.18842 76.761 6.11346C77.1456 6.02218 77.5394 5.97786 77.9341 5.9814C78.0214 5.9814 78.1494 5.9814 78.3147 6.00072C78.4973 6.01913 78.6786 6.04925 78.8576 6.09091C79.0594 6.14103 79.2567 6.20892 79.4473 6.29383C79.6436 6.38071 79.824 6.50163 79.9808 6.65136C80.1612 6.82224 80.3039 7.03121 80.3992 7.26408C80.4945 7.49695 80.5402 7.74825 80.533 8.00094V12.1624C80.533 12.4491 80.6609 12.5908 80.9199 12.5908C80.9802 12.5952 81.0406 12.5952 81.1009 12.5908C81.1712 12.5806 81.241 12.5666 81.3099 12.5489V13.4347C81.2101 13.4605 81.1134 13.4894 81.0135 13.5249C80.9001 13.5591 80.7822 13.5754 80.6641 13.5732C80.4518 13.581 80.2401 13.5472 80.0401 13.4733C79.8984 13.4254 79.7715 13.3398 79.6719 13.2253C79.5854 13.1249 79.5233 13.0045 79.4909 12.8742C79.4542 12.7408 79.4312 12.6036 79.4223 12.4652C79.3069 12.594 79.1758 12.7293 79.0292 12.8678C78.8673 13.0153 78.6893 13.1428 78.4988 13.2479C78.2762 13.3701 78.0406 13.4652 77.7968 13.5313C77.5009 13.6072 77.1969 13.644 76.892 13.6408C76.5904 13.6438 76.2905 13.5926 76.0059 13.4894C75.7499 13.3933 75.5138 13.2479 75.3102 13.0611C75.117 12.881 74.9619 12.6617 74.8546 12.4169C74.7457 12.1477 74.6916 11.8582 74.6955 11.5665C74.6994 11.374 74.7192 11.1822 74.7548 10.9932C74.7936 10.7302 74.8861 10.4788 75.0262 10.2556C75.188 10.004 75.4009 9.7919 75.6502 9.63396C76.0111 9.43219 76.4105 9.31455 76.8202 9.28932L78.764 9.04131C78.836 9.03055 78.907 9.0133 78.9762 8.98977C79.0516 8.96474 79.1208 8.92297 79.1789 8.86738C79.2464 8.79806 79.2967 8.71299 79.3256 8.61936C79.3668 8.47741 79.3847 8.32936 79.3786 8.18131C79.3786 7.39754 78.8295 7.00674 77.7313 7.00888C77.4559 6.99769 77.1811 7.04369 76.9232 7.14416C76.7408 7.22134 76.5792 7.3429 76.4521 7.49847C76.3436 7.63209 76.2638 7.78799 76.2181 7.95584C76.1772 8.10276 76.1459 8.25233 76.1245 8.40356L75.0387 8.38745ZM79.3537 9.72737C79.2991 9.77068 79.2406 9.80843 79.1789 9.8401C79.0788 9.88592 78.9742 9.92048 78.8669 9.94317C78.7234 9.97538 78.5549 10.0108 78.3116 10.0527C78.0682 10.0946 77.7874 10.1397 77.4193 10.1847C77.2757 10.2041 77.1073 10.2331 76.945 10.2749C76.7745 10.3148 76.6099 10.3776 76.4552 10.4617C76.307 10.539 76.177 10.649 76.0746 10.7838C75.9649 10.9482 75.9102 11.1449 75.9186 11.3443C75.9007 11.6828 76.0128 12.0149 76.2306 12.2687C76.3621 12.3885 76.5161 12.479 76.6831 12.5344C76.8501 12.5898 77.0264 12.609 77.2009 12.5908C77.4743 12.591 77.746 12.5464 78.0058 12.4587C78.2526 12.3766 78.4853 12.2548 78.6954 12.098C78.8836 11.9593 79.0463 11.7869 79.1758 11.5891C79.2984 11.3885 79.3633 11.1562 79.363 10.9191L79.3537 9.72737Z" fill="#917B4C"/>
<path d="M84.43 7.19878V11.8982C84.425 12.0103 84.4498 12.1217 84.5017 12.2203C84.5476 12.2959 84.6137 12.3563 84.6921 12.3942C84.7655 12.4301 84.8449 12.4509 84.9261 12.4554C85.0041 12.4554 85.0758 12.4554 85.1382 12.4554H85.5563V13.4217C85.341 13.4378 85.1538 13.4603 84.9978 13.4829C84.8894 13.5011 84.78 13.5129 84.6702 13.5183C84.4259 13.5259 84.1823 13.4855 83.9526 13.3991C83.7851 13.3326 83.6376 13.2214 83.5252 13.077C83.4191 12.9324 83.3455 12.7651 83.3099 12.5874C83.2685 12.3852 83.2487 12.1789 83.2506 11.9722V7.19878H82.2959V6.1874H83.2475V4.17108H84.4269V6.1874H85.5532V7.19878H84.43Z" fill="#917B4C"/>
<path d="M87.376 4.87671V3.4917H88.5553V4.87671H87.376ZM88.5553 13.4219H87.376V6.18764H88.5553V13.4219Z" fill="#917B4C"/>
<path d="M90.5361 9.79812C90.5363 9.32694 90.6025 8.85826 90.7327 8.40667C90.8595 7.9633 91.067 7.54897 91.3442 7.18592C91.6144 6.82132 91.9597 6.52319 92.3551 6.31304C93.0032 5.96097 93.7506 5.85549 94.4665 6.01508C95.1824 6.17466 95.8211 6.58913 96.2707 7.18592C96.5421 7.55086 96.7453 7.96485 96.8697 8.40667C97.1276 9.31411 97.1276 10.2789 96.8697 11.1864C96.746 11.6294 96.5428 12.0446 96.2707 12.4103C95.8045 12.9839 95.1667 13.3811 94.4577 13.5391C93.7488 13.6971 93.009 13.6071 92.3551 13.2832C91.9597 13.0731 91.6144 12.7749 91.3442 12.4103C91.0719 12.0452 90.8697 11.6298 90.7483 11.1864C90.6128 10.7367 90.5413 10.269 90.5361 9.79812ZM91.7561 9.79812C91.7605 10.0791 91.7876 10.3592 91.8372 10.6356C91.8941 10.9524 91.9994 11.2579 92.1492 11.5407C92.2995 11.8292 92.5132 12.0775 92.7732 12.2654C93.0837 12.4612 93.4405 12.5648 93.8043 12.5648C94.1682 12.5648 94.525 12.4612 94.8355 12.2654C95.0972 12.0795 95.3114 11.8308 95.4595 11.5407C95.6105 11.2585 95.7159 10.9528 95.7715 10.6356C95.821 10.3592 95.8481 10.0791 95.8526 9.79812C95.8481 9.51713 95.821 9.23701 95.7715 8.96067C95.7164 8.64333 95.611 8.33753 95.4595 8.05558C95.3114 7.76543 95.0972 7.51673 94.8355 7.33087C94.525 7.13505 94.1682 7.03145 93.8043 7.03145C93.4405 7.03145 93.0837 7.13505 92.7732 7.33087C92.5132 7.51879 92.2995 7.767 92.1492 8.05558C91.9989 8.3381 91.8936 8.64368 91.8372 8.96067C91.7876 9.23701 91.7605 9.51713 91.7561 9.79812Z" fill="#917B4C"/>
<path d="M104.706 13.6382H103.524V9.18359C103.559 8.68963 103.451 8.19609 103.212 7.76637C102.997 7.44427 102.588 7.28967 102.033 7.28967C101.838 7.2938 101.645 7.32633 101.459 7.3863C101.232 7.45758 101.026 7.58345 100.856 7.75349C100.648 7.96258 100.485 8.21514 100.379 8.49431C100.239 8.87776 100.173 9.28602 100.186 9.69572V13.6382H99V6.40391H100.111V7.42817H100.139C100.201 7.33476 100.292 7.21881 100.407 7.07709C100.535 6.92164 100.682 6.78412 100.844 6.66802C101.032 6.53287 101.236 6.42453 101.452 6.34593C101.709 6.24836 101.981 6.20138 102.254 6.20743C102.537 6.20962 102.818 6.24419 103.093 6.3105C103.381 6.38037 103.651 6.50967 103.889 6.69057C104.142 6.8936 104.345 7.15652 104.479 7.45716C104.645 7.85646 104.722 8.28884 104.706 8.72299V13.6382Z" fill="#917B4C"/>
<path d="M117.378 6.3904C117.373 6.05242 117.288 5.72076 117.131 5.42411C116.991 5.17644 116.799 4.96408 116.57 4.80247C116.338 4.64871 116.081 4.53958 115.812 4.48037C115.543 4.417 115.269 4.38459 114.994 4.38374C114.763 4.38707 114.533 4.40752 114.305 4.44494C114.053 4.48613 113.811 4.57109 113.587 4.69618C113.362 4.82277 113.17 5.00272 113.025 5.22119C112.861 5.49155 112.782 5.80759 112.798 6.12628C112.792 6.30889 112.826 6.49044 112.897 6.65774C112.961 6.79476 113.05 6.91739 113.16 7.01849C113.266 7.1158 113.389 7.19318 113.521 7.24717C113.657 7.302 113.795 7.34825 113.936 7.38568L116.682 8.02987C116.984 8.1011 117.276 8.20923 117.552 8.35196C118.08 8.61458 118.489 9.0756 118.698 9.64035C118.816 9.97211 118.873 10.3239 118.866 10.6775C118.885 11.191 118.762 11.6995 118.51 12.143C118.283 12.5204 117.97 12.8354 117.599 13.061C117.222 13.2902 116.809 13.4514 116.379 13.5377C115.581 13.7048 114.759 13.7212 113.955 13.586C113.676 13.5376 113.403 13.4588 113.141 13.3509C112.941 13.2659 112.752 13.1578 112.576 13.0288C112.444 12.9281 112.317 12.8206 112.195 12.7067C111.835 12.3977 111.56 11.9968 111.397 11.5439C111.276 11.115 111.216 10.6701 111.219 10.2233H112.436C112.421 10.6114 112.505 10.9967 112.679 11.341C112.83 11.6264 113.044 11.8712 113.303 12.0561C113.561 12.2365 113.85 12.3644 114.155 12.4329C114.462 12.5069 114.776 12.5447 115.091 12.5457C115.355 12.5423 115.619 12.5218 115.88 12.4845C116.166 12.4461 116.445 12.3636 116.707 12.2397C116.955 12.1244 117.175 11.9526 117.35 11.7372C117.532 11.4887 117.624 11.182 117.609 10.8708C117.614 10.6515 117.58 10.4331 117.509 10.2266C117.441 10.0433 117.325 9.88291 117.175 9.76274C116.987 9.61483 116.776 9.50052 116.551 9.42454C116.286 9.32469 115.958 9.22806 115.568 9.12499L113.587 8.64507C113.387 8.5976 113.191 8.53516 113 8.45825C112.758 8.36516 112.531 8.23249 112.33 8.0653C112.1 7.86984 111.912 7.62887 111.774 7.35669C111.607 7.02749 111.526 6.65877 111.54 6.28733C111.54 5.90119 111.603 5.51781 111.727 5.15355C111.854 4.79179 112.054 4.46225 112.314 4.18726C112.608 3.8845 112.96 3.64765 113.347 3.49154C113.826 3.30692 114.336 3.21837 114.847 3.23064C115.528 3.2021 116.208 3.31718 116.844 3.56884C117.276 3.74932 117.659 4.03435 117.961 4.39985C118.202 4.69638 118.372 5.04725 118.457 5.42411C118.526 5.74243 118.573 6.06531 118.598 6.3904H117.378Z" fill="#917B4C"/>
<path d="M125.39 8.62236C125.346 8.19438 125.166 7.79345 124.878 7.48214C124.723 7.33776 124.541 7.22714 124.343 7.15687C124.145 7.08659 123.936 7.0581 123.727 7.07308C123.405 7.06145 123.087 7.14528 122.81 7.31465C122.564 7.47703 122.36 7.69795 122.214 7.95884C122.061 8.22998 121.956 8.52644 121.902 8.83494C121.84 9.15311 121.809 9.47675 121.808 9.80123C121.808 10.1249 121.833 10.448 121.883 10.7675C121.925 11.0816 122.02 11.3857 122.164 11.6662C122.297 11.9362 122.497 12.1651 122.744 12.3297C123.039 12.513 123.38 12.6026 123.724 12.5874C124.12 12.5883 124.502 12.4301 124.788 12.1461C125.127 11.7986 125.346 11.346 125.412 10.8577H126.547C126.517 11.1704 126.448 11.4778 126.341 11.7725C126.227 12.0989 126.059 12.4028 125.845 12.6711C125.61 12.9599 125.318 13.1929 124.987 13.3539C124.583 13.5457 124.141 13.6383 123.696 13.6245C123.242 13.6324 122.792 13.5401 122.376 13.3539C121.998 13.1816 121.662 12.9241 121.393 12.6002C121.115 12.2637 120.903 11.8741 120.769 11.4536C120.623 10.9844 120.551 10.4938 120.557 10.0009C120.553 9.46892 120.62 8.93887 120.757 8.42588C120.877 7.95991 121.084 7.5224 121.365 7.1375C121.642 6.76934 122 6.47545 122.41 6.28072C122.883 6.05804 123.398 5.94796 123.917 5.95863C124.317 5.94664 124.715 6.02697 125.081 6.19376C125.387 6.3368 125.66 6.54669 125.88 6.80896C126.086 7.05924 126.245 7.3478 126.348 7.65929C126.449 7.96343 126.514 8.27931 126.541 8.59981L125.39 8.62236Z" fill="#917B4C"/>
<path d="M134.088 13.4219H132.909V8.69032C132.911 8.4655 132.891 8.24099 132.849 8.02037C132.815 7.83734 132.741 7.66455 132.634 7.51468C132.521 7.37091 132.374 7.25993 132.207 7.19258C131.986 7.10589 131.75 7.06538 131.514 7.0734C131.273 7.0729 131.034 7.11316 130.806 7.19258C130.571 7.27576 130.358 7.41225 130.182 7.59198C129.981 7.80342 129.828 8.05879 129.736 8.33924C129.614 8.70599 129.557 9.09208 129.567 9.47946V13.4219H128.388V3.4917H129.567V7.15715H129.595C129.693 7.02716 129.797 6.90245 129.907 6.78352C130.178 6.47201 130.522 6.23699 130.906 6.10067C131.146 6.01622 131.4 5.97588 131.654 5.9815C131.937 5.98369 132.218 6.01826 132.494 6.08457C132.781 6.15367 133.052 6.28304 133.289 6.46464C133.542 6.66768 133.745 6.9306 133.879 7.23123C134.043 7.631 134.121 8.06303 134.107 8.49707L134.088 13.4219Z" fill="#917B4C"/>
<path d="M136.022 9.79831C136.023 9.32739 136.088 8.85893 136.216 8.40685C136.339 7.96521 136.541 7.55121 136.812 7.18611C137.103 6.79816 137.477 6.4842 137.904 6.26821C138.332 6.05223 138.801 5.93994 139.277 5.93994C139.752 5.93994 140.222 6.05223 140.649 6.26821C141.076 6.4842 141.45 6.79816 141.741 7.18611C142.013 7.55043 142.215 7.96468 142.337 8.40685C142.595 9.3143 142.595 10.2791 142.337 11.1865C142.216 11.63 142.014 12.0454 141.741 12.4105C141.47 12.7736 141.125 13.0715 140.731 13.2834C140.276 13.5026 139.78 13.6163 139.278 13.6163C138.776 13.6163 138.281 13.5026 137.826 13.2834C137.43 13.0724 137.084 12.7744 136.812 12.4105C136.541 12.0446 136.339 11.6295 136.216 11.1865C136.088 10.7356 136.023 10.2682 136.022 9.79831ZM137.242 9.79831C137.245 10.0794 137.272 10.3596 137.324 10.6358C137.38 10.9526 137.486 11.2581 137.636 11.5408C137.785 11.8301 137.999 12.0786 138.26 12.2656C138.57 12.4614 138.927 12.565 139.291 12.565C139.655 12.565 140.011 12.4614 140.322 12.2656C140.583 12.0787 140.797 11.8303 140.946 11.5408C141.097 11.2587 141.202 10.953 141.258 10.6358C141.307 10.3594 141.335 10.0793 141.339 9.79831C141.335 9.51732 141.307 9.2372 141.258 8.96086C141.203 8.64351 141.097 8.33772 140.946 8.05577C140.797 7.76634 140.583 7.51787 140.322 7.33105C140.011 7.13524 139.655 7.03164 139.291 7.03164C138.927 7.03164 138.57 7.13524 138.26 7.33105C137.999 7.51806 137.785 7.76648 137.636 8.05577C137.485 8.33829 137.38 8.64387 137.324 8.96086C137.272 9.23697 137.245 9.51722 137.242 9.79831Z" fill="#917B4C"/>
<path d="M144.101 9.7983C144.1 9.32728 144.165 8.85859 144.294 8.40685C144.416 7.96468 144.618 7.55043 144.89 7.18611C145.182 6.79816 145.555 6.4842 145.982 6.26821C146.41 6.05223 146.879 5.93994 147.355 5.93994C147.83 5.93994 148.3 6.05223 148.727 6.26821C149.154 6.4842 149.528 6.79816 149.82 7.18611C150.09 7.55121 150.292 7.96521 150.415 8.40685C150.673 9.3143 150.673 10.2791 150.415 11.1865C150.293 11.6294 150.091 12.0446 149.82 12.4105C149.547 12.7744 149.201 13.0724 148.806 13.2834C148.157 13.6355 147.41 13.7409 146.694 13.5813C145.978 13.4218 145.34 13.0073 144.89 12.4105C144.618 12.0454 144.415 11.63 144.294 11.1865C144.165 10.7359 144.1 10.2683 144.101 9.7983ZM145.321 9.7983C145.324 10.0792 145.35 10.3593 145.399 10.6358C145.454 10.953 145.56 11.2587 145.711 11.5408C145.86 11.8303 146.074 12.0787 146.335 12.2656C146.645 12.4614 147.002 12.565 147.366 12.565C147.73 12.565 148.086 12.4614 148.397 12.2656C148.658 12.0785 148.871 11.8301 149.021 11.5408C149.171 11.2581 149.276 10.9526 149.333 10.6358C149.384 10.3596 149.411 10.0794 149.414 9.7983C149.411 9.51722 149.384 9.23697 149.333 8.96086C149.276 8.64387 149.171 8.33828 149.021 8.05577C148.871 7.76648 148.658 7.51806 148.397 7.33105C148.086 7.13524 147.73 7.03164 147.366 7.03164C147.002 7.03164 146.645 7.13524 146.335 7.33105C146.074 7.51787 145.86 7.76634 145.711 8.05577C145.559 8.33772 145.454 8.64351 145.399 8.96086C145.35 9.23726 145.324 9.51739 145.321 9.7983Z" fill="#917B4C"/>
<path d="M153.769 13.4219H152.59V3.4917H153.769V13.4219Z" fill="#917B4C"/>
<path fill-rule="evenodd" clip-rule="evenodd" d="M12.692 7.47906C12.8043 6.97015 14.904 6.94116 14.773 7.57569C14.3424 9.66609 13.3908 11.7017 12.6888 13.3992C11.9868 15.0966 11.7996 16.5589 12.174 17.4125C12.378 17.9508 12.7186 18.4225 13.16 18.7782C13.7122 19.2033 14.5952 19.5351 16.0772 19.5351C21.3812 19.5351 22.6448 15 22.6448 12.974C22.6448 7.82048 19.2502 6.26476 17.6715 5.31135C17.1972 4.7799 17.84 3.50762 18.2955 3.46252C19.4249 3.47863 24.757 6.2712 24.757 13.0932C24.757 17.3964 21.1035 21.9057 16.2394 21.9057C12.4392 21.9057 10.5797 19.957 9.96821 17.9021C9.46901 16.2304 10.1336 13.9822 11.0228 12.0142C11.4689 11.0253 11.55 10.7677 11.8496 10.0397C12.1866 9.20633 12.4701 8.35092 12.6982 7.47906" fill="#917B4C"/>
<path fill-rule="evenodd" clip-rule="evenodd" d="M16.1019 5.20514C15.5653 5.55945 12.9601 5.49825 12.2082 5.25345C11.6528 5.07308 11.918 2.8474 12.2893 2.51886C12.7635 2.01639 15.9335 1.99062 16.364 2.68957C16.6167 3.09863 16.5824 4.88949 16.1019 5.20514Z" fill="#917B4C"/>
<path fill-rule="evenodd" clip-rule="evenodd" d="M3.43204 15.087C3.50068 26.9756 18.9228 27.8549 22.7043 21.3131C22.9352 20.7913 24.8883 20.6979 25.0848 21.3357C18.3363 32.5865 1.48828 27.7615 1.48828 15.087C1.48828 9.20234 4.77676 4.5545 9.94348 3.40784C10.4832 3.28222 10.8795 4.95712 10.4177 5.18903C6.43348 6.17786 3.40396 10.6969 3.43204 15.087Z" fill="#917B4C"/>
<path d="M34.2109 17.1161H154.072" stroke="#917B4C" stroke-width="0.5"/>
<path d="M29.584 2.54462V28.2124" stroke="#917B4C" stroke-width="0.5"/>
<path d="M150.649 25.961V21.6739L153.635 26.4893H154.015V20.9911L154.518 20.4693H152.958L153.463 20.9911V24.4246L151.045 20.4693H149.585L150.087 20.9911V25.961L149.585 26.4828H151.154L150.649 25.961Z" fill="#917B4C"/>
<path d="M144.665 23.4775C144.665 22.2857 144.977 20.8395 146.079 20.8395C147.18 20.8395 147.48 22.2857 147.48 23.4775C147.48 24.6692 147.183 26.1154 146.079 26.1154C144.974 26.1154 144.665 24.6692 144.665 23.4775ZM143.57 23.4775C143.57 25.0461 144.538 26.6147 146.066 26.6147C147.595 26.6147 148.562 25.0461 148.562 23.4775C148.562 21.9089 147.595 20.337 146.066 20.337C144.538 20.337 143.57 21.9089 143.57 23.4775Z" fill="#917B4C"/>
<path d="M127.842 25.961V21.6739L130.828 26.4893H131.209V20.9911L131.714 20.4693H130.154L130.656 20.9911V24.4246L128.238 20.4693H126.778L127.281 20.9911V25.961L126.778 26.4828H128.348L127.842 25.961Z" fill="#917B4C"/>
<path d="M141.099 25.961V20.9589H142.076L142.737 21.6514V20.4693H138.562V21.6514L139.224 20.9589H140.21V25.961L139.708 26.4828H141.592L141.099 25.961Z" fill="#917B4C"/>
<path d="M135.96 23.2326L136.466 23.7512V25.7772C136.241 25.9841 135.946 26.0906 135.645 26.0735C134.531 26.0735 133.867 24.7175 133.867 23.4774C133.867 22.2373 134.544 20.8845 135.648 20.8845C135.772 20.8784 135.896 20.901 136.01 20.9506C136.125 21.0002 136.227 21.0756 136.31 21.1712L137.108 21.9958V20.7364C136.71 20.5267 136.271 20.4121 135.825 20.4009C135.378 20.3898 134.934 20.4823 134.526 20.6718C134.119 20.8613 133.758 21.1428 133.469 21.4957C133.181 21.8485 132.974 22.2637 132.862 22.7104C132.75 23.1572 132.736 23.6243 132.822 24.0771C132.909 24.53 133.092 24.957 133.36 25.3268C133.627 25.6966 133.972 25.9996 134.368 26.2136C134.764 26.4276 135.202 26.547 135.648 26.5631C136.753 26.5631 136.959 26.3505 137.355 26.125V23.7512L137.86 23.2326H135.96ZM123.271 20.4722L123.761 20.9908V25.9608L123.271 26.4825H125.143L124.641 25.9608V20.9908L125.143 20.4722H123.271ZM118.279 23.5064H120.479V25.9608L119.977 26.4825H121.849L121.356 25.9608V20.9908L121.849 20.4722H119.977L120.479 20.9908V23.0168H118.279V20.9908L118.8 20.4722H116.897L117.399 20.9908V25.9608L116.897 26.4825H118.8L118.298 25.9608L118.279 23.5064ZM115.637 24.6595C115.65 24.4373 115.605 24.2155 115.505 24.018C115.406 23.8205 115.256 23.6547 115.072 23.5386L113.671 22.6399C113.501 22.551 113.355 22.4179 113.25 22.2535C113.144 22.0892 113.082 21.8994 113.069 21.7026C113.076 21.5879 113.104 21.4757 113.153 21.3725C113.202 21.2692 113.27 21.1769 113.354 21.1009C113.437 21.0249 113.534 20.9667 113.64 20.9295C113.745 20.8924 113.856 20.8771 113.967 20.8845C114.102 20.872 114.236 20.9048 114.351 20.9779L114.944 21.7316L115.527 20.7106L114.373 20.4883C114.224 20.4543 114.07 20.4402 113.918 20.4465C113.128 20.4465 112.248 20.965 112.248 22.0569C112.256 22.3354 112.331 22.6075 112.467 22.8479C112.604 23.0883 112.797 23.2893 113.028 23.4323L114.432 24.3116C114.558 24.3972 114.661 24.514 114.732 24.6513C114.803 24.7885 114.839 24.942 114.838 25.0975C114.843 25.2365 114.821 25.375 114.772 25.5047C114.723 25.6344 114.65 25.7525 114.555 25.8517C114.461 25.9509 114.348 26.0292 114.223 26.0817C114.099 26.1343 113.965 26.16 113.83 26.1572C113.665 26.1619 113.502 26.1195 113.359 26.0348L112.716 25.1974L112.136 26.299L113.337 26.5212C113.481 26.5528 113.627 26.5668 113.774 26.5631C114.022 26.5824 114.272 26.5466 114.505 26.4582C114.739 26.3698 114.952 26.2307 115.129 26.0504C115.306 25.8701 115.444 25.6526 115.533 25.4127C115.623 25.1728 115.661 24.916 115.646 24.6595H115.637ZM108.504 21.8862L109.287 24.2923H107.706L108.504 21.8862ZM107.156 25.9736L107.543 24.7787H109.44L109.824 25.9736L109.331 26.4825H111.312L110.798 25.9543L108.994 20.4787H108.451L106.595 25.9543L106.083 26.4825H107.643L107.156 25.9736ZM100.885 26.4825L102.09 22.5787L103.263 26.4825H103.806L105.494 21.0069L106.008 20.4722H104.448L104.941 20.9812L103.746 24.9751L102.601 20.9812L103.094 20.4722H101.122L101.625 21.0005L101.821 21.664L100.817 24.9751L99.6716 20.9812L100.165 20.4722H98.2083L98.7106 21.0005L100.358 26.4761L100.885 26.4825ZM92.5923 22.8783C92.8388 21.2678 93.0166 20.8974 93.2475 20.8974C93.4761 20.9185 93.6882 21.0292 93.8403 21.2066C93.8798 21.2456 93.9323 21.2674 93.9869 21.2674C94.0416 21.2674 94.0941 21.2456 94.1336 21.2066C94.1917 21.1594 94.2399 21.1006 94.2753 21.0336C94.3107 20.9666 94.3325 20.8929 94.3395 20.8169C94.3395 20.614 94.118 20.4433 93.806 20.4433C93.5413 20.4613 93.2829 20.5345 93.0464 20.6585C92.81 20.7825 92.6003 20.9547 92.4301 21.1647C92.0554 21.6619 91.8201 22.2558 91.7499 22.8815H91.2476L91.0323 23.1392L91.0573 23.2229H91.7062C91.597 23.9605 91.5097 24.6208 91.3599 25.6676C91.1477 27.1589 91.0011 27.7162 90.8763 27.845C90.851 27.8752 90.8199 27.8996 90.785 27.9168C90.7501 27.934 90.7122 27.9435 90.6735 27.9449C90.5375 27.9162 90.4068 27.8651 90.2866 27.7935C90.2446 27.7769 90.1987 27.7736 90.1549 27.7839C90.111 27.7942 90.0711 27.8177 90.0401 27.8515C89.9468 27.9526 89.8924 28.0855 89.8873 28.2251C89.8873 28.4216 90.0901 28.4956 90.2367 28.4956C90.6037 28.4371 90.9369 28.241 91.1727 27.9449C91.5253 27.5551 91.9184 26.7338 92.2242 25.0943C92.3365 24.492 92.4207 23.967 92.5362 23.2229L93.3661 23.1392L93.5564 22.8751L92.5923 22.8783ZM88.2243 23.0393C88.5519 23.0393 88.7641 23.3614 88.7641 23.9702C88.7828 25.0879 88.2898 26.0445 87.9778 26.154C87.9144 26.1758 87.8481 26.1878 87.7813 26.1894C87.4037 26.1894 87.1916 25.7739 87.1916 25.1233C87.1916 23.8349 87.722 23.1907 87.9778 23.0909C88.0554 23.0553 88.1395 23.0377 88.2243 23.0393ZM88.502 22.6754C88.14 22.6919 87.7879 22.8027 87.4786 22.9975C87.1082 23.2335 86.8048 23.5663 86.5988 23.9622C86.3928 24.358 86.2917 24.803 86.3055 25.2521C86.3055 25.8673 86.5832 26.5695 87.4599 26.5695C87.9501 26.5345 88.4153 26.3329 88.7828 25.9962C89.0569 25.7279 89.2752 25.4047 89.4244 25.0464C89.5735 24.6881 89.6503 24.3022 89.6502 23.9122C89.6629 23.7518 89.6421 23.5904 89.5894 23.4389C89.5366 23.2874 89.453 23.1493 89.3442 23.034C89.2354 22.9186 89.104 22.8286 88.9587 22.7701C88.8134 22.7116 88.6577 22.6859 88.502 22.6947V22.6754ZM78.518 21.0198L79.9969 23.7093V25.9801L79.4883 26.4825H81.3603L80.8674 25.9608V23.7061L82.2963 20.9908L82.8017 20.4722H81.2417L81.7347 20.9812L80.624 23.1392L79.4883 20.9812L79.9813 20.4722H78.0063L78.518 21.0198ZM75.5072 25.9801V20.9618H76.4837L77.1452 21.6543V20.4722H72.955V21.6543L73.6165 20.9618H74.6024V25.9608L74.1001 26.4825H75.9721L75.5072 25.9801ZM69.7633 20.5044L70.2562 21.023V25.9608L69.7633 26.4825H71.6353L71.1329 25.9608V20.9908L71.6353 20.4722L69.7633 20.5044ZM68.4217 24.6917C68.4355 24.4698 68.3905 24.2482 68.2916 24.0508C68.1926 23.8533 68.0435 23.6874 67.8601 23.5708L66.4561 22.6722C66.2856 22.5832 66.1404 22.4501 66.0349 22.2858C65.9293 22.1214 65.8669 21.9316 65.8539 21.7349C65.8567 21.6197 65.8816 21.5062 65.9271 21.401C65.9727 21.2957 66.0379 21.2009 66.1191 21.1218C66.2003 21.0428 66.2959 20.9811 66.4003 20.9404C66.5048 20.8996 66.616 20.8807 66.7275 20.8845C66.8619 20.872 66.9965 20.9048 67.1113 20.9779L67.7041 21.7316L68.2875 20.7106L67.1331 20.4883C66.9837 20.4539 66.8306 20.4398 66.6776 20.4465C65.8882 20.4465 65.0115 20.965 65.0115 22.0569C65.0181 22.3356 65.0931 22.608 65.2295 22.8486C65.3659 23.0892 65.5593 23.29 65.7915 23.4323L67.1924 24.3277C67.3176 24.4139 67.4202 24.5308 67.491 24.668C67.5618 24.8051 67.5985 24.9582 67.598 25.1136C67.6031 25.2526 67.5807 25.3911 67.5321 25.5208C67.4835 25.6505 67.4098 25.7686 67.3154 25.8678C67.2211 25.967 67.1081 26.0453 66.9834 26.0978C66.8587 26.1504 66.7249 26.1761 66.5902 26.1733C66.4243 26.1781 66.2603 26.1357 66.116 26.0509L65.492 25.2135L64.9086 26.3151L66.1129 26.5373C66.2553 26.5692 66.4009 26.5833 66.5466 26.5792C66.7948 26.5985 67.0441 26.5627 67.2778 26.4743C67.5115 26.3859 67.7242 26.2468 67.9015 26.0665C68.0788 25.8862 68.2167 25.6687 68.3059 25.4288C68.3951 25.1889 68.4335 24.9321 68.4186 24.6756L68.4217 24.6917ZM60.8057 20.9618H61.3923C61.6665 20.988 61.9213 21.1189 62.1069 21.3289C62.2924 21.539 62.3952 21.813 62.3952 22.0972C62.3952 22.3815 62.2924 22.6555 62.1069 22.8655C61.9213 23.0755 61.6665 23.2065 61.3923 23.2326H60.8089L60.8057 20.9618ZM63.6137 25.9608L62.3283 23.5483C62.6304 23.4563 62.8973 23.2695 63.0919 23.0138C63.2864 22.7581 63.3991 22.4462 63.4141 22.1214C63.4141 21.081 62.3876 20.4722 61.4017 20.4722H59.4267L59.9322 20.9908V25.9608L59.4267 26.4825H61.3237L60.8182 25.9608V23.7061H61.4703L62.8618 26.4697H64.1098L63.6137 25.9608ZM58.1163 26.4825V25.3005L57.4549 25.993H55.8543V23.5064H56.9994L57.5048 24.0282V22.495L56.9994 23.0136H55.8543V20.9618H57.4549L58.1163 21.6543V20.4722H54.4659L54.9682 20.9908V25.9608L54.4659 26.4825H58.1163ZM50.672 20.4722H48.7002L49.2025 21.0005L50.8498 26.4761H51.4083L53.0962 21.0005L53.5923 20.4722H52.0323L52.5284 20.9812L51.3334 24.9751L50.1884 20.9812L50.672 20.4722ZM45.7767 20.4722L46.2697 20.9908V25.9608L45.7923 26.4825H47.6643L47.162 25.9608V20.9908L47.6643 20.4722H45.7767ZM40.5476 25.9479V21.6737L43.5334 26.4858H43.9203V20.9908L44.4226 20.4722H42.8626L43.365 20.9908V24.4276L40.947 20.4755H39.4868L39.9922 20.994V25.9608L39.4868 26.4825H41.0468L40.5476 25.9479ZM34.1797 24.8592C34.1797 25.8996 35.1157 26.6017 36.1016 26.6017C37.0875 26.6017 38.0266 25.8996 38.0266 24.8592V20.994L38.5321 20.4755H36.9721L37.4744 20.994V24.8592C37.4744 25.1872 37.3482 25.5018 37.1235 25.7338C36.8988 25.9657 36.5941 26.096 36.2763 26.096C35.9586 26.096 35.6538 25.9657 35.4291 25.7338C35.2045 25.5018 35.0782 25.1872 35.0782 24.8592V20.994L35.5806 20.4755H33.6836L34.189 20.994L34.1797 24.8592Z" fill="#917B4C"/>
</svg>
