<svg viewBox="0 0 72 37" fill="none" xmlns="http://www.w3.org/2000/svg">
<path d="M71.9955 34.4808C71.9955 32.3365 70.9074 30.5981 69.5652 30.5981C68.7216 30.5981 67.9786 31.2851 67.5428 32.3278C67.3956 32.2666 67.2378 32.235 67.0784 32.2346C66.6721 32.2346 66.2965 32.4427 65.9902 32.7951C65.5974 31.4951 64.7644 30.5981 63.8003 30.5981C62.8989 30.5981 62.1127 31.3828 61.6931 32.5473C61.46 32.3506 61.1663 32.2402 60.8613 32.2346C59.8313 32.2346 58.9962 33.5686 58.9962 35.2143C58.992 35.7628 59.0917 36.3073 59.2901 36.8187H71.5054C71.8129 36.1683 71.9955 35.3587 71.9955 34.4808Z" fill="#4A7CE2"/>
<path d="M63.2832 12.0603C61.3693 7.92001 57.6238 4.38803 53.099 3.81237C51.9027 3.66017 50.6536 3.72121 49.5436 4.19272C48.0865 4.81166 47.0127 6.06096 45.9274 7.2134C43.6294 9.65279 41.0579 11.8191 38.2638 13.6695C36.8847 14.5826 35.4056 15.4344 33.7682 15.668C30.4854 16.1364 27.2382 13.8977 25.7411 10.9388C24.8058 9.09049 24.3737 6.9204 23.6176 4.99789C22.7469 4.99622 21.7095 4.99654 20.5935 5.00168C17.5085 5.0159 14.9975 5.06148 14.9975 5.06148C14.9975 5.06148 17.9822 1.10789 20.5823 2.57266C21.4132 3.04076 22.2834 3.45848 23.0832 3.81037C22.6289 2.93637 22.0557 2.14998 21.2673 1.5177C19.7126 0.270981 17.607 -0.0787222 15.6164 0.0141226C13.526 0.111618 11.4165 0.671259 9.71793 1.8935C6.69206 4.07085 5.4425 7.90335 4.37305 11.4745L6.95807 12.7704C8.06688 11.8118 9.6883 10.8635 11.1828 11.7055C13.7828 13.1703 16.7696 14.1428 16.7696 14.1428C16.7696 14.1428 14.2789 14.1203 11.194 14.1345C10.6759 14.1369 10.1746 14.1402 9.69799 14.144L38.398 28.5317C47.8641 28.6651 55.0016 28.1531 63.9966 28.5317C64.4657 28.5515 65.5208 26.0924 65.5243 25.4452C65.5491 20.8841 65.1971 16.2005 63.2832 12.0603ZM54.0916 13.3012C51.0066 13.3154 48.4956 13.361 48.4956 13.361C48.4956 13.361 51.4804 9.40741 54.0804 10.8722C56.6804 12.337 59.6672 13.3095 59.6672 13.3095C59.6672 13.3095 57.1765 13.287 54.0916 13.3012L54.0916 13.3012Z" fill="#F2F2F2"/>
<path opacity="0.3" d="M62.1294 26.8319C62.1294 25.2727 61.1641 24.0088 59.9733 24.0088C59.2249 24.0088 58.5657 24.5083 58.1791 25.2664C58.0463 25.2216 57.9072 25.1987 57.7671 25.1986C57.4047 25.2048 57.0588 25.3508 56.8016 25.6062C56.4531 24.6609 55.7141 24.0088 54.8588 24.0088C54.0591 24.0088 53.3616 24.5793 52.9894 25.4261C52.771 25.2795 52.5144 25.2004 52.2514 25.1986C51.3376 25.1986 50.5967 26.1686 50.5967 27.3652C50.5941 27.7688 50.6832 28.1677 50.8574 28.5318H61.6946C61.9852 28.0127 62.1351 27.4267 62.1294 26.8319Z" fill="#4A7CE2"/>
<path d="M71.9964 36.9312H5.4668V36.7979H71.9297L71.9964 36.9312Z" fill="#2F2E41"/>
<path d="M66.5296 28.6651H0V28.5317H66.4629L66.5296 28.6651Z" fill="#2F2E41"/>
<path d="M28.2402 16.3922C28.2402 16.3922 28.6592 13.3195 29.3576 14.1575C30.0559 14.9955 29.3576 16.2525 29.3576 16.2525L28.7989 16.9509L28.2402 16.5319V16.3922Z" fill="#FFB8B8"/>
<path d="M26.5645 17.3701C26.5645 17.3701 27.9612 15.8337 28.2405 16.113C28.5199 16.3924 29.3579 16.5321 29.2182 17.0907C29.0786 17.6494 26.1455 19.4651 26.1455 19.4651L26.5645 17.3701Z" fill="#4A7CE2"/>
<path opacity="0.1" d="M26.5645 17.3701C26.5645 17.3701 27.9612 15.8337 28.2405 16.113C28.5199 16.3924 29.3579 16.5321 29.2182 17.0907C29.0786 17.6494 26.1455 19.4651 26.1455 19.4651L26.5645 17.3701Z" fill="black"/>
<path d="M18.6035 17.2305V18.3478C18.6035 18.3478 18.4638 20.8619 19.3018 20.7222C20.1398 20.5825 19.7208 18.4875 19.7208 18.4875L19.5811 17.2305H18.6035Z" fill="#FFB8B8"/>
<path d="M19.0225 25.3311C19.0225 25.3311 17.7654 27.2864 17.3464 27.4261C16.9274 27.5658 14.6927 28.8228 14.4134 30.0798L12.458 32.5939L13.4357 33.8509C13.4357 33.8509 17.9051 29.1021 19.1621 28.6831C20.4192 28.2641 21.6762 26.1691 21.6762 26.1691L19.0225 25.3311Z" fill="#FFB8B8"/>
<path d="M28.9392 22.1187C28.9392 22.1187 31.5929 22.5377 31.1739 24.2137C30.7549 25.8897 26.7045 29.3815 26.7045 29.3815L26.5648 30.2195L25.0284 30.4988L24.3301 29.8005L24.4697 29.3815C24.4697 29.3815 26.1458 27.8451 26.2854 27.2864C26.4251 26.7277 27.9615 24.493 28.6598 24.3534L27.6821 23.7947L28.9392 22.1187Z" fill="#FFB8B8"/>
<path d="M12.8772 32.5939C12.8772 32.5939 13.4359 31.7559 12.5979 31.8956C11.7599 32.0353 11.2012 32.1749 11.2012 32.7336C11.2012 33.2923 11.8995 37.203 12.7375 36.9237C13.5756 36.6443 12.8772 35.3873 12.8772 35.3873C12.8772 35.3873 13.2962 34.27 13.5756 34.1303C13.8549 33.9906 13.8549 33.2923 13.5756 33.2923C13.2962 33.2923 12.7375 32.8733 12.8772 32.5939Z" fill="#2F2E41"/>
<path d="M24.749 29.5213C24.749 29.5213 24.749 28.823 24.1903 29.5213C23.6316 30.2197 23.3523 30.7783 23.911 31.1973C24.4696 31.6164 26.425 32.594 26.425 32.594C26.425 32.594 28.5201 33.013 28.2407 32.0354C28.2407 32.0354 26.844 31.337 26.844 30.7783C26.844 30.2197 26.844 29.242 26.425 29.5213C26.006 29.8007 24.749 29.9403 24.749 29.5213Z" fill="#2F2E41"/>
<path d="M22.0948 19.0459C22.0948 19.0459 20.1394 19.3252 20.2791 22.1186C20.2791 22.1186 17.765 24.6327 18.4634 25.4707C19.1617 26.3087 20.6981 27.8451 21.2568 27.4261C21.8154 27.0071 23.4915 23.7947 23.4915 23.7947C23.4915 23.7947 27.4022 25.1914 28.1006 24.493C28.7989 23.7947 29.4973 22.1186 29.4973 22.1186L26.0055 20.3029L22.0948 19.0459Z" fill="#2F2E41"/>
<path d="M27.5422 11.085C28.4679 11.085 29.2183 10.3346 29.2183 9.40894C29.2183 8.4833 28.4679 7.73291 27.5422 7.73291C26.6166 7.73291 25.8662 8.4833 25.8662 9.40894C25.8662 10.3346 26.6166 11.085 27.5422 11.085Z" fill="#FFB8B8"/>
<path d="M26.2851 9.54883C26.2851 9.54883 25.3074 11.0852 25.0281 11.2249C24.7487 11.3645 26.9834 12.7612 26.9834 12.7612C26.9834 12.7612 26.9834 10.9455 27.6818 10.5265L26.2851 9.54883Z" fill="#FFB8B8"/>
<path d="M26.1454 11.0852C26.1454 11.0852 23.9107 10.3868 23.4917 11.5042C23.0727 12.6215 22.095 14.7166 22.2347 16.1133C22.3743 17.51 22.6537 17.2306 22.2347 17.6496C21.8157 18.0686 21.5363 17.7893 21.676 18.348C21.8156 18.9067 21.9553 18.9067 21.8156 19.186C21.676 19.4653 23.4917 20.443 25.028 20.5827L26.5644 20.7224C26.5644 20.7224 26.5644 18.2083 26.8437 17.6496C27.1231 17.091 27.6818 15.9736 27.6818 15.5546V14.4459C27.6818 13.708 27.4892 12.9829 27.1231 12.3422C27.1231 12.3422 26.2851 11.0852 26.1454 11.0852Z" fill="#4A7CE2"/>
<path d="M24.4695 11.6436C24.4695 11.6436 19.3017 12.0626 18.743 13.4593C18.1844 14.856 17.905 17.6493 18.4637 17.6493C19.0224 17.6493 19.7207 17.9287 19.8604 17.6493C20.0001 17.37 20.5587 14.5766 20.6984 14.5766C20.8381 14.5766 25.0282 14.1576 25.0282 14.1576C25.0282 14.1576 26.8439 11.9229 24.4695 11.6436Z" fill="#4A7CE2"/>
<path d="M27.6095 8.99365C27.6095 8.99365 28.0543 8.22072 28.6103 8.89208C29.1662 9.56344 30.0706 8.3297 29.9318 8.06645C29.793 7.80319 29.3026 8.07828 28.4624 7.80361C27.6222 7.52893 26.0036 6.96936 25.7325 8.7947C25.4614 10.62 26.107 10.4287 26.107 10.4287C26.107 10.4287 26.4029 8.81123 26.6704 9.27584L26.9379 9.74044L27.1699 9.79754L27.6095 8.99365Z" fill="#2F2E41"/>
<path opacity="0.3" d="M12.9322 26.8319C12.9322 25.2727 11.9668 24.0088 10.776 24.0088C10.0276 24.0088 9.36844 24.5083 8.98184 25.2664C8.84908 25.2216 8.70991 25.1987 8.56979 25.1986C8.20744 25.2048 7.86149 25.3508 7.60434 25.6062C7.25585 24.6609 6.51688 24.0088 5.66155 24.0088C4.86182 24.0088 4.16431 24.5793 3.79209 25.4261C3.57375 25.2795 3.31712 25.2004 3.05416 25.1986C2.1403 25.1986 1.39947 26.1686 1.39947 27.3652C1.3968 27.7688 1.48594 28.1677 1.66017 28.5318H12.4973C12.7879 28.0127 12.9378 27.4267 12.9322 26.8319Z" fill="#4A7CE2"/>
</svg>
