<svg viewBox="0 0 245 274" fill="none" xmlns="http://www.w3.org/2000/svg">
<path d="M136.558 95.1881C136.79 95.4111 137.003 95.6508 137.194 95.905L166.982 95.2232L170.457 89.2839L180.726 93.0177L175.666 104.091C175.257 104.986 174.549 105.732 173.649 106.219C172.748 106.705 171.702 106.905 170.67 106.788L137.015 102.985C136.221 103.925 135.14 104.617 133.916 104.968C132.692 105.32 131.382 105.314 130.161 104.952C128.94 104.59 127.866 103.889 127.081 102.943C126.297 101.996 125.839 100.848 125.769 99.6518C125.699 98.4557 126.02 97.2679 126.689 96.2465C127.358 95.2252 128.344 94.4185 129.515 93.934C130.686 93.4494 131.987 93.3099 133.246 93.5339C134.504 93.7579 135.659 94.3349 136.558 95.1881V95.1881Z" fill="#FFB7B7"/>
<path d="M233.662 264.392H223.868L219.208 229.056L233.663 229.057L233.662 264.392Z" fill="#FFB7B7"/>
<path d="M236.159 273.272L204.578 273.271V272.898C204.578 269.848 205.874 266.924 208.179 264.768C210.484 262.612 213.61 261.401 216.87 261.4H216.871L236.16 261.401L236.159 273.272Z" fill="#2F2E41"/>
<path d="M144.725 264.188L135.718 260.589L146.274 226.382L159.567 231.694L144.725 264.188Z" fill="#FFB7B7"/>
<path d="M143.293 273.272L114.25 261.667L114.407 261.324C115.688 258.52 118.107 256.306 121.133 255.171C124.158 254.035 127.542 254.07 130.54 255.267L130.541 255.268L148.279 262.355L143.293 273.272Z" fill="#2F2E41"/>
<path d="M186.054 102.843L185.346 113.578L206.049 115.65L227.711 117.818L221.335 101.518L186.054 102.843Z" fill="#FFB7B7"/>
<path d="M184.694 113.716L176.651 61.2736L190.592 57.0005L194.686 51.7485L214.61 52.8513L217.536 58.98L228.16 63.6754L226.527 92.0367L227.718 115.762L184.694 113.716Z" fill="#4A7CE2"/>
<path d="M179.632 99.6624L165.453 94.3561L165.513 94.1201C165.574 93.8822 171.609 70.294 172.41 66.5035C173.245 62.5544 176.295 61.4626 176.424 61.4182L176.519 61.3855L182.13 62.983L184.595 81.0948L179.632 99.6624Z" fill="#4A7CE2"/>
<path d="M152.02 257.978L133.145 254.357L163.313 176.497L173.638 149.94C173.638 149.94 180.186 128.647 183.145 120.406L184.93 109.35L227.197 113.726C227.197 113.726 239.002 129.942 235.416 156.372L237.038 255.715L218.163 256.62L202.353 156.428L174.605 211.353C174.605 211.353 165.86 234.791 159.602 239.871L152.02 257.978Z" fill="#2F2E41"/>
<path d="M210.247 117.413C210.579 117.406 210.912 117.423 211.241 117.465L230.96 96.5706L228.666 90.149L238.575 85.6445L243.817 96.6437C244.24 97.5323 244.344 98.5254 244.113 99.4739C243.882 100.422 243.328 101.275 242.534 101.904L216.671 122.401C216.868 123.585 216.675 124.797 216.118 125.875C215.561 126.954 214.666 127.848 213.553 128.44C212.439 129.031 211.159 129.291 209.883 129.186C208.607 129.08 207.396 128.614 206.411 127.849C205.425 127.083 204.712 126.056 204.367 124.902C204.021 123.749 204.059 122.524 204.475 121.391C204.892 120.259 205.667 119.271 206.698 118.561C207.729 117.85 208.967 117.45 210.247 117.413V117.413Z" fill="#FFB7B7"/>
<path d="M229.386 98.6041L221.161 80.5071L224.369 67.9016L227.825 63.817C228.079 63.7157 228.351 63.6647 228.627 63.6671C228.902 63.6695 229.174 63.7253 229.425 63.831C230.7 64.3109 231.786 65.7817 232.652 68.2027L240.361 88.7401L229.386 98.6041Z" fill="#4A7CE2"/>
<path d="M186.71 45.0428V31.3994C186.71 26.5506 188.77 21.9005 192.435 18.4719C196.101 15.0433 201.073 13.1172 206.257 13.1172C211.441 13.1172 216.412 15.0433 220.078 18.4719C223.744 21.9005 225.803 26.5506 225.803 31.3994V45.0428C225.802 45.6939 225.525 46.3181 225.033 46.7785C224.541 47.2389 223.874 47.4979 223.177 47.4986H189.336C188.64 47.4979 187.973 47.2389 187.48 46.7785C186.988 46.3181 186.711 45.6939 186.71 45.0428V45.0428Z" fill="#2F2E41"/>
<path d="M202.24 47.1812C210.154 47.1812 216.57 41.1801 216.57 33.7774C216.57 26.3746 210.154 20.3735 202.24 20.3735C194.325 20.3735 187.909 26.3746 187.909 33.7774C187.909 41.1801 194.325 47.1812 202.24 47.1812Z" fill="#FFB7B7"/>
<path d="M182.086 32.4908C182.091 28.6566 183.721 24.9806 186.62 22.2694C189.518 19.5582 193.449 18.0331 197.548 18.0288H200.465C204.565 18.0331 208.495 19.5582 211.394 22.2694C214.292 24.9806 215.923 28.6566 215.927 32.4908V32.7637H209.762L207.659 27.2562L207.239 32.7637H204.052L202.991 29.9849L202.779 32.7637H182.086L182.086 32.4908Z" fill="#2F2E41"/>
<path d="M200.83 49.0328C200.54 48.6662 200.367 48.2306 200.331 47.7761C200.295 47.3217 200.396 46.8668 200.624 46.464C203.716 40.964 208.044 30.8013 202.299 24.5338L201.886 24.0835H218.566V47.5064L203.413 50.007C203.26 50.0324 203.104 50.0453 202.949 50.0454C202.535 50.0454 202.127 49.9536 201.759 49.7776C201.39 49.6015 201.072 49.3463 200.83 49.0328V49.0328Z" fill="#2F2E41"/>
<path d="M6.25439 256.673L15.1057 259.632L31.5198 229.107L18.4557 224.74L6.25439 256.673Z" fill="#9F616A"/>
<path d="M0.929688 263.944L5.02911 253.216L22.461 259.043C25.4051 260.03 27.8102 262.07 29.1485 264.714C30.4869 267.358 30.6493 270.391 29.6002 273.147L29.471 273.484L0.929688 263.944Z" fill="#2F2E41"/>
<path d="M63.8135 264.862L73.2132 264.862L77.6855 230.95L63.812 230.951L63.8135 264.862Z" fill="#9F616A"/>
<path d="M61.4155 261.992L79.9271 261.991H79.9279C81.4771 261.991 83.0112 262.277 84.4425 262.831C85.8738 263.386 87.1743 264.198 88.2698 265.223C89.3653 266.248 90.2342 267.464 90.8271 268.803C91.42 270.141 91.7252 271.576 91.7252 273.025V273.384L61.4161 273.385L61.4155 261.992Z" fill="#2F2E41"/>
<path d="M42.3911 48.2087L46.4791 40.6533C46.4791 40.6533 61.7082 44.2221 63.0926 52.4776L42.3911 48.2087Z" fill="#F1F1F1"/>
<path d="M25.5235 134.598L36.6405 192.624L7.12158 241.451L24.7564 247.906L54.6589 200.575L58.4924 187.666L60.7923 255.077L76.6967 254.625L83.9882 191.68L72.2929 133.164L25.5235 134.598Z" fill="#2F2E41"/>
<path d="M46.6267 148.316C30.2947 148.316 19.9252 145.394 19.6929 145.348L19.3169 145.273L27.8237 108.383L28.2067 74.3553C28.2067 59.9355 38.3534 49.3045 39.7614 48.3234C39.9985 47.4481 40.437 46.6318 41.0462 45.9314C41.6555 45.231 42.4209 44.6635 43.289 44.2685C46.6735 42.8321 50.8094 44.5556 50.9835 44.6298L63.3973 48.9831L63.4557 49.1441C63.6053 49.5566 79.9559 99.7625 79.9559 99.7625C79.9559 99.7625 78.9664 143.629 78.6214 145.066C78.6214 145.066 55.7012 148.316 46.6267 148.316Z" fill="#3F3D56"/>
<path d="M59.1761 38.2744C68.4423 38.2744 75.9542 31.2484 75.9542 22.5814C75.9542 13.9144 68.4423 6.88843 59.1761 6.88843C49.9098 6.88843 42.3979 13.9144 42.3979 22.5814C42.3979 31.2484 49.9098 38.2744 59.1761 38.2744Z" fill="#9F616A"/>
<path opacity="0.2" d="M40.4688 77.1379L69.8221 115.444L74.1566 97.5554L40.4688 77.1379Z" fill="black"/>
<path d="M132.497 103.202C131.672 103.813 130.713 104.247 129.689 104.474C128.664 104.7 127.599 104.714 126.569 104.514C125.538 104.315 124.567 103.906 123.723 103.317C122.88 102.728 122.184 101.973 121.687 101.106L96.4214 104.888L101.895 93.5544L125.048 91.7001C126.661 91.0144 128.488 90.906 130.181 91.3955C131.874 91.8851 133.316 92.9386 134.235 94.3563C135.153 95.774 135.483 97.4576 135.163 99.0879C134.843 100.718 133.894 102.182 132.497 103.202H132.497Z" fill="#9F616A"/>
<path d="M103.196 92.9092L112.274 92.0764L114.79 103.921L103.366 104.11L103.196 92.9092Z" fill="#F1F1F1"/>
<path d="M110.638 108.048L66.1771 104.345L43.7273 70.9514L43.6582 70.6562C43.0211 67.9283 43.4672 65.0767 44.9133 62.6339C46.3594 60.1911 48.7066 58.324 51.5167 57.3813C54.3267 56.4386 57.4076 56.4847 60.184 57.511C62.9604 58.5373 65.2425 60.4736 66.6043 62.9584L79.7829 87.0018L106.38 90.7621L110.638 108.048Z" fill="#3F3D56"/>
<path d="M44.8848 36.2065L58.8108 36.674C59.6596 36.7025 61.9635 28.134 62.265 26.3565C62.5034 25.1992 63.1839 24.1627 64.1796 23.4405C65.1753 22.7183 66.418 22.3597 67.6756 22.4319C68.7181 22.524 71.3468 20.7024 74.0593 18.5454C79.209 14.4504 78.9411 6.75939 73.2841 3.2991C73.1295 3.20452 72.9777 3.11817 72.8288 3.04004C69.2601 1.17176 65.0853 0.544389 60.9959 0.496528C57.2888 0.453163 53.4765 0.889582 50.2106 2.53076C44.3555 5.47306 41.2394 11.9028 40.9657 18.1143C40.692 24.3258 42.821 30.3996 45.2369 36.1911" fill="#2F2E41"/>
</svg>
