<svg width="166" height="96" viewBox="0 0 166 96" fill="none" xmlns="http://www.w3.org/2000/svg">
<path d="M39.5246 12.2471L56.5728 41.7084C42.7401 50.3014 33.4125 65.4394 32.9643 82.7844H0C0 52.9555 15.8098 26.832 39.5246 12.2471Z" fill="#9BE17C"/>
<path d="M121.813 9.59306L104.738 39.1322C98.1514 35.9516 90.7993 34.1651 83.0006 34.1651C75.1753 34.1651 67.7701 35.9516 61.1832 39.1587L44.1084 9.64439C55.7035 3.49516 68.9304 0 83.0006 0C97.0176 0 110.246 3.46867 121.813 9.59306Z" fill="#F9D153"/>
<path d="M166 82.7843H133.038C132.59 65.4128 123.236 50.2218 109.35 41.6553L126.398 12.2205C150.164 26.7789 166 52.9289 166 82.7843Z" fill="#FE7E95"/>
<path d="M82.532 82.2426C86.5079 83.4436 90.6736 81.1892 91.8494 77.2016C93.0326 73.185 90.7672 68.9864 86.79 67.7865L83.5982 67.519L45.9996 64.579L80.5046 81.2671L82.532 82.2426Z" fill="#3A405A"/>
</svg>
