<svg viewBox="0 0 166 92" fill="none" xmlns="http://www.w3.org/2000/svg">
<path d="M39.5246 12.2472L56.5728 41.7085C42.7401 50.3015 33.4125 65.4395 32.9643 82.7845H0C0 52.9556 15.8098 26.8321 39.5246 12.2472Z" fill="#9BE17C"/>
<path d="M121.813 9.59306L104.738 39.1322C98.1514 35.9516 90.7993 34.1651 83.0006 34.1651C75.1753 34.1651 67.7701 35.9516 61.1832 39.1587L44.1084 9.64439C55.7035 3.49516 68.9304 0 83.0006 0C97.0176 0 110.246 3.46867 121.813 9.59306Z" fill="#F9D153"/>
<path d="M166 82.7844H133.038C132.59 65.4129 123.236 50.222 109.35 41.6554L126.398 12.2206C150.164 26.7791 166 52.929 166 82.7844Z" fill="#FE7E95"/>
<path d="M76.8296 80.8185C76.6766 84.969 79.9141 88.4265 84.0696 88.5521C88.255 88.6775 91.7414 85.4209 91.893 81.2695L91.3419 78.1143L84.6463 41L77.2587 78.61L76.8296 80.8185Z" fill="#3A405A"/>
</svg>
