<svg viewBox="0 0 215 215" fill="none" xmlns="http://www.w3.org/2000/svg">
<path d="M182.602 145.423C178.504 145.423 175.17 142.089 175.17 137.991V121C175.17 120.361 175.135 119.716 175.067 119.084C174.276 111.763 168.523 105.687 161.075 104.304C159.325 103.987 158.138 102.326 158.419 100.562C158.704 98.7736 151.893 95.9341 153.681 96.2179L162.177 97.8397C162.204 97.8439 163.652 98.1609 163.68 98.166C173.961 100.069 180.488 108.197 181.587 118.381C181.681 119.245 181.728 120.126 181.728 121V137.99C181.728 138.472 182.12 138.864 182.602 138.864C184.413 138.864 185.881 140.332 185.881 142.144C185.881 143.955 184.413 145.423 182.602 145.423Z" fill="#FFDC6C"/>
<path d="M158.666 159.137V211.251C158.666 213.322 160.344 215 162.415 215H165.96C168.031 215 169.71 213.322 169.71 211.251V159.765L158.666 159.137Z" fill="#FFB945"/>
<path d="M167.957 136.738V115.846L167.953 115.849C167.863 104.405 158.562 95.1548 147.097 95.1548C147.097 95.1548 128.196 95.2064 111.129 95.2178C95.5236 95.2283 81.874 84.718 77.894 69.629L63.4109 14.7238C63.3727 14.5793 63.2967 14.4462 63.1892 14.3421C57.8322 9.1577 49.2906 9.20474 43.9912 14.4823C43.9777 14.4958 43.9635 14.5088 43.9492 14.5205L30.363 25.7933C30.3357 25.816 30.3093 25.8399 30.2845 25.8651C27.7692 28.4414 29.59 32.7943 33.208 32.7943H50.5571C50.9594 32.7943 51.3008 33.0899 51.3583 33.4884L64.4464 124.308C64.4494 124.329 64.4531 124.35 64.4573 124.37C67.0357 136.402 73.754 139.453 95.3233 139.453H141.401C141.776 139.453 142.097 139.713 142.185 140.077C145.125 152.13 155.96 161.089 168.905 161.149C168.991 161.15 169.077 161.164 169.159 161.193L169.165 161.195C169.49 161.308 169.709 161.615 169.709 161.959V210.442C169.709 212.959 171.749 215 174.267 215H176.385C178.903 215 180.944 212.959 180.944 210.442V150.51C180.944 150.084 180.613 149.729 180.188 149.705C173.368 149.313 167.957 143.658 167.957 136.738Z" fill="#FFDC6C"/>
<path d="M180.189 149.705C173.368 149.313 167.957 143.658 167.957 136.738V115.846L167.952 115.849C167.863 104.405 158.562 95.1544 147.097 95.1544C147.097 95.1544 144.672 95.1611 140.776 95.1699C151.953 95.4978 160.923 104.613 161.011 115.849L161.015 115.845V136.738C161.015 142.004 164.149 146.538 168.654 148.576C171.909 150.049 174.003 153.286 174.003 156.859V210.441C174.003 212.072 173.144 213.498 171.856 214.304C172.556 214.742 173.381 214.999 174.268 214.999H176.386C178.904 214.999 180.944 212.958 180.944 210.441V150.51C180.945 150.084 180.614 149.729 180.189 149.705Z" fill="#FFD169"/>
<path d="M56.248 14.3421C56.3551 14.4458 56.4315 14.5793 56.4697 14.7234L70.9524 69.6286C74.9324 84.7176 88.582 95.2274 104.187 95.2169C106.384 95.2157 108.611 95.2131 110.824 95.2106C95.3465 95.0846 81.8481 84.6185 77.8937 69.6281L63.411 14.7238C63.3728 14.5793 63.2968 14.4462 63.1893 14.3425C59.6326 10.9004 54.6725 9.76701 50.189 10.9369C52.3994 11.513 54.4948 12.6456 56.248 14.3421Z" fill="#FFD169"/>
<path d="M74.6831 131.428L80.5868 211.251C80.5868 213.322 82.2652 215 84.3359 215H88.2806C90.3512 215 92.0297 213.322 92.0297 211.251V131.428H74.6831Z" fill="#FFDC6C"/>
<path d="M92.0292 134.188C88.6039 134.188 85.8273 136.965 85.8273 140.39V211.251C85.8273 212.928 84.7259 214.347 83.207 214.826C83.5635 214.938 83.9423 215 84.3358 215H88.2805C90.3512 215 92.0296 213.321 92.0296 211.251L92.0292 134.188Z" fill="#FFD169"/>
<path d="M38.9051 32.7943C39.5774 31.6143 39.9637 30.2499 39.9637 28.7949C39.9637 25.6216 38.1358 22.8765 35.476 21.5508L30.3227 25.8269C27.7515 28.3981 29.5727 32.7943 33.2088 32.7943H38.9051Z" fill="#FFB945"/>
<path d="M49.6558 23.2104C51.3355 23.2104 52.6972 21.8486 52.6972 20.1689C52.6972 18.4891 51.3355 17.1274 49.6558 17.1274C47.976 17.1274 46.6143 18.4891 46.6143 20.1689C46.6143 21.8486 47.976 23.2104 49.6558 23.2104Z" fill="#555566"/>
<path d="M60.3058 5.56185C59.7809 3.23675 57.5834 1.27361 56.3833 0.280076C56.018 -0.0222676 55.5136 -0.0860957 55.0866 0.119246C54.1069 0.590818 52.7673 1.45124 51.513 3.62433C49.5453 7.03326 50.6946 11.1573 51.2951 12.774C51.4433 13.1734 51.7826 13.4681 52.1984 13.5597L57.5742 14.7455C58.1121 14.8644 58.6685 14.6204 58.9335 14.1375C59.7742 12.6069 61.1267 9.19922 60.3058 5.56185Z" fill="#FFB945"/>
<path d="M63.0625 45.1836C63.3523 46.558 64.4516 47.6166 65.8361 47.8535L72.4289 48.9096L67.5297 30.336L62.5296 36.8771C61.9237 37.6699 61.6936 38.6878 61.8993 39.6641L63.0625 45.1836Z" fill="#D17461"/>
<path d="M57.5917 76.7387L66.1182 71.511C67.053 70.9379 67.4867 69.8087 67.176 68.7576L65.4333 62.8619C65.2078 62.0985 64.6216 61.4946 63.8657 61.2461L54.9365 58.3112L57.5917 76.7387Z" fill="#D17461"/>
<path d="M103.407 103.525L105.972 94.9128L106.008 94.8318C101.577 94.1687 97.3868 92.66 93.6377 90.4436L93.4916 90.5948L91.5175 99.199C91.2681 100.285 91.8346 101.394 92.8608 101.829L100.307 104.985C101.569 105.52 103.015 104.839 103.407 103.525Z" fill="#D17461"/>
<path d="M73.1097 91.2427L78.8639 93.0009C79.9078 93.3201 81.0412 92.9829 81.7412 92.1447L87.1036 85.7241L87.2254 85.5511C83.9773 82.4101 81.336 78.6144 79.5135 74.3333L79.4317 74.3547L69.6638 81.0361C68.541 81.8041 68.1601 83.2848 68.7723 84.4992L71.4792 89.8679C71.8122 90.5297 72.4013 91.0265 73.1097 91.2427Z" fill="#D17461"/>
<path d="M156.282 111.484L153.799 119.821C153.565 120.607 152.698 121.015 151.943 120.695L142.836 116.835C142.221 116.575 141.882 115.911 142.032 115.26L143.835 107.398C144.018 106.599 144.853 106.137 145.627 106.404L155.413 109.791C156.11 110.031 156.493 110.778 156.282 111.484Z" fill="#D17461"/>
<path d="M76.8995 102.053H81.9301C82.9484 102.053 83.8693 102.658 84.2737 103.593L86.9537 109.79C87.4009 110.824 87.1174 112.029 86.2566 112.755L81.3826 116.868C80.3357 117.751 78.7782 117.651 77.8531 116.641L73.0673 111.415C72.4139 110.702 72.2199 109.68 72.5663 108.777L74.5156 103.693C74.8939 102.705 75.8421 102.053 76.8995 102.053Z" fill="#D17461"/>
<path d="M112.98 110.25H118.33C119.254 110.25 120.089 110.799 120.456 111.647L123.268 118.15C123.673 119.088 123.416 120.18 122.636 120.839L117.452 125.213C116.503 126.014 115.09 125.923 114.251 125.007L109.212 119.505C108.62 118.858 108.444 117.931 108.758 117.112L110.819 111.737C111.162 110.842 112.022 110.25 112.98 110.25Z" fill="#D17461"/>
<path d="M127.716 95.2269H134.599L137.694 102.384C137.836 102.712 137.746 103.094 137.473 103.324L131.859 108.061C131.528 108.341 131.034 108.309 130.74 107.989L125.497 102.264C125.29 102.037 125.228 101.713 125.338 101.427L127.716 95.2269Z" fill="#D17461"/>
<path d="M94.7761 113.566C96.6074 113.566 98.0919 112.082 98.0919 110.25C98.0919 108.419 96.6074 106.935 94.7761 106.935C92.9449 106.935 91.4604 108.419 91.4604 110.25C91.4604 112.082 92.9449 113.566 94.7761 113.566Z" fill="#D17461"/>
<path d="M99.366 123.439C101.197 123.439 102.682 121.954 102.682 120.123C102.682 118.292 101.197 116.807 99.366 116.807C97.5348 116.807 96.0503 118.292 96.0503 120.123C96.0503 121.954 97.5348 123.439 99.366 123.439Z" fill="#D17461"/>
<path d="M114.916 106.255C116.747 106.255 118.232 104.771 118.232 102.94C118.232 101.108 116.747 99.624 114.916 99.624C113.085 99.624 111.6 101.108 111.6 102.94C111.6 104.771 113.085 106.255 114.916 106.255Z" fill="#D17461"/>
<path d="M144.323 104.391C146.154 104.391 147.639 102.906 147.639 101.075C147.639 99.244 146.154 97.7595 144.323 97.7595C142.492 97.7595 141.007 99.244 141.007 101.075C141.007 102.906 142.492 104.391 144.323 104.391Z" fill="#D17461"/>
<path d="M158.667 128.243C160.498 128.243 161.983 126.758 161.983 124.927C161.983 123.096 160.498 121.611 158.667 121.611C156.836 121.611 155.352 123.096 155.352 124.927C155.352 126.758 156.836 128.243 158.667 128.243Z" fill="#D17461"/>
<path d="M67.2757 100.427C69.1069 100.427 70.5914 98.9423 70.5914 97.1111C70.5914 95.2799 69.1069 93.7954 67.2757 93.7954C65.4445 93.7954 63.96 95.2799 63.96 97.1111C63.96 98.9423 65.4445 100.427 67.2757 100.427Z" fill="#D17461"/>
<path d="M132.619 120.125C134.451 120.125 135.935 118.641 135.935 116.81C135.935 114.978 134.451 113.494 132.619 113.494C130.788 113.494 129.304 114.978 129.304 116.81C129.304 118.641 130.788 120.125 132.619 120.125Z" fill="#D17461"/>
<path d="M150.366 139.908C152.197 139.908 153.681 138.423 153.681 136.592C153.681 134.761 152.197 133.276 150.366 133.276C148.534 133.276 147.05 134.761 147.05 136.592C147.05 138.423 148.534 139.908 150.366 139.908Z" fill="#D17461"/>
<path d="M155.35 106.936C157.181 106.936 158.666 105.451 158.666 103.62C158.666 101.789 157.181 100.304 155.35 100.304C153.519 100.304 152.034 101.789 152.034 103.62C152.034 105.451 153.519 106.936 155.35 106.936Z" fill="#D17461"/>
<path d="M141.077 128.243C142.908 128.243 144.393 126.758 144.393 124.927C144.393 123.096 142.908 121.611 141.077 121.611C139.246 121.611 137.761 123.096 137.761 124.927C137.761 126.758 139.246 128.243 141.077 128.243Z" fill="#D17461"/>
<path d="M126.774 133.277C128.605 133.277 130.09 131.793 130.09 129.962C130.09 128.13 128.605 126.646 126.774 126.646C124.943 126.646 123.458 128.13 123.458 129.962C123.458 131.793 124.943 133.277 126.774 133.277Z" fill="#D17461"/>
<path d="M103.439 133.277C105.27 133.277 106.755 131.793 106.755 129.962C106.755 128.13 105.27 126.646 103.439 126.646C101.608 126.646 100.124 128.13 100.124 129.962C100.124 131.793 101.608 133.277 103.439 133.277Z" fill="#D17461"/>
<path d="M86.3064 129.074C88.1376 129.074 89.6221 127.589 89.6221 125.758C89.6221 123.927 88.1376 122.443 86.3064 122.443C84.4752 122.443 82.9907 123.927 82.9907 125.758C82.9907 127.589 84.4752 129.074 86.3064 129.074Z" fill="#D17461"/>
<path d="M141.402 139.453H92.0293V134.188H136.137C139.045 134.188 141.402 136.545 141.402 139.453Z" fill="#FFEDBB"/>
</svg>
