<svg width="324" height="214" viewBox="0 0 324 214" fill="none" xmlns="http://www.w3.org/2000/svg">
<g clip-path="url(#clip0)">
<path d="M133.543 4.36696C131.756 2.60659 129.546 1.31495 127.118 0.610644C124.689 -0.0936611 122.119 -0.188057 119.644 0.336124C117.169 0.860305 114.867 1.98626 112.951 3.6106C111.035 5.23494 109.565 7.3056 108.677 9.63244L136.439 8.37038C135.708 6.88701 134.729 5.53393 133.543 4.36696Z" fill="#F2F2F2"/>
<path d="M130.319 73.8931C142.917 73.8931 153.129 63.8731 153.129 51.5129C153.129 39.1527 142.917 29.1327 130.319 29.1327C117.721 29.1327 107.508 39.1527 107.508 51.5129C107.508 63.8731 117.721 73.8931 130.319 73.8931Z" fill="#4A7CE2"/>
<path d="M102.335 144.457L75.5412 118.554L68.8966 112.13L49.064 92.9579L24.4793 118.707L0 144.349" fill="#F2F2F2"/>
<path d="M234.288 144.613H53.1273L75.5412 120.775L116.953 73.1184L119.744 69.9069L157.203 26.7965L183.123 67.074L183.802 68.1282L216.777 119.362L234.288 144.613Z" fill="#F2F2F2"/>
<path d="M324 144.457L279.253 92.6553L257.317 67.262L236.116 93.3433L216.777 117.141L194.66 144.349" fill="#F2F2F2"/>
<path opacity="0.1" d="M68.8966 112.13L57.0899 119.897L43.1502 114.509L24.4793 118.707L49.0641 92.9579L68.8966 112.13Z" fill="black"/>
<path opacity="0.1" d="M183.123 67.074L179.168 73.8919L170.3 64.7764L160.583 73.8919L155.091 63.5329L146.219 73.8919L143.684 67.2633L137.773 73.8919L127.212 67.2633L119.744 69.9069L157.203 26.7965L183.123 67.074Z" fill="black"/>
<path opacity="0.1" d="M279.253 92.6553L268.3 105.805L259.429 95.4445L245.912 106.22L236.116 93.3433L257.317 67.262L279.253 92.6553Z" fill="black"/>
<path d="M279.388 144.959L278.797 144.659C286.475 130.095 282.369 111.182 277.573 97.8799C274.316 88.9391 270.162 80.3378 265.173 72.2027L265.735 71.854C270.751 80.0305 274.926 88.6755 278.2 97.6619C283.04 111.086 287.175 130.188 279.388 144.959Z" fill="#2F2E41"/>
<path d="M285.083 71.9707L280.767 95.1445L281.421 95.2618L285.737 72.088L285.083 71.9707Z" fill="#2F2E41"/>
<path d="M256.383 91.7146L255.896 92.1594L278.183 115.658L278.671 115.213L256.383 91.7146Z" fill="#2F2E41"/>
<path d="M296.45 117.527L285.146 132.87L285.685 133.253L296.99 117.91L296.45 117.527Z" fill="#2F2E41"/>
<path d="M287.076 65.8273C288.913 65.8273 290.402 64.3661 290.402 62.5636C290.402 60.7611 288.913 59.2999 287.076 59.2999C285.239 59.2999 283.75 60.7611 283.75 62.5636C283.75 64.3661 285.239 65.8273 287.076 65.8273Z" fill="#4A7CE2"/>
<path d="M250.817 90.958C252.654 90.958 254.144 89.4968 254.144 87.6943C254.144 85.8918 252.654 84.4305 250.817 84.4305C248.98 84.4305 247.491 85.8918 247.491 87.6943C247.491 89.4968 248.98 90.958 250.817 90.958Z" fill="#3F3D56"/>
<path d="M265.454 94.2217C267.291 94.2217 268.78 92.7604 268.78 90.9579C268.78 89.1554 267.291 87.6942 265.454 87.6942C263.617 87.6942 262.127 89.1554 262.127 90.9579C262.127 92.7604 263.617 94.2217 265.454 94.2217Z" fill="#3F3D56"/>
<path d="M258.801 106.95C260.638 106.95 262.127 105.489 262.127 103.686C262.127 101.884 260.638 100.423 258.801 100.423C256.964 100.423 255.474 101.884 255.474 103.686C255.474 105.489 256.964 106.95 258.801 106.95Z" fill="#4A7CE2"/>
<path d="M300.382 115.109C302.219 115.109 303.708 113.648 303.708 111.846C303.708 110.043 302.219 108.582 300.382 108.582C298.545 108.582 297.055 110.043 297.055 111.846C297.055 113.648 298.545 115.109 300.382 115.109Z" fill="#3F3D56"/>
<path d="M289.404 118.7C291.242 118.7 292.731 117.238 292.731 115.436C292.731 113.633 291.242 112.172 289.404 112.172C287.567 112.172 286.078 113.633 286.078 115.436C286.078 117.238 287.567 118.7 289.404 118.7Z" fill="#3F3D56"/>
<path d="M297.055 129.143C298.893 129.143 300.382 127.682 300.382 125.88C300.382 124.077 298.893 122.616 297.055 122.616C295.218 122.616 293.729 124.077 293.729 125.88C293.729 127.682 295.218 129.143 297.055 129.143Z" fill="#3F3D56"/>
<path d="M262.127 69.7438C263.964 69.7438 265.454 68.2825 265.454 66.48C265.454 64.6775 263.964 63.2163 262.127 63.2163C260.29 63.2163 258.801 64.6775 258.801 66.48C258.801 68.2825 260.29 69.7438 262.127 69.7438Z" fill="#3F3D56"/>
<path d="M196.558 144.306L195.967 144.007C203.645 129.443 199.54 110.529 194.744 97.2272C191.487 88.2864 187.333 79.6851 182.343 71.55L182.905 71.2013C187.921 79.3778 192.097 88.0228 195.37 97.0092C200.211 110.433 204.346 129.535 196.558 144.306Z" fill="#2F2E41"/>
<path d="M202.253 71.3176L197.937 94.4915L198.591 94.6087L202.907 71.4349L202.253 71.3176Z" fill="#2F2E41"/>
<path d="M173.554 91.0619L173.066 91.5067L195.354 115.006L195.841 114.561L173.554 91.0619Z" fill="#2F2E41"/>
<path d="M213.621 116.875L202.316 132.218L202.855 132.6L214.16 117.257L213.621 116.875Z" fill="#2F2E41"/>
<path d="M204.246 65.1747C206.084 65.1747 207.573 63.7134 207.573 61.9109C207.573 60.1084 206.084 58.6472 204.246 58.6472C202.409 58.6472 200.92 60.1084 200.92 61.9109C200.92 63.7134 202.409 65.1747 204.246 65.1747Z" fill="#3F3D56"/>
<path d="M167.988 90.3053C169.825 90.3053 171.314 88.844 171.314 87.0415C171.314 85.239 169.825 83.7778 167.988 83.7778C166.151 83.7778 164.661 85.239 164.661 87.0415C164.661 88.844 166.151 90.3053 167.988 90.3053Z" fill="#3F3D56"/>
<path d="M182.624 93.5689C184.461 93.5689 185.951 92.1077 185.951 90.3052C185.951 88.5027 184.461 87.0415 182.624 87.0415C180.787 87.0415 179.298 88.5027 179.298 90.3052C179.298 92.1077 180.787 93.5689 182.624 93.5689Z" fill="#3F3D56"/>
<path d="M175.971 106.297C177.808 106.297 179.298 104.836 179.298 103.034C179.298 101.231 177.808 99.77 175.971 99.77C174.134 99.77 172.645 101.231 172.645 103.034C172.645 104.836 174.134 106.297 175.971 106.297Z" fill="#3F3D56"/>
<path d="M217.552 114.457C219.39 114.457 220.879 112.996 220.879 111.193C220.879 109.391 219.39 107.929 217.552 107.929C215.715 107.929 214.226 109.391 214.226 111.193C214.226 112.996 215.715 114.457 217.552 114.457Z" fill="#4A7CE2"/>
<path d="M206.575 118.047C208.412 118.047 209.901 116.585 209.901 114.783C209.901 112.98 208.412 111.519 206.575 111.519C204.738 111.519 203.248 112.98 203.248 114.783C203.248 116.585 204.738 118.047 206.575 118.047Z" fill="#3F3D56"/>
<path d="M214.226 128.491C216.063 128.491 217.552 127.029 217.552 125.227C217.552 123.424 216.063 121.963 214.226 121.963C212.389 121.963 210.899 123.424 210.899 125.227C210.899 127.029 212.389 128.491 214.226 128.491Z" fill="#3F3D56"/>
<path d="M179.298 69.091C181.135 69.091 182.624 67.6298 182.624 65.8273C182.624 64.0248 181.135 62.5636 179.298 62.5636C177.461 62.5636 175.971 64.0248 175.971 65.8273C175.971 67.6298 177.461 69.091 179.298 69.091Z" fill="#3F3D56"/>
<path d="M57.5853 144.306L58.1765 144.007C50.4983 129.443 54.6041 110.529 59.4003 97.2272C62.657 88.2864 66.8108 79.6851 71.8007 71.55L71.2384 71.2013C66.2226 79.3778 62.0471 88.0228 58.7733 97.0092C53.933 110.433 49.7983 129.535 57.5853 144.306Z" fill="#2F2E41"/>
<path d="M51.892 71.3162L51.2378 71.4335L55.5536 94.6074L56.2078 94.4901L51.892 71.3162Z" fill="#2F2E41"/>
<path d="M80.59 91.0618L58.3026 114.561L58.7899 115.005L81.0772 91.5067L80.59 91.0618Z" fill="#2F2E41"/>
<path d="M40.5228 116.874L39.9836 117.257L51.2883 132.6L51.8276 132.218L40.5228 116.874Z" fill="#2F2E41"/>
<path d="M49.8973 65.1747C51.7345 65.1747 53.2238 63.7134 53.2238 61.9109C53.2238 60.1084 51.7345 58.6472 49.8973 58.6472C48.0602 58.6472 46.5709 60.1084 46.5709 61.9109C46.5709 63.7134 48.0602 65.1747 49.8973 65.1747Z" fill="#3F3D56"/>
<path d="M86.1561 90.3053C87.9932 90.3053 89.4826 88.844 89.4826 87.0415C89.4826 85.239 87.9932 83.7778 86.1561 83.7778C84.3189 83.7778 82.8296 85.239 82.8296 87.0415C82.8296 88.844 84.3189 90.3053 86.1561 90.3053Z" fill="#3F3D56"/>
<path d="M71.5195 93.5689C73.3567 93.5689 74.846 92.1077 74.846 90.3052C74.846 88.5027 73.3567 87.0415 71.5195 87.0415C69.6823 87.0415 68.193 88.5027 68.193 90.3052C68.193 92.1077 69.6823 93.5689 71.5195 93.5689Z" fill="#3F3D56"/>
<path d="M78.1725 106.297C80.0097 106.297 81.499 104.836 81.499 103.034C81.499 101.231 80.0097 99.77 78.1725 99.77C76.3353 99.77 74.846 101.231 74.846 103.034C74.846 104.836 76.3353 106.297 78.1725 106.297Z" fill="#3F3D56"/>
<path d="M36.5914 114.457C38.4286 114.457 39.9179 112.996 39.9179 111.193C39.9179 109.391 38.4286 107.929 36.5914 107.929C34.7542 107.929 33.2649 109.391 33.2649 111.193C33.2649 112.996 34.7542 114.457 36.5914 114.457Z" fill="#3F3D56"/>
<path d="M47.5688 118.047C49.406 118.047 50.8953 116.585 50.8953 114.783C50.8953 112.98 49.406 111.519 47.5688 111.519C45.7316 111.519 44.2423 112.98 44.2423 114.783C44.2423 116.585 45.7316 118.047 47.5688 118.047Z" fill="#3F3D56"/>
<path d="M39.9179 128.491C41.755 128.491 43.2443 127.029 43.2443 125.227C43.2443 123.424 41.755 121.963 39.9179 121.963C38.0807 121.963 36.5914 123.424 36.5914 125.227C36.5914 127.029 38.0807 128.491 39.9179 128.491Z" fill="#4A7CE2"/>
<path d="M74.846 69.091C76.6832 69.091 78.1725 67.6298 78.1725 65.8273C78.1725 64.0248 76.6832 62.5636 74.846 62.5636C73.0088 62.5636 71.5195 64.0248 71.5195 65.8273C71.5195 67.6298 73.0088 69.091 74.846 69.091Z" fill="#3F3D56"/>
<path d="M324 144.156H0V144.809H324V144.156Z" fill="#2F2E41"/>
<path d="M143.042 141.035C145.253 141.035 147.045 139.276 147.045 137.107C147.045 134.938 145.253 133.18 143.042 133.18C140.832 133.18 139.039 134.938 139.039 137.107C139.039 139.276 140.832 141.035 143.042 141.035Z" fill="#2F2E41"/>
<path d="M140.881 140.092C140.881 140.092 140.961 141.506 140 141.663L141.361 144.884L143.042 147.554H144.484L145.364 146.769L145.204 145.748L144.724 143.941L144.163 143.391C144.163 143.391 144.243 141.113 144.964 140.092C145.684 139.071 140.881 140.092 140.881 140.092Z" fill="#FFB8B8"/>
<path opacity="0.1" d="M140.881 140.092C140.881 140.092 140.961 141.506 140 141.663L141.361 144.884L143.042 147.554H144.484L145.364 146.769L145.204 145.748L144.724 143.941L144.163 143.391C144.163 143.391 144.243 141.113 144.964 140.092C145.684 139.071 140.881 140.092 140.881 140.092Z" fill="black"/>
<path d="M144.163 135.222C145.224 135.222 146.085 134.378 146.085 133.337C146.085 132.296 145.224 131.452 144.163 131.452C143.102 131.452 142.242 132.296 142.242 133.337C142.242 134.378 143.102 135.222 144.163 135.222Z" fill="#2F2E41"/>
<path d="M142.322 132.551C142.322 132.304 142.372 132.059 142.468 131.83C142.565 131.601 142.706 131.393 142.885 131.218C143.063 131.043 143.275 130.904 143.508 130.81C143.741 130.715 143.991 130.666 144.243 130.666C144.269 130.666 144.294 130.667 144.319 130.668C144.058 130.591 143.783 130.569 143.512 130.604C143.242 130.638 142.982 130.73 142.75 130.871C142.518 131.012 142.319 131.2 142.167 131.422C142.015 131.645 141.913 131.896 141.868 132.16C141.823 132.424 141.836 132.695 141.905 132.954C141.975 133.213 142.1 133.454 142.272 133.662C142.444 133.869 142.66 134.039 142.904 134.158C143.148 134.278 143.415 134.346 143.688 134.356C143.293 134.239 142.947 134 142.701 133.675C142.455 133.35 142.322 132.956 142.322 132.551Z" fill="#2F2E41"/>
<path d="M140.401 141.742L139.6 141.663C139.377 141.6 139.141 141.596 138.916 141.651C138.691 141.706 138.485 141.819 138.319 141.977C137.759 142.527 138.399 148.733 138.399 148.733L140.401 147.397L140.721 144.255L140.401 141.742Z" fill="#FFB8B8"/>
<path d="M136.478 166.092L135.357 172.297C135.357 172.297 134.636 174.889 133.755 175.675C132.875 176.46 131.514 182.98 131.194 184.394C130.873 185.808 130.793 186.593 130.393 187.143C129.993 187.693 130.393 189.657 130.393 189.657H131.274L132.555 189.421C132.555 189.421 132.795 186.436 133.035 185.886C133.275 185.337 137.198 177.089 137.198 177.089C137.198 177.089 139.84 173.24 140.32 171.119C140.684 169.699 141.278 168.347 142.082 167.113L136.478 166.092Z" fill="#FFB8B8"/>
<path d="M144.564 165.778L145.604 172.926C145.604 172.926 145.604 175.125 145.925 175.989C146.245 176.853 146.485 181.959 146.805 183.137C147.125 184.315 147.846 186.908 147.606 187.222C147.325 187.726 147.084 188.252 146.885 188.793L147.686 190.521L149.848 189.028L149.527 176.146C149.527 176.146 150.408 165.228 149.848 164.914C149.287 164.6 146.485 163.657 144.564 165.778Z" fill="#FFB8B8"/>
<path d="M138.399 158.08L136.798 162.4C136.798 162.4 135.597 166.956 136.237 167.192C136.878 167.427 144.163 168.448 144.323 167.584C144.397 167.247 144.45 166.906 144.484 166.563C144.484 166.563 150.728 166.799 150.808 165.385C150.812 163.469 150.705 161.555 150.488 159.651C150.411 159.328 150.228 159.038 149.968 158.826C149.708 158.613 149.385 158.489 149.047 158.473C148.166 158.473 140.561 156.509 138.399 158.08Z" fill="#2F2E41"/>
<path d="M130.553 188.714C130.628 188.601 130.746 188.521 130.881 188.491C131.015 188.462 131.156 188.486 131.274 188.557C131.754 188.793 132.715 188.714 132.715 188.714L132.475 190.835C132.475 190.835 133.435 194.605 131.674 194.605C129.913 194.605 128.952 193.349 129.112 192.877C129.272 192.406 129.672 188.714 129.672 188.714C129.672 188.714 130.442 186.86 130.473 186.751C130.504 186.641 130.553 188.714 130.553 188.714Z" fill="#2F2E41"/>
<path d="M147.286 188.321C147.286 188.321 147.126 189.186 147.846 189.107C148.567 189.028 149.768 188.321 149.848 188.4C150.053 188.793 150.189 189.219 150.248 189.657C150.328 190.207 150.488 191.385 151.209 191.935C151.929 192.485 153.05 194.213 151.769 194.291C150.488 194.37 148.166 194.291 148.086 193.506C148.006 192.72 148.006 191.856 148.006 191.856C148.006 191.856 147.286 191.935 147.046 191.778C146.805 191.621 145.204 190.678 145.684 189.421C146.165 188.164 147.52 187.354 147.52 187.354L147.286 188.321Z" fill="#2F2E41"/>
<path d="M142.722 141.27C144.447 141.27 145.844 139.899 145.844 138.207C145.844 136.515 144.447 135.143 142.722 135.143C140.998 135.143 139.6 136.515 139.6 138.207C139.6 139.899 140.998 141.27 142.722 141.27Z" fill="#FFB8B8"/>
<path d="M144.403 143.941C144.403 143.941 145.845 143.941 146.165 144.727C146.485 145.512 145.845 147.162 145.845 147.162L145.114 145.411L144.403 143.941Z" fill="#FFB8B8"/>
<path d="M139.2 141.585H140.16C140.16 141.585 142.642 145.198 143.042 145.512C143.443 145.826 144.884 145.905 144.884 145.669C144.884 145.434 144.163 143.391 144.163 143.391L144.804 143.863L145.845 146.376C145.845 146.376 148.647 153.288 148.406 153.995C148.367 154.083 148.345 154.177 148.344 154.273C148.343 154.368 148.361 154.463 148.399 154.552C148.436 154.64 148.492 154.72 148.562 154.786C148.632 154.853 148.715 154.904 148.807 154.938C148.887 155.017 149.767 156.823 149.367 157.53C148.967 158.237 149.767 159.101 149.767 159.101C149.767 159.101 150.168 160.829 148.807 161.065C147.446 161.3 146.725 160.044 145.124 160.672C143.523 161.3 141.361 161.379 140.881 160.436C140.537 159.723 140.243 158.989 140 158.237C140 158.237 139.12 159.729 139.52 160.908C139.92 162.086 139.36 160.829 138.959 160.829C138.559 160.829 137.839 160.751 137.839 160.279C137.839 159.808 136.237 151.875 136.237 151.875L138.479 146.847C138.479 146.847 140.561 145.905 140.32 144.805C140.08 143.705 140.4 142.134 139.2 141.585Z" fill="#3F3D56"/>
<path d="M139.461 142.084C139.263 141.909 139.017 141.792 138.754 141.749C138.49 141.706 138.219 141.738 137.974 141.841C137.49 142.044 137.061 142.353 136.718 142.744C136.376 143.136 136.129 143.599 135.997 144.098C135.277 146.376 133.755 152.424 134.076 153.917C134.396 155.409 137.038 162.086 137.038 162.086C137.112 162.693 137.219 163.296 137.358 163.893C137.438 163.971 138.639 161.065 138.639 161.065L136.558 153.288L139.36 144.884C139.36 144.884 140.5 143.038 139.461 142.084Z" fill="#FFB8B8"/>
<path d="M143.002 137.579C144.705 137.579 146.085 136.699 146.085 135.615C146.085 134.53 144.705 133.651 143.002 133.651C141.3 133.651 139.92 134.53 139.92 135.615C139.92 136.699 141.3 137.579 143.002 137.579Z" fill="#2F2E41"/>
<path d="M74.7106 144.014C74.7106 144.014 69.3481 146.847 69.1418 149.275C68.9356 151.704 65.8418 157.774 65.8418 157.774C65.8418 157.774 53.673 154.334 53.4668 154.132C53.2605 153.929 52.4355 157.774 52.4355 157.774L56.7668 158.381L64.8106 161.214C64.8106 161.214 66.6668 163.845 69.7606 160.203C72.8543 156.56 80.6919 148.668 80.6919 148.668L74.7106 144.014Z" fill="#2F2E41"/>
<path d="M73.6794 153.929C73.6794 153.929 80.4856 160.405 80.2794 161.821C80.0731 163.238 76.9794 174.772 76.9794 174.772L79.4544 175.987L81.1044 174.975L84.4044 161.012C84.4044 161.012 85.6466 159.302 83.2724 157.324C80.8981 155.346 79.2481 148.466 79.2481 148.466L73.6794 153.929Z" fill="#2F2E41"/>
<path d="M92.9638 141.08C94.9002 141.08 96.47 139.539 96.47 137.64C96.47 135.74 94.9002 134.199 92.9638 134.199C91.0273 134.199 89.4575 135.74 89.4575 137.64C89.4575 139.539 91.0273 141.08 92.9638 141.08Z" fill="#A0616A"/>
<path d="M90.5919 137.134C90.5919 137.134 87.0857 135.515 86.6732 135.92C86.2607 136.324 87.4982 141.181 87.4982 141.181C87.4982 141.181 90.7982 139.36 91.2107 139.36C91.6232 139.36 90.5919 137.134 90.5919 137.134Z" fill="#A0616A"/>
<path d="M88.5294 139.36C88.5294 139.36 87.4982 135.312 87.0857 135.312C86.6732 135.312 82.7544 135.92 80.2794 138.753C77.8044 141.586 75.1231 143.204 74.2981 143.812C73.4731 144.419 72.8544 145.026 74.2981 145.633C75.7419 146.24 77.3919 147.859 78.0106 148.871C78.6294 149.882 82.7544 148.668 82.7544 148.668C82.7544 148.668 84.6107 145.228 85.2294 145.228C85.8482 145.228 89.1482 140.574 88.5294 139.36Z" fill="#4A7CE2"/>
<path d="M82.3419 143.812C82.3419 143.812 79.4544 147.656 79.4544 150.489C79.4544 153.322 81.1044 157.977 81.1044 157.977C81.1044 157.977 82.5482 164.857 83.7857 162.428C85.0232 160 82.9607 156.762 82.9607 156.762L82.1357 149.478L83.7857 145.633L82.3419 143.812Z" fill="#A0616A"/>
<path d="M54.1164 154.365C54.1164 154.365 51.8168 152.715 51.6105 153.322C51.4043 153.929 48.3105 160.81 49.3418 161.214C50.373 161.619 53.4668 157.572 53.673 157.572C53.8793 157.572 53.5286 154.194 54.1164 154.365Z" fill="#2F2E41"/>
<path d="M80.6918 173.761C80.6918 173.761 83.7856 175.379 84.4044 175.379C85.0231 175.379 86.2606 176.189 84.8169 176.594C83.3731 176.998 76.9793 177.605 76.7731 176.998C76.5668 176.391 76.7731 174.772 76.7731 174.772C76.7731 174.772 80.6918 174.368 80.6918 173.761Z" fill="#2F2E41"/>
<path d="M97.0304 137.578C97.1249 137.329 97.1587 137.061 97.1292 136.797C97.11 136.216 97.069 135.58 96.6662 135.153C96.4598 134.935 96.1698 134.787 96.0243 134.526C95.9479 134.342 95.8857 134.154 95.8383 133.961C95.7358 133.731 95.579 133.529 95.3807 133.371C95.1824 133.213 94.9485 133.103 94.6983 133.051C94.1976 132.953 93.684 132.934 93.1772 132.997C92.4503 133.011 91.73 133.135 91.0418 133.366C90.6984 133.484 90.387 133.677 90.1315 133.931C89.8761 134.186 89.6833 134.494 89.568 134.833C89.5072 135.097 89.4783 135.367 89.4818 135.638L89.4517 136.765C89.5667 136.864 89.7103 136.926 89.8627 136.942C90.0151 136.958 90.1688 136.928 90.3027 136.855C90.5823 136.733 90.8192 136.528 91.1031 136.416C91.2399 136.348 91.3955 136.326 91.5463 136.353C91.697 136.38 91.8348 136.454 91.9385 136.565C91.9943 136.665 92.0429 136.768 92.084 136.875C92.6501 137.981 94.1711 136.804 94.9613 136.821C95.6682 136.836 96.5124 138.668 97.0304 137.578Z" fill="#2F2E41"/>
<path d="M85.8127 177.62C90.9526 177.62 91.7805 175.741 91.8147 175.657L91.4326 175.504C91.4242 175.523 90.5442 177.394 85.0306 177.201C79.6787 177.013 71.3979 177.175 70.2913 177.198C69.9811 176.683 68.5902 174.593 66.6263 174.979L66.7073 175.375C68.5942 175.004 69.9777 177.474 69.9916 177.499L70.0514 177.608L70.1777 177.605C70.2686 177.603 79.313 177.406 85.0157 177.605C85.2922 177.615 85.5579 177.62 85.8127 177.62Z" fill="#2F2E41"/>
<path d="M85.7875 179.629H85.9087C86.3309 179.629 86.6731 179.293 86.6731 178.879V178.76C86.6731 178.346 86.3309 178.01 85.9087 178.01H85.7875C85.3654 178.01 85.0231 178.346 85.0231 178.76V178.879C85.0231 179.293 85.3654 179.629 85.7875 179.629Z" fill="#2F2E41"/>
<path d="M71.5562 179.629H71.6774C72.0996 179.629 72.4418 179.293 72.4418 178.879V178.76C72.4418 178.346 72.0996 178.01 71.6774 178.01H71.5562C71.1341 178.01 70.7918 178.346 70.7918 178.76V178.879C70.7918 179.293 71.1341 179.629 71.5562 179.629Z" fill="#2F2E41"/>
<path d="M87.9107 138.955C87.9107 138.955 86.9302 143.826 85.8736 144.729C84.817 145.633 84.5685 146.508 83.8677 146.778C83.167 147.049 80.692 144.216 80.692 144.014C80.692 143.811 87.9107 138.955 87.9107 138.955Z" fill="#4A7CE2"/>
<path d="M108.776 180.384H56.883V181.036H108.776V180.384Z" fill="#2F2E41"/>
<path d="M170.649 194.091H118.756V194.744H170.649V194.091Z" fill="#2F2E41"/>
<path d="M212.895 213.347H191.606V214H212.895V213.347Z" fill="#2F2E41"/>
<path d="M80.1684 207.799H58.8788V208.452H80.1684V207.799Z" fill="#2F2E41"/>
<path d="M268.642 161.781H177.108V162.433H268.642V161.781Z" fill="#2F2E41"/>
<path d="M73.6658 26.2339C71.8787 24.4735 69.6695 23.1819 67.241 22.4776C64.8124 21.7733 62.2425 21.6789 59.7671 22.2031C57.2917 22.7272 54.9902 23.8532 53.074 25.4775C51.1577 27.1019 49.6881 29.1725 48.8001 31.4994L76.5625 30.2373C75.8308 28.754 74.8518 27.4009 73.6658 26.2339Z" fill="#F2F2F2"/>
<path d="M238.992 58.8711C237.205 57.1107 234.996 55.8191 232.567 55.1148C230.139 54.4105 227.569 54.3161 225.094 54.8403C222.618 55.3645 220.317 56.4904 218.4 58.1147C216.484 59.7391 215.015 61.8097 214.127 64.1366L241.889 62.8745C241.157 61.3912 240.178 60.0381 238.992 58.8711Z" fill="#F2F2F2"/>
<path d="M276.099 203.23H225.869V203.882H276.099V203.23Z" fill="#2F2E41"/>
<path d="M234.558 190.509C234.559 191.168 234.305 191.802 233.849 192.285C233.393 192.767 232.767 193.063 232.098 193.112H232.096C232.03 193.118 231.965 193.12 231.897 193.12C231.548 193.12 231.202 193.053 230.879 192.922C230.556 192.79 230.263 192.598 230.016 192.356C229.768 192.113 229.572 191.825 229.439 191.508C229.305 191.192 229.236 190.852 229.236 190.509C229.236 190.496 229.236 190.482 229.238 190.469C229.247 189.834 229.493 189.224 229.928 188.753C230.363 188.283 230.959 187.985 231.603 187.914C231.7 187.904 231.799 187.899 231.897 187.898C232.523 187.898 233.129 188.114 233.609 188.509C234.088 188.904 234.41 189.452 234.518 190.057V190.059C234.545 190.208 234.558 190.358 234.558 190.509Z" fill="#4A7CE2"/>
<path d="M234.558 190.509C234.559 191.168 234.305 191.802 233.849 192.285C233.393 192.767 232.767 193.063 232.098 193.112H232.096C231.829 192.76 231.688 192.331 231.693 191.893C231.698 191.454 231.849 191.029 232.124 190.682C232.398 190.336 232.781 190.087 233.213 189.974C233.646 189.861 234.104 189.891 234.517 190.057V190.059C234.545 190.208 234.558 190.358 234.558 190.509Z" fill="#F2F2F2"/>
<path d="M231.693 188.501C231.693 188.799 231.625 189.092 231.495 189.361C231.365 189.63 231.176 189.868 230.941 190.056C230.706 190.244 230.431 190.379 230.137 190.451C229.842 190.522 229.535 190.528 229.238 190.469C229.247 189.834 229.493 189.224 229.928 188.753C230.363 188.283 230.959 187.985 231.603 187.914C231.663 188.104 231.693 188.302 231.693 188.501Z" fill="#F2F2F2"/>
<path d="M257.803 186.754C257.803 188.376 255.332 188.153 254.809 189.691C252.978 195.075 251.798 188.891 251.815 186.754C251.815 185.975 252.131 185.228 252.692 184.677C253.254 184.126 254.015 183.817 254.809 183.817C255.603 183.817 256.365 184.126 256.926 184.677C257.488 185.228 257.803 185.975 257.803 186.754H257.803Z" fill="#2F2E41"/>
<path d="M253.963 194.902C253.963 194.902 253.927 198.601 253.436 198.842C252.945 199.083 250.158 199.599 250.649 200.443C250.907 200.859 251.315 201.165 251.793 201.299C252.271 201.433 252.783 201.385 253.227 201.165C254.086 200.683 256.173 197.793 256.173 197.793L253.963 194.902Z" fill="#3F3D56"/>
<path d="M264.398 198.154C264.398 198.154 264.398 198.19 264.401 198.253C264.432 198.676 264.564 199.086 264.788 199.449C265.012 199.812 265.321 200.117 265.689 200.34C266.057 200.563 266.474 200.696 266.905 200.73C267.336 200.764 267.769 200.696 268.168 200.533C268.526 200.395 268.836 200.374 268.781 200.753C268.658 201.596 268.694 202.731 269.308 202.731C269.922 202.731 270.781 201.286 270.29 199.72C269.9 198.612 269.363 197.559 268.694 196.588L264.398 198.154Z" fill="#3F3D56"/>
<path opacity="0.1" d="M253.963 194.902C253.963 194.902 253.927 198.601 253.436 198.842C252.945 199.083 250.158 199.599 250.649 200.443C250.907 200.859 251.315 201.165 251.793 201.299C252.271 201.433 252.783 201.385 253.227 201.165C254.086 200.683 256.173 197.793 256.173 197.793L253.963 194.902Z" fill="black"/>
<path opacity="0.1" d="M264.398 198.154C264.398 198.154 264.398 198.19 264.401 198.253C264.432 198.676 264.564 199.086 264.788 199.449C265.012 199.812 265.321 200.117 265.689 200.34C266.057 200.563 266.474 200.696 266.905 200.73C267.336 200.764 267.769 200.696 268.168 200.533C268.526 200.395 268.836 200.374 268.781 200.753C268.658 201.596 268.694 202.731 269.308 202.731C269.922 202.731 270.781 201.286 270.29 199.72C269.9 198.612 269.363 197.559 268.694 196.588L264.398 198.154Z" fill="black"/>
<path d="M251.281 187.309C251.542 186.746 251.93 186.248 252.416 185.854C252.88 185.474 253.43 185.211 254.021 185.088C254.611 184.964 255.224 184.984 255.804 185.146C258.628 185.869 258.996 187.917 258.996 187.917V188.743C258.991 189.139 259.107 189.528 259.329 189.859C259.552 190.19 259.871 190.448 260.244 190.599C260.869 190.838 271.16 190.501 271.774 189.898C272.217 189.413 272.586 188.867 272.868 188.278V188.301C272.878 189.405 272.585 190.49 272.019 191.444C271.772 191.786 271.64 192.195 271.64 192.614C271.763 193.457 272.131 195.745 271.395 196.588C270.658 197.431 271.027 198.034 271.886 198.154C272.745 198.275 274.218 198.034 274.095 199.479C273.973 200.924 274.218 201.526 273.604 201.526C272.991 201.526 272.721 201.341 272.107 200.016C272.107 200.016 271.64 199.72 269.922 200.202C268.805 200.515 267.337 200.811 266.908 199.96C265.958 198.079 259.851 198.45 258.461 200.333C258.091 200.87 257.639 201.348 257.12 201.749C256.878 201.935 256.611 202.088 256.326 202.204C255.59 202.46 254.7 202.55 254.086 201.888C252.858 200.563 256.14 200.342 256.14 200.342C256.14 200.342 256.664 199.118 256.418 198.275C256.418 198.275 253.472 197.672 253.349 193.939C253.349 193.939 249.421 193.939 248.807 192.012L248.193 190.084L249.374 189.389C250.205 188.9 250.867 188.179 251.277 187.318L251.281 187.309Z" fill="#3F3D56"/>
<path d="M248.249 190.902C248.565 190.902 248.821 190.579 248.821 190.18C248.821 189.781 248.565 189.457 248.249 189.457C247.933 189.457 247.677 189.781 247.677 190.18C247.677 190.579 247.933 190.902 248.249 190.902Z" fill="#2F2E41"/>
<path d="M260.464 187.94C260.464 189.743 257.719 189.494 257.138 191.204C255.104 197.185 253.792 190.315 253.811 187.94C253.811 187.075 254.162 186.245 254.785 185.632C255.409 185.02 256.255 184.677 257.138 184.677C258.02 184.677 258.866 185.02 259.49 185.632C260.114 186.245 260.464 187.075 260.464 187.94Z" fill="#2F2E41"/>
</g>
<defs>
<clipPath id="clip0">
<rect width="324" height="214" fill="white"/>
</clipPath>
</defs>
</svg>
