<svg viewBox="0 0 752 614" fill="none" xmlns="http://www.w3.org/2000/svg">
<path opacity="0.1" d="M329.207 557C343.566 557 355.207 552.971 355.207 548C355.207 543.029 343.566 539 329.207 539C314.848 539 303.207 543.029 303.207 548C303.207 552.971 314.848 557 329.207 557Z" fill="black"/>
<path opacity="0.1" d="M435.207 557C449.566 557 461.207 552.971 461.207 548C461.207 543.029 449.566 539 435.207 539C420.848 539 409.207 543.029 409.207 548C409.207 552.971 420.848 557 435.207 557Z" fill="black"/>
<path d="M432.453 215V242.648H328.961V216.69H325.961V548H328.961V488.688H432.453V548H435.453V215H432.453ZM432.453 245.648V291.256H328.961V245.648L432.453 245.648ZM328.961 388.472V342.864H432.453V388.472H328.961ZM432.453 391.472V437.079H328.961V391.472H432.453ZM328.961 339.864V294.256H432.453V339.864H328.961ZM328.961 485.688V440.079H432.453V485.688H328.961Z" fill="#2F2E41"/>
<path d="M296.328 221.583V225.727C296.328 225.727 293.368 226.911 293.368 231.648C293.368 236.384 291 254.145 291 254.145C291 254.145 295.144 257.697 298.696 256.513C300.662 255.916 302.479 254.907 304.025 253.553L304.617 235.2L302.248 230.464V222.175L296.328 221.583Z" fill="#4A7CE2"/>
<path d="M409.585 57C409.585 57 399.289 58.1841 399.289 62.9203C399.289 67.6565 391.052 85.4173 391.052 85.4173C391.052 85.4173 405.467 88.9694 417.822 87.7854C430.177 86.6013 436.355 84.8252 436.355 84.8252L438.414 66.4724L430.177 61.7362L409.585 57Z" fill="#4A7CE2"/>
<path d="M410.589 98.4418V87.1933C410.589 87.1933 398.157 62.3282 408.221 62.3282C418.286 62.3282 419.47 84.8252 419.47 84.8252V100.81L410.589 98.4418Z" fill="#FFB8B8"/>
<path d="M304.025 216.255C304.025 216.255 297.512 212.703 296.328 216.255C295.144 219.807 291.592 227.503 296.328 228.096C301.064 228.688 305.801 224.543 305.801 224.543L304.025 216.255Z" fill="#FFB8B8"/>
<path d="M336.076 240.236C336.076 240.236 332.511 244.944 337.683 290.876C342.855 336.808 339.875 370.252 349.694 369.794C349.694 369.794 347.131 379.754 355.475 380.121C363.818 380.489 367.63 381.068 368.279 378.767C368.929 376.465 369.946 365.821 367.68 365.927C367.68 365.927 367.821 368.948 368.767 356.793C369.714 344.637 367.034 287.235 370.458 279.506L383.847 306.887C383.847 306.887 384.446 319.727 386.994 325.664C389.542 331.601 394.941 366.168 394.941 366.168L394.433 371.49C394.433 371.49 412.701 373.665 413.315 370.608C413.929 367.552 413.718 363.02 412.892 361.545C412.066 360.07 412.066 360.07 413.435 356.978C414.042 355.816 414.392 354.537 414.461 353.228C414.531 351.918 414.318 350.61 413.838 349.39C412.977 347.159 410.685 298.065 410.685 298.065C410.685 298.065 406.389 238.467 397.184 235.869C387.98 233.271 336.076 240.236 336.076 240.236Z" fill="#2F2E41"/>
<path d="M352.171 374.22L346.623 385.076C346.623 385.076 337.023 382.118 339.317 390.716C348.532 391.003 357.754 390.445 366.867 389.051C366.867 389.051 370.714 390.385 371.364 388.084C372.013 385.783 368.999 377.976 366.734 378.082C364.468 378.187 352.171 374.22 352.171 374.22Z" fill="#2F2E41"/>
<path d="M395.837 369.153C395.837 369.153 390.43 383.031 392.731 383.68C395.032 384.33 415.566 386.399 417.112 387.084C418.658 387.769 426.246 388.171 426.79 383.604C427.333 379.037 422.731 377.738 422.731 377.738C422.731 377.738 414.352 376.615 411.734 369.168C409.115 361.721 395.837 369.153 395.837 369.153Z" fill="#2F2E41"/>
<path d="M344.564 127.639C353.298 127.639 360.378 120.559 360.378 111.825C360.378 103.091 353.298 96.0105 344.564 96.0105C335.83 96.0105 328.75 103.091 328.75 111.825C328.75 120.559 335.83 127.639 344.564 127.639Z" fill="#FFB8B8"/>
<path d="M336.24 119.316C336.24 119.316 340.402 140.957 338.737 145.118C337.073 149.28 362.043 143.454 362.043 143.454C362.043 143.454 357.049 121.813 357.881 116.819C358.713 111.825 336.24 119.316 336.24 119.316Z" fill="#FFB8B8"/>
<path d="M344.083 92.2918C342.768 92.0535 341.416 92.1132 340.127 92.4664C339.096 92.9232 338.146 93.5463 337.316 94.3106C335.81 95.5108 334.201 96.5765 332.509 97.4954C331.096 98.1035 329.823 98.9959 328.769 100.117C328.324 100.73 327.968 101.402 327.713 102.115C326.091 106.258 325.655 110.77 326.454 115.147C326.544 115.769 326.731 116.372 327.009 116.936C327.874 118.53 329.785 119.158 331.394 119.994C334.45 121.58 336.766 124.251 339.273 126.612C340.204 127.541 341.25 128.347 342.386 129.011C345.961 130.96 350.332 130.324 354.346 129.635C354.63 129.634 354.912 129.578 355.174 129.468C355.437 129.358 355.675 129.197 355.875 128.995C356.075 128.793 356.233 128.553 356.339 128.289C356.446 128.025 356.5 127.743 356.497 127.459L359.665 113.209C360.24 111.098 360.513 108.916 360.477 106.728C360.256 103.269 358.384 98.4769 355.845 96.0197C352.887 93.1567 347.95 92.7011 344.083 92.2918Z" fill="#2F2E41"/>
<path d="M332.442 146.396C332.442 146.396 333.626 138.108 340.73 137.516C344.748 137.136 348.716 136.343 352.571 135.147C353.163 135.147 360.859 135.739 364.411 139.292C364.411 139.292 366.779 142.844 367.963 140.476C369.147 138.108 369.147 136.923 371.515 138.108C373.884 139.292 373.884 134.555 378.028 135.147C382.172 135.739 392.828 162.381 392.828 162.381L389.276 166.525C389.276 166.525 384.54 198.494 392.828 212.111C401.117 225.727 404.669 240.528 396.381 243.488C388.092 246.448 330.074 273.09 332.442 256.513C334.81 239.936 333.034 213.887 330.666 213.295C328.298 212.703 315.273 165.933 315.273 165.933C315.797 162.963 317.043 160.168 318.901 157.794C320.759 155.419 323.173 153.538 325.929 152.316C335.402 148.172 332.442 146.396 332.442 146.396Z" fill="#575A88"/>
<path d="M375.067 137.516L378.028 135.147C378.028 135.147 383.356 135.147 383.948 133.963C384.54 132.779 387.5 132.779 389.868 131.595C392.236 130.411 389.276 128.635 392.236 127.451C395.196 126.267 395.196 127.451 395.196 124.491C395.196 121.531 402.893 118.571 403.485 115.019C404.077 111.466 409.997 94.8896 409.997 94.8896L421.245 98.4418L418.285 119.755C418.285 119.755 418.285 130.411 412.957 137.516C407.629 144.62 395.788 162.381 389.868 162.973C383.948 163.565 375.067 137.516 375.067 137.516Z" fill="#575A88"/>
<path d="M318.825 162.973L315.273 165.933C315.273 165.933 314.089 178.957 314.089 179.549C314.089 180.141 315.273 187.246 314.089 187.838C312.905 188.43 310.537 200.27 311.129 200.862V202.638L302.84 215.663V228.096L322.377 215.663C322.377 215.663 333.626 214.479 331.85 204.414C330.074 194.35 318.825 162.973 318.825 162.973Z" fill="#575A88"/>
</svg>
