<svg viewBox="0 0 231 214" fill="none" xmlns="http://www.w3.org/2000/svg">
<g clip-path="url(#clip0)">
<path d="M145.858 188.61L142.946 196.208L112.328 188.564L116.625 177.351L145.858 188.61Z" fill="#FFB7B7"/>
<path d="M153.947 189.502L144.558 214L144.249 213.881C141.726 212.909 139.692 210.973 138.594 208.498C137.495 206.023 137.422 203.211 138.391 200.682L138.392 200.682L144.126 185.719L153.947 189.502Z" fill="#2F2E41"/>
<path d="M99.3319 93.4812L85.9886 94.7336L85.3267 134.533C85.5035 136.484 86.4353 138.287 87.9224 139.557C89.4096 140.828 91.3338 141.463 93.2829 141.329L101.743 140.745L99.3319 93.4812Z" fill="#E5E5E5"/>
<path d="M146.373 91.5223L137.243 91.4045L136.702 138.695C138.72 138.762 140.729 138.412 142.606 137.666C144.483 136.921 146.186 135.796 147.609 134.361C149.033 132.926 150.146 131.213 150.88 129.328C151.614 127.442 151.952 125.426 151.874 123.404L146.373 91.5223Z" fill="#E5E5E5"/>
<path d="M93.3968 155.495C93.1806 156.866 92.8668 158.221 92.4577 159.548C91.997 160.846 91.2857 162.047 90.8645 163.359C89.5217 167.542 91.3831 172.205 94.3561 175.433C96.9343 178.221 100.262 180.202 103.938 181.137C106.62 181.813 109.409 181.91 112.173 182.004C119.826 182.265 127.677 182.497 134.929 180.032C137.22 179.233 139.433 178.226 141.54 177.021C142.205 176.703 142.792 176.24 143.256 175.667C143.809 174.877 143.88 173.853 143.875 172.889C143.859 169.636 143.201 166.4 143.357 163.152C143.443 161.352 143.779 159.554 143.614 157.76C143.385 155.723 142.534 153.806 141.176 152.272C139.819 150.738 138.022 149.663 136.031 149.192C133.974 148.749 131.84 148.991 129.746 149.193C124.309 149.716 118.849 149.961 113.387 149.926C107.807 149.89 102.261 149.036 96.7079 148.947C95.0658 148.921 95.099 149.428 94.5762 151.021C94.0947 152.488 93.7009 153.981 93.3968 155.495V155.495Z" fill="#2F2E41"/>
<path d="M71.5752 152.851C70.0746 152.473 68.5284 152.308 66.982 152.362C65.3573 152.452 63.7703 152.887 62.3265 153.64C60.8827 154.392 59.6153 155.444 58.6085 156.726C57.6017 158.007 56.8786 159.489 56.4873 161.073C56.096 162.656 56.0454 164.305 56.3389 165.909C56.7136 167.647 57.3261 169.325 58.159 170.895C59.3771 173.373 60.8381 175.846 63.0931 177.434C64.4123 178.363 65.9391 178.942 67.4477 179.512L79.3247 183.997C81.0719 184.657 82.8194 185.317 84.584 185.928C93.4488 189 102.691 190.842 112.054 191.403C114.906 191.573 117.801 191.621 120.583 190.97C121.243 190.815 121.947 190.585 122.33 190.024C122.556 189.628 122.69 189.186 122.72 188.731L123.451 183.602C123.554 182.88 123.653 182.12 123.389 181.44C123.054 180.578 122.215 180.036 121.414 179.575C113.606 175.08 104.489 172.599 97.9167 166.429C96.3695 164.976 95.0747 162.674 93.1948 161.687C91.0631 160.568 88.5525 159.93 86.3491 158.899C81.532 156.644 76.796 154.054 71.5752 152.851Z" fill="#2F2E41"/>
<path opacity="0.1" d="M83.4326 159.766C87.6306 161.084 105.355 170.22 108.393 173.41C107.985 173.557 94.1692 165.795 93.7546 165.671C89.9862 164.537 86.1968 163.396 82.6181 161.736C81.8981 161.403 77.9409 159.834 78.1202 158.923C78.3224 157.895 82.6874 159.532 83.4326 159.766Z" fill="black"/>
<path d="M108.768 80.1046L97.4649 88.7078C97.4649 88.7078 85.5381 89.0819 85.9411 96.7248C86.3442 104.368 91.1176 140.554 91.1176 140.554L92.1532 153.006L111.798 158.617C122.413 161.649 133.627 161.89 144.361 159.316L142.027 146.825C142.027 146.825 151.48 90.0953 145.785 87.5977C140.09 85.1 136.531 85.8136 136.531 85.8136L129.392 79.5693L108.768 80.1046Z" fill="#4A7CE2"/>
<path d="M142.226 66.208C142.226 77.3766 131.924 75.6873 119.217 75.6873C106.509 75.6873 96.207 77.3766 96.207 66.208C96.207 55.0395 101.239 35.2424 119.217 35.2424C137.813 35.2424 142.226 55.0395 142.226 66.208Z" fill="#2F2E41"/>
<path d="M131.177 69.9928C137.224 63.9314 137.224 54.1038 131.177 48.0423C125.131 41.9808 115.327 41.9808 109.281 48.0423C103.234 54.1038 103.234 63.9314 109.281 69.9928C115.327 76.0543 125.131 76.0543 131.177 69.9928Z" fill="#FFB7B7"/>
<path d="M101.25 58.6246H107.374L110.076 51.0412L110.616 58.6246H113.543L115.119 54.2009L115.434 58.6246H137.183C137.183 54.2669 135.456 50.0877 132.382 47.0063C129.308 43.9249 125.139 42.1938 120.792 42.1938H117.64C113.293 42.1938 109.124 43.9249 106.051 47.0063C102.977 50.0877 101.25 54.2669 101.25 58.6246V58.6246Z" fill="#2F2E41"/>
<path d="M134.751 81.8884H103.785V119.353H134.751V81.8884Z" fill="#F2A958"/>
<path d="M105.492 188.254L108.404 195.851L139.023 188.207L134.725 176.994L105.492 188.254Z" fill="#FFB7B7"/>
<path d="M107.223 185.363L112.958 200.325L112.958 200.326C113.927 202.855 113.855 205.666 112.756 208.141C111.658 210.616 109.623 212.553 107.101 213.524L106.792 213.643L97.4023 189.145L107.223 185.363Z" fill="#2F2E41"/>
<path d="M166.696 149.943C169.155 149.325 171.705 149.15 174.226 149.427C176.239 149.65 178.313 150.211 179.783 151.608C181.572 153.308 182.147 155.938 182.195 158.408C182.274 163.33 180.645 168.125 177.589 171.977C176.842 172.951 175.954 173.808 174.955 174.518C173.877 175.194 172.728 175.75 171.529 176.174L144.93 186.691C137.933 189.457 130.911 192.232 123.612 194.056C123.216 194.248 122.759 194.274 122.343 194.129C121.927 193.983 121.586 193.678 121.394 193.28C121.388 193.268 121.382 193.256 121.377 193.244C119.046 189.907 117.091 186.321 115.547 182.554C115.474 182.464 115.424 182.358 115.4 182.245C115.376 182.132 115.38 182.014 115.411 181.903C115.443 181.791 115.5 181.689 115.579 181.605C115.658 181.52 115.756 181.456 115.865 181.418L134.678 170.582C136.025 169.806 137.388 169.018 138.507 167.937C139.32 167.147 139.986 166.218 140.473 165.193C140.863 164.377 140.899 162.45 141.397 161.846C141.885 161.255 143.553 161.208 144.324 160.976C145.411 160.642 146.475 160.239 147.51 159.768C151.718 157.881 155.466 155.139 159.5 152.929C161.763 151.632 164.18 150.629 166.696 149.943V149.943Z" fill="#2F2E41"/>
<path opacity="0.1" d="M156.03 158.035C152.798 160.469 148.613 162.706 145.41 165.204C144.316 166.056 126.091 176.328 125.833 177.692C128.822 178.197 147.86 164.846 150.583 163.513C153.307 162.181 155.722 160.303 158.114 158.438C158.724 157.962 161.308 156.534 159.558 156.003C158.572 155.704 156.758 157.549 156.03 158.035Z" fill="black"/>
<path opacity="0.17" d="M93.1069 105.795L93.5344 102.487C93.5344 102.487 109.48 103.654 106.988 107.579C104.497 111.504 98.4459 111.861 98.4459 111.861L93.1069 105.795Z" fill="#2F2E41"/>
<path d="M105.144 91.4128C106.057 91.5136 106.937 91.8159 107.72 92.2979C108.503 92.7799 109.17 93.4297 109.673 94.2007V94.2007C110.131 94.9042 110.443 95.6933 110.589 96.5206C110.735 97.3479 110.713 98.1963 110.524 99.0149C110.336 99.8335 109.984 100.605 109.49 101.284C108.996 101.963 108.37 102.535 107.65 102.965C107.386 103.121 107.11 103.257 106.826 103.371L97.0247 133.424C96.7407 134.017 96.3427 134.548 95.8533 134.986C95.364 135.425 94.793 135.762 94.1733 135.978C93.5537 136.194 92.8974 136.286 92.2424 136.247C91.5874 136.208 90.9464 136.04 90.3564 135.752C89.7664 135.464 89.239 135.062 88.8046 134.569C88.3701 134.076 88.0371 133.502 87.8247 132.88C87.6123 132.257 87.5247 131.599 87.567 130.942C87.6093 130.286 87.7805 129.644 88.071 129.055L98.4941 99.335C98.2102 98.3517 98.1724 97.3134 98.3842 96.3119C98.5959 95.3105 99.0506 94.3768 99.7081 93.5935C100.366 92.8102 101.205 92.2015 102.154 91.8211C103.102 91.4408 104.129 91.3005 105.144 91.4128Z" fill="#FFB7B7"/>
<path d="M93.2537 102.769C93.2537 102.769 98.8696 112.388 106.989 107.579L99.1203 137.765H92.4908L85.6328 136.481L87.553 124.009L93.2537 102.769Z" fill="#4A7CE2"/>
<path d="M133.353 109.343L128.7 102.94C128.7 102.94 130.936 96.2991 139.606 98.7277C139.606 98.7277 145.123 111.108 133.353 109.343Z" fill="#E5E5E5"/>
<path opacity="0.17" d="M133.353 109.343L128.7 102.94C128.7 102.94 130.936 96.2991 139.606 98.7277C139.606 98.7277 145.123 111.108 133.353 109.343Z" fill="#2F2E41"/>
<path d="M134.584 86.9726C135.927 87.5981 137 88.6858 137.61 90.0378C138.22 91.3898 138.325 92.9163 137.907 94.3395L148.33 124.059C148.62 124.649 148.792 125.291 148.834 125.947C148.876 126.604 148.789 127.262 148.576 127.884C148.364 128.507 148.031 129.081 147.597 129.574C147.162 130.067 146.635 130.469 146.045 130.757C145.455 131.045 144.814 131.213 144.159 131.252C143.503 131.291 142.847 131.199 142.228 130.983C141.608 130.766 141.037 130.429 140.548 129.991C140.058 129.553 139.66 129.022 139.376 128.429L129.575 98.3756C129.29 98.2616 129.015 98.1258 128.751 97.9695C128.031 97.5392 127.405 96.9675 126.911 96.2887C126.417 95.6099 126.065 94.8381 125.876 94.0195C125.687 93.2009 125.666 92.3525 125.812 91.5252C125.958 90.6979 126.27 89.9087 126.728 89.2052V89.2052C127.231 88.4342 127.898 87.7844 128.681 87.3024C129.464 86.8204 130.344 86.5182 131.257 86.4174C132.396 86.288 133.549 86.4803 134.584 86.9726Z" fill="#FFB7B7"/>
<path d="M128.7 102.94C128.7 102.94 136.376 107.609 139.606 98.7278L150.423 127.278L147.209 132.912L146.744 132.951C144.826 133.112 142.899 132.803 141.127 132.052C139.355 131.301 137.791 130.129 136.57 128.639V128.639C134.079 125.599 132.384 121.984 131.637 118.122L128.7 102.94Z" fill="#4A7CE2"/>
</g>
<defs>
<clipPath id="clip0">
<rect width="231" height="214" fill="white"/>
</clipPath>
</defs>
</svg>
