<svg viewBox="0 0 127 179" fill="none" xmlns="http://www.w3.org/2000/svg">
<path d="M89.8582 153.61L86.9463 161.208L56.3276 153.564L60.6252 142.351L89.8582 153.61Z" fill="#FFB7B7"/>
<path d="M97.9474 154.502L88.5582 179L88.2491 178.881C85.7265 177.909 83.6922 175.973 82.5937 173.498C81.4952 171.023 81.4225 168.211 82.3915 165.682L82.3917 165.682L88.1264 150.719L97.9474 154.502Z" fill="#2F2E41"/>
<path d="M43.3319 58.4812L29.9886 59.7336L29.3267 99.5331C29.5035 101.484 30.4353 103.287 31.9224 104.557C33.4096 105.828 35.3338 106.463 37.2829 106.329L45.7428 105.745L43.3319 58.4812Z" fill="#E5E5E5"/>
<path d="M90.3729 56.5223L81.243 56.4045L80.7021 103.695C82.7197 103.762 84.7294 103.412 86.606 102.666C88.4826 101.921 90.1858 100.796 91.6094 99.3608C93.033 97.9261 94.1464 96.2127 94.8801 94.3276C95.6139 92.4424 95.9524 90.4259 95.8744 88.4038L90.3729 56.5223Z" fill="#E5E5E5"/>
<path d="M37.3968 120.495C37.1806 121.866 36.8668 123.221 36.4577 124.548C35.997 125.846 35.2857 127.047 34.8645 128.359C33.5217 132.542 35.3831 137.205 38.3561 140.433C40.9343 143.221 44.2621 145.202 47.9382 146.137C50.6203 146.813 53.4089 146.91 56.1729 147.004C63.8263 147.265 71.6768 147.497 78.9289 145.032C81.2202 144.233 83.4333 143.226 85.5402 142.021C86.2055 141.703 86.7916 141.24 87.2557 140.667C87.8088 139.877 87.8796 138.853 87.8748 137.889C87.8585 134.636 87.2007 131.4 87.3569 128.152C87.4434 126.352 87.7793 124.554 87.614 122.76C87.3851 120.723 86.5337 118.806 85.1763 117.272C83.8189 115.738 82.0219 114.663 80.0312 114.192C77.9739 113.749 75.8401 113.991 73.7456 114.193C68.3088 114.716 62.8489 114.961 57.3871 114.926C51.8066 114.89 46.2606 114.036 40.7079 113.947C39.0658 113.921 39.099 114.428 38.5762 116.021C38.0947 117.488 37.7009 118.981 37.3968 120.495V120.495Z" fill="#2F2E41"/>
<path d="M15.5752 117.851C14.0746 117.473 12.5284 117.308 10.982 117.362C9.35728 117.452 7.77026 117.887 6.32651 118.64C4.88275 119.392 3.61533 120.444 2.60854 121.726C1.60175 123.007 0.87865 124.489 0.48732 126.073C0.0959897 127.656 0.0453974 129.305 0.33891 130.909C0.713624 132.647 1.32611 134.325 2.15898 135.895C3.37711 138.373 4.83808 140.846 7.09315 142.434C8.41231 143.363 9.93906 143.942 11.4477 144.512L23.3247 148.997C25.0719 149.657 26.8194 150.317 28.584 150.928C37.4488 154 46.691 155.842 56.0538 156.403C58.9057 156.573 61.8007 156.621 64.5829 155.97C65.2431 155.815 65.9474 155.585 66.3296 155.024C66.556 154.628 66.6895 154.186 66.7199 153.731L67.4508 148.602C67.5537 147.88 67.6527 147.12 67.3887 146.44C67.0539 145.578 66.2147 145.036 65.4145 144.575C57.6062 140.08 48.4891 137.599 41.9167 131.429C40.3695 129.976 39.0747 127.674 37.1948 126.687C35.0631 125.568 32.5525 124.93 30.3491 123.899C25.532 121.644 20.796 119.054 15.5752 117.851Z" fill="#2F2E41"/>
<path opacity="0.1" d="M27.4326 124.766C31.6306 126.084 49.3547 135.22 52.3926 138.41C51.9854 138.557 38.1692 130.795 37.7546 130.671C33.9862 129.537 30.1968 128.396 26.6181 126.736C25.8981 126.403 21.9409 124.834 22.1202 123.923C22.3224 122.895 26.6874 124.532 27.4326 124.766Z" fill="black"/>
<path d="M52.7679 45.1046L41.4649 53.7078C41.4649 53.7078 29.5381 54.0819 29.9411 61.7248C30.3442 69.3677 35.1176 105.554 35.1176 105.554L36.1532 118.006L55.7981 123.617C66.4125 126.649 77.6269 126.89 88.3611 124.316L86.0265 111.825C86.0265 111.825 95.4797 55.0953 89.7848 52.5977C84.0899 50.1 80.5306 50.8136 80.5306 50.8136L73.3923 44.5693L52.7679 45.1046Z" fill="#4A7CE2"/>
<path d="M86.226 31.208C86.226 42.3766 75.9243 40.6873 63.2165 40.6873C50.5087 40.6873 40.207 42.3766 40.207 31.208C40.207 20.0395 45.2391 0.242432 63.2165 0.242432C81.8132 0.242432 86.226 20.0395 86.226 31.208Z" fill="#2F2E41"/>
<path d="M75.1773 34.9928C81.2239 28.9314 81.2239 19.1038 75.1773 13.0423C69.1308 6.98083 59.3274 6.98083 53.2808 13.0423C47.2342 19.1038 47.2342 28.9314 53.2808 34.9928C59.3273 41.0543 69.1308 41.0543 75.1773 34.9928Z" fill="#FFB7B7"/>
<path d="M45.25 23.6246H51.3739L54.0756 16.0412L54.6158 23.6246H57.5427L59.1187 19.2009L59.4339 23.6246H81.1826C81.1826 19.2669 79.4558 15.0877 76.382 12.0063C73.3082 8.92494 69.1393 7.19385 64.7923 7.19385H61.6403C57.2933 7.19385 53.1244 8.92494 50.0506 12.0063C46.9768 15.0877 45.25 19.2669 45.25 23.6246V23.6246Z" fill="#2F2E41"/>
<path d="M78.7513 46.8884H47.7852V84.3535H78.7513V46.8884Z" fill="#F2A958"/>
<path d="M49.4917 153.254L52.4039 160.851L83.0226 153.207L78.7248 141.994L49.4917 153.254Z" fill="#FFB7B7"/>
<path d="M51.2234 150.363L56.9581 165.325L56.9583 165.326C57.9273 167.855 57.8545 170.666 56.756 173.141C55.6575 175.616 53.6233 177.553 51.1007 178.524L50.7916 178.643L41.4023 154.145L51.2234 150.363Z" fill="#2F2E41"/>
<path d="M110.696 114.943C113.155 114.325 115.705 114.15 118.226 114.427C120.239 114.65 122.313 115.211 123.783 116.608C125.572 118.308 126.147 120.938 126.195 123.408C126.274 128.33 124.645 133.125 121.589 136.977C120.842 137.951 119.954 138.808 118.955 139.518C117.877 140.194 116.728 140.75 115.529 141.174L88.9305 151.691C81.9331 154.457 74.9111 157.232 67.6125 159.056C67.2156 159.248 66.759 159.274 66.3429 159.129C65.9269 158.983 65.5855 158.678 65.3939 158.28C65.3881 158.268 65.3824 158.256 65.3768 158.244C63.0464 154.907 61.0913 151.321 59.5473 147.554C59.4742 147.464 59.4236 147.358 59.4 147.245C59.3764 147.132 59.3803 147.014 59.4114 146.903C59.4426 146.791 59.5001 146.689 59.579 146.605C59.6579 146.52 59.756 146.456 59.8649 146.418L78.6779 135.582C80.0254 134.806 81.3881 134.018 82.507 132.937C83.3201 132.147 83.9858 131.218 84.4729 130.193C84.8628 129.377 84.8992 127.45 85.3973 126.846C85.885 126.255 87.5534 126.208 88.3239 125.976C89.4106 125.642 90.4747 125.239 91.5099 124.768C95.7182 122.881 99.4656 120.139 103.5 117.929C105.763 116.632 108.18 115.629 110.696 114.943V114.943Z" fill="#2F2E41"/>
<path opacity="0.1" d="M100.03 123.035C96.7982 125.469 92.6132 127.706 89.4098 130.204C88.3165 131.056 70.0912 141.328 69.8335 142.692C72.8221 143.197 91.8597 129.846 94.5834 128.513C97.3072 127.181 99.7218 125.303 102.114 123.438C102.724 122.962 105.308 121.534 103.558 121.003C102.572 120.704 100.758 122.549 100.03 123.035Z" fill="black"/>
<path opacity="0.17" d="M37.1069 70.7948L37.5344 67.4871C37.5344 67.4871 53.4798 68.6539 50.9883 72.5788C48.4968 76.5038 42.4459 76.8606 42.4459 76.8606L37.1069 70.7948Z" fill="#2F2E41"/>
<path d="M49.1435 56.4128C50.0569 56.5136 50.9367 56.8159 51.7198 57.2979C52.5029 57.7799 53.1698 58.4297 53.6727 59.2007V59.2007C54.1309 59.9042 54.4426 60.6933 54.589 61.5206C54.7353 62.3479 54.7134 63.1963 54.5245 64.0149C54.3356 64.8335 53.9836 65.6054 53.4896 66.2842C52.9956 66.963 52.3699 67.5347 51.65 67.9649C51.386 68.1212 51.1105 68.257 50.8258 68.3711L41.0247 98.4243C40.7407 99.0173 40.3427 99.5482 39.8533 99.9864C39.364 100.425 38.793 100.762 38.1733 100.978C37.5537 101.194 36.8974 101.286 36.2424 101.247C35.5874 101.208 34.9464 101.04 34.3564 100.752C33.7664 100.464 33.239 100.062 32.8046 99.5691C32.3701 99.0762 32.0371 98.502 31.8247 97.8796C31.6123 97.2572 31.5247 96.5989 31.567 95.9425C31.6093 95.2861 31.7805 94.6445 32.071 94.0546L42.4941 64.335C42.2102 63.3517 42.1724 62.3134 42.3842 61.3119C42.5959 60.3105 43.0506 59.3768 43.7081 58.5935C44.3655 57.8102 45.2054 57.2015 46.1535 56.8211C47.1016 56.4408 48.1285 56.3005 49.1435 56.4128Z" fill="#FFB7B7"/>
<path d="M37.2537 67.769C37.2537 67.769 42.8696 77.3877 50.9887 72.579L43.1203 102.765H36.4908L29.6328 101.481L31.553 89.0091L37.2537 67.769Z" fill="#4A7CE2"/>
<path d="M77.3525 74.3433L72.7002 67.9404C72.7002 67.9404 74.9362 61.2991 83.6063 63.7277C83.6063 63.7277 89.1235 76.1077 77.3525 74.3433Z" fill="#E5E5E5"/>
<path opacity="0.17" d="M77.3525 74.3433L72.7002 67.9404C72.7002 67.9404 74.9362 61.2991 83.6063 63.7277C83.6063 63.7277 89.1235 76.1077 77.3525 74.3433Z" fill="#2F2E41"/>
<path d="M78.5844 51.9726C79.9266 52.5981 81.0002 53.6858 81.6099 55.0378C82.2197 56.3898 82.325 57.9163 81.9068 59.3395L92.3299 89.0592C92.6204 89.649 92.7917 90.2906 92.834 90.9471C92.8764 91.6035 92.7888 92.2619 92.5764 92.8843C92.364 93.5068 92.031 94.081 91.5965 94.574C91.162 95.0669 90.6346 95.4689 90.0446 95.7569C89.4546 96.0448 88.8136 96.213 88.1586 96.2518C87.5035 96.2905 86.8472 96.1991 86.2275 95.9828C85.6078 95.7664 85.0369 95.4294 84.5475 94.9911C84.0582 94.5528 83.6601 94.0219 83.3761 93.4288L73.5751 63.3756C73.2904 63.2616 73.0149 63.1258 72.7509 62.9695C72.031 62.5392 71.4053 61.9675 70.9113 61.2887C70.4173 60.6099 70.0653 59.8381 69.8764 59.0195C69.6874 58.2009 69.6655 57.3525 69.8119 56.5252C69.9583 55.6979 70.2699 54.9087 70.7282 54.2052V54.2052C71.2311 53.4342 71.898 52.7844 72.6811 52.3024C73.4642 51.8204 74.3439 51.5182 75.2573 51.4174C76.3963 51.288 77.5487 51.4803 78.5844 51.9726Z" fill="#FFB7B7"/>
<path d="M72.7002 67.9405C72.7002 67.9405 80.3761 72.6095 83.6063 63.7278L94.4227 92.2776L91.2086 97.9125L90.7439 97.9513C88.8265 98.1116 86.899 97.8029 85.1268 97.0517C83.3547 96.3006 81.791 95.1294 80.5699 93.6388V93.6388C78.0794 90.5986 76.3839 86.984 75.6368 83.1219L72.7002 67.9405Z" fill="#4A7CE2"/>
</svg>
