<svg viewBox="0 0 64 40" fill="none" xmlns="http://www.w3.org/2000/svg">
<g clip-path="url(#clip0)">
<path opacity="0.1" d="M63.2947 27.554C62.6556 29.0909 61.3185 30.4791 59.8832 31.7937C58.6215 32.9496 57.2718 34.0666 55.8343 35.1446C55.4359 35.4439 55.0311 35.7394 54.62 36.0312L54.3344 36.2326C54.0812 36.4118 53.8236 36.5893 53.5618 36.7651L53.5304 36.7864C53.2764 36.9593 53.0201 37.1304 52.7616 37.2998C51.9161 37.8553 51.0222 38.4069 50.0341 38.8636C49.6975 39.0196 49.3501 39.165 48.9905 39.2951C48.796 39.3658 48.5973 39.432 48.3946 39.4938C48.0624 39.5948 47.7212 39.6829 47.3649 39.7552C47.3055 39.7676 47.2454 39.7794 47.1854 39.7906C46.8207 39.859 46.4515 39.909 46.0783 39.9432C44.7109 40.0683 43.2986 39.9769 41.929 39.7625C41.2444 39.6554 40.5705 39.5173 39.9185 39.3602C39.8383 39.3411 39.7586 39.3215 39.6784 39.3041C37.4581 38.7486 35.3736 37.9945 33.1376 37.4642C32.367 37.2813 31.5815 37.1261 30.7809 36.9985C30.3904 36.9364 29.9976 36.8803 29.6026 36.8302C28.6729 36.7146 27.7313 36.6372 26.7859 36.5979C25.5111 36.5418 24.1947 36.5659 22.9816 36.7887C22.82 36.8182 22.6605 36.8515 22.503 36.8886C22.3032 36.9353 22.1072 36.9886 21.9149 37.0485C21.3966 37.216 20.8921 37.4236 20.4061 37.6696C20.3102 37.7167 20.2154 37.7644 20.1205 37.8127C19.8231 37.9642 19.5297 38.1191 19.2317 38.2694C18.6955 38.5501 18.1374 38.7869 17.563 38.9775C17.2484 39.0769 16.9284 39.1586 16.6047 39.2222C15.7478 39.3939 14.8361 39.4618 13.9203 39.4663C13.4787 39.4663 13.0366 39.4567 12.5995 39.4337H12.586C12.4368 39.4259 12.287 39.4169 12.1371 39.4057C11.4548 39.3591 10.7748 39.2873 10.1048 39.1891C7.80934 38.8524 5.63226 38.2161 3.88105 37.2454C1.50253 35.9279 -0.00796418 33.9635 0.218722 32.0008C0.381442 30.5868 1.39199 29.2738 2.35092 27.9883C4.13467 25.5946 5.80564 23.1465 6.68489 20.566C7.39805 18.4714 7.61071 16.2567 9.25194 14.3742C9.77769 13.7716 10.4499 13.2217 11.2326 12.7397C11.8177 12.3815 12.431 12.0715 13.0663 11.8128C13.7844 11.5187 14.5231 11.2777 15.2765 11.0918C15.9295 10.9298 16.5911 10.8054 17.2583 10.7192C17.6208 10.6721 17.9878 10.6356 18.357 10.6109C18.6413 10.5911 18.9269 10.5786 19.2138 10.5733H19.2581C19.4336 10.57 19.609 10.57 19.7844 10.5733C21.0637 10.5931 22.3394 10.713 23.5999 10.9319C24.3888 11.0637 25.171 11.2253 25.9369 11.4032C26.3941 11.5091 26.847 11.62 27.2959 11.7359C27.4328 11.7713 27.5697 11.8072 27.705 11.8437C30.8988 12.6994 33.7088 13.881 36.7859 14.8506C36.8016 14.8557 36.8167 14.8607 36.8325 14.8647C37.464 15.0589 38.1053 15.2199 38.7537 15.3472C39.2301 15.4426 39.7171 15.5251 40.2126 15.5975C40.9712 15.7097 41.746 15.7983 42.5265 15.8746L42.6988 15.8915C43.844 16.0037 44.9993 16.0873 46.1215 16.1849C46.5199 16.2197 46.9149 16.2556 47.3043 16.2972C47.5512 16.3218 47.7959 16.348 48.0383 16.3757C48.2122 16.3959 48.3867 16.4161 48.5612 16.4374C48.7357 16.4587 48.9203 16.4812 49.0999 16.5042C49.2166 16.5188 49.3327 16.5339 49.4494 16.5502C50.1564 16.6439 50.8617 16.7488 51.5592 16.8689C51.9834 16.9419 52.4053 17.0204 52.8222 17.1051C53.1241 17.1665 53.4234 17.2312 53.72 17.2993C53.94 17.349 54.158 17.4014 54.3743 17.4564C56.1311 17.898 57.7751 18.477 59.1919 19.2587C62.8711 21.2837 64.5173 24.615 63.2947 27.554Z" fill="#4A7CE2"/>
<path opacity="0.1" d="M13.9705 5.07235C14.6408 5.07235 15.1842 4.52898 15.1842 3.85869C15.1842 3.1884 14.6408 2.64502 13.9705 2.64502C13.3002 2.64502 12.7568 3.1884 12.7568 3.85869C12.7568 4.52898 13.3002 5.07235 13.9705 5.07235Z" fill="#4A7CE2"/>
<path opacity="0.1" d="M38.7781 2.42734C39.4484 2.42734 39.9918 1.88396 39.9918 1.21367C39.9918 0.543378 39.4484 0 38.7781 0C38.1078 0 37.5645 0.543378 37.5645 1.21367C37.5645 1.88396 38.1078 2.42734 38.7781 2.42734Z" fill="#4A7CE2"/>
<path opacity="0.1" d="M53.4871 5.14511C54.1574 5.14511 54.7008 4.60173 54.7008 3.93144C54.7008 3.26115 54.1574 2.71777 53.4871 2.71777C52.8168 2.71777 52.2734 3.26115 52.2734 3.93144C52.2734 4.60173 52.8168 5.14511 53.4871 5.14511Z" fill="#4A7CE2"/>
<path opacity="0.1" d="M2.034 8.82924C3.15735 8.82924 4.06801 7.91859 4.06801 6.79524C4.06801 5.67189 3.15735 4.76123 2.034 4.76123C0.910654 4.76123 0 5.67189 0 6.79524C0 7.91859 0.910654 8.82924 2.034 8.82924Z" fill="#4A7CE2"/>
<path opacity="0.1" d="M3.9842 18.8727C5.10755 18.8727 6.0182 17.962 6.0182 16.8387C6.0182 15.7153 5.10755 14.8047 3.9842 14.8047C2.86085 14.8047 1.9502 15.7153 1.9502 16.8387C1.9502 17.962 2.86085 18.8727 3.9842 18.8727Z" fill="#4A7CE2"/>
<path opacity="0.1" d="M58.575 15.1754C59.6984 15.1754 60.609 14.2648 60.609 13.1414C60.609 12.0181 59.6984 11.1074 58.575 11.1074C57.4517 11.1074 56.541 12.0181 56.541 13.1414C56.541 14.2648 57.4517 15.1754 58.575 15.1754Z" fill="#4A7CE2"/>
<path d="M19.8827 13.4301C19.8928 13.6009 19.8828 13.7723 19.853 13.9407C19.7407 14.462 19.266 14.82 18.8065 15.0916C18.347 15.3631 17.842 15.6201 17.5687 16.0786C17.2393 16.6324 17.3443 17.3769 17.7309 17.8943C18.1175 18.4116 18.7302 18.7197 19.3609 18.8482C20.5111 19.0855 21.7708 18.7522 22.6332 17.9554C23.4956 17.1587 23.9283 15.9136 23.7167 14.7572C23.2488 14.8228 22.8319 14.4098 22.6804 13.9621C22.5289 13.5143 22.5603 13.029 22.5014 12.5593C22.4971 12.4799 22.4732 12.4028 22.4318 12.3349C22.3661 12.244 22.25 12.2069 22.1417 12.1772C21.6008 12.0285 20.6907 11.7031 20.1301 11.8276C19.6251 11.9432 19.8743 13.0059 19.8827 13.4301Z" fill="#BE6F72"/>
<path opacity="0.1" d="M19.8827 13.4301C19.8928 13.6009 19.8828 13.7723 19.853 13.9407C19.7407 14.462 19.266 14.82 18.8065 15.0916C18.347 15.3631 17.842 15.6201 17.5687 16.0786C17.2393 16.6324 17.3443 17.3769 17.7309 17.8943C18.1175 18.4116 18.7302 18.7197 19.3609 18.8482C20.5111 19.0855 21.7708 18.7522 22.6332 17.9554C23.4956 17.1587 23.9283 15.9136 23.7167 14.7572C23.2488 14.8228 22.8319 14.4098 22.6804 13.9621C22.5289 13.5143 22.5603 13.029 22.5014 12.5593C22.4971 12.4799 22.4732 12.4028 22.4318 12.3349C22.3661 12.244 22.25 12.2069 22.1417 12.1772C21.6008 12.0285 20.6907 11.7031 20.1301 11.8276C19.6251 11.9432 19.8743 13.0059 19.8827 13.4301Z" fill="black"/>
<path d="M19.2287 38.2707C18.6924 38.5514 18.1344 38.7882 17.5599 38.9789C17.2453 39.0782 16.9253 39.1599 16.6016 39.2235C16.5787 38.792 16.6022 38.3594 16.6717 37.933C16.7155 37.6878 16.78 37.4448 16.7968 37.1962C16.8207 36.8374 16.7439 36.4791 16.5752 36.1616C17.2003 36.0763 17.7939 35.9371 18.4218 35.9781L18.4616 35.9809C18.5363 35.9828 18.6102 35.9966 18.6805 36.0218C18.7771 36.0686 18.8591 36.1407 18.9178 36.2306C18.9501 36.2747 18.9799 36.3206 19.007 36.368C19.1843 36.6744 19.2517 37.0279 19.2657 37.3921C19.2723 37.6854 19.2599 37.979 19.2287 38.2707Z" fill="#BE6F72"/>
<path d="M22.5003 36.8893C22.3006 36.936 22.1046 36.9893 21.9123 37.0492C21.394 37.2167 20.8895 37.4243 20.4035 37.6703C20.3719 37.5175 20.3565 37.3618 20.3575 37.2057C20.6439 37.0082 20.967 36.8703 21.3078 36.8003C21.6485 36.7302 21.9999 36.7293 22.341 36.7978C22.3866 36.8033 22.4299 36.8207 22.4667 36.8483C22.48 36.8601 22.4913 36.8739 22.5003 36.8893Z" fill="#BE6F72"/>
<path d="M23.4654 34.0568C23.4273 34.4238 23.3711 34.7919 23.241 35.137C23.1001 35.5073 22.8712 35.8664 22.9004 36.262C22.9133 36.4337 22.9716 36.62 22.9801 36.79C22.8185 36.8195 22.6589 36.8528 22.5014 36.8898C22.3017 36.9366 22.1057 36.9899 21.9134 37.0498C21.3951 37.2172 20.8906 37.4249 20.4046 37.6709C20.3086 37.718 20.2138 37.7657 20.119 37.814C20.0797 37.8089 20.041 37.8028 20.0017 37.7955C19.7212 37.7444 19.426 37.6187 19.2672 37.3943C19.2309 37.3426 19.2023 37.2859 19.1825 37.2259C19.091 36.9527 19.1864 36.6121 18.9962 36.3955L18.9872 36.4034L18.9805 36.4079C18.8763 36.5022 18.7619 36.5847 18.6394 36.6536C18.3605 36.8115 18.0515 36.9089 17.7325 36.9397C17.4135 36.9704 17.0916 36.9337 16.7877 36.8321C16.6673 36.7911 16.551 36.7388 16.4404 36.6761C16.1834 36.5296 15.9354 36.2833 15.9556 35.9893C15.9668 35.8254 16.0605 35.6683 16.0353 35.5062C16.0168 35.39 15.9404 35.2935 15.8832 35.1908C15.5078 34.5175 15.9556 33.6517 15.7199 32.92C15.7143 32.9026 15.7081 32.8852 15.702 32.8684C15.6846 32.8207 15.6649 32.7747 15.6459 32.7287C15.5976 32.6215 15.5437 32.516 15.5011 32.4061C15.4656 32.3136 15.4374 32.2185 15.4169 32.1216C15.364 31.8402 15.3451 31.5535 15.3608 31.2676C15.3608 30.514 15.4955 29.7425 15.6874 29.0164C15.7216 28.8874 15.7598 28.705 15.8103 28.5064C15.8595 28.297 15.9259 28.0921 16.0089 27.8937C16.1211 27.6356 16.2737 27.4296 16.4825 27.3808C16.7967 27.3073 17.277 27.4627 17.5957 27.5009L18.8554 27.6513L21.3742 27.9526C21.809 28.0048 22.2658 28.0648 22.6243 28.3094C22.6479 28.3257 22.6709 28.3425 22.6939 28.3605C22.7886 28.4351 22.8735 28.5215 22.9464 28.6175C22.9722 28.6506 22.9969 28.6854 23.0205 28.7207C23.1022 28.8458 23.1717 28.9785 23.2281 29.1169C23.5406 29.8676 23.5479 30.7054 23.5501 31.5184C23.5501 32.3668 23.5529 33.2146 23.4654 34.0568Z" fill="#3F3D56"/>
<path opacity="0.1" d="M18.6361 36.6568C18.5604 36.365 18.4005 35.9425 18.3769 35.8275C18.2979 35.4416 18.2405 35.0516 18.2052 34.6593C18.1429 33.9601 18.0307 32.9759 18.2776 32.311C18.5093 32.4345 18.713 32.784 18.8202 33.0225C19.2085 33.8872 18.7714 34.9488 19.1361 35.8235C19.1634 35.8759 19.1803 35.9331 19.186 35.9919C19.1797 36.0665 19.1529 36.138 19.1086 36.1984L18.9857 36.4026L18.6361 36.6568Z" fill="black"/>
<path d="M26.718 9.96317C27.131 9.28985 27.6966 8.62774 27.6613 7.84051C27.6483 7.55996 27.5563 7.28558 27.4862 7.01064C27.2852 6.21491 27.2719 5.38335 27.4475 4.58162C28.1413 4.47014 28.8515 4.62921 29.4315 5.02601C29.615 5.15282 29.789 5.31049 29.8698 5.51866C29.9444 5.71056 29.9321 5.92434 29.9186 6.12971C29.8877 6.60159 29.8456 7.10491 29.555 7.47636C29.4647 7.59251 29.3536 7.6907 29.2655 7.80797C29.137 7.9763 29.0618 8.18167 28.9883 8.38198L28.0344 10.9771C27.553 12.285 27.0311 13.653 25.9706 14.5581C25.9448 14.5799 25.1851 13.5009 25.1222 13.3926C24.8681 12.9488 24.9792 12.7614 25.2866 12.39C25.8932 11.6555 26.2226 10.7695 26.718 9.96317Z" fill="#BE6F72"/>
<path d="M15.7863 32.0825C15.7831 32.2762 15.7668 32.4695 15.7375 32.661C15.7274 32.7317 15.7156 32.8019 15.7016 32.872C15.5103 33.8708 15.0339 34.8207 14.7006 35.7937C14.2612 37.078 14.0682 38.1924 13.915 39.4678C13.4734 39.4678 13.0313 39.4582 12.5942 39.4352H12.5807C12.4315 39.4274 12.2817 39.4184 12.1318 39.4072C12.2671 38.2176 12.0196 36.9697 12.2615 35.7791C12.3591 35.2999 12.5257 34.8347 12.6262 34.3578C12.6571 34.2174 12.6805 34.0754 12.6963 33.9325C12.7103 33.7967 12.7176 33.6559 12.7788 33.5335C12.7844 33.5217 12.7908 33.5103 12.7979 33.4993C12.8516 33.4147 12.9182 33.3389 12.9954 33.2749C13.6791 32.6753 14.5153 32.2766 15.4115 32.1229C15.5389 32.1055 15.6629 32.0909 15.7863 32.0825Z" fill="#FBBEBE"/>
<path opacity="0.1" d="M15.7863 32.0825C15.7831 32.2762 15.7668 32.4695 15.7375 32.661C15.7274 32.7317 15.7156 32.8019 15.7016 32.872C15.5103 33.8708 15.0339 34.8207 14.7006 35.7937C14.2612 37.078 14.0682 38.1924 13.915 39.4678C13.4734 39.4678 13.0313 39.4582 12.5942 39.4352H12.5807C12.4315 39.4274 12.2817 39.4184 12.1318 39.4072C12.2671 38.2176 12.0196 36.9697 12.2615 35.7791C12.3591 35.2999 12.5257 34.8347 12.6262 34.3578C12.6571 34.2174 12.6805 34.0754 12.6963 33.9325C12.7103 33.7967 12.7176 33.6559 12.7788 33.5335C12.7844 33.5217 12.7908 33.5103 12.7979 33.4993C12.8516 33.4147 12.9182 33.3389 12.9954 33.2749C13.6791 32.6753 14.5153 32.2766 15.4115 32.1229C15.5389 32.1055 15.6629 32.0909 15.7863 32.0825Z" fill="black"/>
<path d="M12.9416 34.6393C12.9326 34.9511 12.9069 35.2622 12.8648 35.5713C12.715 36.8343 12.6869 38.1523 12.5842 39.4345C12.435 39.4266 12.2851 39.4176 12.1353 39.4064C11.453 39.3598 10.773 39.288 10.103 39.1898C10.1546 38.901 10.2066 38.6123 10.259 38.3235C10.323 37.9694 10.3869 37.612 10.3684 37.2529C10.351 36.9134 10.2601 36.5829 10.1877 36.2502C10.0334 35.5376 9.94703 34.7689 9.69285 34.0967C9.56028 33.7197 9.3487 33.3753 9.07227 33.0867C10.1238 32.6737 11.1343 32.6501 12.2638 32.6939C12.344 32.6895 12.4237 32.709 12.4928 32.75C12.5463 32.7964 12.5861 32.8566 12.6078 32.924C12.7775 33.3323 12.884 33.764 12.9237 34.2044C12.9372 34.349 12.9432 34.4941 12.9416 34.6393Z" fill="#FBBEBE"/>
<path d="M21.411 13.1403C22.6196 13.1403 23.5993 12.1605 23.5993 10.952C23.5993 9.74341 22.6196 8.76367 21.411 8.76367C20.2024 8.76367 19.2227 9.74341 19.2227 10.952C19.2227 12.1605 20.2024 13.1403 21.411 13.1403Z" fill="#BE6F72"/>
<path d="M21.8663 16.0668C22.1468 15.5882 22.3926 14.9906 22.9324 14.8577C23.237 14.7819 23.5541 14.8851 23.8509 14.9867C23.9369 15.0071 24.015 15.0523 24.0753 15.1169C24.1192 15.1865 24.1427 15.2669 24.1432 15.3492C24.2372 16.3384 24.234 17.3344 24.1337 18.323C24.0624 19.0227 23.9424 19.7191 23.921 20.4221C23.8913 21.3968 24.0518 22.3714 23.999 23.3449C23.9592 24.0828 23.7976 24.8077 23.6371 25.5287L22.9638 28.5475C22.9517 28.6409 22.9143 28.7292 22.8555 28.8028C22.7987 28.8548 22.7308 28.8932 22.6569 28.915C21.6823 29.2595 20.6462 29.3958 19.6157 29.3151C18.5851 29.2344 17.5829 28.9385 16.6738 28.4465C16.4309 28.3129 16.1885 28.1586 16.0302 27.9308C15.8058 27.6076 15.785 27.1801 15.858 26.7929C15.9309 26.4057 16.0886 26.0405 16.1946 25.6606C16.3585 25.0714 16.3972 24.4565 16.4342 23.846C16.4836 23.0425 16.533 22.2339 16.4471 21.4332C16.3882 20.8817 16.2653 20.3385 16.1727 19.7914C16.0364 18.9669 15.9573 18.1339 15.936 17.2985C15.9219 16.7996 15.9449 16.2458 16.29 15.8862C16.4583 15.7111 16.6828 15.6056 16.9112 15.5203C17.2944 15.3789 17.7225 15.2959 18.1097 15.4249C18.4968 15.554 18.8088 15.9602 18.7174 16.358C18.6753 16.5426 18.5558 16.7042 18.5266 16.8917C18.4879 17.1397 18.6192 17.3894 18.8071 17.5571C19.8182 18.4706 21.3618 16.9332 21.8663 16.0668Z" fill="#E3E8F4"/>
<path d="M21.9461 13.8306C22.2531 13.7175 22.5868 13.698 22.905 13.7745C23.1076 13.8228 23.3264 13.908 23.5132 13.8177C23.5811 13.7852 23.6372 13.7319 23.7057 13.7016C23.8909 13.6202 24.131 13.7201 24.2948 13.6017C24.3981 13.5271 24.4318 13.3913 24.4665 13.2678C24.635 12.6786 24.9803 12.1553 25.4558 11.7686C25.3969 12.1989 25.3542 12.6888 25.6387 13.0176C25.7683 13.1668 25.9501 13.2605 26.1341 13.3335C26.3984 13.4384 26.6885 13.508 26.9674 13.4507C27.2463 13.3935 27.5072 13.1825 27.5515 12.9014C27.542 13.3239 27.1396 13.6191 27.0269 14.027C26.9842 14.1796 26.9882 14.3418 26.9584 14.4978C26.8827 14.8962 26.5982 15.216 26.3496 15.5369C25.5557 16.5692 25.0486 17.793 24.8795 19.0842C24.868 19.2375 24.8359 19.3884 24.7841 19.5331C24.7291 19.6441 24.6669 19.7513 24.5978 19.8541C24.1866 20.5487 24.3134 21.4252 24.4531 22.2186C24.6714 23.4614 24.8891 24.679 25.2426 25.8904C25.3032 26.0975 25.3716 26.3135 25.5259 26.4644C25.4771 26.9543 24.9828 27.1776 24.5384 27.3891C24.0996 27.5984 23.6948 27.8725 23.3376 28.2022C23.2097 28.32 23.0834 28.4524 23.0369 28.6202C22.9931 28.7779 23.0245 28.9513 22.9684 29.1044C22.9123 29.2576 22.6878 29.3676 22.5891 29.2385C22.4657 28.7767 22.6766 28.2936 22.6671 27.8156C22.6604 27.4929 22.5549 27.1793 22.5397 26.8566C22.5251 26.4914 22.6329 26.1328 22.7473 25.7861C23.066 24.8204 23.4509 23.8637 23.5615 22.8532C23.672 21.8426 23.4655 20.7389 22.7484 20.0179C21.8973 19.1583 21.4248 17.9929 20.5124 17.2034C20.3677 17.0783 20.2038 16.9229 20.228 16.7332C20.2446 16.6497 20.2814 16.5715 20.3351 16.5054C20.6482 16.0632 21.0646 15.7025 21.4012 15.2794C21.7379 14.8563 22.0072 14.3693 21.9461 13.8306Z" fill="#3F3D56"/>
<path d="M18.9503 14.7356C18.8942 14.7917 18.8555 14.8692 18.7904 14.9174C18.7144 14.9643 18.6277 14.9912 18.5385 14.9954C18.2083 15.0456 17.8753 15.0754 17.5414 15.0846C17.2608 15.0846 16.9696 15.0599 16.6997 15.1368C16.3232 15.2434 16.0225 15.5408 15.8339 15.8831C15.6454 16.2254 15.5562 16.6125 15.4838 16.998C15.3243 17.8473 15.2388 18.7088 15.2285 19.5729C15.691 19.2041 16.1032 18.7762 16.4545 18.3003C16.7239 17.935 16.9679 17.531 17.3523 17.287C17.529 17.1747 17.7277 17.1007 17.9055 16.9913C18.2764 16.7629 18.5334 16.3937 18.7803 16.0374C18.9621 15.7731 19.4879 15.2569 19.5294 14.9404C19.5647 14.638 19.1467 14.4904 18.9503 14.7356Z" fill="#3F3D56"/>
<path d="M20.9059 9.45386C20.9751 9.49547 21.0415 9.54178 21.1045 9.59245C21.4855 9.85841 21.9955 9.80903 22.4562 9.74844C22.5976 9.73048 22.7429 9.71028 22.8641 9.63621C23.0588 9.51614 23.1503 9.26925 23.1312 9.04088C23.1121 8.81251 22.9971 8.6021 22.8568 8.42367C22.671 8.18754 22.4391 7.9916 22.1754 7.8477C21.9116 7.7038 21.6213 7.61494 21.3222 7.5865C21.1673 7.5662 21.0098 7.58293 20.8626 7.63532C20.6814 7.70994 20.5451 7.86369 20.3779 7.96637C19.8846 8.26936 19.1249 8.1347 18.8068 8.61837C18.5739 8.97523 18.74 9.46003 18.63 9.8702C18.5481 10.1766 18.3119 10.4554 18.3573 10.768C18.3826 10.9363 18.4881 11.0833 18.5722 11.2337C18.7655 11.5794 18.8549 11.9735 18.8298 12.3688C19.0458 12.5214 19.3471 12.2841 19.4071 12.0271C19.4672 11.7701 19.3982 11.4963 19.4492 11.237C19.5396 10.782 19.9413 10.4481 20.1226 10.0307C20.2527 9.7316 20.4648 9.22661 20.9059 9.45386Z" fill="#3F3D56"/>
<path d="M15.5997 14.4352C15.5829 14.5373 15.5722 14.6501 15.6289 14.7365C15.7411 14.9048 15.9981 14.8442 16.2001 14.8695C16.5149 14.9082 16.7472 15.2061 16.8083 15.5192C16.8695 15.8323 16.7965 16.151 16.7169 16.4585C16.5366 17.1554 16.3218 17.8424 16.0727 18.5195C15.4027 18.4403 14.6974 18.1828 14.3417 17.611C14.0185 17.0909 14.0516 16.4282 13.8462 15.8514C13.702 15.4452 13.4434 15.0917 13.1875 14.7449C13.5988 14.7965 13.8928 14.3263 13.9169 13.9122C13.9411 13.4981 13.8109 13.0779 13.8995 12.6733C13.9203 12.5774 15.5413 12.8798 15.699 12.9892C16.1546 13.3051 15.6715 13.9964 15.5997 14.4352Z" fill="#FBBEBE"/>
<path opacity="0.1" d="M15.5997 14.4352C15.5829 14.5373 15.5722 14.6501 15.6289 14.7365C15.7411 14.9048 15.9981 14.8442 16.2001 14.8695C16.5149 14.9082 16.7472 15.2061 16.8083 15.5192C16.8695 15.8323 16.7965 16.151 16.7169 16.4585C16.5366 17.1554 16.3218 17.8424 16.0727 18.5195C15.4027 18.4403 14.6974 18.1828 14.3417 17.611C14.0185 17.0909 14.0516 16.4282 13.8462 15.8514C13.702 15.4452 13.4434 15.0917 13.1875 14.7449C13.5988 14.7965 13.8928 14.3263 13.9169 13.9122C13.9411 13.4981 13.8109 13.0779 13.8995 12.6733C13.9203 12.5774 15.5413 12.8798 15.699 12.9892C16.1546 13.3051 15.6715 13.9964 15.5997 14.4352Z" fill="black"/>
<path d="M15.2391 13.758C16.4477 13.758 17.4274 12.7782 17.4274 11.5697C17.4274 10.3611 16.4477 9.38135 15.2391 9.38135C14.0305 9.38135 13.0508 10.3611 13.0508 11.5697C13.0508 12.7782 14.0305 13.758 15.2391 13.758Z" fill="#FBBEBE"/>
<path d="M14.5649 14.1208C14.6446 13.9963 14.5088 13.8223 14.5711 13.6882C14.6081 13.6074 14.7018 13.5726 14.7742 13.5199C14.865 13.446 14.9374 13.3521 14.9858 13.2455C15.3265 12.5909 15.4296 11.8383 15.2775 11.1161C15.2259 10.8737 15.1799 10.5517 15.4015 10.4428C15.463 10.4154 15.5303 10.4038 15.5974 10.4091C15.9969 10.422 16.3829 10.6897 16.7706 10.5949C16.903 10.5589 17.0212 10.4833 17.1094 10.3784C17.1976 10.2734 17.2517 10.1439 17.2644 10.0074C17.2896 9.64492 17.0181 9.33407 16.751 9.08999C16.2701 8.64784 15.5373 8.54964 14.8842 8.53898L13.6694 8.51878C13.2806 8.51205 12.8446 8.52439 12.5741 8.80326C12.1847 9.20445 12.3805 9.86094 12.3244 10.417C12.2767 10.8608 12.0547 11.2675 11.7072 11.5476C11.4553 11.7485 11.1085 11.9404 11.113 12.2613C11.113 12.3736 11.1613 12.4757 11.1921 12.5817C11.3161 13.0014 11.1977 13.4655 10.9598 13.833C10.7219 14.2005 10.374 14.4833 10.0133 14.7308C9.82023 14.8626 9.62048 14.9894 9.46786 15.1684C9.30054 15.3752 9.20118 15.6286 9.18338 15.8939C9.15937 16.0967 9.20106 16.3019 9.30233 16.4792C9.53968 16.8585 10.1092 16.914 10.4992 16.6941C10.8891 16.4741 11.127 16.0578 11.2847 15.6392C11.379 15.3906 11.4749 15.1061 11.7162 14.9945C12.0214 14.8525 12.3783 15.077 12.5769 15.3491C12.7756 15.6212 12.8979 15.9534 13.1521 16.1745C13.5505 16.5213 14.2283 16.4651 14.5649 16.0578C14.8056 15.7654 14.8589 15.3609 14.8455 14.9821C14.8388 14.6737 14.7412 14.3741 14.5649 14.1208Z" fill="#3F3D56"/>
<path d="M15.3509 16.9727C15.1012 17.026 14.8403 16.9082 14.6546 16.732C14.4689 16.5558 14.3437 16.3286 14.2136 16.1086C13.8835 15.5538 13.5052 15.0292 13.0829 14.5409C12.7149 14.1162 12.2026 13.6847 11.6561 13.816C11.4731 13.8688 11.3033 13.9596 11.1578 14.0825C10.6759 14.464 10.2987 14.9616 10.0616 15.5286C9.82437 16.0956 9.73493 16.7135 9.80161 17.3245C9.84426 17.682 9.94133 18.0315 9.98173 18.3906C10.0089 18.6866 10.0168 18.9841 10.0053 19.2811C9.99014 20.1856 9.95928 21.1423 9.47168 21.9043C8.71588 23.0826 8.31132 24.4898 7.75639 25.7759C7.45676 26.4711 7.27721 27.2112 7.10102 27.9474C6.99665 28.3843 6.89248 28.821 6.78848 29.2576L6.10955 32.1136C6.03941 32.4082 5.96927 32.7168 6.04334 33.0113C6.15556 33.4512 6.56909 33.7587 7.00507 33.8839C7.44105 34.009 7.90284 33.9877 8.35565 33.9916C9.22199 34 10.0951 34.1077 10.9081 34.4085C11.1404 34.4943 11.3721 34.597 11.6196 34.6172C11.867 34.6374 12.1134 34.5729 12.3451 34.4831C12.9775 34.2385 13.5195 33.8098 14.1019 33.4636C14.4657 33.2444 14.8489 33.059 15.2466 32.9098C15.4463 32.8352 15.6607 32.7645 15.7981 32.6012C15.9019 32.4783 15.9485 32.3178 15.9827 32.1607C16.1724 31.2764 16.045 30.3601 15.9827 29.4579C15.9205 28.5556 15.3812 27.6023 15.8273 26.8156C15.9171 26.6568 16.0243 26.5042 16.0703 26.328C16.1309 26.098 16.0798 25.8505 16.1309 25.6182C16.1685 25.4465 16.2588 25.2922 16.3205 25.1278C16.4282 24.8383 16.4428 24.523 16.4417 24.2138C16.4392 23.535 16.3677 22.8582 16.2285 22.1938C16.0517 21.3522 16.6364 20.52 16.9714 19.725C17.0915 19.4405 17.2615 19.1717 17.3114 18.867C17.3563 18.5921 17.2985 18.3121 17.2553 18.0366C17.1908 17.6096 17.1645 17.1777 17.1768 16.746C17.1874 16.3589 17.2284 15.9644 17.1358 15.5879C17.0432 15.2114 16.7789 14.8461 16.3991 14.7687C16.3565 14.7562 16.3116 14.7533 16.2678 14.7602C16.2239 14.7671 16.1822 14.7836 16.1455 14.8086C16.1016 14.8515 16.0707 14.906 16.0562 14.9657C15.9328 15.3438 15.9569 15.7512 15.8879 16.144C15.8189 16.5368 15.7381 16.8897 15.3509 16.9727Z" fill="#F86D70"/>
<path d="M10.0555 19.3828C10.0785 19.2274 10.0061 19.0209 9.849 19.0265C9.70424 19.0321 9.63971 19.2133 9.64027 19.3587C9.64083 19.504 9.66047 19.6706 9.55779 19.7728C9.46689 19.8631 9.31652 19.8603 9.21103 19.9338C9.1738 19.9603 9.14351 19.9955 9.1227 20.0362C9.1019 20.0769 9.0912 20.122 9.09151 20.1678C9.09151 20.2458 9.12686 20.3204 9.12911 20.3984C9.13135 20.4764 9.07917 20.5667 9.00174 20.5617C8.96197 20.6284 8.94541 20.7064 8.95464 20.7836C8.96388 20.8607 8.99839 20.9327 9.0528 20.9881C9.0932 21.0274 9.14594 21.0611 9.15941 21.1161C9.16367 21.1546 9.16063 21.1936 9.15043 21.2311C9.12686 21.3854 9.23347 21.5582 9.3889 21.575C9.30193 21.6373 9.31932 21.7832 9.399 21.8556C9.47867 21.928 9.59314 21.942 9.70031 21.942C9.94355 21.9407 10.1841 21.8909 10.4079 21.7956C10.4845 21.7703 10.5523 21.7235 10.6031 21.6609C10.6267 21.6286 10.6381 21.5889 10.6351 21.549C10.6321 21.5091 10.615 21.4716 10.5869 21.4432C10.6957 21.4611 10.8264 21.4712 10.8977 21.3871C10.997 21.2692 10.8904 21.0947 10.7855 20.9808C10.829 20.9744 10.8697 20.9552 10.9024 20.9259C10.9351 20.8965 10.9585 20.8581 10.9696 20.8155C10.9808 20.773 10.9791 20.7281 10.9649 20.6864C10.9508 20.6448 10.9246 20.6082 10.8899 20.5813C10.8539 20.5549 10.8051 20.5319 10.8001 20.4876C10.795 20.4433 10.8326 20.4147 10.8483 20.3754C10.8842 20.2873 10.8023 20.1975 10.7232 20.1442C10.5358 20.0196 10.2597 20.0219 10.0931 19.8962C9.92644 19.7705 10.0314 19.5511 10.0555 19.3828Z" fill="#BE6F72"/>
<path d="M21.6312 10.8684C21.4953 10.8821 21.3585 10.8853 21.2221 10.8779C21.1989 10.8754 21.1755 10.8821 21.1572 10.8966C21.1388 10.9111 21.1269 10.9322 21.1239 10.9554L20.863 12.9125C20.8429 13.0546 20.7848 13.1886 20.6947 13.3002C20.6204 13.3891 20.5652 13.4923 20.5325 13.6034C20.4998 13.7145 20.4902 13.8311 20.5045 13.9461V17.2706C20.5045 17.2706 20.4876 17.7139 20.8282 17.7139C21.2358 17.7651 21.6483 17.7651 22.0559 17.7139C22.0559 17.7139 22.3286 17.6623 22.3286 17.2532V13.9797C22.3494 13.8655 22.3451 13.7482 22.3161 13.6358C22.287 13.5234 22.2338 13.4186 22.1603 13.3288C22.0732 13.2168 22.0169 13.0839 21.997 12.9434L21.726 10.9453C21.7229 10.9228 21.7114 10.9024 21.6938 10.8881C21.6762 10.8738 21.6538 10.8668 21.6312 10.8684Z" fill="#3F3D56"/>
<path opacity="0.1" d="M21.6312 10.8684C21.4953 10.8821 21.3585 10.8853 21.2221 10.8779C21.1989 10.8754 21.1755 10.8821 21.1572 10.8966C21.1388 10.9111 21.1269 10.9322 21.1239 10.9554L20.863 12.9125C20.8429 13.0546 20.7848 13.1886 20.6947 13.3002C20.6204 13.3891 20.5652 13.4923 20.5325 13.6034C20.4998 13.7145 20.4902 13.8311 20.5045 13.9461V17.2706C20.5045 17.2706 20.4876 17.7139 20.8282 17.7139C21.2358 17.7651 21.6483 17.7651 22.0559 17.7139C22.0559 17.7139 22.3286 17.6623 22.3286 17.2532V13.9797C22.3494 13.8655 22.3451 13.7482 22.3161 13.6358C22.287 13.5234 22.2338 13.4186 22.1603 13.3288C22.0732 13.2168 22.0169 13.0839 21.997 12.9434L21.726 10.9453C21.7229 10.9228 21.7114 10.9024 21.6938 10.8881C21.6762 10.8738 21.6538 10.8668 21.6312 10.8684Z" fill="black"/>
<path d="M21.6332 14.0059H21.2196C20.8772 14.0059 20.5996 14.2835 20.5996 14.6259V16.1818C20.5996 16.5243 20.8772 16.8019 21.2196 16.8019H21.6332C21.9756 16.8019 22.2532 16.5243 22.2532 16.1818V14.6259C22.2532 14.2835 21.9756 14.0059 21.6332 14.0059Z" fill="#4A7CE2"/>
<path d="M27.1898 2.41163C27.0698 2.47754 26.9449 2.53382 26.8161 2.57996C26.7937 2.58662 26.7749 2.6017 26.7635 2.62201C26.752 2.64232 26.749 2.66628 26.7549 2.68881L27.2678 4.59657C27.3044 4.73504 27.3029 4.88086 27.2633 5.01852C27.2287 5.12911 27.2173 5.24564 27.2299 5.36083C27.2424 5.47601 27.2786 5.58737 27.3362 5.68791L28.6167 8.75603C28.6167 8.75603 28.7715 9.17125 29.0863 9.03995C29.4826 8.93002 29.8634 8.77053 30.2198 8.56526C30.2198 8.56526 30.4515 8.41264 30.2944 8.03558L29.0336 5.01459C29.0088 4.90116 28.9596 4.79447 28.8896 4.70186C28.8196 4.60925 28.7303 4.53294 28.6279 4.47817C28.5045 4.40835 28.4014 4.3076 28.3288 4.18584L27.3093 2.44641C27.2977 2.42629 27.2788 2.41143 27.2565 2.40495C27.2342 2.39846 27.2103 2.40085 27.1898 2.41163Z" fill="#3F3D56"/>
<path d="M28.4011 5.30657L28.0195 5.46582C27.7034 5.59769 27.5542 5.96077 27.686 6.27679L28.2852 7.71273C28.4171 8.02875 28.7802 8.17803 29.0962 8.04616L29.4778 7.88691C29.7938 7.75504 29.9431 7.39195 29.8113 7.07594L29.2121 5.64C29.0802 5.32398 28.7171 5.1747 28.4011 5.30657Z" fill="#4A7CE2"/>
<path d="M11.4439 14.1784C10.8407 14.4269 10.6023 15.2001 10.7437 15.8364C10.8851 16.4727 11.311 17.003 11.7262 17.5074L12.8899 18.927C13.2114 19.3198 13.5632 19.7333 14.0536 19.8702C14.7707 20.0705 15.4878 19.6138 16.1078 19.2008C17.9586 17.9676 19.9368 16.9374 22.0084 16.1282C22.211 16.0497 22.4186 15.97 22.5852 15.8297C22.9309 15.5391 23.0279 15.0032 22.8355 14.5953C22.643 14.1874 22.1947 13.922 21.743 13.9186C21.2913 13.9152 20.852 14.1542 20.5804 14.5156C20.4508 14.6879 20.3559 14.8848 20.2308 15.0599C19.9144 15.4998 19.4206 15.7719 18.9375 16.0177C17.7726 16.612 16.5735 17.1366 15.3464 17.5888C15.122 17.6707 14.8689 17.7487 14.6574 17.6404C14.5278 17.5736 14.4402 17.4474 14.3617 17.3239C14.0037 16.7605 13.719 16.1537 13.5144 15.5183C13.3612 15.0414 13.2372 14.5218 12.8691 14.1829C12.3473 13.7026 11.4024 13.8176 11.0113 14.4073C11.0113 14.4073 10.5529 15.0778 10.8335 15.3584C11.114 15.6389 11.4439 14.1784 11.4439 14.1784Z" fill="#FBBEBE"/>
<path d="M42.9125 11.8566C42.9944 12.0749 42.9966 12.3139 42.9849 12.5468C42.9703 12.8307 42.899 13.164 42.6353 13.2723C42.4636 13.3413 42.2515 13.2891 42.0989 13.3935C41.9137 13.5191 41.9227 13.7896 41.9513 14.0107C42.0304 14.6183 42.1196 15.2485 42.4507 15.7624C42.6286 16.0379 42.8693 16.2674 43.1133 16.4868C43.5998 16.9256 44.1334 17.3543 44.7725 17.5007C44.8766 17.5301 44.9862 17.5347 45.0924 17.5142C45.1971 17.4818 45.2921 17.424 45.369 17.3459C45.7393 17.0058 45.9301 16.5205 46.177 16.0806C46.3515 15.7658 46.5597 15.4634 46.6578 15.1166C46.7387 14.8136 46.7333 14.4941 46.6423 14.194C46.5513 13.8939 46.3783 13.6252 46.1428 13.4181C46.0333 13.3244 45.9121 13.2459 45.8061 13.1488C45.5289 12.8974 45.3673 12.5367 45.3011 12.1686C45.2349 11.8005 45.245 11.4217 45.277 11.0464C44.7159 11.0032 44.1587 11.0711 43.611 11.1805C43.3675 11.2293 43.0247 11.2517 42.8042 11.3679C42.5562 11.4997 42.8446 11.6686 42.9125 11.8566Z" fill="#FBBEBE"/>
<path opacity="0.1" d="M42.9125 11.8566C42.9944 12.0749 42.9966 12.3139 42.9849 12.5468C42.9703 12.8307 42.899 13.164 42.6353 13.2723C42.4636 13.3413 42.2515 13.2891 42.0989 13.3935C41.9137 13.5191 41.9227 13.7896 41.9513 14.0107C42.0304 14.6183 42.1196 15.2485 42.4507 15.7624C42.6286 16.0379 42.8693 16.2674 43.1133 16.4868C43.5998 16.9256 44.1334 17.3543 44.7725 17.5007C44.8766 17.5301 44.9862 17.5347 45.0924 17.5142C45.1971 17.4818 45.2921 17.424 45.369 17.3459C45.7393 17.0058 45.9301 16.5205 46.177 16.0806C46.3515 15.7658 46.5597 15.4634 46.6578 15.1166C46.7387 14.8136 46.7333 14.4941 46.6423 14.194C46.5513 13.8939 46.3783 13.6252 46.1428 13.4181C46.0333 13.3244 45.9121 13.2459 45.8061 13.1488C45.5289 12.8974 45.3673 12.5367 45.3011 12.1686C45.2349 11.8005 45.245 11.4217 45.277 11.0464C44.7159 11.0032 44.1587 11.0711 43.611 11.1805C43.3675 11.2293 43.0247 11.2517 42.8042 11.3679C42.5562 11.4997 42.8446 11.6686 42.9125 11.8566Z" fill="black"/>
<path d="M39.7813 13.508C38.8701 13.1955 38.4347 11.9745 37.4808 11.8376C37.3304 11.8157 37.1761 11.8241 37.0285 11.7893C36.4792 11.6592 36.243 11.024 36.0842 10.4825C35.5489 8.67745 34.8498 6.91109 33.8566 5.31082C33.4375 4.63749 32.7748 4.08424 32.4724 3.34695C32.4028 3.17862 32.3675 2.98672 32.2423 2.85374C32.1172 2.72076 31.8496 2.70168 31.7817 2.87113C31.7627 2.93116 31.7585 2.99486 31.7693 3.05686L31.835 3.75544L30.6937 3.65275C30.5881 3.63475 30.4797 3.64245 30.3778 3.6752C30.2677 3.7303 30.1799 3.82165 30.1292 3.93387C29.7432 4.65938 30.1545 5.60989 30.8356 6.06887C31.6313 6.60473 32.7675 6.68609 33.2961 7.48566C33.6103 7.96148 33.6165 8.57364 33.8235 9.10501C33.9223 9.35919 34.0665 9.59261 34.1815 9.83894C34.4009 10.3086 34.5131 10.8192 34.6831 11.3085C34.9266 12.0082 35.2874 12.6602 35.6471 13.3082C35.9243 13.8088 36.2082 14.3182 36.6347 14.7009C36.9152 14.9523 37.2451 15.1386 37.5751 15.3181C38.3864 15.7614 39.3431 16.1878 40.2027 15.8478C40.2521 15.0813 40.0596 14.2268 39.7813 13.508Z" fill="#FBBEBE"/>
<path d="M42.5485 37.6624C42.4795 38.3947 42.0351 39.0579 41.9313 39.7626C41.2467 39.6555 40.5728 39.5174 39.9208 39.3603C39.8406 39.3413 39.7609 39.3216 39.6807 39.3042C40.0499 38.2942 39.7284 37.1631 39.826 36.0874C39.8355 35.9842 39.849 35.8809 39.867 35.7788C40.7126 35.4904 41.4762 35.1055 42.3628 35.2177C42.3802 35.3973 42.3981 35.5774 42.4155 35.7569C42.4511 36.1157 42.4862 36.474 42.521 36.832C42.5566 37.1073 42.5658 37.3854 42.5485 37.6624Z" fill="#FBBEBE"/>
<path d="M48.3966 39.494C48.0644 39.595 47.7233 39.6831 47.367 39.7555C47.3075 39.7678 47.2475 39.7796 47.1874 39.7908C46.8227 39.8593 46.4535 39.9092 46.0804 39.9434C46.0422 39.1635 45.5193 38.4464 45.443 37.6457C45.4273 37.4467 45.4294 37.2468 45.4491 37.0481C45.4559 36.9696 45.4637 36.891 45.471 36.8125L45.6293 35.1982C45.7552 35.1823 45.8822 35.1761 46.0091 35.1797C46.7386 35.1971 47.4023 35.513 48.125 35.7593C48.1789 36.0999 48.1977 36.4451 48.1812 36.7895C48.1537 37.6659 48.0128 38.553 48.3383 39.3571C48.3568 39.4025 48.377 39.448 48.3966 39.494Z" fill="#FBBEBE"/>
<path d="M38.9252 27.1867C39.0234 27.9521 38.6323 28.6849 38.4628 29.4373C38.3506 29.935 38.3355 30.4473 38.3203 30.9579L38.2317 34.0165C38.2227 34.3223 38.2148 34.6337 38.308 34.9272C38.4954 35.5152 39.0727 35.9124 39.6737 36.0538C40.2746 36.1952 40.9031 36.1234 41.5152 36.0426C41.8154 36.0028 42.1285 35.9562 42.3771 35.7828C42.7188 35.5444 42.8681 35.1196 42.9971 34.7235L43.3613 33.6052C43.7804 34.549 43.6031 35.5808 43.8545 36.5824C43.8706 36.675 43.9091 36.7623 43.9667 36.8366C44.0727 36.9544 44.2473 36.9729 44.406 36.9842C45.5058 37.0616 46.6207 37.1385 47.7025 36.928C47.9999 36.8719 48.3102 36.781 48.5156 36.5577C48.7546 36.2979 48.7961 35.9158 48.7933 35.5629C48.7782 34.3503 48.3399 33.1804 48.2423 31.9718C48.2002 31.4539 48.221 30.9332 48.2025 30.4136C48.1879 30.0229 48.1514 29.6332 48.0931 29.2465C48.0745 29.0694 48.0259 28.8967 47.9494 28.7359C47.7811 28.4217 47.4315 28.2511 47.1005 28.1187C44.5284 27.074 41.6993 27.0841 38.9252 27.1867Z" fill="#F86D70"/>
<path d="M43.6872 12.1307C45.0197 12.1307 46.0999 11.0504 46.0999 9.71792C46.0999 8.3854 45.0197 7.30518 43.6872 7.30518C42.3546 7.30518 41.2744 8.3854 41.2744 9.71792C41.2744 11.0504 42.3546 12.1307 43.6872 12.1307Z" fill="#FBBEBE"/>
<path d="M45.79 13.9674C45.611 14.3601 45.3293 14.7529 44.9102 14.8528C44.5247 14.9454 44.1162 14.7596 43.8323 14.483C43.5484 14.2064 43.3627 13.8473 43.1657 13.5033C43.0221 13.252 42.8622 12.9983 42.6192 12.8401C42.287 12.6246 41.8584 12.6303 41.4667 12.6937C41.0751 12.7571 40.6862 12.8704 40.2884 12.8446C39.7929 12.8115 39.2879 12.5641 38.8205 12.729C38.972 13.4068 38.9176 14.152 38.9002 14.8466C38.9032 14.9539 38.888 15.0609 38.8553 15.1631C38.8145 15.2584 38.7595 15.3469 38.692 15.4257L38.2432 16.0042C38.7246 16.3644 39.1409 16.8346 39.3093 17.412C39.4041 17.7408 39.3749 18.0898 39.3715 18.4321C39.3609 19.437 39.5792 20.438 39.5101 21.4407C39.4293 22.6151 38.9603 23.725 38.7184 24.8769C38.5113 25.8658 38.4722 26.8825 38.6028 27.8844C41.1177 28.7547 43.7089 29.2002 46.3674 29.3461C46.837 29.3719 47.3443 29.3758 47.7297 29.1059C48.0501 28.8815 48.2297 28.4971 48.2909 28.11C48.352 27.7228 48.3099 27.3289 48.2673 26.9395C48.1517 25.8865 48.0363 24.8335 47.9211 23.7805C47.8554 23.1812 47.7898 22.5786 47.8324 21.9777C47.8644 21.5288 47.9564 21.0883 48.0479 20.649L48.609 17.9523C48.6892 17.5691 48.77 17.1831 48.9288 16.8256C49.059 16.5339 49.2391 16.2645 49.3828 15.9806C49.554 15.6402 49.6721 15.2755 49.7329 14.8994C49.7573 14.7902 49.7557 14.6768 49.7284 14.5683C49.6684 14.3843 49.4849 14.2737 49.3137 14.1834C48.2702 13.635 47.1518 13.2427 45.9943 13.0191C45.9157 13.3496 45.9308 13.6593 45.79 13.9674Z" fill="#E3E8F4"/>
<path d="M45.557 12.3516C45.8376 11.8141 46.3622 11.437 46.6669 10.9118C46.8353 10.6141 46.9294 10.2801 46.9413 9.93824C46.9533 9.59638 46.8826 9.25669 46.7353 8.94794C46.6282 8.72911 46.4828 8.52823 46.3987 8.2993C46.305 8.03895 46.296 7.75223 46.1877 7.49749C46.039 7.14848 45.7169 6.8971 45.3662 6.75234C45.0156 6.60758 44.6368 6.55539 44.2592 6.50489L42.9844 6.3332C42.7998 6.30851 42.6084 6.28382 42.4289 6.3332C42.2493 6.38257 42.0821 6.52902 42.0675 6.71531C42.0501 6.93582 42.2437 7.14119 42.1988 7.35777C42.1825 7.43408 42.1377 7.51151 42.1635 7.58558C42.1865 7.63506 42.2262 7.67481 42.2757 7.6978C42.5781 7.86613 42.9395 7.88128 43.2672 7.99126C43.5948 8.10123 43.9236 8.3773 43.8905 8.72069C43.8726 8.90529 43.7536 9.09719 43.8344 9.26272C43.9119 9.4159 44.115 9.44395 44.2771 9.49165C44.8018 9.64371 45.1699 10.2127 45.0936 10.7541C45.07 10.9225 45.0094 11.0835 44.997 11.2524C44.9561 11.8438 45.0492 12.0127 45.5323 12.3566L45.557 12.3516Z" fill="#3F3D56"/>
<path d="M48.8344 14.9091C48.837 15.0211 48.8165 15.1324 48.7744 15.2362C48.5993 15.6094 48.0634 15.5858 47.7083 15.7973C47.2661 16.061 47.1685 16.6496 47.1281 17.1625C47.0821 17.7432 47.0506 18.3324 47.1696 18.9019C47.2885 19.4714 47.5747 20.0269 48.0528 20.3608C48.6346 20.7653 49.4258 20.7794 50.0901 20.533C50.7545 20.2867 51.3094 19.8103 51.7908 19.2896C52.2476 18.7959 52.6566 18.2454 52.9018 17.6187C52.945 17.5064 52.9832 17.3875 52.9484 17.2753C52.8962 17.1069 52.7127 17.0306 52.5635 16.9386C52.215 16.7282 51.9827 16.3612 51.8621 15.9735C51.7415 15.5858 51.7213 15.1734 51.7173 14.7666C51.7129 14.3441 51.7117 13.8823 51.4424 13.5563C51.1731 13.2303 50.7062 13.1388 50.2809 13.1422C49.933 13.1422 48.9702 13.1753 48.7328 13.4788C48.5381 13.7313 48.8484 14.5477 48.8344 14.9091Z" fill="#BE6F72"/>
<path opacity="0.1" d="M48.8344 14.9091C48.837 15.0211 48.8165 15.1324 48.7744 15.2362C48.5993 15.6094 48.0634 15.5858 47.7083 15.7973C47.2661 16.061 47.1685 16.6496 47.1281 17.1625C47.0821 17.7432 47.0506 18.3324 47.1696 18.9019C47.2885 19.4714 47.5747 20.0269 48.0528 20.3608C48.6346 20.7653 49.4258 20.7794 50.0901 20.533C50.7545 20.2867 51.3094 19.8103 51.7908 19.2896C52.2476 18.7959 52.6566 18.2454 52.9018 17.6187C52.945 17.5064 52.9832 17.3875 52.9484 17.2753C52.8962 17.1069 52.7127 17.0306 52.5635 16.9386C52.215 16.7282 51.9827 16.3612 51.8621 15.9735C51.7415 15.5858 51.7213 15.1734 51.7173 14.7666C51.7129 14.3441 51.7117 13.8823 51.4424 13.5563C51.1731 13.2303 50.7062 13.1388 50.2809 13.1422C49.933 13.1422 48.9702 13.1753 48.7328 13.4788C48.5381 13.7313 48.8484 14.5477 48.8344 14.9091Z" fill="black"/>
<path d="M45.8426 29.9568C45.8599 30.0423 45.9003 30.1214 45.9593 30.1857C46.0147 30.2294 46.0794 30.26 46.1484 30.2749C47.9899 30.8152 49.9572 30.5998 51.8638 30.3793C51.6029 29.5848 51.3403 28.7813 51.2679 27.948C51.2079 27.2607 51.2752 26.5453 51.0317 25.9006C50.9599 25.7098 46.774 26.5879 46.361 26.6592C46.1495 26.6957 45.906 26.6833 45.7562 26.8511C45.5755 27.0542 45.5603 27.5379 45.5413 27.7909C45.4874 28.522 45.6383 29.2582 45.8426 29.9568Z" fill="#BE6F72"/>
<path d="M50.0356 38.8637C49.6989 39.0197 49.3516 39.1651 48.9919 39.2952C48.7974 39.3659 48.5988 39.4321 48.396 39.4939C48.0639 39.5949 47.7227 39.683 47.3664 39.7553C47.1633 39.2402 46.96 38.725 46.7565 38.2095C46.6067 37.8302 46.4569 37.4492 46.3317 37.0615C46.2447 36.7967 46.1731 36.5271 46.1174 36.254C45.9337 35.3259 45.9815 34.3667 46.2566 33.4614C47.0342 33.6079 47.7945 33.7033 48.5605 33.8144C48.9695 33.8705 49.3797 33.9367 49.7949 34.0147C49.8274 34.2851 49.857 34.5556 49.8835 34.826C49.9239 35.2435 49.957 35.661 49.9829 36.0784C50.0401 37.0061 50.0577 37.9345 50.0356 38.8637Z" fill="#BE6F72"/>
<path opacity="0.1" d="M50.0356 38.8637C49.6989 39.0197 49.3516 39.1651 48.9919 39.2952C48.7974 39.3659 48.5988 39.4321 48.396 39.4939C48.0639 39.5949 47.7227 39.683 47.3664 39.7553C47.1633 39.2402 46.96 38.725 46.7565 38.2095C46.6067 37.8302 46.4569 37.4492 46.3317 37.0615C46.2447 36.7967 46.1731 36.5271 46.1174 36.254C45.9337 35.3259 45.9815 34.3667 46.2566 33.4614C47.0342 33.6079 47.7945 33.7033 48.5605 33.8144C48.9695 33.8705 49.3797 33.9367 49.7949 34.0147C49.8274 34.2851 49.857 34.5556 49.8835 34.826C49.9239 35.2435 49.957 35.661 49.9829 36.0784C50.0401 37.0061 50.0577 37.9345 50.0356 38.8637Z" fill="black"/>
<path d="M54.3507 36.4326C54.3552 36.7558 54.2632 37.0857 54.1779 37.4028C54.1717 37.4252 54.1661 37.4471 54.1605 37.4695C53.9576 37.4063 53.7826 37.2752 53.665 37.0981C53.6043 37.0021 53.5594 36.8969 53.5321 36.7867C53.2781 36.9595 53.0218 37.1306 52.7634 37.3001C51.9178 37.8556 51.0239 38.4071 50.0358 38.8639C49.6992 39.0199 49.3518 39.1652 48.9922 39.2954C48.9174 39.0335 48.8463 38.77 48.779 38.5048C48.7054 38.2317 48.6477 37.9546 48.6061 37.6749C48.5239 37.0396 48.5876 36.3938 48.7924 35.7868L48.8177 35.7138C48.913 35.4439 49.0362 35.1846 49.1852 34.9401C49.3249 34.7156 49.6015 34.7532 49.8838 34.8279C50.0117 34.861 50.1413 34.9008 50.2591 34.9255C50.9925 35.0792 51.7539 34.9204 52.5036 34.9625C52.8608 34.9804 53.2109 35.0695 53.5332 35.2246C53.894 35.4058 54.1846 35.683 54.2985 36.0662C54.3147 36.1214 54.3271 36.1777 54.3356 36.2346C54.345 36.3002 54.3501 36.3663 54.3507 36.4326Z" fill="#BE6F72"/>
<path d="M40.8518 10.5909C39.6931 9.4687 38.3762 8.51762 37.029 7.62827C36.6784 7.40842 36.3412 7.16804 36.019 6.90838C35.6823 6.62782 35.3889 6.29846 35.0314 6.04596C34.674 5.79346 34.2319 5.62008 33.8026 5.70312C33.3734 5.78617 32.9918 6.1969 33.0547 6.6267C33.1108 7.00489 33.4508 7.26412 33.765 7.48126C34.3598 7.89255 34.9574 8.30497 35.6043 8.6276C35.8291 8.72948 36.047 8.84568 36.2569 8.97549C36.6598 9.24706 36.9532 9.64881 37.2579 10.0264C38.4079 11.4549 39.8165 12.654 41.4101 13.5614C41.4291 13.5726 42.0929 12.1401 42.0649 11.9544C42.0032 11.5274 41.157 10.8872 40.8518 10.5909Z" fill="#BE6F72"/>
<path d="M50.7623 28.7237C49.8679 28.7798 49.01 29.0817 48.1352 29.2742C47.2605 29.4666 46.31 29.5413 45.498 29.162L45.9918 32.5336C46.0193 32.721 46.0479 32.9129 46.007 33.0975C45.9694 33.2737 45.8717 33.4398 45.8802 33.6199C45.8931 33.905 46.1607 34.1053 46.4126 34.2371C47.1445 34.6235 47.9645 34.8125 48.7917 34.7853C48.7306 35.0322 48.6543 35.2763 48.5925 35.5232C49.0049 35.9659 49.6794 35.9956 50.268 36.1359C50.7169 36.2419 51.1377 36.426 51.5776 36.5556C52.1096 36.7126 52.662 36.7896 53.2166 36.784C53.5909 36.78 53.9876 36.7279 54.2782 36.4944C54.6356 36.2066 54.7467 35.7173 54.8242 35.2651C54.8674 35.0126 54.9072 34.7567 54.8803 34.502C54.8511 34.2091 54.7378 33.9319 54.6255 33.6603L53.8568 31.7947C53.7171 31.458 53.5763 31.1163 53.4079 30.7914C52.858 29.7405 51.9457 28.6502 50.7623 28.7237Z" fill="#3F3D56"/>
<path d="M51.4461 17.074C51.5126 16.8995 51.6352 16.752 51.7947 16.6548C51.9542 16.5575 52.1415 16.5161 52.3271 16.5371C52.5515 16.5685 52.7518 16.6914 52.9443 16.8114L54.016 17.4803C54.1936 17.586 54.364 17.7033 54.526 17.8315C55.265 18.4443 55.5501 19.4514 55.6314 20.4081C55.7128 21.3648 55.6314 22.3378 55.8216 23.2787C55.3694 23.6536 54.8677 23.9706 54.4155 24.3448C54.1787 24.5407 53.9391 24.7376 53.7596 24.9895C53.6171 25.1876 53.5155 25.4143 53.3668 25.6068C53.1233 25.9109 52.7701 26.1072 52.3832 26.1533C52.6284 26.2958 52.7659 26.5724 52.8321 26.8479C52.8983 27.1234 52.9162 27.409 52.9897 27.6845C53.0907 28.0588 53.3 28.4005 53.369 28.782C53.4173 29.0452 53.396 29.3151 53.4134 29.5822C53.5009 30.9642 54.5855 32.1722 54.5154 33.5548C54.0034 33.3687 53.5191 33.1141 53.0756 32.7979C52.8758 32.6548 52.6828 32.4999 52.4937 32.3456L51.0646 31.1869C50.3694 30.6258 49.6674 30.0524 49.1147 29.3476C48.768 28.9055 48.4852 28.4162 48.1373 27.9752C47.7894 27.5342 47.3613 27.1335 46.8299 26.9484C46.7519 27.0656 46.6133 27.147 46.5354 27.2643C46.5216 27.2828 46.5106 27.3032 46.5028 27.3249C46.4933 27.3772 46.4998 27.4311 46.5213 27.4797C46.584 27.7067 46.6216 27.9398 46.6335 28.1749L46.6689 28.5969C46.6821 28.7087 46.6821 28.8217 46.6689 28.9335C46.6156 29.2943 46.2812 29.5743 45.9204 29.6304C45.8682 29.6417 45.8141 29.64 45.7627 29.6254C45.6623 29.5917 45.6067 29.4857 45.5764 29.3847C45.4345 28.9055 45.6522 28.3999 45.6696 27.9011C45.672 27.7745 45.6677 27.6479 45.6567 27.5218L45.623 27.0241C45.297 26.9562 45.1096 26.6061 45.0232 26.2846C44.7898 25.4165 44.5547 24.5182 44.6899 23.6294C44.7258 23.3915 44.7886 23.1502 44.746 22.9123C44.6899 22.5942 44.4609 22.3361 44.3403 22.0365C43.9475 21.0596 44.7819 19.9991 44.7045 18.9504C44.6719 18.5099 44.3925 18.1272 44.2242 17.7188C44.137 17.4807 44.0241 17.2528 43.8875 17.0393C43.7158 16.7941 43.4841 16.5977 43.2591 16.4002C42.5642 15.7905 41.9051 15.1411 41.2851 14.4554C40.9667 14.4223 40.668 14.2855 40.435 14.066C40.2869 13.9257 40.1651 13.7405 40.1612 13.5368C40.1573 13.3332 40.3077 13.1194 40.5113 13.1087C40.6303 13.1025 40.7414 13.1615 40.8575 13.1873C41.2211 13.267 41.587 12.9993 41.7491 12.6632C41.9113 12.3271 41.9113 11.9405 41.9085 11.5679C42.0862 11.5364 42.269 11.5512 42.4393 11.6108C42.6096 11.6705 42.7617 11.773 42.8809 11.9085C43.1317 12.1812 43.295 12.5212 43.4925 12.8343C43.5729 12.9734 43.6761 13.0981 43.7977 13.203C44.0676 13.4173 44.4565 13.4577 44.6921 13.708C44.8116 13.8359 44.8779 14.0054 44.9873 14.1423C45.2948 14.5278 45.8575 14.5749 46.2778 14.8285C46.6981 15.0821 46.9904 15.5456 47.4561 15.696C47.6245 15.7521 47.8079 15.7594 47.9746 15.8217C48.3595 15.9647 48.5946 16.3738 48.6479 16.7806C48.7012 17.1874 48.6103 17.5987 48.5183 17.9993L48.3023 18.9369C48.2546 19.1445 48.2181 19.3942 48.3713 19.5423C48.4437 19.6022 48.5286 19.645 48.6199 19.6675C49.0126 19.7954 49.4503 19.9211 49.8195 19.7399C49.994 19.6534 50.1309 19.5076 50.256 19.3583C50.8037 18.713 51.1678 17.868 51.4461 17.074Z" fill="#4A7CE2"/>
<path d="M55.8756 36.1543C55.7982 36.6677 55.5154 37.1727 55.0524 37.4078C54.7749 37.5447 54.4546 37.5668 54.1608 37.4695C53.9579 37.4063 53.7829 37.2751 53.6654 37.0981C53.6047 37.002 53.5598 36.8969 53.5324 36.7867C53.5324 36.781 53.5296 36.7749 53.5285 36.7693C53.4863 36.5707 53.4688 36.3678 53.4763 36.165C53.4762 35.8501 53.4949 35.5355 53.5324 35.2229C53.5637 34.9596 53.6155 34.6992 53.6873 34.444C53.7916 34.0799 53.942 33.7292 54.08 33.3779C54.1519 33.1928 54.2209 33.0071 54.2776 32.8168C54.3118 32.7046 54.341 32.589 54.3645 32.4723L54.3729 32.4302C54.3774 32.4067 54.3814 32.3831 54.3853 32.3595C54.4414 32.0397 54.4577 31.7087 54.6019 31.4197C54.9385 30.7413 55.5939 30.9147 55.6938 31.5403C55.7013 31.5888 55.7057 31.6377 55.7067 31.6868C55.7218 32.4785 55.4076 33.2523 55.5513 34.0468C55.5918 34.2405 55.6427 34.432 55.7039 34.6202C55.7544 34.7936 55.7998 34.9692 55.8346 35.1471C55.9051 35.4781 55.9189 35.8187 55.8756 36.1543Z" fill="#BE6F72"/>
<path d="M56.1841 27.3505C56.1993 27.6749 56.1841 28.0031 56.2492 28.3213C56.4013 29.0731 56.9787 29.7386 56.9147 30.5028C56.899 30.6891 56.83 30.8894 56.6673 30.9814C56.5045 31.0735 56.2352 31.0662 56.1819 31.2513C56.1667 31.303 56.1746 31.3591 56.1578 31.4101C56.1224 31.519 55.9894 31.5656 55.8772 31.5628C55.765 31.5599 55.6528 31.5229 55.5366 31.5325C55.1298 31.5667 54.9806 32.1109 54.6181 32.2978C54.374 32.4235 54.057 32.3539 53.8556 32.1682C53.6541 31.9825 53.566 31.6929 53.5817 31.4185C53.5935 31.2115 53.6592 31.0117 53.694 30.8075C53.7574 30.4433 53.7243 30.0702 53.6912 29.7021C53.6423 29.1629 53.5918 28.617 53.4145 28.1058C53.3309 27.8645 53.2198 27.6339 53.1474 27.3893C53.0442 27.0431 53.0206 26.6789 53.01 26.3181C52.9881 25.5589 53.0403 24.747 53.4936 24.1365C53.8342 23.6787 54.3224 23.3067 54.7079 22.883C54.9492 22.6176 55.0187 22.5346 55.2853 22.7596C55.5046 22.9442 55.7341 23.1989 55.7588 23.4492C55.8262 24.0905 55.7588 24.7212 55.8789 25.3743C55.999 26.0275 56.1527 26.68 56.1841 27.3505Z" fill="#4A7CE2"/>
<path d="M50.3646 14.9923C51.945 14.9923 53.2262 13.7111 53.2262 12.1307C53.2262 10.5502 51.945 9.26904 50.3646 9.26904C48.7841 9.26904 47.5029 10.5502 47.5029 12.1307C47.5029 13.7111 48.7841 14.9923 50.3646 14.9923Z" fill="#BE6F72"/>
<path d="M52.9841 17.6045C53.0469 17.5165 53.1216 17.4216 53.2282 17.4031C53.3087 17.397 53.3892 17.414 53.4605 17.4519L54.214 17.7667C54.4177 17.4304 54.5377 17.0502 54.5642 16.658C54.5799 16.4173 54.5608 16.1732 54.6068 15.9364C54.6753 15.5851 54.8834 15.2704 54.9317 14.9157C54.9698 14.6296 54.9008 14.3417 54.8593 14.0561C54.7314 13.1741 54.8688 12.2741 54.7953 11.3858C54.7218 10.4976 54.3655 9.54597 53.5733 9.13805C53.3488 9.02583 53.107 8.95849 52.8736 8.86984C52.3534 8.67177 51.8871 8.35474 51.3732 8.1404C50.8592 7.92606 50.2554 7.82787 49.7572 8.07419C49.2589 8.32052 48.9688 9.01348 49.2926 9.46573C49.3992 9.61442 49.5552 9.71991 49.7044 9.82708C50.008 10.0442 50.3177 10.3124 50.3879 10.6794C50.5136 11.3398 49.8268 11.8577 49.6332 12.5035C49.5617 12.7558 49.5553 13.022 49.6147 13.2773C49.6983 13.66 49.9025 14.0213 49.8952 14.413C49.8896 14.8422 49.6326 15.2311 49.5844 15.6581C49.567 15.8146 49.5776 15.9734 49.558 16.1294C49.5234 16.3352 49.4625 16.5356 49.3768 16.7259C48.9279 17.8481 48.4728 18.9821 47.8057 19.9909C48.5199 20.003 49.2261 19.838 49.861 19.5106C49.7697 19.9431 49.595 20.3537 49.3465 20.7192C49.9173 20.6532 50.4665 20.4615 50.9546 20.1581C50.8362 20.5822 50.6646 20.9896 50.444 21.3707C50.4631 21.3381 50.816 21.2585 50.8811 21.2214C51.0149 21.1454 51.1225 21.0305 51.1897 20.8921C51.3805 20.5509 51.4994 20.1396 51.6762 19.785C52.0541 19.0249 52.4914 18.2958 52.9841 17.6045Z" fill="#3F3D56"/>
<path d="M31.2825 0.431873C31.1466 0.445565 31.0099 0.448754 30.8735 0.441412C30.8502 0.438872 30.8269 0.445563 30.8085 0.460045C30.7902 0.474528 30.7782 0.495643 30.7753 0.518844L30.5144 2.47598C30.4943 2.61805 30.4361 2.75203 30.346 2.8637C30.2718 2.95257 30.2166 3.05575 30.1838 3.16685C30.1511 3.27795 30.1416 3.39459 30.1558 3.50953V6.83407C30.1558 6.83407 30.139 7.27734 30.4796 7.27734C30.8872 7.32856 31.2997 7.32856 31.7073 7.27734C31.7073 7.27734 31.98 7.22572 31.98 6.81668V3.5432C32.0008 3.42899 31.9965 3.31162 31.9674 3.19923C31.9384 3.08684 31.8852 2.98212 31.8117 2.89232C31.7246 2.78024 31.6683 2.64736 31.6484 2.50684L31.3774 0.508744C31.3743 0.48628 31.3628 0.465831 31.3451 0.451552C31.3275 0.437274 31.3051 0.430237 31.2825 0.431873Z" fill="#3F3D56"/>
<path d="M31.2836 3.56934H30.87C30.5276 3.56934 30.25 3.84693 30.25 4.18935V5.74529C30.25 6.08772 30.5276 6.36531 30.87 6.36531H31.2836C31.626 6.36531 31.9036 6.08772 31.9036 5.74529V4.18935C31.9036 3.84693 31.626 3.56934 31.2836 3.56934Z" fill="#4A7CE2"/>
<path d="M35.1536 3.29369C35.0177 3.30738 34.881 3.31057 34.7446 3.30323C34.7213 3.30069 34.698 3.30738 34.6796 3.32186C34.6613 3.33634 34.6493 3.35746 34.6464 3.38066L34.3855 5.33779C34.3654 5.47986 34.3072 5.61385 34.2171 5.72552C34.1429 5.81438 34.0877 5.91757 34.0549 6.02867C34.0222 6.13977 34.0127 6.25641 34.0269 6.37135V9.69589C34.0269 9.69589 34.0101 10.1392 34.3507 10.1392C34.7583 10.1904 35.1707 10.1904 35.5784 10.1392C35.5784 10.1392 35.8511 10.0875 35.8511 9.67849V6.40501C35.8719 6.29081 35.8676 6.17344 35.8385 6.06105C35.8095 5.94866 35.7563 5.84394 35.6827 5.75413C35.5957 5.64205 35.5394 5.50918 35.5195 5.36865L35.2484 3.37056C35.2454 3.3481 35.2339 3.32765 35.2162 3.31337C35.1986 3.29909 35.1762 3.29205 35.1536 3.29369Z" fill="#3F3D56"/>
<path d="M35.1556 6.43066H34.7421C34.3997 6.43066 34.1221 6.70826 34.1221 7.05068V8.60663C34.1221 8.94905 34.3997 9.22665 34.7421 9.22665H35.1556C35.498 9.22665 35.7756 8.94905 35.7756 8.60663V7.05068C35.7756 6.70826 35.498 6.43066 35.1556 6.43066Z" fill="#4A7CE2"/>
<g opacity="0.2">
<path opacity="0.2" d="M30.8016 36.8213C30.7998 36.8818 30.7929 36.9421 30.7809 37.0014C30.3903 36.9393 29.9976 36.8832 29.6025 36.8331C29.6025 36.8174 29.6025 36.8011 29.6025 36.7848C29.6062 36.6166 29.6546 36.4524 29.7428 36.309C29.8584 36.1261 30.034 36.0116 30.2276 36.0178C30.4212 36.024 30.589 36.1491 30.6928 36.3382C30.7713 36.4867 30.8088 36.6535 30.8016 36.8213Z" fill="#3F3D56"/>
<path opacity="0.2" d="M30.8334 35.8631C30.8471 35.4291 30.5896 35.0689 30.2581 35.0584C29.9267 35.0479 29.6469 35.3912 29.6332 35.8251C29.6195 36.2591 29.8771 36.6193 30.2085 36.6298C30.5399 36.6403 30.8197 36.297 30.8334 35.8631Z" fill="#3F3D56"/>
<path opacity="0.2" d="M30.8637 34.9026C30.8774 34.4687 30.6198 34.1084 30.2884 34.0979C29.957 34.0875 29.6772 34.4307 29.6635 34.8647C29.6498 35.2986 29.9073 35.6589 30.2388 35.6694C30.5702 35.6798 30.85 35.3365 30.8637 34.9026Z" fill="#3F3D56"/>
<path opacity="0.2" d="M30.8939 33.9417C30.9077 33.5077 30.6501 33.1475 30.3187 33.137C29.9873 33.1265 29.7075 33.4698 29.6938 33.9037C29.6801 34.3377 29.9376 34.6979 30.269 34.7084C30.6004 34.7189 30.8802 34.3756 30.8939 33.9417Z" fill="#3F3D56"/>
<path opacity="0.2" d="M30.9242 32.9812C30.9379 32.5473 30.6804 32.187 30.349 32.1765C30.0175 32.1661 29.7378 32.5094 29.724 32.9433C29.7103 33.3772 29.9679 33.7375 30.2993 33.748C30.6307 33.7584 30.9105 33.4152 30.9242 32.9812Z" fill="#3F3D56"/>
<path opacity="0.2" d="M28.2823 26.3151C28.2033 26.2081 28.132 26.0956 28.0691 25.9784L29.6548 25.7691L27.9479 25.7282C27.7956 25.3669 27.7186 24.9783 27.7215 24.5862C27.7245 24.1941 27.8075 23.8068 27.9653 23.4478L30.2164 24.7075L28.1544 23.0893C28.3624 22.7528 28.6376 22.4629 28.9627 22.2376C29.2878 22.0122 29.6558 21.8564 30.0439 21.7797C30.432 21.703 30.8317 21.7072 31.218 21.7919C31.6044 21.8766 31.9692 22.0401 32.2895 22.2721C32.6099 22.5042 32.879 22.7998 33.08 23.1404C33.2809 23.4811 33.4095 23.8596 33.4577 24.2522C33.5058 24.6449 33.4725 25.0432 33.3598 25.4223C33.2471 25.8015 33.0574 26.1534 32.8026 26.4559C32.9255 26.6223 33.0299 26.8016 33.114 26.9907L31.0328 27.9894L33.2397 27.3256C33.3786 27.7842 33.401 28.2702 33.3048 28.7396C33.2086 29.209 32.9968 29.647 32.6887 30.0139C33.0091 30.4486 33.2007 30.9647 33.2415 31.5032C33.2824 32.0416 33.171 32.5807 32.9199 33.0588C32.6688 33.5369 32.2882 33.9347 31.8217 34.2067C31.3552 34.4787 30.8215 34.6139 30.2818 34.5969C29.742 34.5799 29.218 34.4113 28.7695 34.1105C28.321 33.8096 27.9663 33.3887 27.7458 32.8957C27.5254 32.4027 27.4481 31.8577 27.5228 31.3228C27.5975 30.788 27.8213 30.285 28.1684 29.8714C27.7856 29.3519 27.5886 28.7188 27.6089 28.0738C27.6293 27.4288 27.8659 26.8094 28.2806 26.3151H28.2823Z" fill="#4A7CE2"/>
<path opacity="0.1" d="M33.362 28.2552C33.3423 28.9005 33.105 29.5203 32.6887 30.0137C33.0091 30.4484 33.2007 30.9645 33.2415 31.503C33.2824 32.0414 33.171 32.5805 32.9199 33.0586C32.6688 33.5367 32.2882 33.9345 31.8217 34.2065C31.3552 34.4785 30.8215 34.6138 30.2818 34.5967C29.742 34.5797 29.218 34.4111 28.7695 34.1103C28.321 33.8095 27.9663 33.3885 27.7458 32.8955C27.5254 32.4025 27.4481 31.8575 27.5228 31.3227C27.5975 30.7878 27.8213 30.2848 28.1684 29.8712C27.7998 29.3701 33.3721 27.9325 33.362 28.2552Z" fill="black"/>
</g>
</g>
<defs>
<clipPath id="clip0">
<rect width="63.6937" height="40" fill="white"/>
</clipPath>
</defs>
</svg>
