<svg width="166" height="89" viewBox="0 0 166 89" fill="none" xmlns="http://www.w3.org/2000/svg">
<path d="M39.5246 12.2472L56.5728 41.7085C42.7401 50.3016 33.4125 65.4395 32.9643 82.7845H0C0 52.9556 15.8098 26.8322 39.5246 12.2472Z" fill="#9BE17C"/>
<path d="M121.813 9.59306L104.738 39.1322C98.1509 35.9516 90.7988 34.1651 83.0001 34.1651C75.1748 34.1651 67.7696 35.9516 61.1827 39.1587L44.1079 9.64439C55.703 3.49516 68.9299 0 83.0001 0C97.0171 0 110.246 3.46867 121.813 9.59306Z" fill="#F9D153"/>
<path d="M166 82.7844H133.037C132.589 65.4129 123.235 50.222 109.349 41.6554L126.397 12.2206C150.164 26.7791 166 52.929 166 82.7844Z" fill="#FE7E95"/>
<path d="M79.1338 74.198C75.5847 76.3554 74.4808 80.9615 76.6637 84.4997C78.8632 88.0628 83.5013 89.1803 87.0504 87.0213L89.381 84.8242L116.678 58.8018L81.2138 73.3404L79.1338 74.198Z" fill="#3A405A"/>
</svg>
