<svg viewBox="0 0 58 58" fill="none" xmlns="http://www.w3.org/2000/svg">
<path d="M57.6681 10.6389L47.3595 0.331801C47.1471 0.119398 46.859 0 46.5586 0H12.9141C11.0402 0 9.51562 1.52454 9.51562 3.39844V5.55803C3.95068 7.74096 0 13.165 0 19.4947C0 20.1202 0.507273 20.6275 1.13281 20.6275H14.9634C15.589 20.6275 16.0962 20.1202 16.0962 19.4947V5.66406C16.0962 5.03852 15.589 4.53125 14.9634 4.53125C13.8716 4.53125 12.8072 4.64986 11.7812 4.87302V3.39844C11.7812 2.7738 12.2894 2.26562 12.9141 2.26562H45.4258V9.17578C45.4258 11.0497 46.9503 12.5742 48.8242 12.5742H55.7344V54.6016C55.7344 55.2262 55.2262 55.7344 54.6016 55.7344H12.9141C12.2894 55.7344 11.7812 55.2262 11.7812 54.6016V44.8971C11.7812 44.2716 11.274 43.7643 10.6484 43.7643C10.0229 43.7643 9.51562 44.2716 9.51562 44.8971V54.6016C9.51562 56.4755 11.0402 58 12.9141 58H54.6016C56.4755 58 58 56.4755 58 54.6016V11.4399C58 11.1395 57.8806 10.8513 57.6681 10.6389ZM13.8305 6.84706V18.3619H2.3157C2.85729 12.2619 7.73065 7.38866 13.8305 6.84706ZM48.8242 10.3086C48.1996 10.3086 47.6914 9.80041 47.6914 9.17578V3.86742L54.1335 10.3086H48.8242Z" fill="white"/>
<path d="M11.4492 39.9804C11.2386 39.7695 10.9464 39.6484 10.6484 39.6484C10.3505 39.6484 10.0582 39.7695 9.84754 39.9804C9.63684 40.1911 9.51562 40.4833 9.51562 40.7812C9.51562 41.0792 9.63672 41.3714 9.84754 41.582C10.0582 41.7929 10.3505 41.9141 10.6484 41.9141C10.9464 41.9141 11.2386 41.7929 11.4492 41.582C11.66 41.3714 11.7812 41.0792 11.7812 40.7812C11.7812 40.4833 11.66 40.1911 11.4492 39.9804Z" fill="white"/>
<path d="M19.0209 8.58887C18.3954 8.58887 17.8881 9.09614 17.8881 9.72168V22.4194H5.19043C4.56489 22.4194 4.05762 22.9266 4.05762 23.5522C4.05762 31.803 10.7701 38.5156 19.0209 38.5156C27.2718 38.5156 33.9844 31.803 33.9844 23.5522C33.9844 15.3013 27.2718 8.58887 19.0209 8.58887ZM20.1537 10.9047C22.8057 11.1401 25.2255 12.1947 27.1586 13.8126L20.1537 20.8173V10.9047ZM19.0209 36.25C12.4011 36.25 6.9481 31.1581 6.37343 24.685H19.0209C19.3336 24.685 19.6166 24.5583 19.8216 24.3535C19.8217 24.3534 19.8218 24.3534 19.8221 24.3532L28.761 15.4144C30.6064 17.6196 31.7187 20.4585 31.7187 23.5522C31.7187 30.5538 26.0225 36.25 19.0209 36.25Z" fill="white"/>
<path d="M49.6255 35.7522C47.7516 35.7522 46.227 37.2767 46.227 39.1506C46.227 39.6203 46.3229 40.0679 46.4959 40.4751L39.9694 47.0016C39.5209 46.7831 39.0175 46.6602 38.486 46.6602C37.967 46.6602 37.4752 46.7775 37.0348 46.9863L32.7009 42.6524C32.8511 42.269 32.9345 41.8523 32.9345 41.4161C32.9345 39.5422 31.41 38.0177 29.5361 38.0177C27.6622 38.0177 26.1376 39.5422 26.1376 41.4161C26.1376 41.9239 26.2503 42.4055 26.4509 42.8386L22.294 46.9955C21.8512 46.7836 21.3557 46.6648 20.833 46.6648C18.9591 46.6648 17.4346 48.1893 17.4346 50.0632C17.4346 51.9371 18.9591 53.4617 20.833 53.4617C22.7069 53.4617 24.2314 51.9371 24.2314 50.0632C24.2314 49.538 24.1116 49.0402 23.8979 48.5958L28.0316 44.4622C28.4855 44.6874 28.9962 44.8146 29.5363 44.8146C30.1463 44.8146 30.7187 44.6523 31.2141 44.3697L35.4258 48.5814C35.2092 49.0283 35.0875 49.5295 35.0875 50.0586C35.0875 51.9325 36.6121 53.457 38.486 53.457C40.3599 53.457 41.8844 51.9325 41.8844 50.0586C41.8844 49.5423 41.7682 49.0527 41.5612 48.614L48.0267 42.1485C48.5035 42.4038 49.0479 42.5491 49.6255 42.5491C51.4994 42.5491 53.0239 41.0245 53.0239 39.1506C53.0239 37.2767 51.4994 35.7522 49.6255 35.7522ZM20.8329 51.1962C20.2083 51.1962 19.7001 50.688 19.7001 50.0634C19.7001 49.4387 20.2083 48.9305 20.8329 48.9305C21.1371 48.9305 21.4129 49.0516 21.6166 49.2474C21.6211 49.2522 21.6251 49.2572 21.6297 49.2619C21.6352 49.2673 21.641 49.2719 21.6466 49.2771C21.8437 49.481 21.9657 49.7581 21.9657 50.0634C21.9657 50.6879 21.4575 51.1962 20.8329 51.1962ZM29.5361 42.549C28.9114 42.549 28.4033 42.0408 28.4033 41.4161C28.4033 40.7915 28.9114 40.2833 29.5361 40.2833C30.1607 40.2833 30.6689 40.7915 30.6689 41.4161C30.6689 42.0408 30.1607 42.549 29.5361 42.549ZM38.4857 51.1914C37.8611 51.1914 37.3529 50.6832 37.3529 50.0586C37.3529 49.434 37.8611 48.9258 38.4857 48.9258C39.1104 48.9258 39.6186 49.434 39.6186 50.0586C39.6186 50.6832 39.1104 51.1914 38.4857 51.1914ZM49.6253 40.2833C49.0006 40.2833 48.4924 39.7752 48.4924 39.1505C48.4924 38.5259 49.0007 38.0177 49.6253 38.0177C50.2499 38.0177 50.7581 38.5259 50.7581 39.1505C50.7581 39.7752 50.2499 40.2833 49.6253 40.2833Z" fill="white"/>
<path d="M43.9632 26.6211H37.9844C37.3588 26.6211 36.8516 27.1284 36.8516 27.7539C36.8516 28.3794 37.3587 28.8867 37.9844 28.8867H43.9632C44.5888 28.8867 45.0961 28.3794 45.0961 27.7539C45.0961 27.1284 44.5888 26.6211 43.9632 26.6211Z" fill="white"/>
<path d="M49.9219 26.953C49.7113 26.7423 49.419 26.6211 49.1211 26.6211C48.8232 26.6211 48.5309 26.7422 48.3202 26.953C48.1095 27.1637 47.9883 27.456 47.9883 27.7539C47.9883 28.0518 48.1094 28.3441 48.3202 28.5547C48.5309 28.7654 48.822 28.8867 49.1211 28.8867C49.419 28.8867 49.7113 28.7655 49.9219 28.5547C50.1326 28.3441 50.2539 28.0518 50.2539 27.7539C50.2539 27.456 50.1327 27.1637 49.9219 26.953Z" fill="white"/>
<path d="M51.8221 15.7461H37.9844C37.3588 15.7461 36.8516 16.2534 36.8516 16.8789C36.8516 17.5044 37.3587 18.0117 37.9844 18.0117H51.8221C52.4477 18.0117 52.9549 17.5044 52.9549 16.8789C52.9549 16.2534 52.4477 15.7461 51.8221 15.7461Z" fill="white"/>
<path d="M51.8221 21.1836H37.9844C37.3588 21.1836 36.8516 21.6909 36.8516 22.3164C36.8516 22.9419 37.3587 23.4492 37.9844 23.4492H51.8221C52.4477 23.4492 52.9549 22.9419 52.9549 22.3164C52.9549 21.6909 52.4477 21.1836 51.8221 21.1836Z" fill="white"/>
</svg>
