<svg viewBox="0 0 27 27" fill="none" xmlns="http://www.w3.org/2000/svg">
<g clip-path="url(#clip0)">
<path d="M24.1043 4.33644C24.1043 6.28241 22.5269 7.85996 20.5809 7.85996C18.635 7.85996 17.0576 6.28241 17.0576 4.33644C17.0576 2.39066 18.635 0.81311 20.5809 0.81311C22.5269 0.81311 24.1043 2.39066 24.1043 4.33644Z" fill="white"/>
<path d="M20.5815 8.67303C18.1899 8.67303 16.2451 6.72805 16.2451 4.33642C16.2451 1.94499 18.1899 0 20.5815 0C22.9732 0 24.9179 1.94499 24.9179 4.33642C24.9179 6.72805 22.9732 8.67303 20.5815 8.67303ZM20.5815 1.62618C19.0866 1.62618 17.8713 2.84264 17.8713 4.33642C17.8713 5.83039 19.0866 7.04685 20.5815 7.04685C22.0765 7.04685 23.2918 5.83039 23.2918 4.33642C23.2918 2.84264 22.0765 1.62618 20.5815 1.62618Z" fill="white"/>
<path d="M24.1043 21.6825C24.1043 23.6282 22.5269 25.2058 20.5809 25.2058C18.635 25.2058 17.0576 23.6282 17.0576 21.6825C17.0576 19.7365 18.635 18.1589 20.5809 18.1589C22.5269 18.1589 24.1043 19.7365 24.1043 21.6825Z" fill="white"/>
<path d="M20.5815 26.019C18.1899 26.019 16.2451 24.074 16.2451 21.6826C16.2451 19.2909 18.1899 17.3459 20.5815 17.3459C22.9732 17.3459 24.9179 19.2909 24.9179 21.6826C24.9179 24.074 22.9732 26.019 20.5815 26.019ZM20.5815 18.9721C19.0866 18.9721 17.8713 20.1886 17.8713 21.6826C17.8713 23.1763 19.0866 24.3928 20.5815 24.3928C22.0765 24.3928 23.2918 23.1763 23.2918 21.6826C23.2918 20.1886 22.0765 18.9721 20.5815 18.9721Z" fill="white"/>
<path d="M8.92673 13.0094C8.92673 14.9554 7.34919 16.5327 5.40321 16.5327C3.45743 16.5327 1.87988 14.9554 1.87988 13.0094C1.87988 11.0634 3.45743 9.48608 5.40321 9.48608C7.34919 9.48608 8.92673 11.0634 8.92673 13.0094Z" fill="white"/>
<path d="M5.4038 17.3458C3.01237 17.3458 1.06738 15.401 1.06738 13.0094C1.06738 10.6178 3.01237 8.67297 5.4038 8.67297C7.79543 8.67297 9.74041 10.6178 9.74041 13.0094C9.74041 15.401 7.79543 17.3458 5.4038 17.3458ZM5.4038 10.2992C3.90883 10.2992 2.69356 11.5154 2.69356 13.0094C2.69356 14.5034 3.90883 15.7196 5.4038 15.7196C6.89896 15.7196 8.11423 14.5034 8.11423 13.0094C8.11423 11.5154 6.89896 10.2992 5.4038 10.2992Z" fill="white"/>
<path d="M7.96313 12.4892C7.58577 12.4892 7.21932 12.2929 7.01982 11.9417C6.72384 11.4224 6.90607 10.76 7.42537 10.4628L17.4848 4.72793C18.0041 4.42977 18.6665 4.612 18.9637 5.13328C19.2597 5.65258 19.0774 6.315 18.5581 6.61217L8.49851 12.3471C8.32938 12.4436 8.14516 12.4892 7.96313 12.4892Z" fill="white"/>
<path d="M18.0214 21.4332C17.8392 21.4332 17.6549 21.3876 17.4858 21.2911L7.4262 15.5562C6.9069 15.2602 6.72487 14.5978 7.02085 14.0773C7.31563 13.557 7.97905 13.3738 8.49954 13.6719L18.5592 19.4068C19.0785 19.7028 19.2605 20.3652 18.9645 20.8857C18.764 21.2369 18.3976 21.4332 18.0214 21.4332Z" fill="white"/>
</g>
<defs>
<clipPath id="clip0">
<rect width="26.0189" height="26.0189" fill="white"/>
</clipPath>
</defs>
</svg>
