<svg viewBox="0 0 240 240" fill="none" xmlns="http://www.w3.org/2000/svg">
<g clip-path="url(#clip0)">
<path d="M238.373 121.627C238.373 186.587 185.809 240 120 240C54.3618 240 1.62695 186.749 1.62695 121.627C1.62695 56.2514 54.6243 3.25403 120 3.25403C185.497 3.25403 238.373 56.3634 238.373 121.627Z" fill="#F2A958"/>
<path d="M197.116 22.2384V211.448C176.461 229.219 149.565 240 120 240C97.6887 240 76.8677 233.847 59.1063 223.164C53.358 219.715 47.936 215.783 42.8843 211.438V22.2384C42.8843 9.95719 52.8415 0 65.1227 0H174.878C187.159 0 197.116 9.95719 197.116 22.2384Z" fill="#6E96DC"/>
<path d="M197.116 22.2384V211.448C176.461 229.219 149.565 240 120 240C97.6888 240 76.8679 233.847 59.1064 223.164V22.2384C59.1064 21.4931 59.1454 20.7577 59.2185 20.0316C60.3243 8.78813 69.8089 0 81.3449 0H174.878C187.159 0 197.116 9.95719 197.116 22.2384Z" fill="#82AAF0"/>
<path d="M197.117 91.8037H42.8843V103.276H197.117V91.8037Z" fill="#506EA0"/>
<path d="M63.3285 75.997C61.0063 75.997 59.1064 74.0972 59.1064 71.775V38.9737C59.1064 36.6516 61.0063 34.7517 63.3285 34.7517C65.6507 34.7517 67.5505 36.6516 67.5505 38.9737V71.775C67.55 74.0972 65.6502 75.997 63.3285 75.997Z" fill="#506EA0"/>
<path d="M63.3285 161C61.0063 161 59.1064 159.1 59.1064 156.778V123.977C59.1064 121.655 61.0063 119.755 63.3285 119.755C65.6507 119.755 67.5505 121.655 67.5505 123.977V156.778C67.55 159.1 65.6502 161 63.3285 161Z" fill="#506EA0"/>
<path d="M59.1063 91.8037H42.8843V103.276H59.1063V91.8037Z" fill="#415A87"/>
<path d="M158.449 81.5269H118.264C115.383 81.5269 113.025 79.1691 113.025 76.2877V19.5343C113.025 16.6529 115.383 14.295 118.264 14.295H158.449C161.33 14.295 163.688 16.6529 163.688 19.5343V76.2872C163.688 79.1691 161.331 81.5269 158.449 81.5269Z" fill="#E6E6E6"/>
<path d="M121.443 28.0154H155.269C157.287 28.0154 158.922 26.3794 158.922 24.3619C158.922 22.3444 157.287 20.7085 155.269 20.7085H121.443C119.425 20.7085 117.79 22.3444 117.79 24.3619C117.79 26.3794 119.426 28.0154 121.443 28.0154Z" fill="#91B9FF"/>
<path d="M155.269 36.4075H121.443C119.425 36.4075 117.79 38.0434 117.79 40.0609C117.79 42.0784 119.426 43.7143 121.443 43.7143H155.269C157.287 43.7143 158.922 42.0784 158.922 40.0609C158.922 38.0434 157.287 36.4075 155.269 36.4075Z" fill="#91B9FF"/>
<path d="M155.269 52.1068H121.443C119.425 52.1068 117.79 53.7427 117.79 55.7602C117.79 57.7782 119.426 59.4137 121.443 59.4137H155.269C157.287 59.4137 158.922 57.7777 158.922 55.7602C158.923 53.7427 157.287 52.1068 155.269 52.1068Z" fill="#91B9FF"/>
<path d="M155.269 67.8062H121.443C119.425 67.8062 117.79 69.4421 117.79 71.4596C117.79 73.4771 119.426 75.113 121.443 75.113H155.269C157.287 75.113 158.922 73.4771 158.922 71.4596C158.922 69.4421 157.287 67.8062 155.269 67.8062Z" fill="#91B9FF"/>
<path d="M177.777 82.178L157.868 86.438C155.163 87.0169 152.475 85.2769 151.897 82.5717L148.804 68.1141C148.225 65.4089 149.965 62.7216 152.67 62.1432L172.58 57.8832C175.285 57.3042 177.972 59.0442 178.55 61.7494L181.644 76.2071C182.223 78.9122 180.483 81.5996 177.777 82.178Z" fill="#FF82A0"/>
<path d="M174.43 79.507L159.829 82.6313C157.846 83.0555 155.875 81.7795 155.45 79.7962L153.182 69.1936C152.757 67.2098 154.033 65.2392 156.017 64.8145L170.618 61.6903C172.602 61.2661 174.572 62.542 174.997 64.5253L177.266 75.128C177.691 77.1122 176.415 79.0828 174.43 79.507Z" fill="#EB5A82"/>
<path d="M105.792 148.809L85.9954 144.051C83.3057 143.404 81.6341 140.674 82.2805 137.985L85.7362 123.609C86.3826 120.92 89.1126 119.248 91.8023 119.895L111.599 124.653C114.288 125.3 115.96 128.03 115.313 130.719L111.858 145.095C111.211 147.784 108.481 149.456 105.792 148.809Z" fill="#FFE13C"/>
<path d="M103.927 144.954L89.4084 141.465C87.4359 140.991 86.2097 138.988 86.684 137.016L89.2181 126.473C89.692 124.501 91.6945 123.275 93.6665 123.749L108.185 127.239C110.157 127.713 111.383 129.715 110.909 131.687L108.375 142.23C107.901 144.203 105.9 145.428 103.927 144.954Z" fill="#F2C230"/>
<path d="M137.288 196.472L117.155 199.505C114.42 199.917 111.844 198.016 111.432 195.281L109.23 180.661C108.818 177.926 110.719 175.35 113.454 174.938L133.588 171.905C136.323 171.493 138.899 173.394 139.311 176.13L141.513 190.749C141.925 193.485 140.024 196.06 137.288 196.472Z" fill="#A5E17D"/>
<path d="M134.111 193.601L119.346 195.825C117.34 196.127 115.451 194.734 115.149 192.727L113.534 182.006C113.232 179.999 114.626 178.111 116.632 177.809L131.397 175.584C133.403 175.282 135.292 176.676 135.594 178.682L137.209 189.404C137.512 191.41 136.118 193.299 134.111 193.601Z" fill="#78BE5A"/>
<path d="M116.219 37.0618L97.9628 28.0482C95.4822 26.8233 94.4547 23.7919 95.6795 21.3113L102.225 8.0541C103.45 5.57348 106.481 4.54598 108.962 5.77082L127.218 14.7844C129.699 16.0093 130.726 19.0407 129.501 21.5213L122.956 34.7785C121.732 37.2582 118.7 38.2861 116.219 37.0618Z" fill="#FFB69E"/>
<path d="M115.251 32.8893L101.863 26.279C100.043 25.3809 99.29 23.1576 100.188 21.3384L104.989 11.6161C105.887 9.79683 108.11 9.04355 109.929 9.94168L123.318 16.552C125.137 17.4501 125.891 19.6734 124.993 21.4926L120.192 31.215C119.294 33.0342 117.071 33.7879 115.251 32.8893Z" fill="#FF7251"/>
<path d="M165.269 140.705C167.251 137.473 167.724 133.353 166.183 129.565C163.645 123.324 156.602 120.351 150.451 122.929C144.301 125.508 141.376 132.66 143.915 138.901C145.461 142.703 148.677 145.288 152.344 146.149L156.474 160.416C157.526 164.053 161.451 165.961 164.901 164.514L169.112 162.749C172.557 161.305 174.014 157.15 172.244 153.821L165.269 140.705ZM148.838 135.133C149.054 134.605 149.469 134.162 150.027 133.928L158.396 130.419C159.514 129.95 160.802 130.496 161.263 131.628C161.494 132.197 161.476 132.806 161.26 133.333C161.044 133.861 160.633 134.307 160.073 134.542L151.704 138.051C150.589 138.518 149.298 137.973 148.836 136.838C148.605 136.273 148.623 135.661 148.838 135.133Z" fill="#5F55AF"/>
</g>
<defs>
<clipPath id="clip0">
<rect width="240" height="240" fill="white"/>
</clipPath>
</defs>
</svg>
