<svg viewBox="0 0 188 177" fill="none" xmlns="http://www.w3.org/2000/svg">
<path d="M37.6346 142.843C37.6731 146.789 35.344 148.189 32.4547 148.218C32.3876 148.218 32.3208 148.218 32.2543 148.217C32.1204 148.216 31.9878 148.211 31.8566 148.203C29.2471 148.043 27.2069 146.615 27.1711 142.945C27.1341 139.147 31.9342 134.307 32.2942 133.949L32.2949 133.949C32.3086 133.935 32.3156 133.928 32.3156 133.928C32.3156 133.928 37.5962 138.897 37.6346 142.843Z" fill="#4A7CE2"/>
<path d="M120.23 142.621C120.269 146.567 117.94 147.968 115.05 147.996C114.983 147.997 114.917 147.997 114.85 147.996C114.716 147.994 114.584 147.989 114.452 147.981C111.843 147.822 109.803 146.393 109.767 142.723C109.73 138.925 114.53 134.085 114.89 133.727L114.891 133.727C114.904 133.713 114.911 133.706 114.911 133.706C114.911 133.706 120.192 138.675 120.23 142.621Z" fill="#4A7CE2"/>
<path d="M188 147.712H0V148.156H188V147.712Z" fill="#3F3D56"/>
<path d="M38.3083 73.627C58.6095 73.627 75.0669 57.145 75.0669 36.8135C75.0669 16.482 58.6095 0 38.3083 0C18.0072 0 1.5498 16.482 1.5498 36.8135C1.5498 57.145 18.0072 73.627 38.3083 73.627Z" fill="#4A7CE2"/>
<path d="M83.0389 114.876H83.039C91.8483 114.876 100.297 118.381 106.526 124.619C112.755 130.857 116.255 139.319 116.255 148.141V148.141H64.2168V133.726C64.2168 128.727 66.1998 123.932 69.7297 120.397C73.2595 116.862 78.047 114.876 83.0389 114.876Z" fill="#3F3D56"/>
<path d="M155.206 70.9789C155.206 70.9789 156.721 90.7067 154.599 91.3138C152.478 91.9208 144.902 96.4733 132.78 95.2593C132.78 95.2593 120.961 101.633 122.779 95.5628C124.597 89.4927 132.78 91.0102 132.78 91.0102C132.78 91.0102 147.326 87.9752 147.932 85.8507C148.538 83.7261 146.114 74.9245 147.023 74.621C147.932 74.3175 155.206 70.9789 155.206 70.9789Z" fill="#A0616A"/>
<path d="M137.053 105.375C137.053 105.375 138.234 133.875 140.052 138.124C141.567 141.664 142.451 153.205 142.704 156.962C142.755 157.715 142.78 158.156 142.78 158.156C142.78 158.156 147.629 158.156 147.932 156.942C148.235 155.728 149.144 142.373 147.932 138.124C146.72 133.875 149.478 104.464 149.478 104.464L137.053 105.375Z" fill="#2F2E41"/>
<path d="M143.992 156.638C143.992 156.638 140.962 157.549 140.356 158.763C139.75 159.977 129.749 162.101 132.78 163.619C135.81 165.136 144.902 162.405 144.902 162.405C144.902 162.405 149.75 162.101 149.447 160.28C149.144 158.459 148.041 156.215 148.041 156.215L143.992 156.638Z" fill="#2F2E41"/>
<path d="M152.478 159.906C152.478 159.906 149.447 160.816 148.841 162.03C148.235 163.244 138.234 165.369 141.265 166.886C144.295 168.404 153.387 165.672 153.387 165.672C153.387 165.672 158.236 165.369 157.933 163.548C157.63 161.727 156.526 159.483 156.526 159.483L152.478 159.906Z" fill="#2F2E41"/>
<path d="M139.749 104.668L143.992 111.952L151.073 137.278C151.073 137.278 150.356 160.513 151.265 160.513C152.174 160.513 157.023 162.03 157.326 160.513C157.582 159.231 160.976 146.952 159.284 138.778C158.184 133.613 157.476 128.371 157.167 123.098L156.417 108.917C156.417 108.917 159.447 103.454 156.114 102.543C152.78 101.633 139.749 104.668 139.749 104.668Z" fill="#2F2E41"/>
<path d="M143.689 57.9282C147.706 57.9282 150.963 54.667 150.963 50.6441C150.963 46.6212 147.706 43.36 143.689 43.36C139.672 43.36 136.416 46.6212 136.416 50.6441C136.416 54.667 139.672 57.9282 143.689 57.9282Z" fill="#A0616A"/>
<path d="M142.78 55.5002C142.78 55.5002 143.992 65.2123 143.689 65.8193C143.386 66.4263 150.963 59.1422 150.963 59.1422C150.963 59.1422 148.235 54.8932 148.841 52.7686L142.78 55.5002Z" fill="#A0616A"/>
<path d="M159.751 65.2123C159.751 65.2123 151.266 59.1422 150.963 57.9282L144.598 63.3913L143.517 62.1022C143.517 62.1022 138.537 67.0334 138.537 69.1579C138.537 71.2824 138.234 77.656 139.143 79.4771C140.053 81.2981 136.416 104.364 136.416 104.364C136.416 104.364 139.447 107.096 139.75 107.4C140.053 107.703 152.175 105.578 152.175 105.578C152.175 105.578 158.236 104.971 158.236 104.061C158.236 103.15 156.417 89.4927 157.024 85.8507C157.63 82.2086 159.751 65.2123 159.751 65.2123Z" fill="#575A89"/>
<path d="M161.569 73.7104C161.569 73.7104 163.084 93.4383 160.963 94.0453C158.841 94.6523 151.265 99.2049 139.143 97.9908C139.143 97.9908 127.324 104.364 129.142 98.2943C130.961 92.2242 139.143 93.7418 139.143 93.7418C139.143 93.7418 153.69 90.7067 154.296 88.5822C154.902 86.4577 152.477 77.656 153.386 77.3525C154.296 77.049 161.569 73.7104 161.569 73.7104Z" fill="#A0616A"/>
<path d="M140.583 47.0054C141.577 46.651 142.674 46.469 143.687 46.7628C145.122 47.1785 146.116 48.438 147.187 49.4798C148.259 50.5217 149.762 51.4448 151.173 50.9549C151.088 50.3423 151.249 49.7209 151.62 49.2265C151.804 49.0422 151.94 48.8153 152.016 48.5658C152.076 48.1757 151.749 47.8392 151.651 47.4569C151.478 46.7869 151.95 45.8697 151.37 45.4942C151.217 45.3951 151.023 45.3724 150.874 45.2678C150.287 44.8573 150.938 43.8361 150.551 43.2338C150.434 43.0782 150.284 42.9521 150.11 42.8656C147.298 41.2223 143.859 41.2178 140.603 41.2592C140.15 41.2649 139.519 41.4904 139.647 41.9259C139.032 41.4836 138.226 42.1046 137.73 42.6779L136.715 43.8512C136.238 44.3615 135.822 44.9254 135.475 45.5317C135.165 46.1255 135.096 47.0385 135.713 47.2974C135.254 47.1049 134.698 49.8266 136.813 49.3788C138.042 49.1186 139.246 47.4818 140.583 47.0054Z" fill="#2F2E41"/>
<path d="M154.902 65.8194L159.751 65.2123C159.751 65.2123 164.6 74.621 161.872 76.1385C159.145 77.656 152.175 78.8701 152.175 78.2631C152.175 77.6561 154.902 65.8194 154.902 65.8194Z" fill="#575A89"/>
<path d="M88.4473 67.8839C88.4473 67.8839 89.8937 72.6436 89.0672 74.0923C88.2406 75.5409 90.5136 78.6451 94.2331 77.1965C97.9525 75.7478 98.1592 74.0923 98.1592 74.0923C98.1592 74.0923 96.7127 71.8159 96.2994 67.0561L88.4473 67.8839Z" fill="#FFB9B9"/>
<path d="M69.5403 114.55C69.5403 114.55 62.1014 118.275 65.4076 123.242C67.3293 126.129 70.9965 131.743 73.7307 135.938C76.019 139.449 77.7739 143.281 78.938 147.308L79.4589 149.11L81.5252 151.593L85.8646 146.627C85.8646 146.627 79.4589 134.831 79.4589 132.554C79.4589 130.278 74.293 123.035 74.293 123.035L79.4589 119.724C79.4589 119.724 73.6731 113.101 69.5403 114.55Z" fill="#FFB9B9"/>
<path d="M93.717 127.381C93.717 127.381 93.9236 133.175 94.1302 135.452C94.3007 137.33 92.6429 142.588 93.2177 148.438C93.5685 152.223 93.5265 156.034 93.0924 159.81L92.2705 167.321L98.4696 167.942L100.536 150.973C100.536 150.973 101.776 138.97 101.156 135.038L101.363 126.76C101.363 126.76 96.8165 125.104 93.717 127.381Z" fill="#FFB9B9"/>
<path d="M82.6614 103.272C82.6614 103.272 68.1969 112.584 67.9902 115.481C67.9902 115.481 76.2557 114.654 76.4623 121.897C76.4623 121.897 81.4216 120.034 82.6614 119.62C83.9013 119.206 90.5136 114.861 90.5136 114.861C90.5136 114.861 93.1999 116.93 93.1999 120.241C93.1999 123.552 92.9933 129.347 93.1999 129.761C93.4065 130.174 98.1592 124.173 102.085 129.347L104.772 115.067C104.772 115.067 105.598 106.376 103.945 105.755L92.3734 101.409L82.6614 103.272Z" fill="#2F2E41"/>
<path d="M91.4432 70.4707C94.8669 70.4707 97.6423 67.6911 97.6423 64.2623C97.6423 60.8335 94.8669 58.054 91.4432 58.054C88.0196 58.054 85.2441 60.8335 85.2441 64.2623C85.2441 67.6911 88.0196 70.4707 91.4432 70.4707Z" fill="#FFB9B9"/>
<path d="M89.8939 75.127C89.8939 75.127 96.8861 76.9765 97.8327 73.4649C97.8327 73.4649 106.425 75.127 107.871 80.7145C109.318 86.302 104.358 99.7535 104.358 100.167C104.358 100.581 108.491 103.065 106.631 104.306C104.772 105.548 103.119 104.099 103.945 105.755C104.772 107.41 106.218 107.824 104.978 108.238C103.739 108.652 96.2996 102.237 90.5138 103.892C84.728 105.548 81.8351 104.306 81.8351 104.306L79.2407 81.8503C79.1394 80.9899 79.2549 80.1179 79.5766 79.3138C79.8982 78.5096 80.4159 77.799 81.0822 77.2467C82.3772 76.1792 84.0954 75.0259 85.7611 74.7131C89.0673 74.0922 89.2047 73.7524 89.2047 73.7524L89.8939 75.127Z" fill="#D0CDE1"/>
<path d="M83.2812 111.342C83.2812 111.342 85.141 121.897 87.6206 120.448C90.1003 118.999 87.0007 111.342 87.0007 111.342H83.2812Z" fill="#FFB9B9"/>
<path d="M91.9135 112.708C91.9135 112.708 88.6912 122.928 91.5586 122.791C94.4261 122.655 95.2117 114.43 95.2117 114.43L91.9135 112.708Z" fill="#FFB9B9"/>
<path d="M80.492 148.696C80.492 148.696 79.0456 147.041 78.219 149.317C77.3925 151.593 75.1195 154.491 75.1195 154.491C75.1195 154.491 70.1602 160.078 73.673 160.285C77.1858 160.492 82.1451 155.318 82.1451 155.318L87.9309 149.938C87.9309 149.938 86.0133 145.261 85.1124 145.219C84.2115 145.178 84.4181 150.766 80.492 148.696Z" fill="#2F2E41"/>
<path d="M93.9233 165.873C93.9233 165.873 92.467 166.298 92.5753 164.533C92.5753 164.533 87.3109 167.321 88.7574 169.391C90.2038 171.46 91.8569 173.53 91.8569 173.53C91.8569 173.53 99.5025 177.875 100.122 176.841C100.742 175.806 100.742 173.737 100.329 172.909C99.9158 172.081 97.8494 170.632 98.4693 169.391C99.0892 168.149 98.2627 164.838 97.2295 164.838C96.1963 164.838 93.9233 165.873 93.9233 165.873Z" fill="#2F2E41"/>
<path d="M86.0338 59.0017C86.0338 59.0017 88.028 54.6745 91.8502 55.673C95.6724 56.6716 97.8328 58.1695 97.999 59.6674C98.1651 61.1653 97.9159 63.4121 97.9159 63.4121C97.9159 63.4121 97.5004 60.3331 94.8415 60.9988C92.1826 61.6646 88.028 61.1653 88.028 61.1653L87.3633 67.1568C87.3633 67.1568 86.6155 66.075 85.7846 66.7407C84.9536 67.4064 83.3749 60.3331 86.0338 59.0017Z" fill="#2F2E41"/>
<path d="M104.359 80.5075C104.359 80.5075 99.3994 93.959 99.8127 95.6145C100.226 97.2701 99.8127 97.4771 99.1928 97.891C98.5729 98.3048 96.9198 102.651 96.9198 102.651C96.9198 102.651 95.8866 105.134 95.0601 105.755C94.2335 106.376 94.2335 108.031 94.2335 108.031C94.2335 108.031 92.1671 110.101 92.5804 110.515C92.9937 110.929 92.9937 111.549 92.1671 112.17C91.3406 112.791 90.514 113.619 90.9273 113.826C91.3406 114.033 94.2335 116.309 95.06 116.102C95.8866 115.895 94.6468 115.067 95.68 114.654C96.7131 114.24 97.3331 113.619 96.9198 113.412C96.5065 113.205 95.2667 113.205 96.5065 112.791C97.7463 112.377 102.086 109.687 103.532 106.376C104.979 103.065 111.909 83.0315 107.721 80.2175C107.721 80.2174 106.012 78.0242 104.359 80.5075Z" fill="#D0CDE1"/>
<path d="M81.4222 78.2311L81.3382 78.2662C80.5577 78.5921 79.8682 79.1037 79.3296 79.7567C78.7909 80.4096 78.4193 81.1842 78.2469 82.0133C77.7956 84.1762 77.3517 87.3046 77.7027 90.234C78.3226 95.4076 78.7359 97.684 79.5624 99.3396C80.389 100.995 80.5956 100.374 80.389 101.616C80.1823 102.858 79.1491 101.823 80.1823 103.478C81.2155 105.134 81.8354 104.72 81.4221 105.548C81.0089 106.376 80.389 106.376 81.2155 107.41C82.0421 108.445 82.0421 108.859 82.2487 109.273C82.4553 109.687 83.0752 112.791 83.0752 112.791C83.0752 112.791 86.3814 111.756 88.2412 112.17C88.2412 112.17 86.5881 109.273 87.0013 108.652C87.4146 108.031 88.0345 107.824 87.4146 107.204C86.7947 106.583 85.7615 106.79 86.7947 106.169C87.8279 105.548 85.9682 99.1326 85.9682 99.1326L81.4222 78.2311Z" fill="#D0CDE1"/>
<path d="M41.8521 147.698H34.3232L37.7555 31.2693L41.8521 147.698Z" fill="#3F3D56"/>
<path d="M38.4193 53.3352L46.5018 42.1359L38.3086 56.1073L37.4229 54.5549L38.4193 53.3352Z" fill="#3F3D56"/>
<path d="M37.5336 64.6454L29.4512 53.4461L37.6443 67.4175L38.5301 65.8651L37.5336 64.6454Z" fill="#3F3D56"/>
<path d="M41.6807 87.1371L38.0371 89.2439L39.1443 91.1645L42.7879 89.0577L41.6807 87.1371Z" fill="#3F3D56"/>
<line x1="101.918" y1="55.7065" x2="110.962" y2="51.4403" stroke="#4A7CE2" stroke-width="2"/>
<line x1="104.264" y1="60.1562" x2="113.885" y2="58.0505" stroke="#4A7CE2" stroke-width="2"/>
<line x1="104.658" y1="64.2525" x2="114.856" y2="64.3071" stroke="#4A7CE2" stroke-width="2"/>
<line x1="134.823" y1="58.9956" x2="125.835" y2="63.3788" stroke="#4A7CE2" stroke-width="2"/>
<line x1="132.42" y1="54.5767" x2="122.827" y2="56.8072" stroke="#4A7CE2" stroke-width="2"/>
<line x1="131.973" y1="50.4858" x2="121.776" y2="50.5636" stroke="#4A7CE2" stroke-width="2"/>
</svg>
