<svg viewBox="0 0 297 191" fill="none" xmlns="http://www.w3.org/2000/svg">
<g clip-path="url(#clip0)">
<path d="M215.494 179.191L213.951 160.035L209.542 180.292C209.542 180.292 209.6 185.402 209.746 191H215.395C215.585 184.601 215.494 179.191 215.494 179.191Z" fill="#F2F2F2"/>
<path d="M136.148 186.003C135.714 184.212 135.407 182.392 135.231 180.558L134.613 173.931C134.354 172.116 134.087 170.517 133.819 169.106C131.854 159.043 129.824 158.679 129.824 158.679C129.737 158.746 129.652 158.819 129.565 158.896C129.327 159.112 129.105 159.346 128.901 159.596C125.669 163.698 123.477 174.338 122.325 181.396C121.689 185.295 121.372 188.1 121.372 188.1C121.372 188.1 121.66 189.295 122.053 191H136.8C136.744 189.317 136.526 187.644 136.148 186.003V186.003Z" fill="#F2F2F2"/>
<path d="M66.4926 80.7796C83.1053 80.7796 96.5725 68.5401 96.5725 53.4419C96.5725 38.3437 83.1053 26.1042 66.4926 26.1042C49.8799 26.1042 36.4126 38.3437 36.4126 53.4419C36.4126 68.5401 49.8799 80.7796 66.4926 80.7796Z" fill="#3F3D56"/>
<path d="M116.045 142.776C116.045 142.776 126.178 135.819 126.178 132.656C126.178 129.494 133.144 108.94 136.943 118.11C140.743 127.281 131.56 140.246 131.56 140.246C131.56 140.246 121.428 158.587 115.412 161.749C109.396 164.911 104.33 163.014 104.33 163.014V154.476L110.119 145.92C110.774 144.952 111.657 144.159 112.69 143.61C113.723 143.062 114.875 142.776 116.045 142.776V142.776Z" fill="#FFB9B9"/>
<path d="M87.2456 94.3413C87.2456 94.3413 102.43 99.1365 104.013 101.35C105.596 103.564 106.23 99.7689 110.662 114.315C115.095 128.862 116.204 142.934 116.204 142.934C116.204 142.934 105.28 146.57 106.546 160.8C107.813 175.03 104.646 190.526 104.646 190.526H100.694L91.9812 163.646L102.43 122.853C102.43 122.853 87.5761 97.768 87.2456 94.3413Z" fill="#575A89"/>
<path d="M82.1658 81.1118C92.6581 81.1118 101.164 72.6171 101.164 62.1383C101.164 51.6595 92.6581 43.1648 82.1658 43.1648C71.6736 43.1648 63.168 51.6595 63.168 62.1383C63.168 72.6171 71.6736 81.1118 82.1658 81.1118Z" fill="#FFB9B9"/>
<path d="M89.4484 76.3684C89.4484 76.3684 84.0657 94.077 88.8151 96.6068C93.5646 99.1366 98.9473 110.521 98.9473 110.521L90.7149 119.691H71.717L63.168 110.205L59.6851 94.077L64.4345 90.2823C64.4345 90.2823 69.5006 77.6333 69.5006 70.9926C69.5006 64.3519 89.4484 76.3684 89.4484 76.3684Z" fill="#FFB9B9"/>
<path d="M91.0316 95.9744C91.0316 95.9744 87.232 95.0257 89.4484 98.8204C91.6648 102.615 93.8812 109.572 85.9655 109.888C78.0497 110.205 70.1339 106.094 67.6009 97.5555C65.0678 89.0174 64.1179 89.6499 63.168 89.9661C62.2181 90.2823 52.0859 100.718 52.0859 100.718L55.5689 120.324L56.8354 190.526H103.064C103.064 190.526 104.963 170.287 101.797 165.544C98.6307 160.801 104.647 148.784 104.647 148.784C104.647 148.784 110.029 140.562 105.913 124.751C101.797 108.94 92.6147 95.9744 91.0316 95.9744Z" fill="#4A7CE2"/>
<path d="M65.3841 89.966C65.3841 89.966 60.6346 87.7524 56.5184 91.5472C52.4022 95.3419 43.2199 98.5041 43.2199 100.401C43.2199 102.299 51.1357 156.373 45.753 165.86C40.3703 175.347 34.6709 190.526 34.6709 190.526H61.0822C61.0822 190.526 65.3841 174.714 69.817 166.176C74.2498 157.638 73.9332 133.605 72.6666 126.332C71.4001 119.059 65.3841 89.966 65.3841 89.966Z" fill="#575A89"/>
<path d="M37.521 173.766L39.063 190.526H56.176L54.6191 169.655L37.521 173.766Z" fill="#FFB9B9"/>
<path d="M115.412 164.911L119.528 190.526H211.035L218.95 138.981L115.412 164.911Z" fill="#3F3D56"/>
<path d="M222.434 135.502L223.383 140.246L104.963 168.706V164.595L222.434 135.502Z" fill="#3F3D56"/>
<path d="M172.406 144.04L171.772 149.416L178.738 148.468L175.889 143.092L172.406 144.04Z" fill="#3F3D56"/>
<path d="M134.093 89.6498C134.093 89.6498 148.025 88.7011 151.825 99.4527C155.624 110.204 164.49 129.494 167.973 132.34C171.456 135.186 175.255 142.776 174.622 145.305" stroke="#3F3D56" stroke-width="5" stroke-miterlimit="10"/>
<path d="M136.152 89.4916C136.152 90.9761 134.571 92.1795 132.035 92.1795C129.5 92.1795 128.236 90.9761 128.236 89.4916C128.236 88.0071 129.5 86.8037 132.035 86.8037C134.571 86.8037 136.152 88.0071 136.152 89.4916Z" fill="#4A7CE2"/>
<path d="M112.721 138.823C112.721 138.823 115.095 128.862 110.662 114.316C106.23 99.7692 105.596 103.564 104.013 101.35C102.43 99.1367 87.2456 94.3416 87.2456 94.3416C87.3542 95.4675 89.031 98.9322 91.2336 103.077C90.8371 101.583 90.2363 100.151 89.4482 98.8205C87.2318 95.0258 91.0313 95.9745 91.0313 95.9745C92.6145 95.9745 101.797 108.94 105.913 124.751C110.029 140.562 104.646 148.784 104.646 148.784L112.721 138.823Z" fill="#575A89"/>
<path d="M87.3901 94.2351C87.3901 94.2351 89.2647 101.337 90.8604 102.371C92.4562 103.406 101.92 113.226 101.92 113.226L100.689 105.303L95.6225 97.7136L94.2751 96.7371L87.3901 94.2351Z" fill="#575A89"/>
<path opacity="0.1" d="M45.2783 116.055L45.7198 99.769C45.7198 99.769 35.3045 104.196 34.3546 123.17C33.4047 142.143 35.9377 177.877 39.4207 178.193C42.9036 178.509 59.3684 174.714 59.3684 174.714C59.3684 174.714 61.9015 128.862 60.9516 122.853C60.0017 116.845 45.2783 116.055 45.2783 116.055Z" fill="black"/>
<path d="M46.07 99.769H43.5035C43.5035 99.769 33.0882 104.196 32.1383 123.17C31.1884 142.143 33.7214 177.877 37.2044 178.193C40.6873 178.509 57.1521 174.714 57.1521 174.714C57.1521 174.714 59.6852 128.862 58.7353 122.853C57.7854 116.845 46.07 99.769 46.07 99.769Z" fill="#575A89"/>
<path d="M59.5266 79.0564C70.3686 79.0564 79.1578 69.2166 79.1578 57.0787C79.1578 44.9408 70.3686 35.1011 59.5266 35.1011C48.6847 35.1011 39.8955 44.9408 39.8955 57.0787C39.8955 69.2166 48.6847 79.0564 59.5266 79.0564Z" fill="#3F3D56"/>
<path d="M73.6166 74.9454C75.8025 74.9454 77.5745 72.3262 77.5745 69.0953C77.5745 65.8643 75.8025 63.2451 73.6166 63.2451C71.4307 63.2451 69.6587 65.8643 69.6587 69.0953C69.6587 72.3262 71.4307 74.9454 73.6166 74.9454Z" fill="#FFB9B9"/>
<path d="M39.8957 51.2286C48.8141 51.2286 56.0439 44.0081 56.0439 35.1011C56.0439 26.1942 48.8141 18.9736 39.8957 18.9736C30.9773 18.9736 23.7476 26.1942 23.7476 35.1011C23.7476 44.0081 30.9773 51.2286 39.8957 51.2286Z" fill="#3F3D56"/>
<path d="M41.9824 48.0211C39.6365 49.2132 37.0344 49.8145 34.4026 49.7726C31.7708 49.7307 29.1892 49.0469 26.8825 47.7807C24.5758 46.5145 22.6141 44.7044 21.168 42.5079C19.722 40.3114 18.8355 37.7951 18.5858 35.1782C18.241 37.4371 18.3808 39.7434 18.9959 41.9443C19.6111 44.1452 20.6875 46.1904 22.154 47.9443C23.6204 49.6983 25.4434 51.121 27.502 52.1181C29.5606 53.1152 31.8079 53.664 34.095 53.7281C36.382 53.7922 38.6566 53.3701 40.768 52.4898C42.8793 51.6096 44.7793 50.2912 46.3419 48.6221C47.9045 46.9531 49.0941 44.9714 49.8318 42.8084C50.5696 40.6454 50.8386 38.3506 50.6212 36.0759C50.2369 38.6099 49.2527 41.0157 47.7501 43.0933C46.2476 45.1709 44.2703 46.8603 41.9824 48.0211V48.0211Z" fill="#3F3D56"/>
<path d="M31.0364 37.7666C29.4149 35.6959 28.3248 33.2608 27.8611 30.6732C27.3973 28.0855 27.574 25.4239 28.3757 22.9201C29.1774 20.4162 30.5798 18.1461 32.4609 16.3073C34.3419 14.4686 36.6445 13.1169 39.1682 12.3701C36.8822 12.4655 34.6427 13.045 32.5979 14.0702C30.5532 15.0954 28.75 16.5429 27.3077 18.3168C25.8655 20.0906 24.8172 22.1503 24.2323 24.3594C23.6474 26.5685 23.5393 28.8765 23.9151 31.1305C24.2909 33.3845 25.1421 35.533 26.4122 37.4336C27.6822 39.3342 29.3423 40.9435 31.2822 42.1549C33.2222 43.3663 35.3978 44.1521 37.6648 44.4602C39.9319 44.7684 42.2386 44.5918 44.4322 43.9423C41.8684 44.0518 39.3154 43.5486 36.9855 42.4745C34.6556 41.4004 32.6161 39.7864 31.0364 37.7666Z" fill="#3F3D56"/>
<path d="M83.2742 55.6556C89.5695 55.6556 94.6729 51.9746 94.6729 47.4338C94.6729 42.893 89.5695 39.2119 83.2742 39.2119C76.9789 39.2119 71.8755 42.893 71.8755 47.4338C71.8755 51.9746 76.9789 55.6556 83.2742 55.6556Z" fill="#3F3D56"/>
</g>
<defs>
<clipPath id="clip0">
<rect width="297" height="191" fill="white"/>
</clipPath>
</defs>
</svg>
