<svg width="206" height="179" viewBox="0 0 206 179" fill="none" xmlns="http://www.w3.org/2000/svg">
<path d="M197.494 167.191L195.951 148.035L191.542 168.292C191.542 168.292 191.6 173.402 191.746 179H197.395C197.585 172.601 197.494 167.191 197.494 167.191Z" fill="#F2F2F2"/>
<path d="M118.148 174.003C117.714 172.212 117.407 170.392 117.231 168.558L116.613 161.931C116.354 160.116 116.087 158.517 115.819 157.106C113.854 147.043 111.824 146.679 111.824 146.679C111.737 146.746 111.652 146.819 111.565 146.896C111.327 147.112 111.105 147.346 110.901 147.596C107.669 151.698 105.477 162.338 104.325 169.396C103.689 173.295 103.372 176.1 103.372 176.1C103.372 176.1 103.66 177.295 104.053 179H118.8C118.744 177.317 118.526 175.644 118.148 174.003V174.003Z" fill="#F2F2F2"/>
<path d="M48.4926 68.7796C65.1053 68.7796 78.5725 56.5401 78.5725 41.4419C78.5725 26.3437 65.1053 14.1042 48.4926 14.1042C31.8799 14.1042 18.4126 26.3437 18.4126 41.4419C18.4126 56.5401 31.8799 68.7796 48.4926 68.7796Z" fill="#3F3D56"/>
<path d="M98.0454 130.776C98.0454 130.776 108.178 123.819 108.178 120.656C108.178 117.494 115.144 96.9395 118.943 106.11C122.743 115.281 113.56 128.246 113.56 128.246C113.56 128.246 103.428 146.587 97.4122 149.749C91.3962 152.911 86.3301 151.014 86.3301 151.014V142.476L92.1186 133.92C92.7737 132.952 93.6566 132.159 94.6899 131.61C95.7232 131.062 96.8754 130.776 98.0454 130.776V130.776Z" fill="#FFB9B9"/>
<path d="M69.2456 82.3413C69.2456 82.3413 84.4301 87.1365 86.0132 89.35C87.5964 91.5636 88.2296 87.7689 92.6625 102.315C97.0953 116.862 98.2035 130.934 98.2035 130.934C98.2035 130.934 87.2798 134.57 88.5463 148.8C89.8128 163.03 86.6465 178.526 86.6465 178.526H82.6936L73.9812 151.646L84.4301 110.853C84.4301 110.853 69.5761 85.768 69.2456 82.3413Z" fill="#575A89"/>
<path d="M64.1658 69.1118C74.6581 69.1118 83.1637 60.6171 83.1637 50.1383C83.1637 39.6595 74.6581 31.1648 64.1658 31.1648C53.6736 31.1648 45.168 39.6595 45.168 50.1383C45.168 60.6171 53.6736 69.1118 64.1658 69.1118Z" fill="#FFB9B9"/>
<path d="M71.4484 64.3684C71.4484 64.3684 66.0657 82.077 70.8151 84.6068C75.5646 87.1366 80.9473 98.5207 80.9473 98.5207L72.7149 107.691H53.717L45.168 98.2045L41.6851 82.077L46.4345 78.2823C46.4345 78.2823 51.5006 65.6333 51.5006 58.9926C51.5006 52.3519 71.4484 64.3684 71.4484 64.3684Z" fill="#FFB9B9"/>
<path d="M73.0316 83.9744C73.0316 83.9744 69.232 83.0257 71.4484 86.8204C73.6648 90.6151 75.8812 97.5721 67.9655 97.8883C60.0497 98.2045 52.1339 94.0936 49.6009 85.5555C47.0678 77.0174 46.1179 77.6499 45.168 77.9661C44.2181 78.2823 34.0859 88.7178 34.0859 88.7178L37.5689 108.324L38.8354 178.526H85.0636C85.0636 178.526 86.9633 158.287 83.797 153.544C80.6307 148.801 86.6467 136.784 86.6467 136.784C86.6467 136.784 92.0294 128.562 87.9132 112.751C83.797 96.9396 74.6147 83.9744 73.0316 83.9744Z" fill="#4A7CE2"/>
<path d="M47.3841 77.966C47.3841 77.966 42.6346 75.7524 38.5184 79.5472C34.4022 83.3419 25.2199 86.5041 25.2199 88.4015C25.2199 90.2988 33.1357 144.373 27.753 153.86C22.3703 163.347 16.6709 178.526 16.6709 178.526H43.0822C43.0822 178.526 47.3841 162.714 51.817 154.176C56.2498 145.638 55.9332 121.605 54.6666 114.332C53.4001 107.059 47.3841 77.966 47.3841 77.966Z" fill="#575A89"/>
<path d="M19.521 161.766L21.063 178.526H38.176L36.6191 157.655L19.521 161.766Z" fill="#FFB9B9"/>
<path d="M97.4121 152.911L101.528 178.526H193.035L200.95 126.981L97.4121 152.911Z" fill="#3F3D56"/>
<path d="M204.434 123.502L205.383 128.246L86.9634 156.706V152.595L204.434 123.502Z" fill="#3F3D56"/>
<path d="M154.406 132.04L153.772 137.416L160.738 136.468L157.889 131.092L154.406 132.04Z" fill="#3F3D56"/>
<path d="M116.093 77.6498C116.093 77.6498 130.025 76.7011 133.825 87.4527C137.624 98.2044 146.49 117.494 149.973 120.34C153.456 123.186 157.255 130.776 156.622 133.305" stroke="#3F3D56" stroke-width="5" stroke-miterlimit="10"/>
<path d="M118.152 77.4916C118.152 78.9761 116.571 80.1795 114.035 80.1795C111.5 80.1795 110.236 78.9761 110.236 77.4916C110.236 76.0071 111.5 74.8037 114.035 74.8037C116.571 74.8037 118.152 76.0071 118.152 77.4916Z" fill="#4A7CE2"/>
<path d="M94.7206 126.823C94.7206 126.823 97.0953 116.862 92.6625 102.316C88.2296 87.7692 87.5964 91.5639 86.0132 89.3503C84.4301 87.1367 69.2456 82.3416 69.2456 82.3416C69.3542 83.4675 71.031 86.9322 73.2336 91.0768C72.8371 89.5828 72.2363 88.1506 71.4482 86.8205C69.2318 83.0258 73.0313 83.9745 73.0313 83.9745C74.6145 83.9745 83.7968 96.9397 87.913 112.751C92.0292 128.562 86.6465 136.784 86.6465 136.784L94.7206 126.823Z" fill="#575A89"/>
<path d="M69.3901 82.2351C69.3901 82.2351 71.2647 89.3368 72.8604 90.3712C74.4562 91.4056 83.9203 101.226 83.9203 101.226L82.6886 93.303L77.6225 85.7136L76.2751 84.7371L69.3901 82.2351Z" fill="#575A89"/>
<path opacity="0.1" d="M27.2783 104.055L27.7198 87.769C27.7198 87.769 17.3045 92.1962 16.3546 111.17C15.4047 130.143 17.9377 165.877 21.4207 166.193C24.9036 166.509 41.3684 162.714 41.3684 162.714C41.3684 162.714 43.9015 116.862 42.9516 110.853C42.0017 104.845 27.2783 104.055 27.2783 104.055Z" fill="black"/>
<path d="M28.07 87.769H25.5035C25.5035 87.769 15.0882 92.1962 14.1383 111.17C13.1884 130.143 15.7214 165.877 19.2044 166.193C22.6873 166.509 39.1521 162.714 39.1521 162.714C39.1521 162.714 41.6852 116.862 40.7353 110.853C39.7854 104.845 28.07 87.769 28.07 87.769Z" fill="#575A89"/>
<path d="M41.5266 67.0564C52.3686 67.0564 61.1578 57.2166 61.1578 45.0787C61.1578 32.9408 52.3686 23.1011 41.5266 23.1011C30.6847 23.1011 21.8955 32.9408 21.8955 45.0787C21.8955 57.2166 30.6847 67.0564 41.5266 67.0564Z" fill="#3F3D56"/>
<path d="M55.6166 62.9454C57.8025 62.9454 59.5745 60.3262 59.5745 57.0953C59.5745 53.8643 57.8025 51.2451 55.6166 51.2451C53.4307 51.2451 51.6587 53.8643 51.6587 57.0953C51.6587 60.3262 53.4307 62.9454 55.6166 62.9454Z" fill="#FFB9B9"/>
<path d="M21.8957 39.2286C30.8141 39.2286 38.0439 32.0081 38.0439 23.1011C38.0439 14.1942 30.8141 6.97363 21.8957 6.97363C12.9773 6.97363 5.74756 14.1942 5.74756 23.1011C5.74756 32.0081 12.9773 39.2286 21.8957 39.2286Z" fill="#3F3D56"/>
<path d="M23.9824 36.0211C21.6365 37.2132 19.0344 37.8145 16.4026 37.7726C13.7708 37.7307 11.1892 37.0469 8.8825 35.7807C6.57583 34.5145 4.61406 32.7044 3.16802 30.5079C1.72198 28.3114 0.835512 25.7951 0.585812 23.1782C0.240977 25.4371 0.380768 27.7434 0.995921 29.9443C1.61107 32.1452 2.68754 34.1904 4.15399 35.9443C5.62043 37.6983 7.44337 39.121 9.50199 40.1181C11.5606 41.1152 13.8079 41.664 16.095 41.7281C18.382 41.7922 20.6566 41.3701 22.768 40.4898C24.8793 39.6096 26.7793 38.2912 28.3419 36.6221C29.9045 34.9531 31.0941 32.9714 31.8318 30.8084C32.5696 28.6454 32.8386 26.3506 32.6212 24.0759C32.2369 26.6099 31.2527 29.0157 29.7501 31.0933C28.2476 33.1709 26.2703 34.8603 23.9824 36.0211V36.0211Z" fill="#3F3D56"/>
<path d="M13.0364 25.7666C11.4149 23.6959 10.3248 21.2608 9.86106 18.6732C9.39731 16.0855 9.57399 13.4239 10.3757 10.9201C11.1774 8.41624 12.5798 6.14609 14.4609 4.30733C16.3419 2.46856 18.6445 1.11693 21.1682 0.370117C18.8822 0.465508 16.6427 1.045 14.5979 2.0702C12.5532 3.0954 10.75 4.5429 9.30773 6.31676C7.8655 8.09063 6.8172 10.1503 6.23231 12.3594C5.64742 14.5685 5.5393 16.8765 5.9151 19.1305C6.2909 21.3845 7.14206 23.533 8.41215 25.4336C9.68224 27.3342 11.3423 28.9435 13.2822 30.1549C15.2222 31.3663 17.3978 32.1521 19.6648 32.4602C21.9319 32.7684 24.2386 32.5918 26.4322 31.9423C23.8684 32.0518 21.3154 31.5486 18.9855 30.4745C16.6556 29.4004 14.6161 27.7864 13.0364 25.7666Z" fill="#3F3D56"/>
<path d="M65.2742 43.6556C71.5695 43.6556 76.6729 39.9746 76.6729 35.4338C76.6729 30.893 71.5695 27.2119 65.2742 27.2119C58.9789 27.2119 53.8755 30.893 53.8755 35.4338C53.8755 39.9746 58.9789 43.6556 65.2742 43.6556Z" fill="#3F3D56"/>
</svg>
