<svg viewBox="0 0 61 61" fill="none" xmlns="http://www.w3.org/2000/svg">
<g clip-path="url(#clip0)">
<path d="M60.0084 4.84957C59.8784 2.46448 57.9815 0.567827 55.5964 0.437654C50.7838 0.174729 41.3663 0.430501 32.3612 5.08822C27.7705 7.46276 22.9154 11.4886 19.0409 16.1335C18.9931 16.1908 18.9467 16.2484 18.8993 16.3057L10.1062 16.9849C8.65883 17.0968 7.36965 17.8555 6.56915 19.0662L0.570184 28.1398C-0.0369372 29.0581 -0.133453 30.2072 0.311832 31.2138C0.757233 32.2204 1.67243 32.922 2.76013 33.0905L10.1684 34.2379C10.1422 34.3819 10.1159 34.5258 10.0919 34.6698C9.84528 36.1451 10.3341 37.6619 11.3996 38.7273L21.7187 49.0465C22.6021 49.9299 23.7958 50.4169 25.019 50.4169C25.2709 50.4169 25.5242 50.3962 25.7763 50.3541C25.9203 50.33 26.0642 50.3038 26.2082 50.2776L27.3556 57.686C27.5241 58.7737 28.2257 59.689 29.2321 60.1343C29.6509 60.3195 30.094 60.411 30.5352 60.411C31.1548 60.4109 31.77 60.2305 32.3062 59.876L41.3798 53.8769C42.5906 53.0763 43.3491 51.7871 43.4608 50.3399L44.14 41.5469C44.1974 41.4995 44.2551 41.4531 44.3123 41.4053C48.9574 37.5308 52.9833 32.6757 55.3578 28.0849C60.0157 19.0794 60.271 9.66185 60.0084 4.84957ZM39.4395 50.9421L30.76 56.6806L29.6417 49.4607C33.31 48.3821 36.9388 46.6547 40.3959 44.3406L39.9534 50.0687C39.9258 50.4261 39.7384 50.7445 39.4395 50.9421ZM24.2064 46.5588L13.8872 36.2396C13.6239 35.9762 13.5022 35.6062 13.5619 35.2498C13.8687 33.4153 14.3454 31.669 14.9355 30.0239L30.4188 45.5072C28.443 46.2149 26.6732 46.6371 25.1962 46.8841C24.8392 46.9434 24.4697 46.822 24.2064 46.5588ZM10.3772 20.4927L16.1053 20.0502C13.791 23.5073 12.0636 27.1361 10.9851 30.8044L3.76528 29.6862L9.5039 21.0066C9.70162 20.7075 10.02 20.5202 10.3772 20.4927ZM42.059 38.7035C39.2172 41.0739 36.4586 42.7885 33.9158 44.0291L16.4163 26.5295C18.0415 23.2102 20.0249 20.4462 21.7425 18.3872C25.3281 14.0885 29.7876 10.3803 33.9777 8.21307C42.2423 3.93813 50.9499 3.70792 55.4049 3.95044C55.9945 3.98257 56.4635 4.45155 56.4957 5.04131C56.7385 9.49626 56.5078 18.2038 52.2329 26.4686C50.0658 30.6585 46.3575 35.1179 42.059 38.7035Z" fill="white"/>
<path d="M41.1653 28.0718C43.4172 28.0716 45.67 27.2143 47.3844 25.4999C49.0457 23.8387 49.9604 21.63 49.9604 19.2808C49.9604 16.9316 49.0456 14.7229 47.3844 13.0617C43.9551 9.63231 38.3753 9.63254 34.9462 13.0617C33.285 14.7229 32.3701 16.9316 32.3701 19.2808C32.3701 21.63 33.2851 23.8387 34.9462 25.4999C36.661 27.2146 38.9126 28.072 41.1653 28.0718ZM37.4337 15.5493C38.4624 14.5205 39.8138 14.0061 41.1651 14.0061C42.5165 14.0061 43.8679 14.5205 44.8966 15.5493C45.8933 16.546 46.4421 17.8712 46.4421 19.2807C46.4421 20.6902 45.8933 22.0155 44.8966 23.0122C42.8392 25.0697 39.4911 25.0696 37.4336 23.0122C36.4369 22.0155 35.8879 20.6903 35.8879 19.2808C35.8879 17.8713 36.437 16.546 37.4337 15.5493Z" fill="white"/>
<path d="M1.83032 49.8488C2.28053 49.8488 2.73074 49.6772 3.07411 49.3335L8.81731 43.5903C9.50429 42.9034 9.50429 41.7896 8.81731 41.1026C8.13044 40.4157 7.01659 40.4157 6.3296 41.1026L0.586527 46.8458C-0.100457 47.5328 -0.100457 48.6466 0.586527 49.3335C0.929901 49.677 1.38011 49.8488 1.83032 49.8488Z" fill="white"/>
<path d="M14.0803 46.3661C13.3934 45.6791 12.2796 45.6791 11.5926 46.3661L0.550882 57.4079C-0.136101 58.0949 -0.136101 59.2086 0.550882 59.8956C0.894374 60.2391 1.34447 60.4108 1.79468 60.4108C2.24489 60.4108 2.6951 60.2391 3.03847 59.8955L14.0802 48.8538C14.7673 48.1668 14.7673 47.0531 14.0803 46.3661Z" fill="white"/>
<path d="M16.8561 51.6293L11.1129 57.3724C10.4259 58.0594 10.4259 59.1732 11.1129 59.8602C11.4564 60.2036 11.9066 60.3755 12.3567 60.3755C12.8068 60.3755 13.2571 60.2038 13.6005 59.8602L19.3437 54.117C20.0307 53.43 20.0307 52.3162 19.3437 51.6293C18.6568 50.9423 17.5429 50.9423 16.8561 51.6293Z" fill="white"/>
</g>
<defs>
<clipPath id="clip0">
<rect width="60.0436" height="60.0436" fill="white" transform="translate(0.0356445 0.367065)"/>
</clipPath>
</defs>
</svg>
