<svg width="238" height="216" viewBox="0 0 238 216" fill="none" xmlns="http://www.w3.org/2000/svg">
<g clip-path="url(#clip0)">
<g opacity="0.5">
<path opacity="0.5" d="M173.686 14.9434H66.6136V162.475H173.686V14.9434Z" fill="url(#paint0_linear)"/>
</g>
<path d="M68.4758 159.802V16.5302H171.824V159.802H68.4758Z" fill="white" stroke="#EAECF4"/>
<path d="M146.168 12.2209H94.4033V24.7245H146.168V12.2209Z" fill="url(#paint1_linear)"/>
<path d="M120.286 0C116.289 0 113.05 3.30928 113.05 7.39019C113.05 11.4711 116.289 14.7804 120.286 14.7804C124.283 14.7804 127.522 11.4711 127.522 7.39019C127.522 3.30928 124.283 0 120.286 0ZM120.286 11.6531C119.436 11.6753 118.599 11.4442 117.881 10.9895C117.164 10.5347 116.599 9.87695 116.258 9.10021C115.917 8.32347 115.816 7.46306 115.968 6.62892C116.121 5.79479 116.519 5.02483 117.112 4.41746C117.705 3.81008 118.466 3.39287 119.298 3.21915C120.13 3.04543 120.996 3.1231 121.783 3.44221C122.571 3.76133 123.245 4.30741 123.72 5.01066C124.195 5.7139 124.449 6.54237 124.449 7.39019C124.462 8.50552 124.031 9.58054 123.251 10.3796C122.47 11.1787 121.404 11.6367 120.286 11.6531Z" fill="url(#paint2_linear)"/>
<path d="M145.624 12.2264H94.9482V24.1812H145.624V12.2264Z" fill="#4A7CE2"/>
<path d="M120.286 0.543335C118.885 0.543335 117.515 0.95764 116.35 1.73386C115.186 2.51008 114.278 3.61335 113.741 4.90415C113.205 6.19496 113.065 7.61532 113.338 8.98563C113.612 10.3559 114.286 11.6147 115.277 12.6026C116.268 13.5905 117.53 14.2633 118.904 14.5359C120.278 14.8085 121.702 14.6686 122.997 14.1339C124.291 13.5992 125.397 12.6938 126.176 11.5321C126.954 10.3704 127.37 9.00464 127.37 7.60749C127.37 5.73396 126.623 3.93716 125.295 2.61238C123.966 1.28759 122.165 0.543335 120.286 0.543335ZM120.286 11.683C119.478 11.683 118.688 11.4439 118.015 10.9961C117.343 10.5483 116.82 9.9118 116.51 9.1671C116.201 8.42241 116.12 7.60297 116.278 6.8124C116.435 6.02184 116.825 5.29566 117.396 4.72569C117.968 4.15573 118.696 3.76758 119.489 3.61032C120.281 3.45307 121.103 3.53378 121.85 3.84224C122.597 4.1507 123.235 4.67307 123.684 5.34327C124.133 6.01348 124.373 6.80143 124.373 7.60749C124.373 8.68837 123.942 9.72498 123.176 10.4893C122.409 11.2536 121.37 11.683 120.286 11.683Z" fill="#4A7CE2"/>
<path d="M95.2206 39.3962H72.8799V61.6755H95.2206V39.3962Z" fill="url(#paint3_linear)"/>
<path d="M95.2969 83.5471H72.9562V105.826H95.2969V83.5471Z" fill="url(#paint4_linear)"/>
<path d="M95.3732 127.155H73.0325V149.434H95.3732V127.155Z" fill="url(#paint5_linear)"/>
<path d="M94.4034 40.2113H73.6973V60.8604H94.4034V40.2113Z" fill="#3F3D56"/>
<path d="M94.4034 83.9547H73.6973V104.604H94.4034V83.9547Z" fill="#4A7CE2"/>
<path d="M94.4034 127.698H73.6973V148.347H94.4034V127.698Z" fill="#4A7CE2"/>
<path d="M136.407 46.5853H108.026V48.5606H136.407V46.5853Z" fill="#E0E0E0"/>
<path d="M154.887 49.5496H108.026V51.5248H154.887V49.5496Z" fill="#E0E0E0"/>
<path d="M151.588 52.5111H108.026V54.4863H151.588V52.5111Z" fill="#E0E0E0"/>
<path d="M136.407 90.3287H108.026V92.304H136.407V90.3287Z" fill="#E0E0E0"/>
<path d="M154.887 93.293H108.026V95.2682H154.887V93.293Z" fill="#E0E0E0"/>
<path d="M151.588 96.2545H108.026V98.2298H151.588V96.2545Z" fill="#E0E0E0"/>
<path d="M136.407 134.072H108.026V136.047H136.407V134.072Z" fill="#E0E0E0"/>
<path d="M154.887 137.036H108.026V139.012H154.887V137.036Z" fill="#E0E0E0"/>
<path d="M151.588 139.998H108.026V141.973H151.588V139.998Z" fill="#E0E0E0"/>
<path d="M79.3506 49.3051L83.1104 52.7448L88.4368 44.9335L90.3167 46.4957L83.1104 55.8693L77.7841 49.9327L79.3506 49.3051Z" fill="url(#paint6_linear)"/>
<path d="M79.9636 49.449L83.2329 52.4377L87.8646 45.6453L89.4993 47.0038L83.2329 55.1547L78.6013 49.9924L79.9636 49.449Z" fill="white"/>
<path d="M79.9636 93.4642L83.2329 96.4529L87.8646 89.6604L89.4993 91.0189L83.2329 99.1698L78.6013 94.0076L79.9636 93.4642Z" fill="white"/>
<path d="M79.9636 137.479L83.2329 140.468L87.8646 133.676L89.4993 135.034L83.2329 143.185L78.6013 138.023L79.9636 137.479Z" fill="white"/>
<g opacity="0.5">
<path opacity="0.5" d="M177.364 95.3661H178.999" stroke="#3F3D56" stroke-width="5" stroke-miterlimit="10"/>
<path opacity="0.5" d="M182.143 95.3661H218.294" stroke="#3F3D56" stroke-width="5" stroke-miterlimit="10" stroke-dasharray="11.54 11.54"/>
<path opacity="0.5" d="M219.866 95.366H221.501V93.7358" stroke="#3F3D56" stroke-width="5" stroke-miterlimit="10"/>
<path opacity="0.5" d="M221.501 90.6249V61.0587" stroke="#3F3D56" stroke-width="5" stroke-miterlimit="10" stroke-dasharray="11.45 11.45"/>
<path opacity="0.5" d="M221.501 59.5019V57.8717" stroke="#3F3D56" stroke-width="5" stroke-miterlimit="10"/>
</g>
<path opacity="0.5" d="M63.0718 49.585H26.5637V83.8189" stroke="#3F3D56" stroke-width="5" stroke-miterlimit="10" stroke-dasharray="12 12"/>
<path opacity="0.5" d="M84.0503 166.143V185.706H138.54" stroke="#3F3D56" stroke-width="5" stroke-miterlimit="10" stroke-dasharray="12 12"/>
<g opacity="0.5">
<path opacity="0.5" d="M238 29.0962L217.005 11.4114L196.337 29.0582L196.152 28.9549V29.0962H196.01L196.152 29.175V29.2375V52.1552V52.4378H237.858L237.605 52.2965H238V29.0962Z" fill="url(#paint7_linear)"/>
</g>
<path d="M237.166 51.4868H197.116V29.2076L217.005 12.2264L237.166 29.2076V51.4868Z" fill="white"/>
<path d="M196.844 29.2075L216.733 40.3471L236.894 29.2075" fill="#E0E0E0"/>
<g opacity="0.5">
<path opacity="0.5" d="M217.147 40.0673L204.881 47.8189V18.7472H229.129V33.533L217.147 40.0673Z" fill="url(#paint8_linear)"/>
</g>
<path d="M217.141 40.2113L205.426 47.8188V19.2905H228.584V33.7992L217.141 40.2113Z" fill="#FAFAFA"/>
<path opacity="0.05" d="M196.98 51.3509H237.03L196.98 29.0717V51.3509Z" fill="black"/>
<path d="M196.98 51.6226H237.03L196.98 29.3434V51.6226Z" fill="#F5F5F5"/>
<path d="M225.315 23.6377H208.423V24.7245H225.315V23.6377Z" fill="white"/>
<path d="M225.315 25.8113H208.423V26.8981H225.315V25.8113Z" fill="white"/>
<path d="M225.315 27.9849H208.423V29.0717H225.315V27.9849Z" fill="#4A7CE2"/>
<path d="M225.315 30.1584H208.423V31.2452H225.315V30.1584Z" fill="white"/>
<path d="M225.315 32.332H208.423V33.4188H225.315V32.332Z" fill="#4A7CE2"/>
<path opacity="0.05" d="M228.584 33.9623V33.4189L216.667 40.0239L216.991 40.2032L228.584 33.9623Z" fill="black"/>
<g opacity="0.5">
<path opacity="0.5" d="M194.792 168.453H147.4V216H194.792V168.453Z" fill="url(#paint9_linear)"/>
</g>
<path d="M193.711 169.54H148.484V214.913H193.711V169.54Z" fill="#F5F5F5"/>
<path d="M191.259 170.898H151.481V205.675H191.259V170.898Z" fill="white"/>
<path d="M191.259 194.536C180.265 194.536 171.37 191.74 171.37 188.287C160.377 188.287 151.481 190.718 151.481 193.721V206.762H191.259V194.536Z" fill="#E0E0E0"/>
<path d="M184.72 182.581C186.977 182.581 188.807 180.756 188.807 178.506C188.807 176.255 186.977 174.43 184.72 174.43C182.463 174.43 180.633 176.255 180.633 178.506C180.633 180.756 182.463 182.581 184.72 182.581Z" fill="#4A7CE2"/>
<g opacity="0.5">
<path opacity="0.5" d="M55.5795 86.8755H0V126.136H55.5795V86.8755Z" fill="url(#paint10_linear)"/>
</g>
<path d="M53.9447 88.0302H1.63464V124.981H53.9447V88.0302Z" fill="white"/>
<path d="M28.8659 97.3604C28.4285 97.3612 27.9917 97.3903 27.5581 97.4473L28.8659 107.413L18.8098 106.745C18.7962 106.965 18.7853 107.188 18.7853 107.413C18.7853 109.401 19.3765 111.345 20.4842 112.998C21.5918 114.651 23.1662 115.94 25.0082 116.701C26.8502 117.462 28.877 117.661 30.8325 117.273C32.7879 116.885 34.5841 115.928 35.9939 114.522C37.4037 113.116 38.3638 111.324 38.7528 109.374C39.1417 107.424 38.9421 105.403 38.1791 103.566C37.4161 101.729 36.1241 100.159 34.4663 99.0546C32.8086 97.9499 30.8596 97.3604 28.8659 97.3604Z" fill="#E0E0E0"/>
<path d="M25.3786 95.5453C23.0673 95.8473 20.9324 96.9389 19.3373 98.6341C17.7423 100.329 16.7856 102.523 16.6302 104.843L26.6863 105.511L25.3786 95.5453Z" fill="#4A7CE2"/>
</g>
<defs>
<linearGradient id="paint0_linear" x1="120.15" y1="162.475" x2="120.15" y2="14.9434" gradientUnits="userSpaceOnUse">
<stop stop-color="#808080" stop-opacity="0.25"/>
<stop offset="0.54" stop-color="#808080" stop-opacity="0.12"/>
<stop offset="1" stop-color="#808080" stop-opacity="0.1"/>
</linearGradient>
<linearGradient id="paint1_linear" x1="22948.7" y1="1150.04" x2="22948.7" y2="574.63" gradientUnits="userSpaceOnUse">
<stop stop-color="#808080" stop-opacity="0.25"/>
<stop offset="0.54" stop-color="#808080" stop-opacity="0.12"/>
<stop offset="1" stop-color="#808080" stop-opacity="0.1"/>
</linearGradient>
<linearGradient id="paint2_linear" x1="8864.83" y1="1579.87" x2="8864.83" y2="775.97" gradientUnits="userSpaceOnUse">
<stop stop-color="#808080" stop-opacity="0.25"/>
<stop offset="0.54" stop-color="#808080" stop-opacity="0.12"/>
<stop offset="1" stop-color="#808080" stop-opacity="0.1"/>
</linearGradient>
<linearGradient id="paint3_linear" x1="6965" y1="5096.78" x2="6965" y2="3269.89" gradientUnits="userSpaceOnUse">
<stop stop-color="#808080" stop-opacity="0.25"/>
<stop offset="0.54" stop-color="#808080" stop-opacity="0.12"/>
<stop offset="1" stop-color="#808080" stop-opacity="0.1"/>
</linearGradient>
<linearGradient id="paint4_linear" x1="6971.34" y1="8761.31" x2="6971.34" y2="6934.41" gradientUnits="userSpaceOnUse">
<stop stop-color="#808080" stop-opacity="0.25"/>
<stop offset="0.54" stop-color="#808080" stop-opacity="0.12"/>
<stop offset="1" stop-color="#808080" stop-opacity="0.1"/>
</linearGradient>
<linearGradient id="paint5_linear" x1="6977.67" y1="12380.7" x2="6977.67" y2="10553.8" gradientUnits="userSpaceOnUse">
<stop stop-color="#808080" stop-opacity="0.25"/>
<stop offset="0.54" stop-color="#808080" stop-opacity="0.12"/>
<stop offset="1" stop-color="#808080" stop-opacity="0.1"/>
</linearGradient>
<linearGradient id="paint6_linear" x1="3944.1" y1="2293.67" x2="3944.1" y2="1853.4" gradientUnits="userSpaceOnUse">
<stop stop-color="#808080" stop-opacity="0.25"/>
<stop offset="0.54" stop-color="#808080" stop-opacity="0.12"/>
<stop offset="1" stop-color="#808080" stop-opacity="0.1"/>
</linearGradient>
<linearGradient id="paint7_linear" x1="33640.8" y1="7929.51" x2="33640.8" y2="1734.52" gradientUnits="userSpaceOnUse">
<stop stop-color="#808080" stop-opacity="0.25"/>
<stop offset="0.54" stop-color="#808080" stop-opacity="0.12"/>
<stop offset="1" stop-color="#808080" stop-opacity="0.1"/>
</linearGradient>
<linearGradient id="paint8_linear" x1="19518.3" y1="5135.37" x2="19518.3" y2="2024.69" gradientUnits="userSpaceOnUse">
<stop stop-color="#808080" stop-opacity="0.25"/>
<stop offset="0.54" stop-color="#808080" stop-opacity="0.12"/>
<stop offset="1" stop-color="#808080" stop-opacity="0.1"/>
</linearGradient>
<linearGradient id="paint9_linear" x1="29909.8" y1="37968.5" x2="29909.8" y2="29647.7" gradientUnits="userSpaceOnUse">
<stop stop-color="#808080" stop-opacity="0.25"/>
<stop offset="0.54" stop-color="#808080" stop-opacity="0.12"/>
<stop offset="1" stop-color="#808080" stop-opacity="0.1"/>
</linearGradient>
<linearGradient id="paint10_linear" x1="5669.11" y1="18313.5" x2="5669.11" y2="12640.4" gradientUnits="userSpaceOnUse">
<stop stop-color="#808080" stop-opacity="0.25"/>
<stop offset="0.54" stop-color="#808080" stop-opacity="0.12"/>
<stop offset="1" stop-color="#808080" stop-opacity="0.1"/>
</linearGradient>
<clipPath id="clip0">
<rect width="238" height="216" fill="white"/>
</clipPath>
</defs>
</svg>
