<svg width="70" height="34" viewBox="0 0 70 34" fill="none" xmlns="http://www.w3.org/2000/svg">
<path opacity="0.03" d="M47.9481 3.17578H21.8281V32.5786H47.9481V3.17578Z" fill="black"/>
<path opacity="0.03" d="M32.3463 7.10107H26.2973C25.721 7.10107 25.2539 7.56821 25.2539 8.14444V21.33C25.2539 21.9063 25.721 22.3734 26.2973 22.3734H32.3463C32.9225 22.3734 33.3896 21.9063 33.3896 21.33V8.14444C33.3896 7.56821 32.9225 7.10107 32.3463 7.10107Z" fill="black"/>
<path opacity="0.03" d="M37.4301 22.373H43.4791C44.0553 22.373 44.5225 21.9059 44.5225 21.3297V8.1441C44.5225 7.56787 44.0553 7.10073 43.4791 7.10073H37.4301C36.8539 7.10073 36.3867 7.56787 36.3867 8.1441V21.3297C36.3867 21.9059 36.8539 22.373 37.4301 22.373Z" fill="black"/>
<path opacity="0.03" d="M19.0721 3.67529H3.17461C2.4013 3.67529 1.77441 4.30218 1.77441 5.07549V20.973C1.77441 21.7463 2.4013 22.3732 3.17461 22.3732H19.0721C19.8454 22.3732 20.4723 21.7463 20.4723 20.973V5.07549C20.4723 4.30218 19.8454 3.67529 19.0721 3.67529Z" fill="black"/>
<path opacity="0.03" d="M50.7043 22.373L66.6018 22.373C67.3751 22.373 68.002 21.7462 68.002 20.9728V5.07537C68.002 4.30206 67.3751 3.67517 66.6018 3.67517L50.7043 3.67517C49.931 3.67517 49.3041 4.30206 49.3041 5.07537V20.9728C49.3041 21.7462 49.931 22.373 50.7043 22.373Z" fill="black"/>
<path d="M29.8327 7.10107L25.2539 12.1138V13.6589L30.9361 7.10107H29.8327Z" fill="#F2F2F2"/>
<path d="M33.3896 12.2607L25.2539 20.2066L25.2896 21.624L33.4253 13.6588L33.3896 12.2607Z" fill="#F2F2F2"/>
<path d="M40.9656 7.10107L36.3867 12.1138V13.6589L42.0689 7.10107H40.9656Z" fill="#F2F2F2"/>
<path d="M44.5224 12.2607L36.3867 20.2066L36.4224 21.624L44.5581 13.6588L44.5224 12.2607Z" fill="#F2F2F2"/>
<path d="M7.98111 3.67529L1.77441 10.7898V15.3508L11.1234 3.67529H7.98111Z" fill="#F2F2F2"/>
<path d="M16.2217 3.67529L1.77441 17.8771V18.9562L18.1343 3.67529H16.2217Z" fill="#F2F2F2"/>
<path d="M55.6178 3.71094L49.4111 10.8254V15.3864L58.7601 3.71094H55.6178Z" fill="#F2F2F2"/>
<path d="M63.8585 3.71094L49.4111 17.9128V18.9918L65.7711 3.71094H63.8585Z" fill="#F2F2F2"/>
<path d="M20.4718 20.3262V20.9728C20.4718 21.3442 20.3243 21.7003 20.0617 21.9629C19.7991 22.2255 19.443 22.373 19.0716 22.373H16.698C16.6266 22.3059 16.5602 22.2381 16.4924 22.1689C16.2027 21.8727 15.9094 21.5423 15.7267 21.1348C15.4576 20.5361 15.4748 19.8631 15.489 19.3228C15.489 19.2707 15.4926 19.2194 15.494 19.1665C15.2854 19.5272 14.9732 19.8168 14.598 19.9979C14.2228 20.179 13.8018 20.2432 13.3896 20.1822C12.9775 20.1213 12.5931 19.9379 12.2864 19.6559C11.9797 19.3739 11.7648 19.0062 11.6695 18.6006C11.625 18.4138 11.6073 18.2215 11.6167 18.0297C11.6289 17.7579 11.6946 17.4912 11.8099 17.2448C11.9253 16.9984 12.0881 16.7772 12.289 16.5938L13.0448 17.3189L12.6772 16.3126C12.9241 16.1736 13.1968 16.0866 13.4785 16.057C13.7602 16.0273 14.0451 16.0556 14.3155 16.1401C14.5859 16.2246 14.8361 16.3635 15.0508 16.5483C15.2655 16.7331 15.4402 16.9599 15.564 17.2147C15.5863 16.6994 15.6118 16.1851 15.6403 15.6718H15.6318C15.5882 15.6646 15.5447 15.6553 15.5026 15.6461L15.4312 15.6275C15.392 15.6161 15.3527 15.6047 15.3149 15.5918L15.2435 15.5669C15.205 15.5526 15.1665 15.5354 15.1294 15.5183C15.1089 15.5103 15.0889 15.5013 15.0694 15.4912C15.023 15.4691 14.9788 15.4455 14.9345 15.4198C14.9245 15.4141 14.9145 15.4091 14.9046 15.4027C14.8517 15.3706 14.8011 15.3363 14.7518 15.2999C14.7347 15.2885 14.719 15.2742 14.7033 15.2621C14.6705 15.2364 14.6384 15.21 14.6077 15.1836L14.5534 15.1329C14.5263 15.1073 14.4999 15.0808 14.4749 15.0544C14.45 15.028 14.4393 15.0166 14.4221 14.9959C14.405 14.9752 14.3743 14.941 14.3508 14.9117L14.3044 14.8518C14.2801 14.8182 14.2573 14.7847 14.233 14.7497C14.2216 14.7326 14.2095 14.7155 14.1987 14.6976C14.1681 14.6462 14.1395 14.5941 14.1131 14.5399C14.1031 14.5192 14.0946 14.4971 14.0853 14.4771C14.0689 14.4414 14.0532 14.4057 14.0389 14.3679C14.0289 14.3436 14.021 14.3179 14.0118 14.2915C14.0025 14.2651 13.9896 14.2245 13.9797 14.1888C13.9697 14.1531 13.9654 14.1352 13.9582 14.1074C13.9582 14.0931 13.9504 14.0782 13.9475 14.0639C13.852 13.6334 13.8968 13.1836 14.0753 12.7804C14.2538 12.3772 14.5566 12.0417 14.9395 11.823L15.4048 12.7436L15.3913 11.6289C15.8573 11.4918 16.3567 11.5223 16.8026 11.715C17.2486 11.9077 17.613 12.2504 17.8327 12.6837L17.8391 12.6994C17.8491 12.7186 17.8577 12.7372 17.867 12.7572C17.8834 12.7943 17.8998 12.8285 17.9141 12.8699C17.9212 12.8871 17.9283 12.9028 17.9348 12.9199C17.9533 12.972 17.969 13.0241 17.984 13.0776C17.989 13.0954 17.9933 13.114 17.9976 13.1318C18.0097 13.1811 18.0197 13.2303 18.0282 13.2803C18.0282 13.2896 18.0282 13.2981 18.034 13.3081C18.0425 13.3666 18.0482 13.4273 18.0525 13.488C18.0525 13.5037 18.0525 13.5179 18.0525 13.5343C18.0525 13.5971 18.0561 13.6592 18.0525 13.7228C18.0295 14.217 17.8308 14.6867 17.4922 15.0474C17.1536 15.4081 16.6973 15.6361 16.2056 15.6903C16.1342 16.9092 16.085 18.1317 16.0535 19.3435C16.0378 19.9566 16.0421 20.4604 16.2412 20.9043C16.3474 21.1258 16.4859 21.3303 16.6523 21.5109C16.6523 21.4724 16.6523 21.4331 16.6523 21.3939C16.6649 21.121 16.7312 20.8533 16.8474 20.606C16.9635 20.3588 17.1272 20.1368 17.3291 19.9528C17.5311 19.7688 17.7673 19.6265 18.0243 19.5338C18.2812 19.4411 18.554 19.4 18.8268 19.4128H18.8325L19.3036 20.3455L19.2929 19.4891C19.7732 19.6183 20.1915 19.9153 20.4718 20.3262Z" fill="#F2F2F2"/>
<path opacity="0.03" d="M35.3164 3.17578H34.46V32.5786H35.3164V3.17578Z" fill="black"/>
<path d="M69.9022 32.6107C69.8511 32.8574 69.717 33.0791 69.5222 33.2388C69.3274 33.3986 69.0837 33.4867 68.8317 33.4885H1.01197C0.79244 33.4871 0.578424 33.4196 0.397885 33.2947C0.217345 33.1698 0.0786774 32.9933 0 32.7884C3.07801 32.0084 11.2437 31.3768 21.828 31.082C22.4175 31.0649 23.0143 31.0497 23.6186 31.0364H23.7306C23.8733 31.0328 24.0232 31.0307 24.1702 31.0264C24.812 31.0126 25.4615 30.9995 26.1185 30.9871L26.3454 30.9828L27.1233 30.9693L27.4002 30.965C27.9469 30.9564 28.4983 30.9488 29.0545 30.9422C30.8165 30.9207 32.6228 30.9079 34.4598 30.9058H36.0683C36.5769 30.9058 37.0832 30.9058 37.587 30.9058L39.1043 30.9158C42.1808 30.9365 45.1447 30.9871 47.9479 31.0585L49.0541 31.0892C49.5836 31.1034 50.107 31.1191 50.6241 31.1363C59.5606 31.4217 66.5666 31.9548 69.9022 32.6107Z" fill="#3F3D56"/>
<path d="M20.5074 24.4071C20.5074 24.8403 20.1934 25.1921 19.8066 25.1921H2.51038C2.12358 25.1921 1.80957 24.8403 1.80957 24.4071C1.80957 23.9732 2.12358 23.6221 2.51038 23.6221H19.8066C20.1934 23.6221 20.5074 23.9732 20.5074 24.4071Z" fill="#3F3D56"/>
<path d="M39.2183 7.77051H36.7305V12.0632H39.2183V7.77051Z" fill="#3F3D56"/>
<path opacity="0.1" d="M39.2183 7.77051H36.7305V12.0632H39.2183V7.77051Z" fill="black"/>
<path d="M48.9597 11.2813C49.1082 11.1921 49.2923 11.1978 49.4657 11.2099C49.5696 11.2067 49.6727 11.2288 49.7661 11.2742C49.9446 11.3819 49.9717 11.6253 49.9802 11.8337C49.9888 12.082 49.9888 12.3575 49.8232 12.5473C49.6919 12.695 49.4871 12.7493 49.2923 12.7835C49.1551 12.798 49.0208 12.8321 48.8933 12.8849C48.7671 12.9588 48.6506 13.0482 48.5465 13.1511C48.3146 13.3488 48.0063 13.5429 47.7022 13.5907C47.4981 13.1789 47.4453 12.7843 47.7643 12.4303C47.9406 12.2347 48.1683 12.0842 48.3595 11.9029C48.5508 11.7216 48.7263 11.4219 48.9597 11.2813Z" fill="#A0616A"/>
<path d="M37.2435 32.1616C37.2084 32.2474 37.1913 32.3395 37.1935 32.4321C37.2135 32.6462 37.4255 32.7811 37.6217 32.8703C37.8844 32.9909 38.2155 33.0794 38.4439 32.9017C38.6979 32.704 38.658 32.3172 38.7572 32.0104C38.8157 31.8312 38.9256 31.6735 38.9977 31.4994C39.1954 31.0219 39.0912 30.4788 38.9841 29.9736L38.8278 29.2378C38.8213 29.1794 38.7963 29.1247 38.7565 29.0815C38.6416 28.9809 38.1028 28.9445 37.9657 29.0401C37.7466 29.1921 37.7994 29.7052 37.7645 29.9465C37.6569 30.6988 37.4825 31.4402 37.2435 32.1616Z" fill="#575A89"/>
<path d="M36.4148 32.1616C36.4496 32.2475 36.4666 32.3395 36.4648 32.4321C36.4448 32.6462 36.2328 32.7811 36.0366 32.8703C35.774 32.9909 35.4421 33.0794 35.2145 32.9017C34.9604 32.704 35.0004 32.3172 34.9004 32.0104C34.8426 31.8312 34.7327 31.6735 34.6607 31.4994C34.4623 31.0219 34.5672 30.4788 34.6742 29.9736L34.8305 29.2378C34.8371 29.1794 34.8621 29.1247 34.9019 29.0815C35.0168 28.9809 35.5556 28.9445 35.6926 29.0401C35.911 29.1921 35.8582 29.7052 35.8931 29.9465C36.001 30.6989 36.1756 31.4402 36.4148 32.1616Z" fill="#575A89"/>
<path d="M38.2239 10.0892C38.264 10.1304 38.2928 10.1813 38.3074 10.237C38.3331 10.3711 38.2082 10.4896 38.0805 10.5381C37.9527 10.5867 37.81 10.5981 37.6944 10.6716C37.5758 10.7603 37.49 10.8858 37.4503 11.0284C37.2077 11.7107 37.4781 12.5706 38.1219 12.9025C38.5658 13.1316 39.0939 13.0959 39.592 13.0545C39.6619 13.0529 39.7308 13.0384 39.7954 13.0117C39.8608 12.9743 39.9173 12.9232 39.961 12.8618C40.2403 12.5079 40.4339 12.094 40.5265 11.6527C40.6191 11.2114 40.6082 10.7547 40.4948 10.3183C40.4875 10.2819 40.4732 10.2472 40.4527 10.2163C40.3242 10.04 40.0145 10.2569 39.8325 10.137C39.7767 10.0927 39.7348 10.0333 39.7119 9.96577C39.5869 9.67254 39.5008 9.36425 39.4557 9.04872C39.45 9.01018 38.6393 9.32062 38.57 9.35487C38.2939 9.49761 38.2796 9.36629 38.0748 9.59966C38.2946 9.66104 38.0419 9.87941 38.2239 10.0892Z" fill="#A0616A"/>
<path opacity="0.1" d="M38.2239 10.0892C38.264 10.1304 38.2928 10.1813 38.3074 10.237C38.3331 10.3711 38.2082 10.4896 38.0805 10.5381C37.9527 10.5867 37.81 10.5981 37.6944 10.6716C37.5758 10.7603 37.49 10.8858 37.4503 11.0284C37.2077 11.7107 37.4781 12.5706 38.1219 12.9025C38.5658 13.1316 39.0939 13.0959 39.592 13.0545C39.6619 13.0529 39.7308 13.0384 39.7954 13.0117C39.8608 12.9743 39.9173 12.9232 39.961 12.8618C40.2403 12.5079 40.4339 12.094 40.5265 11.6527C40.6191 11.2114 40.6082 10.7547 40.4948 10.3183C40.4875 10.2819 40.4732 10.2472 40.4527 10.2163C40.3242 10.04 40.0145 10.2569 39.8325 10.137C39.7767 10.0927 39.7348 10.0333 39.7119 9.96577C39.5869 9.67254 39.5008 9.36425 39.4557 9.04872C39.45 9.01018 38.6393 9.32062 38.57 9.35487C38.2939 9.49761 38.2796 9.36629 38.0748 9.59966C38.2946 9.66104 38.0419 9.87941 38.2239 10.0892Z" fill="black"/>
<path d="M35.3769 18.5979C35.4245 19.0575 35.4581 19.5181 35.4776 19.9796C35.4983 20.4228 35.5068 20.8767 35.3719 21.2991C35.3006 21.5361 35.1785 21.7573 35.115 21.9971C35.0437 22.279 35.0437 22.5744 35.0472 22.8663C35.0421 23.0342 35.058 23.202 35.0943 23.3659C35.1336 23.5151 35.2064 23.6514 35.2599 23.7941C35.4526 24.3058 35.4083 24.8731 35.342 25.4155C35.2171 26.4361 35.0223 27.4466 34.8274 28.4557L34.4756 30.2855C34.8591 30.4433 35.258 30.5602 35.666 30.6345C35.9186 30.6802 36.2483 30.6716 36.3489 30.4347C36.3822 30.3262 36.3873 30.211 36.3639 30.1C36.308 29.5914 36.367 29.0768 36.5366 28.5942C36.6751 28.2024 36.8842 27.8363 36.9905 27.4345C37.0513 27.1811 37.0881 26.9226 37.1004 26.6623C37.1333 26.2055 37.1471 25.7481 37.1418 25.2899C37.1347 24.6719 37.0954 24.0389 37.2803 23.4487C37.5222 22.6765 38.1417 21.9885 38.0696 21.1821C38.0846 22.0706 38.1003 22.9598 38.0403 23.8462C38.0029 24.2132 37.9886 24.5822 37.9975 24.9509C38.0275 25.4912 38.1838 26.0364 38.0689 26.5659C38.0218 26.78 37.9318 26.987 37.9083 27.2082C37.8712 27.5522 38.0011 27.9133 37.8862 28.2402C37.787 28.5257 37.5108 28.7512 37.5193 29.0516C37.5251 29.2764 37.6999 29.4684 37.904 29.5633C38.1081 29.6582 38.3379 29.6739 38.562 29.6882C38.8046 29.7039 39.0987 29.6939 39.2207 29.4834C39.3699 29.2272 39.1336 28.9246 39.0894 28.632C39.0451 28.3394 39.2014 28.0539 39.3413 27.7913C40.1304 26.3083 40.5633 24.662 40.6059 22.9827C40.6181 22.4752 40.5945 21.9671 40.5974 21.4597C40.6029 20.2952 40.7467 19.1355 41.0256 18.0049C39.1151 17.9321 37.1796 17.9499 35.3769 18.5979Z" fill="#3C354C"/>
<path d="M38.4385 10.0884C39.2335 10.0884 39.8779 9.44391 39.8779 8.64892C39.8779 7.85394 39.2335 7.20947 38.4385 7.20947C37.6435 7.20947 36.999 7.85394 36.999 8.64892C36.999 9.44391 37.6435 10.0884 38.4385 10.0884Z" fill="#A0616A"/>
<path d="M39.5376 10.7476C39.382 11.0288 39.1886 11.3093 38.901 11.4541C38.6134 11.599 38.2116 11.5619 38.031 11.295C37.8947 11.093 37.8919 10.7897 37.6799 10.6713C37.5101 10.5763 37.2838 10.6648 37.1661 10.8197C37.0483 10.9746 37.0134 11.1765 36.9905 11.3678C36.9428 11.8496 36.9261 12.334 36.9406 12.8179C36.9705 15.1766 37.1589 17.5331 37.129 19.8924C37.1303 20.2612 37.1091 20.6296 37.0655 20.9958C37.934 20.776 38.8082 20.5561 39.706 20.5005C40.1392 20.4741 40.5752 20.4862 41.0049 20.4291C41.3 20.3836 41.5923 20.3217 41.8805 20.2436C41.9192 20.2379 41.9552 20.2207 41.984 20.1943C42.0067 20.1626 42.0191 20.1248 42.0197 20.0858C42.1082 19.2516 41.8163 18.4302 41.6871 17.6016C41.5658 16.8287 41.5872 16.0394 41.483 15.2637C41.3403 14.1753 40.947 13.1155 40.9556 12.0172C40.9556 11.6183 41.0141 11.2129 40.9256 10.8233C40.8543 10.5021 40.6066 10.0739 40.2477 10.0111C39.8502 9.94118 39.6874 10.4771 39.5376 10.7476Z" fill="#4A7CE2"/>
<path d="M39.378 11.2709C38.9377 12.148 38.4902 13.0444 38.3468 14.0164C38.2176 14.8927 38.3418 15.7898 38.2354 16.669C38.0991 17.798 37.5881 18.947 37.935 20.0304C38.0121 20.2723 38.1298 20.4992 38.2119 20.739C38.5687 21.7924 38.2119 22.9664 38.4424 24.0554C38.4446 24.0832 38.4531 24.1102 38.4674 24.1342C38.4816 24.1582 38.5011 24.1786 38.5245 24.1939C38.5851 24.2203 38.6515 24.176 38.715 24.156C38.9898 24.0683 39.1789 24.4172 39.3966 24.6071C39.5058 24.6995 39.6397 24.7579 39.7817 24.7752C39.9237 24.7924 40.0677 24.7677 40.1959 24.7041C40.6034 24.4943 40.7118 23.9719 40.7668 23.5173C41.0404 21.343 41.2069 19.1585 41.2663 16.9638C41.2799 16.4642 41.287 15.9646 41.205 15.4722C41.1058 14.8749 40.8774 14.3068 40.7547 13.7145C40.5577 12.761 40.6398 11.7755 40.6933 10.8035C40.7083 10.518 40.6283 9.69587 40.1438 9.9642C39.7712 10.1704 39.5586 10.9119 39.378 11.2709Z" fill="#575A89"/>
<path opacity="0.1" d="M37.1662 13.7364C37.1619 14.0476 37.1569 14.3637 37.0613 14.6599C36.9657 14.9561 36.7816 15.2187 36.6331 15.4956C36.2763 16.1736 36.1471 16.95 36.1293 17.7151C36.1114 18.4801 36.2006 19.2437 36.2599 20.0066C36.3497 21.1676 36.3699 22.333 36.3205 23.4964C36.7978 23.3292 37.314 23.3076 37.8035 23.4343C38.089 23.5057 38.4294 23.6227 38.6528 23.4286C38.8119 23.2902 38.8312 23.054 38.8383 22.8434C38.914 20.6982 38.9378 18.552 38.9097 16.4048C38.9 16.1234 38.9079 15.8417 38.9332 15.5612C38.9568 15.3472 39.0046 15.1288 39.0046 14.9104C39.0046 14.6035 38.9225 14.3038 38.839 14.0083L38.0861 11.34C38.0369 11.1644 37.9841 10.9831 37.862 10.8461C37.74 10.7091 37.371 10.5278 37.2276 10.7034C37.1034 10.8575 37.1955 11.3856 37.1933 11.5755L37.1662 13.7364Z" fill="black"/>
<path d="M37.0693 13.6871C37.065 13.9983 37.0593 14.3152 36.9637 14.6113C36.868 14.9075 36.6846 15.1694 36.5355 15.447C36.1786 16.125 36.0495 16.9015 36.0316 17.6665C36.0138 18.4316 36.103 19.1952 36.1622 19.9581C36.252 21.1188 36.2723 22.284 36.2229 23.4472C36.7004 23.2803 37.2167 23.2587 37.7066 23.3851C37.992 23.46 38.3317 23.5742 38.5551 23.3801C38.7143 23.2416 38.7335 23.0054 38.7414 22.7942C38.8165 20.6489 38.8403 18.5027 38.8127 16.3555C38.8028 16.0744 38.8105 15.7929 38.8356 15.5127C38.8707 15.2971 38.8945 15.0799 38.9069 14.8618C38.9069 14.555 38.8256 14.2545 38.7421 13.9598L37.9892 11.2914C37.9392 11.1151 37.8864 10.9346 37.7644 10.7968C37.6423 10.6591 37.2734 10.4792 37.1299 10.6577C37.0065 10.8111 37.0985 11.3399 37.0957 11.529L37.0693 13.6871Z" fill="#575A89"/>
<path d="M37.3739 10.418C36.9849 10.4573 36.6859 10.7927 36.5339 11.1524C36.3819 11.5121 36.3377 11.9074 36.222 12.28C36.0201 12.9258 35.6012 13.5082 35.5334 14.1811C35.4706 14.8163 35.7303 15.4607 35.6047 16.0859C35.5656 16.2535 35.5153 16.4182 35.4541 16.579C35.2115 17.2891 35.0731 18.0299 34.9346 18.7678L34.7291 19.8662C34.5863 20.6405 34.4386 21.4362 34.5713 22.212C34.709 22.113 34.8767 22.0649 35.0458 22.0757C35.215 22.0865 35.3752 22.1556 35.4991 22.2712C35.5705 22.3376 35.6297 22.4218 35.7232 22.436C35.8838 22.4589 35.9823 22.2676 36.0244 22.1113C36.1759 21.5532 36.2774 20.9826 36.3277 20.4064C36.3548 20.0938 36.3676 19.7769 36.4597 19.4786C36.5182 19.2909 36.6024 19.1147 36.6667 18.9284C36.8094 18.4881 36.7901 18.0142 36.8493 17.5553C36.9 17.1578 37.0092 16.7703 37.0713 16.3749C37.1353 15.8933 37.1637 15.4077 37.1562 14.9219L37.1841 12.1265C37.1876 11.7647 37.2119 11.3558 37.4874 11.1217C37.6301 11.0025 38.0005 10.8926 37.9662 10.6685C37.9327 10.458 37.5337 10.4023 37.3739 10.418Z" fill="#FF6584"/>
<path d="M39.6729 10.1606C40.0896 9.84728 40.5499 9.51828 41.0716 9.53113C41.2445 9.54178 41.4156 9.57145 41.5819 9.61962L42.7623 9.91436C42.6447 10.1158 42.4695 10.2774 42.2592 10.3782C42.4506 10.3453 42.6476 10.3784 42.8177 10.4722C42.9879 10.5659 43.1211 10.7148 43.1955 10.8942C43.3603 11.3267 43.1434 11.8006 42.9514 12.2223C42.6231 12.9424 42.3505 13.7089 42.3534 14.5011C42.3534 14.9028 42.0757 15.3004 42.0486 15.7014C42.0289 15.9526 42.0496 16.2054 42.11 16.4501C42.1821 16.6886 42.2718 16.9214 42.3783 17.1466C43.1013 18.8437 43.2654 20.7313 43.1855 22.5747H41.574C41.4849 22.5693 41.3956 22.5807 41.3107 22.6082C41.2094 22.6475 41.133 22.7303 41.0431 22.7916C40.8884 22.8965 40.6986 22.936 40.515 22.9015C40.343 22.1165 40.6149 21.3186 40.7491 20.5293C40.8164 20.097 40.8596 19.6612 40.8782 19.224C40.9158 18.5313 40.9348 17.8374 40.9353 17.1423C40.9353 16.6171 40.9225 16.0811 40.7491 15.5858C40.6634 15.3403 40.5392 15.1084 40.4586 14.8607C40.3861 14.6123 40.336 14.358 40.3087 14.1007C40.1289 12.774 39.8527 11.4858 39.6729 10.1606Z" fill="#FF6584"/>
<path d="M36.2279 11.2706C36.1065 11.3591 36.0709 11.5204 36.0173 11.661C35.8832 12.0136 35.5984 12.2848 35.4114 12.6116C35.3041 12.813 35.2153 13.0237 35.146 13.2411C34.8983 13.9476 34.6464 14.6848 34.7349 15.4277C34.7549 15.594 34.797 15.7681 34.9147 15.8873C35.1724 16.1464 35.6484 15.9865 35.8475 15.6796C36.0466 15.3728 36.058 14.9874 36.098 14.6248C36.1736 13.934 36.3742 13.2689 36.5262 12.5909C36.6089 12.2508 36.669 11.9056 36.706 11.5575C36.7167 11.4505 36.7774 11.2121 36.676 11.1443C36.6125 11.1015 36.2871 11.2307 36.2279 11.2706Z" fill="#FF6584"/>
<path d="M44.0989 13.1744C44.2766 13.3885 44.4929 13.6147 44.7683 13.6076C44.9048 13.5929 45.0366 13.5489 45.1544 13.4784C46.0801 13.0164 47.0429 12.6328 48.0326 12.3315C47.9224 12.585 47.8934 12.8664 47.9495 13.137C48.0056 13.4076 48.144 13.6543 48.3459 13.8431C47.5108 14.0566 46.7071 14.3781 45.9551 14.7994C45.7956 14.8817 45.6476 14.9846 45.5148 15.1055C45.4294 15.2049 45.3373 15.2983 45.2393 15.3853C45.021 15.5523 44.7248 15.5637 44.4493 15.568C44.287 15.5887 44.1221 15.5746 43.9656 15.5268C43.8091 15.4789 43.6645 15.3983 43.5415 15.2904L41.5704 13.8809C41.5386 13.8674 41.5107 13.8462 41.489 13.8193C41.4673 13.7925 41.4526 13.7607 41.4461 13.7267C41.4396 13.6928 41.4416 13.6578 41.4518 13.6249C41.462 13.5919 41.4802 13.5619 41.5048 13.5376L42.1285 12.425C42.2712 12.1731 42.4318 11.7563 42.7665 11.7114C43.1012 11.6664 43.224 12.0261 43.3824 12.2616C43.6041 12.5789 43.8433 12.8836 44.0989 13.1744Z" fill="#FF6584"/>
<path d="M35.3739 10.759L34.693 11.0282C34.5427 11.0876 34.4691 11.2576 34.5285 11.4078L35.3177 13.4042C35.3771 13.5545 35.5471 13.6282 35.6974 13.5687L36.3783 13.2996C36.5286 13.2401 36.6022 13.0702 36.5428 12.9199L35.7536 10.9235C35.6942 10.7732 35.5242 10.6996 35.3739 10.759Z" fill="#3F3D56"/>
<path opacity="0.1" d="M35.3739 10.759L34.693 11.0282C34.5427 11.0876 34.4691 11.2576 34.5285 11.4078L35.3177 13.4042C35.3771 13.5545 35.5471 13.6282 35.6974 13.5687L36.3783 13.2996C36.5286 13.2401 36.6022 13.0702 36.5428 12.9199L35.7536 10.9235C35.6942 10.7732 35.5242 10.6996 35.3739 10.759Z" fill="black"/>
<path d="M35.2763 10.8073L34.5954 11.0765C34.4451 11.1359 34.3714 11.3059 34.4308 11.4562L35.22 13.4525C35.2794 13.6028 35.4494 13.6765 35.5997 13.6171L36.2806 13.3479C36.4309 13.2885 36.5046 13.1185 36.4452 12.9682L35.656 10.9719C35.5966 10.8216 35.4266 10.7479 35.2763 10.8073Z" fill="#3F3D56"/>
<path d="M35.3405 11.9168C35.4347 11.9168 35.5111 11.8404 35.5111 11.7462C35.5111 11.652 35.4347 11.5757 35.3405 11.5757C35.2463 11.5757 35.1699 11.652 35.1699 11.7462C35.1699 11.8404 35.2463 11.9168 35.3405 11.9168Z" fill="#4A7CE2"/>
<path d="M34.8561 13.4184C34.7676 13.3085 34.657 13.2171 34.5792 13.1001C34.4875 12.9433 34.4319 12.768 34.4165 12.587C34.3886 12.3895 34.3731 12.1905 34.3701 11.9911C34.3697 11.9646 34.3754 11.9384 34.3867 11.9145C34.3979 11.8905 34.4145 11.8695 34.4352 11.8529C34.4559 11.8364 34.48 11.8248 34.5059 11.8191C34.5317 11.8133 34.5585 11.8136 34.5842 11.8198C34.8689 11.8873 35.1254 12.042 35.3179 12.2623C35.5527 12.5393 35.7033 12.8779 35.7518 13.2378C35.7761 13.4227 35.7896 13.6088 35.7925 13.7952L35.8182 14.5595C35.6319 14.5595 35.3607 14.6116 35.1823 14.5595C34.9261 14.4882 35.0296 14.5331 35.0552 14.2812C35.0845 13.9672 35.0631 13.6753 34.8561 13.4184Z" fill="#A0616A"/>
<path d="M35.3595 14.2353C35.2571 14.2443 35.1539 14.2301 35.0577 14.1939C34.8621 14.1118 34.7501 13.9084 34.653 13.7207C34.6693 14.1307 34.6483 14.5413 34.5902 14.9475C34.5531 15.1616 34.4953 15.3757 34.5003 15.5948C34.5082 15.8723 34.6173 16.1373 34.8072 16.3398C34.8591 16.3991 34.9234 16.4461 34.9956 16.4776C35.1497 16.5382 35.3253 16.4819 35.4666 16.3962C35.6718 16.2716 35.8347 16.0881 35.934 15.8695C36.0768 15.5527 36.0696 15.2037 36.0768 14.864C36.0839 14.5464 36.186 14.2131 36.1803 13.9084C35.9333 13.8791 35.66 14.2196 35.3595 14.2353Z" fill="#FF6584"/>
<path d="M36.7927 8.1437C37.0437 8.27612 37.3202 8.35283 37.6035 8.36859C37.8868 8.38436 38.1701 8.33881 38.4342 8.23505C38.3507 8.59973 38.5419 8.9637 38.6411 9.32481C38.9023 10.2761 38.4984 11.3095 37.8561 12.0567C38.1538 12.0865 38.4543 12.049 38.7355 11.9471C39.0168 11.8452 39.2716 11.6814 39.4811 11.4679C39.2983 11.9591 39.0264 12.4123 38.6789 12.8046C39.9143 12.4199 40.7964 11.2745 41.1925 10.0427C41.495 9.09929 41.5493 8.04022 41.1368 7.1403C40.7243 6.24037 39.7766 5.55312 38.7896 5.63447C38.0695 5.69371 37.4108 6.1533 37.0447 6.77633C36.6786 7.39935 36.5951 8.16226 36.7435 8.87592L36.7927 8.1437Z" fill="#3F3D56"/>
<path opacity="0.1" d="M38.6444 9.32459C38.7748 9.83945 38.7432 10.382 38.5537 10.8782C38.8085 10.3073 38.9063 9.67785 38.7421 9.08052C38.6429 8.71941 38.451 8.35544 38.5344 7.99076C38.2704 8.09461 37.987 8.14021 37.7038 8.12445C37.4205 8.10868 37.1439 8.03192 36.893 7.89941L36.873 8.18488C37.1172 8.30072 37.3825 8.36517 37.6526 8.37426C37.9227 8.38334 38.1917 8.33686 38.4431 8.23769C38.3539 8.59951 38.5452 8.96348 38.6444 9.32459Z" fill="black"/>
<path opacity="0.1" d="M36.9297 7.00391C36.6708 7.59238 36.6056 8.24789 36.7434 8.87584L36.7869 8.26352C36.7448 7.83828 36.7935 7.40894 36.9297 7.00391Z" fill="black"/>
<path opacity="0.1" d="M39.5821 11.2236C39.3832 11.4258 39.1436 11.5834 38.8792 11.6861C38.6149 11.7888 38.3317 11.8343 38.0485 11.8195C37.9878 11.9016 37.925 11.9808 37.8594 12.0565C38.1557 12.086 38.4549 12.0489 38.7351 11.9479C39.0153 11.8469 39.2693 11.6845 39.4787 11.4727C39.5158 11.3906 39.5507 11.3078 39.5821 11.2236Z" fill="black"/>
<path opacity="0.1" d="M38.9164 12.5157C38.8451 12.6163 38.7644 12.7134 38.6816 12.8069C39.8442 12.445 40.6942 11.4088 41.1195 10.2612C40.6877 11.2625 39.9277 12.1453 38.9164 12.5157Z" fill="black"/>
<path d="M50.6238 2.99737V0H49.0537V31.5437C49.0537 31.7519 49.1364 31.9516 49.2836 32.0988C49.4309 32.2461 49.6305 32.3288 49.8387 32.3288C50.0469 32.3288 50.2466 32.2461 50.3938 32.0988C50.5411 31.9516 50.6238 31.7519 50.6238 31.5437V4.56742H54.4775V6.79047C53.1087 6.87611 52.0511 7.4449 52.0511 8.13572C52.0511 8.77087 52.9503 9.30541 54.1628 9.45171C54.3857 9.47831 54.6099 9.49165 54.8344 9.49167C56.3716 9.49167 57.6176 8.88363 57.6176 8.13572C57.6176 7.62188 57.0324 7.17513 56.1689 6.94533C55.8489 6.86182 55.5214 6.80995 55.1912 6.79047V4.56742H63.0414V6.79047C62.8211 6.80418 62.6018 6.83159 62.3849 6.87254C61.3486 7.07022 60.615 7.56122 60.615 8.13572C60.6155 8.24623 60.6422 8.35506 60.6928 8.45329C60.9861 9.04849 62.0858 9.49167 63.3983 9.49167C64.9355 9.49167 66.1815 8.88363 66.1815 8.13572C66.1815 7.4449 65.1239 6.87611 63.7551 6.79047V4.56742H69.9996V2.99737H50.6238ZM65.6106 8.13572C65.6106 8.7302 64.6201 9.21263 63.3983 9.21263C62.1765 9.21263 61.1859 8.7302 61.1859 8.13572C61.1859 8.07843 61.1953 8.02152 61.2138 7.96729C61.2894 7.72893 61.5249 7.51769 61.8639 7.35997C62.2682 7.18233 62.7022 7.08234 63.1435 7.06523H63.653C64.7549 7.12589 65.6106 7.58263 65.6106 8.13572ZM55.9598 7.20796C56.6107 7.39708 57.0467 7.74178 57.0467 8.13572C57.0467 8.7302 56.0561 9.21263 54.8344 9.21263C54.6801 9.21285 54.526 9.20499 54.3726 9.18908C53.3735 9.08631 52.622 8.65383 52.622 8.13572C52.622 7.58263 53.4784 7.12589 54.5796 7.06523H55.0891C55.3836 7.08033 55.6756 7.12772 55.9598 7.20653V7.20796Z" fill="#3F3D56"/>
<path d="M27.3762 16.5479H27.125V24.2175H27.3762V16.5479Z" fill="#575A89"/>
<path d="M28.1572 16.5479H27.9053V24.2175H28.1572V16.5479Z" fill="#575A89"/>
<path d="M26.5693 32.1102C26.8065 32.1102 26.9989 31.9179 26.9989 31.6806C26.9989 31.4433 26.8065 31.251 26.5693 31.251C26.332 31.251 26.1396 31.4433 26.1396 31.6806C26.1396 31.9179 26.332 32.1102 26.5693 32.1102Z" fill="#575A89"/>
<path d="M25.0469 23.8624C25.0469 23.8624 25.4751 23.5142 25.8512 23.6348C26.2273 23.7554 27.2071 23.876 27.3784 24.4912C27.5497 25.1063 27.3784 31.874 27.3784 31.874C27.3784 31.874 26.5477 32.0881 26.32 31.981C26.0924 31.874 26.1188 30.8563 26.1188 30.8563L26.0524 24.8537L25.0469 23.8624Z" fill="#4A7CE2"/>
<path opacity="0.1" d="M25.0469 23.8624C25.0469 23.8624 25.4751 23.5142 25.8512 23.6348C26.2273 23.7554 27.2071 23.876 27.3784 24.4912C27.5497 25.1063 27.3784 31.874 27.3784 31.874C27.3784 31.874 26.5477 32.0881 26.32 31.981C26.0924 31.874 26.1188 30.8563 26.1188 30.8563L26.0524 24.8537L25.0469 23.8624Z" fill="black"/>
<path d="M28.9466 31.5273L27.1432 31.9269L27.1246 31.6065L27.1125 25.2927C27.1121 24.9976 27.0438 24.7066 26.9129 24.4421C26.7819 24.1776 26.5919 23.9468 26.3574 23.7676C26.3574 23.7676 27.2916 23.7555 28.0074 24.0781C28.1601 24.1494 28.3136 24.2144 28.4706 24.2722C28.6654 24.3436 28.9295 24.497 28.9466 24.7996C28.9687 25.1935 29.0436 29.0958 29.0708 30.5167C29.0774 30.8573 29.0356 31.197 28.9466 31.5258V31.5273Z" fill="#4A7CE2"/>
<path d="M27.4258 15.978H27.0068V16.6346H27.4258V15.978Z" fill="#535461"/>
<path opacity="0.1" d="M27.4258 15.978H27.0068V16.6346H27.4258V15.978Z" fill="black"/>
<path d="M28.2129 16.0825H27.7939V16.7391H28.2129V16.0825Z" fill="#535461"/>
<path d="M28.2129 16.0835H27.794C27.7158 16.0856 27.6398 16.1096 27.5747 16.1529C27.5095 16.1962 27.4579 16.257 27.4258 16.3283C27.42 16.3411 27.4143 16.354 27.4086 16.3682L27.3166 16.279L27.1246 16.0935L27.0068 15.98C27.0068 15.98 27.7804 15.5839 28.2129 16.0835Z" fill="#535461"/>
<path d="M28.3954 32.413C28.6327 32.413 28.8251 32.2206 28.8251 31.9833C28.8251 31.7461 28.6327 31.5537 28.3954 31.5537C28.1582 31.5537 27.9658 31.7461 27.9658 31.9833C27.9658 32.2206 28.1582 32.413 28.3954 32.413Z" fill="#575A89"/>
<path d="M23.9589 31.8265C24.1962 31.8265 24.3885 31.6342 24.3885 31.3969C24.3885 31.1596 24.1962 30.9673 23.9589 30.9673C23.7216 30.9673 23.5293 31.1596 23.5293 31.3969C23.5293 31.6342 23.7216 31.8265 23.9589 31.8265Z" fill="#575A89"/>
<path d="M24.7666 23.769C24.7666 23.769 23.5477 24.0909 23.482 27.1589C23.4164 30.2269 23.4014 30.5488 23.4014 30.5488C23.4014 30.5488 23.4285 31.4337 25.2233 31.9826H26.3245L26.4951 24.933C26.4951 24.933 26.2938 23.8625 24.7666 23.769Z" fill="#4A7CE2"/>
<path opacity="0.1" d="M24.6586 28.5259C24.6586 28.5259 24.3461 24.2361 26.0303 24.2168L26.188 24.3709C26.188 24.3709 24.7122 23.8364 24.6586 28.5259Z" fill="black"/>
<path d="M25.416 32.7875C25.6532 32.7875 25.8456 32.5951 25.8456 32.3578C25.8456 32.1206 25.6532 31.9282 25.416 31.9282C25.1787 31.9282 24.9863 32.1206 24.9863 32.3578C24.9863 32.5951 25.1787 32.7875 25.416 32.7875Z" fill="#575A89"/>
<path opacity="0.1" d="M27.7996 16.0796H27.7954C27.7172 16.0817 27.6412 16.1057 27.576 16.149C27.5109 16.1923 27.4593 16.2531 27.4271 16.3244C27.4214 16.3372 27.4157 16.3501 27.41 16.3643L27.3179 16.2751C27.3172 16.2673 27.3172 16.2594 27.3179 16.2516C27.3266 16.1889 27.3594 16.1321 27.4093 16.0931C27.4571 16.0535 27.5144 16.027 27.5755 16.016C27.6366 16.005 27.6996 16.0099 27.7582 16.0303C27.7789 16.0403 27.8039 16.0568 27.7996 16.0796Z" fill="black"/>
</svg>
