<svg viewBox="0 0 79 79" fill="none" xmlns="http://www.w3.org/2000/svg">
<path d="M60.5667 18.4333L58.2625 20.7375M9.875 39.5H13.1667H9.875ZM39.5 9.875V13.1667V9.875ZM65.8333 39.5H69.125H65.8333ZM18.4333 18.4333L20.7375 20.7375L18.4333 18.4333Z" stroke="white" stroke-width="3" stroke-linecap="round" stroke-linejoin="round"/>
<path d="M29.6253 52.6667C26.8619 50.5942 24.8206 47.7046 23.7906 44.4074C22.7607 41.1102 22.7942 37.5726 23.8866 34.2955C24.9789 31.0184 27.0747 28.1682 29.877 26.1484C32.6793 24.1286 36.046 23.0417 39.5003 23.0417C42.9546 23.0417 46.3214 24.1286 49.1237 26.1484C51.926 28.1682 54.0217 31.0184 55.1141 34.2955C56.2064 37.5726 56.24 41.1102 55.21 44.4074C54.1801 47.7046 52.1388 50.5942 49.3753 52.6667C48.0902 53.9389 47.1225 55.4958 46.5507 57.2113C45.9788 58.9268 45.8188 60.7529 46.0837 62.5417C46.0837 64.2878 45.3901 65.9623 44.1554 67.1969C42.9208 68.4315 41.2463 69.1251 39.5003 69.1251C37.7543 69.1251 36.0798 68.4315 34.8452 67.1969C33.6106 65.9623 32.917 64.2878 32.917 62.5417C33.1818 60.7529 33.0218 58.9268 32.45 57.2113C31.8782 55.4958 30.9105 53.9389 29.6253 52.6667" stroke="white" stroke-width="3" stroke-linecap="round" stroke-linejoin="round"/>
<path d="M31.9287 55.9583H47.0704" stroke="white" stroke-width="3" stroke-linecap="round" stroke-linejoin="round"/>
</svg>
