<svg viewBox="0 0 31 31" fill="none" xmlns="http://www.w3.org/2000/svg">
<path d="M3.59095 15.5295C3.59095 19.5122 5.5696 23.0326 8.59742 25.1615C9.13099 25.5368 9.15937 26.3161 8.64685 26.7196L8.63242 26.7309C8.29776 26.9944 7.82852 27.0119 7.4799 26.7671C3.94524 24.2847 1.63477 20.1767 1.63477 15.5295C1.63477 7.99169 7.87417 1.87244 15.3969 1.80811V3.76476C8.95384 3.82862 3.59095 9.0716 3.59095 15.5295Z" fill="white"/>
<path d="M15.7562 0.0586554L19.3512 2.51766C19.5437 2.6494 19.5437 2.93345 19.3512 3.06519L15.7562 5.52419C15.536 5.67485 15.2373 5.5171 15.2373 5.25055V0.332535C15.2373 0.0657507 15.536 -0.0917658 15.7562 0.0586554Z" fill="white"/>
<path d="M27.3905 15.4703C27.3905 11.4877 25.4116 7.96724 22.3838 5.8384C21.8502 5.46306 21.8218 4.68376 22.3344 4.28027L22.3488 4.26892C22.6834 4.00544 23.1527 3.98794 23.5013 4.23273C27.0362 6.71515 29.3464 10.8231 29.3464 15.4703C29.3464 23.0082 23.1177 29.1274 15.5947 29.1918V27.2351C22.0378 27.1712 27.3905 21.9285 27.3905 15.4703Z" fill="white"/>
<path d="M15.2252 30.9414L11.6302 28.4824C11.4377 28.3507 11.4377 28.0666 11.6302 27.9349L15.2252 25.4759C15.4452 25.3252 15.7441 25.483 15.7441 25.7495V30.6675C15.7441 30.9343 15.4452 31.0921 15.2252 30.9414Z" fill="white"/>
<path d="M21.5928 13.9754L15.7042 18.8588L14.2196 20.0901C13.8698 20.3798 13.4271 20.5371 12.9767 20.5371C12.9018 20.5371 12.8268 20.5329 12.7511 20.5241C12.2258 20.4624 11.7424 20.1838 11.4252 19.7602L9.13533 16.7078C8.61832 16.0183 8.7581 15.0397 9.44776 14.5217C10.1379 14.0047 11.1166 14.1445 11.6338 14.8341L13.1797 16.8953L13.1922 16.8851L19.5998 11.5712C20.2637 11.0211 21.248 11.1129 21.7984 11.7767C22.3487 12.4406 22.2567 13.425 21.5928 13.9754Z" fill="white"/>
<path d="M21.5925 13.9754L15.7039 18.8588C14.7408 18.378 13.8939 17.7134 13.1919 16.8852L19.5995 11.5712C20.2634 11.0211 21.2477 11.1129 21.7981 11.7767C22.3484 12.4406 22.2564 13.425 21.5925 13.9754Z" fill="white"/>
</svg>
