<svg viewBox="0 0 92 92" fill="none" xmlns="http://www.w3.org/2000/svg">
<path d="M21.4249 69.942H24.2707V72.7879C24.2707 73.1652 24.4206 73.5272 24.6874 73.794C24.9543 74.0609 25.3162 74.2108 25.6936 74.2108H31.3852C31.7626 74.2108 32.1245 74.0609 32.3914 73.794C32.6582 73.5272 32.8081 73.1652 32.8081 72.7879V69.942H35.6539C36.0313 69.942 36.3932 69.7921 36.6601 69.5253C36.9269 69.2584 37.0769 68.8965 37.0769 68.5191V62.8275C37.0769 62.4501 36.9269 62.0882 36.6601 61.8213C36.3932 61.5545 36.0313 61.4046 35.6539 61.4046H32.8081V58.5588C32.8081 58.1814 32.6582 57.8195 32.3914 57.5526C32.1245 57.2858 31.7626 57.1359 31.3852 57.1359H25.6936C25.3162 57.1359 24.9543 57.2858 24.6874 57.5526C24.4206 57.8195 24.2707 58.1814 24.2707 58.5588V61.4046H21.4249C21.0475 61.4046 20.6856 61.5545 20.4187 61.8213C20.1519 62.0882 20.002 62.4501 20.002 62.8275V68.5191C20.002 68.8965 20.1519 69.2584 20.4187 69.5253C20.6856 69.7921 21.0475 69.942 21.4249 69.942ZM22.8478 64.2504H25.6936C26.071 64.2504 26.4329 64.1005 26.6997 63.8336C26.9666 63.5668 27.1165 63.2049 27.1165 62.8275V59.9817H29.9623V62.8275C29.9623 63.2049 30.1122 63.5668 30.3791 63.8336C30.6459 64.1005 31.0078 64.2504 31.3852 64.2504H34.231V67.0962H31.3852C31.0078 67.0962 30.6459 67.2461 30.3791 67.513C30.1122 67.7798 29.9623 68.1418 29.9623 68.5191V71.3649H27.1165V68.5191C27.1165 68.1418 26.9666 67.7798 26.6997 67.513C26.4329 67.2461 26.071 67.0962 25.6936 67.0962H22.8478V64.2504Z" fill="white"/>
<path d="M37.0773 40.0609V37.2151H38.5002C38.8775 37.2151 39.2395 37.0651 39.5063 36.7983C39.7732 36.5314 39.9231 36.1695 39.9231 35.7921V30.1005C39.9197 28.9694 39.4689 27.8856 38.6691 27.0858C37.8692 26.286 36.7854 25.8352 35.6543 25.8318H21.4253C20.2942 25.8352 19.2104 26.286 18.4105 27.0858C17.6107 27.8856 17.1599 28.9694 17.1565 30.1005V35.7921C17.1565 36.1695 17.3064 36.5314 17.5733 36.7983C17.8401 37.0651 18.2021 37.2151 18.5794 37.2151H20.0024V40.0609C17.3616 40.0639 14.8299 41.1142 12.9626 42.9815C11.0954 44.8488 10.045 47.3805 10.042 50.0212V84.171C10.0454 85.3021 10.4962 86.3859 11.296 87.1858C12.0958 87.9856 13.1796 88.4364 14.3107 88.4398H42.7689C43.9 88.4364 44.9838 87.9856 45.7836 87.1858C46.5834 86.3859 47.0342 85.3021 47.0376 84.171V50.0212C47.0346 47.3805 45.9842 44.8488 44.117 42.9815C42.2497 41.1142 39.718 40.0639 37.0773 40.0609ZM20.0024 30.1005C20.0024 29.7231 20.1523 29.3612 20.4191 29.0944C20.686 28.8275 21.0479 28.6776 21.4253 28.6776H35.6543C36.0317 28.6776 36.3936 28.8275 36.6605 29.0944C36.9273 29.3612 37.0773 29.7231 37.0773 30.1005V34.3692H20.0024V30.1005ZM44.1918 84.171C44.1918 84.5484 44.0419 84.9103 43.775 85.1772C43.5082 85.444 43.1463 85.5939 42.7689 85.5939H14.3107C13.9333 85.5939 13.5714 85.444 13.3046 85.1772C13.0377 84.9103 12.8878 84.5484 12.8878 84.171V79.9023H44.1918V84.171ZM44.1918 77.0565H12.8878V54.29H44.1918V77.0565ZM44.1918 51.4441H12.8878V50.0212C12.8878 48.1343 13.6374 46.3247 14.9716 44.9905C16.3058 43.6563 18.1155 42.9067 20.0024 42.9067C20.7564 42.9044 21.479 42.6039 22.0122 42.0707C22.5454 41.5375 22.8459 40.8149 22.8482 40.0609V37.2151H34.2314V40.0609C34.2337 40.8149 34.5342 41.5375 35.0674 42.0707C35.6007 42.6039 36.3232 42.9044 37.0773 42.9067C38.9641 42.9067 40.7738 43.6563 42.108 44.9905C43.4422 46.3247 44.1918 48.1343 44.1918 50.0212V51.4441Z" fill="white"/>
<path d="M74.0723 74.2107C75.0734 74.203 76.0399 73.8436 76.8029 73.1955C77.5659 72.5473 78.0768 71.6516 78.2463 70.665C78.4158 69.6784 78.2332 68.6635 77.7303 67.7979C77.2274 66.9322 76.4363 66.2709 75.4952 65.9294V24.4089C75.4919 23.2778 75.041 22.194 74.2412 21.3942C73.4414 20.5944 72.3576 20.1436 71.2265 20.1402H69.8036V18.7173C69.8002 17.5862 69.3494 16.5024 68.5496 15.7026C67.7498 14.9028 66.666 14.452 65.5349 14.4486V4.48822C65.5349 4.11084 65.385 3.74891 65.1181 3.48207C64.8513 3.21522 64.4894 3.06531 64.112 3.06531C63.7346 3.06531 63.3727 3.21522 63.1058 3.48207C62.839 3.74891 62.6891 4.11084 62.6891 4.48822V14.4486C61.558 14.452 60.4742 14.9028 59.6744 15.7026C58.8746 16.5024 58.4237 17.5862 58.4204 18.7173V20.1402H56.9974C55.8663 20.1436 54.7825 20.5944 53.9827 21.3942C53.1829 22.194 52.7321 23.2778 52.7287 24.4089V65.9294C51.7877 66.2709 50.9965 66.9322 50.4937 67.7979C49.9908 68.6635 49.8081 69.6784 49.9777 70.665C50.1472 71.6516 50.6581 72.5473 51.4211 73.1955C52.1841 73.8436 53.1506 74.203 54.1516 74.2107H58.4204V79.9024H56.9974C55.8653 79.9024 54.7795 80.3521 53.979 81.1526C53.1785 81.9532 52.7287 83.039 52.7287 84.1711C52.7287 85.3032 53.1785 86.389 53.979 87.1895C54.7795 87.9901 55.8653 88.4398 56.9974 88.4398H71.2265C72.3587 88.4398 73.4444 87.9901 74.245 87.1895C75.0455 86.389 75.4952 85.3032 75.4952 84.1711C75.4952 83.039 75.0455 81.9532 74.245 81.1526C73.4444 80.3521 72.3587 79.9024 71.2265 79.9024H69.8036V74.2107H74.0723ZM61.2662 18.7173C61.2662 18.3399 61.4161 17.978 61.6829 17.7112C61.9498 17.4443 62.3117 17.2944 62.6891 17.2944H65.5349C65.9123 17.2944 66.2742 17.4443 66.541 17.7112C66.8079 17.978 66.9578 18.3399 66.9578 18.7173V20.1402H61.2662V18.7173ZM55.5745 24.4089C55.5745 24.0316 55.7245 23.6696 55.9913 23.4028C56.2581 23.1359 56.6201 22.986 56.9974 22.986H71.2265C71.6039 22.986 71.9658 23.1359 72.2327 23.4028C72.4995 23.6696 72.6494 24.0316 72.6494 24.4089V25.8318H68.3807C68.0033 25.8318 67.6414 25.9818 67.3746 26.2486C67.1077 26.5155 66.9578 26.8774 66.9578 27.2548C66.9578 27.6321 67.1077 27.9941 67.3746 28.2609C67.6414 28.5278 68.0033 28.6777 68.3807 28.6777H72.6494V31.5235H65.5349C65.1575 31.5235 64.7956 31.6734 64.5287 31.9402C64.2619 32.2071 64.112 32.569 64.112 32.9464C64.112 33.3238 64.2619 33.6857 64.5287 33.9525C64.7956 34.2194 65.1575 34.3693 65.5349 34.3693H72.6494V37.2151H68.3807C68.0033 37.2151 67.6414 37.365 67.3746 37.6319C67.1077 37.8987 66.9578 38.2606 66.9578 38.638C66.9578 39.0154 67.1077 39.3773 67.3746 39.6442C67.6414 39.911 68.0033 40.0609 68.3807 40.0609H72.6494V42.9067H65.5349C65.1575 42.9067 64.7956 43.0567 64.5287 43.3235C64.2619 43.5904 64.112 43.9523 64.112 44.3297C64.112 44.707 64.2619 45.069 64.5287 45.3358C64.7956 45.6027 65.1575 45.7526 65.5349 45.7526H72.6494V48.5984H68.3807C68.0033 48.5984 67.6414 48.7483 67.3746 49.0151C67.1077 49.282 66.9578 49.6439 66.9578 50.0213C66.9578 50.3987 67.1077 50.7606 67.3746 51.0274C67.6414 51.2943 68.0033 51.4442 68.3807 51.4442H72.6494V54.29H65.5349C65.1575 54.29 64.7956 54.4399 64.5287 54.7068C64.2619 54.9736 64.112 55.3355 64.112 55.7129C64.112 56.0903 64.2619 56.4522 64.5287 56.7191C64.7956 56.9859 65.1575 57.1358 65.5349 57.1358H72.6494V65.6733H55.5745V24.4089ZM71.2265 82.7482C71.6039 82.7482 71.9658 82.8981 72.2327 83.1649C72.4995 83.4318 72.6494 83.7937 72.6494 84.1711C72.6494 84.5485 72.4995 84.9104 72.2327 85.1772C71.9658 85.4441 71.6039 85.594 71.2265 85.594H56.9974C56.6201 85.594 56.2581 85.4441 55.9913 85.1772C55.7245 84.9104 55.5745 84.5485 55.5745 84.1711C55.5745 83.7937 55.7245 83.4318 55.9913 83.1649C56.2581 82.8981 56.6201 82.7482 56.9974 82.7482H71.2265ZM61.2662 79.9024V74.2107H66.9578V79.9024H61.2662ZM54.1516 71.3649C53.7743 71.3649 53.4123 71.215 53.1455 70.9482C52.8786 70.6813 52.7287 70.3194 52.7287 69.942C52.7287 69.5646 52.8786 69.2027 53.1455 68.9359C53.4123 68.669 53.7743 68.5191 54.1516 68.5191H74.0723C74.4497 68.5191 74.8116 68.669 75.0785 68.9359C75.3453 69.2027 75.4952 69.5646 75.4952 69.942C75.4952 70.3194 75.3453 70.6813 75.0785 70.9482C74.8116 71.215 74.4497 71.3649 74.0723 71.3649H54.1516Z" fill="white"/>
</svg>
