<svg viewBox="0 0 19 19" fill="none" xmlns="http://www.w3.org/2000/svg">
<path d="M11.875 6.33325C12.3666 6.70196 12.7656 7.18006 13.0404 7.7297C13.3153 8.27933 13.4583 8.88541 13.4583 9.49992C13.4583 10.1144 13.3153 10.7205 13.0404 11.2701C12.7656 11.8198 12.3666 12.2979 11.875 12.6666" stroke="#4A7CE2" stroke-width="1.83333" stroke-linecap="round" stroke-linejoin="round"/>
<path d="M14.0127 3.95825C14.8392 4.62614 15.5058 5.47043 15.9637 6.4293C16.4217 7.38816 16.6594 8.43731 16.6594 9.49992C16.6594 10.5625 16.4217 11.6117 15.9637 12.5705C15.5058 13.5294 14.8392 14.3737 14.0127 15.0416" stroke="#4A7CE2" stroke-width="1.83333" stroke-linecap="round" stroke-linejoin="round"/>
<path d="M4.75 11.8751H3.16667C2.9567 11.8751 2.75534 11.7916 2.60687 11.6432C2.45841 11.4947 2.375 11.2933 2.375 11.0834V7.91672C2.375 7.70675 2.45841 7.50539 2.60687 7.35692C2.75534 7.20846 2.9567 7.12505 3.16667 7.12505H4.75L7.52083 3.56255C7.59003 3.42815 7.70501 3.32293 7.84501 3.26591C7.98501 3.20888 8.14079 3.20381 8.2842 3.25162C8.42761 3.29942 8.54919 3.39694 8.62697 3.52656C8.70476 3.65618 8.73362 3.80935 8.70833 3.95838V15.0417C8.73362 15.1908 8.70476 15.3439 8.62697 15.4735C8.54919 15.6032 8.42761 15.7007 8.2842 15.7485C8.14079 15.7963 7.98501 15.7912 7.84501 15.7342C7.70501 15.6772 7.59003 15.572 7.52083 15.4376L4.75 11.8751Z" stroke="#4A7CE2" stroke-width="1.83333" stroke-linecap="round" stroke-linejoin="round"/>
</svg>
