<svg width="227" height="159" viewBox="0 0 227 159" fill="none" xmlns="http://www.w3.org/2000/svg">
<path d="M34.0773 129.172C32.4452 135.56 26.7262 139.552 26.7262 139.552C26.7262 139.552 23.6533 133.187 25.2854 126.799C26.9175 120.41 32.6365 116.418 32.6365 116.418C32.6365 116.418 35.7094 122.783 34.0773 129.172Z" fill="#3F3D56"/>
<path d="M31.6022 127.82C27.031 132.462 26.5195 139.549 26.5195 139.549C26.5195 139.549 33.4196 139.109 37.9908 134.467C42.5621 129.825 43.0735 122.738 43.0735 122.738C43.0735 122.738 36.1734 123.178 31.6022 127.82Z" fill="#4A7CE2"/>
<path d="M37.3345 137.682H19.4536C17.4923 137.682 15.9023 139.316 15.9023 141.332V144.959C15.9023 146.975 17.4923 148.609 19.4536 148.609H37.3345C39.2958 148.609 40.8858 146.975 40.8858 144.959V141.332C40.8858 139.316 39.2958 137.682 37.3345 137.682Z" fill="#4A7CE2"/>
<g opacity="0.7">
<path opacity="0.7" d="M209.254 130.701V126.764H190.1V144.975C190.1 145.479 190.196 145.978 190.384 146.444C190.572 146.91 190.847 147.333 191.194 147.689C191.54 148.046 191.952 148.329 192.405 148.522C192.858 148.715 193.344 148.814 193.835 148.814H205.519C206.509 148.814 207.459 148.409 208.16 147.689C208.86 146.97 209.254 145.993 209.254 144.975V140.939C210.573 140.936 211.837 140.396 212.769 139.436C213.701 138.477 214.224 137.176 214.224 135.82C214.224 134.464 213.701 133.164 212.769 132.204C211.837 131.245 210.573 130.704 209.254 130.701ZM209.254 138.97V132.67C210.066 132.67 210.846 133.002 211.421 133.593C211.995 134.184 212.318 134.985 212.318 135.82C212.318 136.656 211.995 137.457 211.421 138.048C210.846 138.638 210.066 138.97 209.254 138.97Z" fill="url(#paint0_linear)"/>
</g>
<path d="M208.637 131.318C207.738 131.318 206.858 131.592 206.111 132.105C205.363 132.619 204.78 133.349 204.436 134.203C204.092 135.057 204.002 135.997 204.177 136.903C204.353 137.81 204.786 138.643 205.422 139.296C206.058 139.95 206.868 140.395 207.75 140.575C208.632 140.756 209.546 140.663 210.377 140.309C211.208 139.955 211.918 139.356 212.418 138.588C212.917 137.819 213.184 136.916 213.184 135.991C213.184 134.752 212.705 133.563 211.852 132.687C210.999 131.81 209.843 131.318 208.637 131.318ZM208.637 138.867C208.083 138.867 207.542 138.699 207.082 138.383C206.622 138.067 206.263 137.618 206.052 137.092C205.84 136.566 205.784 135.988 205.892 135.43C206 134.872 206.267 134.36 206.658 133.958C207.05 133.555 207.548 133.282 208.091 133.171C208.634 133.06 209.196 133.117 209.708 133.334C210.219 133.552 210.656 133.921 210.963 134.394C211.271 134.866 211.435 135.423 211.435 135.991C211.435 136.754 211.14 137.486 210.615 138.025C210.091 138.564 209.379 138.867 208.637 138.867Z" fill="#4A7CE2"/>
<path opacity="0.1" d="M208.637 131.318C207.738 131.318 206.858 131.592 206.111 132.105C205.363 132.619 204.78 133.349 204.436 134.203C204.092 135.057 204.002 135.997 204.177 136.903C204.353 137.81 204.786 138.643 205.422 139.296C206.058 139.95 206.868 140.395 207.75 140.575C208.632 140.756 209.546 140.663 210.377 140.309C211.208 139.955 211.918 139.356 212.418 138.588C212.917 137.819 213.184 136.916 213.184 135.991C213.184 134.752 212.705 133.563 211.852 132.687C210.999 131.81 209.843 131.318 208.637 131.318ZM208.637 138.867C208.083 138.867 207.542 138.699 207.082 138.383C206.622 138.067 206.263 137.618 206.052 137.092C205.84 136.566 205.784 135.988 205.892 135.43C206 134.872 206.267 134.36 206.658 133.958C207.05 133.555 207.548 133.282 208.091 133.171C208.634 133.06 209.196 133.117 209.708 133.334C210.219 133.552 210.656 133.921 210.963 134.394C211.271 134.866 211.435 135.423 211.435 135.991C211.435 136.754 211.14 137.486 210.615 138.025C210.091 138.564 209.379 138.867 208.637 138.867Z" fill="black"/>
<path d="M191.148 127.723H208.637V145.513C208.637 146.135 208.397 146.73 207.97 147.169C207.542 147.608 206.963 147.855 206.359 147.855H193.427C192.823 147.855 192.243 147.608 191.816 147.169C191.388 146.73 191.148 146.135 191.148 145.513V127.723Z" fill="#4A7CE2"/>
<path d="M227 147.855H0V155.764H227V147.855Z" fill="#E0E0E0"/>
<g opacity="0.7">
<path opacity="0.7" d="M149.311 94.9352C146.878 85.8583 133.085 79.23 122.707 77.7603C122.708 77.6934 122.712 77.627 122.712 77.5596V69.7897C122.723 69.7856 122.734 69.7821 122.745 69.7779V69.4834C126.428 68.0755 129.752 65.8253 132.465 62.903C135.177 59.9807 137.208 56.4627 138.404 52.6151C139.045 51.4231 139.603 50.1858 140.074 48.9125C141.182 48.4979 142.019 46.6201 142.019 44.3638C142.023 43.592 141.918 42.8237 141.706 42.0832C141.842 40.934 141.912 39.7776 141.914 38.62C141.918 34.5732 141.095 30.5707 139.497 26.8723C137.899 23.1738 135.562 19.8621 132.638 17.152C132.725 16.6871 132.754 16.2129 132.726 15.7404C132.491 12.0111 128.616 9.47747 124.984 9.30801C125.943 8.18929 126.574 6.81363 126.803 5.34098C127.031 3.86833 126.849 2.35917 126.276 0.98895C123.96 4.457 119.205 4.82565 115.113 4.85292C116.879 4.15003 117.674 1.63518 116.647 0C112.369 5.89257 104.032 6.98373 98.9444 12.1517C97.8361 13.282 96.9073 14.5842 96.1918 16.0106C92.8857 18.7177 90.2164 22.1567 88.3829 26.0713C86.5493 29.9859 85.5987 34.2753 85.6018 38.62C85.6041 39.7671 85.6722 40.9131 85.8057 42.052C85.5876 42.8019 85.4789 43.581 85.4832 44.3638C85.4832 46.6305 86.3278 48.5141 87.4432 48.9171C87.9162 50.1947 88.4771 51.4361 89.1216 52.6319C90.3129 56.4572 92.3303 59.9562 95.0229 62.867C97.7155 65.7779 101.014 68.0252 104.671 69.441V77.5596C104.671 77.6222 104.674 77.6838 104.675 77.746C94.2577 79.1905 80.3546 85.8709 77.9433 95.0208C75.861 102.922 73.6382 111.6 72.5322 116.695C82.012 123.541 101.903 127.562 114.369 127.562C126.214 127.562 145.573 123.933 154.773 117.699C153.777 112.101 151.484 103.042 149.311 94.9352Z" fill="url(#paint1_linear)"/>
</g>
<path d="M114.343 125.308C125.769 125.308 144.444 121.808 153.319 115.794C152.358 110.393 150.146 101.655 148.05 93.8343C145.38 83.8745 128.532 76.9697 118.481 76.9697H108.795C98.7132 76.9697 81.8402 83.9145 79.2043 93.9169C77.1955 101.539 75.0513 109.91 73.9844 114.825C83.1291 121.43 102.318 125.308 114.343 125.308Z" fill="#4A7CE2"/>
<path d="M113.754 67.4268C128.755 67.4268 140.915 54.9276 140.915 39.5091C140.915 24.0906 128.755 11.5914 113.754 11.5914C98.7533 11.5914 86.5928 24.0906 86.5928 39.5091C86.5928 54.9276 98.7533 67.4268 113.754 67.4268Z" fill="#72351C"/>
<path opacity="0.1" d="M104.987 62.762H122.391V77.0727C122.391 79.4449 121.474 81.7199 119.842 83.3972C118.21 85.0746 115.997 86.0169 113.689 86.0169H113.689C111.381 86.0169 109.168 85.0746 107.536 83.3972C105.904 81.7199 104.987 79.4449 104.987 77.0727V62.762H104.987Z" fill="black"/>
<path d="M107.484 62.0995H119.895C120.557 62.0995 121.192 62.3698 121.66 62.851C122.128 63.3322 122.391 63.9848 122.391 64.6653V76.4102C122.391 78.7823 121.474 81.0573 119.842 82.7347C118.21 84.412 115.997 85.3544 113.689 85.3544H113.689C111.381 85.3544 109.168 84.412 107.536 82.7347C105.904 81.0573 104.987 78.7823 104.987 76.4102V64.6653C104.987 63.9848 105.25 63.3322 105.718 62.851C106.187 62.3698 106.822 62.0995 107.484 62.0995Z" fill="#FDA57D"/>
<path opacity="0.1" d="M105.02 69.5165C110.629 71.6706 116.803 71.6882 122.423 69.566V67.3685H105.02V69.5165Z" fill="black"/>
<path d="M113.754 70.7143C127.531 70.7143 138.699 59.2349 138.699 45.0743C138.699 30.9137 127.531 19.4343 113.754 19.4343C99.977 19.4343 88.8086 30.9137 88.8086 45.0743C88.8086 59.2349 99.977 70.7143 113.754 70.7143Z" fill="#FDA57D"/>
<path opacity="0.1" d="M95.9854 21.752C95.9854 21.752 106.498 43.6859 136.154 30.9449L129.25 19.8166L117.011 15.3008L95.9854 21.752Z" fill="black"/>
<path d="M95.9854 21.4294C95.9854 21.4294 106.498 43.3634 136.154 30.6224L129.25 19.4941L117.011 14.9783L95.9854 21.4294Z" fill="#72351C"/>
<path d="M95.8918 19.9476C96.6004 17.692 97.8253 15.6441 99.4636 13.9761C104.371 8.99073 112.414 7.93815 116.54 2.25378C117.531 3.83119 116.764 6.25718 115.061 6.93523C119.009 6.90891 123.595 6.5533 125.829 3.20779C126.382 4.52959 126.558 5.98543 126.337 7.40604C126.117 8.82666 125.508 10.1537 124.583 11.2329C128.086 11.3964 131.825 13.8404 132.051 17.438C132.202 19.8347 130.74 22.1039 128.824 23.4784C126.908 24.8528 124.589 25.4838 122.308 26.0009C115.647 27.5104 91.5453 33.8373 95.8918 19.9476Z" fill="#72351C"/>
<path d="M138.699 45.2988H138.037L125.171 57.0721C112.775 51.1048 103.674 57.0721 103.674 57.0721L90.18 45.7826L88.8193 45.9583C89.0038 52.6877 91.7558 59.0725 96.4811 63.7341C101.206 68.3957 107.526 70.9601 114.075 70.8735C120.624 70.7869 126.877 68.0563 131.484 63.2713C136.091 58.4863 138.683 52.0308 138.699 45.2988ZM113.716 61.588C108.864 61.588 104.929 60.5771 104.929 59.3301C104.929 58.0831 108.864 57.0721 113.716 57.0721C118.569 57.0721 122.503 58.0831 122.503 59.3301C122.503 60.5771 118.569 61.588 113.716 61.588Z" fill="#72351C"/>
<path d="M88.799 49.522C90.0806 49.522 91.1195 47.5198 91.1195 45.0499C91.1195 42.58 90.0806 40.5778 88.799 40.5778C87.5174 40.5778 86.4785 42.58 86.4785 45.0499C86.4785 47.5198 87.5174 49.522 88.799 49.522Z" fill="#FDA57D"/>
<path d="M138.695 49.522C139.977 49.522 141.016 47.5198 141.016 45.0499C141.016 42.58 139.977 40.5778 138.695 40.5778C137.414 40.5778 136.375 42.58 136.375 45.0499C136.375 47.5198 137.414 49.522 138.695 49.522Z" fill="#FDA57D"/>
<g opacity="0.7">
<path opacity="0.7" d="M158.379 90.7175H68.6197C66.7484 90.7175 65.2314 92.2768 65.2314 94.2002V144.373C65.2314 146.296 66.7484 147.855 68.6197 147.855H158.379C160.251 147.855 161.768 146.296 161.768 144.373V94.2002C161.768 92.2768 160.251 90.7175 158.379 90.7175Z" fill="url(#paint2_linear)"/>
</g>
<path d="M153.748 91.7717H73.2511C69.7879 91.7717 66.9805 94.6573 66.9805 98.2169V141.41C66.9805 144.97 69.7879 147.855 73.2511 147.855H153.748C157.212 147.855 160.019 144.97 160.019 141.41V98.2169C160.019 94.6573 157.212 91.7717 153.748 91.7717Z" fill="#535461"/>
<path d="M113.5 123.049C115.239 123.049 116.648 121.6 116.648 119.813C116.648 118.026 115.239 116.578 113.5 116.578C111.762 116.578 110.353 118.026 110.353 119.813C110.353 121.6 111.762 123.049 113.5 123.049Z" fill="white"/>
<path d="M217.381 155.764H9.61816V159H217.381V155.764Z" fill="#E0E0E0"/>
<path opacity="0.1" d="M217.381 155.764H9.61816V156.843H217.381V155.764Z" fill="black"/>
<path opacity="0.1" d="M205.489 127.723V144.35C205.489 145.28 205.13 146.171 204.49 146.829C203.851 147.486 202.984 147.855 202.079 147.855H203.828C204.732 147.855 205.6 147.486 206.239 146.829C206.879 146.171 207.238 145.28 207.238 144.35V127.723H205.489Z" fill="black"/>
<path d="M194.6 114.321C194.305 114.373 193.972 114.455 193.827 114.724C193.598 115.152 194.014 115.634 194.393 115.928C195.094 116.47 195.833 117.003 196.309 117.761C196.785 118.518 196.935 119.575 196.414 120.301C195.734 121.248 194.112 121.452 193.955 122.619C193.854 123.368 194.484 124.007 195.122 124.382C196.698 125.31 198.728 125.557 199.869 127.009C200.341 126.011 201.397 125.434 202.45 125.188C203.502 124.942 204.595 124.96 205.662 124.793C206.007 124.739 206.395 124.631 206.549 124.31C206.847 123.688 205.997 122.941 206.291 122.317C206.514 121.841 207.17 121.878 207.649 121.688C208.429 121.378 208.751 120.346 208.529 119.517C208.308 118.688 207.682 118.04 207.025 117.509C205.253 116.078 203.122 115.236 200.966 114.631C199.964 114.349 198.787 113.908 197.746 113.865C196.741 113.824 195.595 114.146 194.6 114.321Z" fill="#EEEEEE"/>
<defs>
<linearGradient id="paint0_linear" x1="202.167" y1="148.814" x2="202.167" y2="126.764" gradientUnits="userSpaceOnUse">
<stop stop-color="#808080" stop-opacity="0.25"/>
<stop offset="0.53514" stop-color="#808080" stop-opacity="0.12"/>
<stop offset="1" stop-color="#808080" stop-opacity="0.1"/>
</linearGradient>
<linearGradient id="paint1_linear" x1="49470.7" y1="82928.4" x2="49470.7" y2="15179.8" gradientUnits="userSpaceOnUse">
<stop stop-color="#808080" stop-opacity="0.25"/>
<stop offset="0.53514" stop-color="#808080" stop-opacity="0.12"/>
<stop offset="1" stop-color="#808080" stop-opacity="0.1"/>
</linearGradient>
<linearGradient id="paint2_linear" x1="46954.8" y1="35264.6" x2="46954.8" y2="21671.9" gradientUnits="userSpaceOnUse">
<stop stop-color="#808080" stop-opacity="0.25"/>
<stop offset="0.53514" stop-color="#808080" stop-opacity="0.12"/>
<stop offset="1" stop-color="#808080" stop-opacity="0.1"/>
</linearGradient>
</defs>
</svg>
